<svg width="505" height="88" viewBox="0 0 505 88" fill="none" xmlns="http://www.w3.org/2000/svg">
<mask id="path-1-inside-1_219_25960" fill="white">
<path fill-rule="evenodd" clip-rule="evenodd" d="M59.6807 0.435547H0.980957V51.7734H11V87.6406H504.625V23.4316H59.6807V0.435547Z"/>
</mask>
<path fill-rule="evenodd" clip-rule="evenodd" d="M59.6807 0.435547H0.980957V51.7734H11V87.6406H504.625V23.4316H59.6807V0.435547Z" fill="white"/>
<path d="M0.980957 0.435547V-4.56445H-4.01904V0.435547H0.980957ZM59.6807 0.435547H64.6807V-4.56445H59.6807V0.435547ZM0.980957 51.7734H-4.01904V56.7734H0.980957V51.7734ZM11 51.7734H16V46.7734H11V51.7734ZM11 87.6406H6V92.6406H11V87.6406ZM504.625 87.6406V92.6406H509.625V87.6406H504.625ZM504.625 23.4316H509.625V18.4316H504.625V23.4316ZM59.6807 23.4316H54.6807V28.4316H59.6807V23.4316ZM0.980957 5.43555H59.6807V-4.56445H0.980957V5.43555ZM5.98096 51.7734V0.435547H-4.01904V51.7734H5.98096ZM11 46.7734H0.980957V56.7734H11V46.7734ZM16 87.6406V51.7734H6V87.6406H16ZM504.625 82.6406H11V92.6406H504.625V82.6406ZM499.625 23.4316V87.6406H509.625V23.4316H499.625ZM59.6807 28.4316H504.625V18.4316H59.6807V28.4316ZM54.6807 0.435547V23.4316H64.6807V0.435547H54.6807Z" fill="black" mask="url(#path-1-inside-1_219_25960)"/>
</svg>
