<svg width="517" height="104" viewBox="0 0 517 104" fill="none" xmlns="http://www.w3.org/2000/svg">
<mask id="path-1-inside-1_434_298537" fill="white">
<path fill-rule="evenodd" clip-rule="evenodd" d="M50.9985 0.136719H0.988525V51.4746H21V103.723H516.674V23.1328H50.9985V0.136719Z"/>
</mask>
<path fill-rule="evenodd" clip-rule="evenodd" d="M50.9985 0.136719H0.988525V51.4746H21V103.723H516.674V23.1328H50.9985V0.136719Z" fill="white"/>
<path d="M0.988525 0.136719V-2.86328H-2.01147V0.136719H0.988525ZM50.9985 0.136719H53.9985V-2.86328H50.9985V0.136719ZM0.988525 51.4746H-2.01147V54.4746H0.988525V51.4746ZM21 51.4746H24V48.4746H21V51.4746ZM21 103.723H18V106.723H21V103.723ZM516.674 103.723V106.723H519.674V103.723H516.674ZM516.674 23.1328H519.674V20.1328H516.674V23.1328ZM50.9985 23.1328H47.9985V26.1328H50.9985V23.1328ZM0.988525 3.13672H50.9985V-2.86328H0.988525V3.13672ZM3.98853 51.4746V0.136719H-2.01147V51.4746H3.98853ZM21 48.4746H0.988525V54.4746H21V48.4746ZM24 103.723V51.4746H18V103.723H24ZM516.674 100.723H21V106.723H516.674V100.723ZM513.674 23.1328V103.723H519.674V23.1328H513.674ZM50.9985 26.1328H516.674V20.1328H50.9985V26.1328ZM47.9985 0.136719V23.1328H53.9985V0.136719H47.9985Z" fill="black" mask="url(#path-1-inside-1_434_298537)"/>
<path d="M47.3173 74.9842C45.708 74.9842 44.3933 74.5535 43.3733 73.6922L44.5293 70.5982C45.2546 71.2555 46.0706 71.5842 46.9773 71.5842C47.612 71.5842 48.1333 71.4142 48.5413 71.0742C48.9493 70.7342 49.3346 70.1788 49.6973 69.4082L50.0713 68.3202L43.2033 51.8982H47.3853L52.1113 63.9342L56.8373 51.8982H60.9853L53.0973 70.9042C52.508 72.3095 51.76 73.3408 50.8533 73.9982C49.9466 74.6555 48.768 74.9842 47.3173 74.9842ZM83.0678 74.5762H79.3278V58.9362L73.8198 74.5762H72.3578L66.9178 58.9362V74.5762H63.1438V51.8982H68.2438L73.1058 65.7022L78.0018 51.8982H83.0678V74.5762ZM103.226 74.5762H99.4521V64.5802H91.1561V74.5762H87.3821V51.8982H91.1561V61.2482H99.4521V51.8982H103.226V74.5762ZM107.536 51.8982H111.31V60.4662H115.254C117.385 60.4662 119.028 61.1462 120.184 62.5062C121.363 63.8435 121.952 65.5095 121.952 67.5042C121.952 69.5215 121.363 71.2102 120.184 72.5702C119.028 73.9075 117.385 74.5762 115.254 74.5762H107.536V51.8982ZM114.812 63.7642H111.31V71.2442H114.812C115.81 71.2442 116.603 70.9042 117.192 70.2242C117.804 69.5442 118.11 68.6375 118.11 67.5042C118.11 66.3935 117.804 65.4982 117.192 64.8182C116.603 64.1155 115.81 63.7642 114.812 63.7642ZM127.732 74.5762H123.958V51.8982H127.732V74.5762ZM135.677 74.5762H132.073V51.8982H135.847V66.6542L144.041 51.8982H147.849V74.5762H144.109V59.4122L135.677 74.5762ZM145.027 47.9542C143.781 49.6542 142.092 50.5042 139.961 50.5042C137.876 50.5042 136.187 49.6542 134.895 47.9542L136.493 46.6622C137.332 47.8635 138.488 48.4642 139.961 48.4642C141.435 48.4642 142.591 47.8635 143.429 46.6622L145.027 47.9542ZM167.798 74.9842C164.987 74.9842 162.743 73.8962 161.066 71.7202C159.388 69.5215 158.55 66.6995 158.55 63.2542C158.55 59.7862 159.388 56.9642 161.066 54.7882C162.743 52.6122 164.987 51.5242 167.798 51.5242C170.994 51.5242 173.385 53.1902 174.972 56.5222L171.844 57.9162C170.96 55.8762 169.611 54.8562 167.798 54.8562C166.166 54.8562 164.851 55.6382 163.854 57.2022C162.879 58.7662 162.392 60.7835 162.392 63.2542C162.392 65.7022 162.879 67.7082 163.854 69.2722C164.851 70.8362 166.166 71.6182 167.798 71.6182C168.75 71.6182 169.566 71.3122 170.246 70.7002C170.948 70.0882 171.492 69.2835 171.878 68.2862L175.006 69.6802C173.464 73.2162 171.062 74.9842 167.798 74.9842ZM193.837 74.5762H190.063V55.1962H181.767V74.5762H177.993V51.8982H193.837V74.5762ZM201.922 74.5762H198.148V51.8982H205.866C207.996 51.8982 209.64 52.5782 210.796 53.9382C211.974 55.2755 212.564 56.9415 212.564 58.9362C212.564 60.9535 211.974 62.6422 210.796 64.0022C209.64 65.3395 207.996 66.0082 205.866 66.0082H201.922V74.5762ZM205.424 62.6762C206.421 62.6762 207.214 62.3362 207.804 61.6562C208.416 60.9762 208.722 60.0695 208.722 58.9362C208.722 57.8028 208.416 56.8962 207.804 56.2162C207.214 55.5362 206.421 55.1962 205.424 55.1962H201.922V62.6762H205.424ZM227.989 74.5762H215.579V51.8982H227.989V55.1962H219.353V61.3502H227.751V64.6822H219.353V71.2442H227.989V74.5762ZM235.22 74.5762H231.616V51.8982H235.39V66.6542L243.584 51.8982H247.392V74.5762H243.652V59.4122L235.22 74.5762ZM244.57 47.9542C243.324 49.6542 241.635 50.5042 239.504 50.5042C237.419 50.5042 235.73 49.6542 234.438 47.9542L236.036 46.6622C236.875 47.8635 238.031 48.4642 239.504 48.4642C240.978 48.4642 242.134 47.8635 242.972 46.6622L244.57 47.9542ZM267.783 74.5762H258.943V51.8982H267.511C269.369 51.8982 270.809 52.4422 271.829 53.5302C272.849 54.6182 273.359 56.0008 273.359 57.6782C273.359 59.0608 273.019 60.2055 272.339 61.1122C271.681 61.9962 270.831 62.5855 269.789 62.8802C270.899 63.0388 271.829 63.6622 272.577 64.7502C273.347 65.8155 273.733 67.0508 273.733 68.4562C273.733 70.2922 273.223 71.7768 272.203 72.9102C271.183 74.0208 269.709 74.5762 267.783 74.5762ZM266.695 61.3502C267.624 61.3502 268.315 61.0782 268.769 60.5342C269.245 59.9675 269.483 59.2195 269.483 58.2902C269.483 57.3608 269.245 56.6128 268.769 56.0462C268.293 55.4795 267.601 55.1962 266.695 55.1962H262.717V61.3502H266.695ZM266.831 71.2442C267.828 71.2442 268.576 70.9608 269.075 70.3942C269.596 69.8048 269.857 68.9888 269.857 67.9462C269.857 66.9942 269.596 66.2122 269.075 65.6002C268.553 64.9882 267.805 64.6822 266.831 64.6822H262.717V71.2442H266.831ZM297.228 74.5762H293.488V58.9362L287.98 74.5762H286.518L281.078 58.9362V74.5762H277.304V51.8982H282.404L287.266 65.7022L292.162 51.8982H297.228V74.5762ZM313.952 74.5762H301.542V51.8982H313.952V55.1962H305.316V61.3502H313.714V64.6822H305.316V71.2442H313.952V74.5762ZM325.977 74.9842C323.167 74.9842 320.923 73.8962 319.245 71.7202C317.568 69.5215 316.729 66.6995 316.729 63.2542C316.729 59.7862 317.568 56.9642 319.245 54.7882C320.923 52.6122 323.167 51.5242 325.977 51.5242C329.173 51.5242 331.565 53.1902 333.151 56.5222L330.023 57.9162C329.139 55.8762 327.791 54.8562 325.977 54.8562C324.345 54.8562 323.031 55.6382 322.033 57.2022C321.059 58.7662 320.571 60.7835 320.571 63.2542C320.571 65.7022 321.059 67.7082 322.033 69.2722C323.031 70.8362 324.345 71.6182 325.977 71.6182C326.929 71.6182 327.745 71.3122 328.425 70.7002C329.128 70.0882 329.672 69.2835 330.057 68.2862L333.185 69.6802C331.644 73.2162 329.241 74.9842 325.977 74.9842ZM343.721 74.5762H339.981V55.1962H334.779V51.8982H348.923V55.1962H343.721V74.5762ZM366.138 71.6862C364.529 73.8848 362.319 74.9842 359.508 74.9842C356.698 74.9842 354.476 73.8848 352.844 71.6862C351.235 69.4875 350.43 66.6768 350.43 63.2542C350.43 59.8315 351.235 57.0208 352.844 54.8222C354.476 52.6235 356.698 51.5242 359.508 51.5242C362.319 51.5242 364.529 52.6235 366.138 54.8222C367.77 57.0208 368.586 59.8315 368.586 63.2542C368.586 66.6768 367.77 69.4875 366.138 71.6862ZM359.508 71.6182C361.14 71.6182 362.421 70.8362 363.35 69.2722C364.28 67.6855 364.744 65.6795 364.744 63.2542C364.744 60.8062 364.28 58.8002 363.35 57.2362C362.421 55.6495 361.14 54.8562 359.508 54.8562C357.854 54.8562 356.562 55.6382 355.632 57.2022C354.726 58.7662 354.272 60.7835 354.272 63.2542C354.272 65.7022 354.726 67.7082 355.632 69.2722C356.562 70.8362 357.854 71.6182 359.508 71.6182ZM387.702 74.9842C384.891 74.9842 382.647 73.8962 380.97 71.7202C379.293 69.5215 378.454 66.6995 378.454 63.2542C378.454 59.7862 379.293 56.9642 380.97 54.7882C382.647 52.6122 384.891 51.5242 387.702 51.5242C390.898 51.5242 393.289 53.1902 394.876 56.5222L391.748 57.9162C390.864 55.8762 389.515 54.8562 387.702 54.8562C386.07 54.8562 384.755 55.6382 383.758 57.2022C382.783 58.7662 382.296 60.7835 382.296 63.2542C382.296 65.7022 382.783 67.7082 383.758 69.2722C384.755 70.8362 386.07 71.6182 387.702 71.6182C388.654 71.6182 389.47 71.3122 390.15 70.7002C390.853 70.0882 391.397 69.2835 391.782 68.2862L394.91 69.6802C393.369 73.2162 390.966 74.9842 387.702 74.9842ZM405.446 74.5762H401.706V55.1962H396.504V51.8982H410.648V55.1962H405.446V74.5762ZM417.207 74.5762H413.603V51.8982H417.377V66.6542L425.571 51.8982H429.379V74.5762H425.639V59.4122L417.207 74.5762ZM437.498 74.5762H433.724V51.8982H441.442C443.573 51.8982 445.216 52.5782 446.372 53.9382C447.551 55.2755 448.14 56.9415 448.14 58.9362C448.14 60.9535 447.551 62.6422 446.372 64.0022C445.216 65.3395 443.573 66.0082 441.442 66.0082H437.498V74.5762ZM441 62.6762C441.997 62.6762 442.791 62.3362 443.38 61.6562C443.992 60.9762 444.298 60.0695 444.298 58.9362C444.298 57.8028 443.992 56.8962 443.38 56.2162C442.791 55.5362 441.997 55.1962 441 55.1962H437.498V62.6762H441ZM466.931 74.5762H462.477L456.629 65.2262L454.929 67.8102V74.5762H451.155V51.8982H454.929V62.8122L461.967 51.8982H466.387L458.975 62.6082L466.931 74.5762ZM472.955 74.5762H469.351V51.8982H473.125V66.6542L481.319 51.8982H485.127V74.5762H481.387V59.4122L472.955 74.5762Z" fill="black"/>
<path d="M26.0295 37.2168H22.2895V19.4348L18.8215 23.0728L16.6115 20.7608L22.7655 14.5388H26.0295V37.2168Z" fill="black"/>
</svg>
