<svg width="284" height="120" viewBox="0 0 284 120" fill="none" xmlns="http://www.w3.org/2000/svg">
<path fill-rule="evenodd" clip-rule="evenodd" d="M50.3618 0.257812H0.351807V51.5957H14.3494V119.367H283.553V23.2539H50.3618V0.257812Z" fill="white"/>
<path fill-rule="evenodd" clip-rule="evenodd" d="M14.3494 51.5957V119.367H283.553V23.2539H50.3618V0.257812H0.351807V51.5957H14.3494ZM3.35181 48.5957H17.3494V116.367H280.553V26.2539H47.3618V3.25781H3.35181V48.5957Z" fill="black"/>
<path d="M254.991 102.381H242.581V79.7031H254.991V83.0011H246.355V89.1551H254.753V92.4871H246.355V99.0491H254.991V102.381Z" fill="black"/>
<path d="M226.063 102.381H222.459V79.7031H226.233V94.4591L234.427 79.7031H238.235V102.381H234.495V87.2171L226.063 102.381Z" fill="black"/>
<path d="M218.149 102.381H214.375V92.3851H206.079V102.381H202.305V79.7031H206.079V89.0531H214.375V79.7031H218.149V102.381Z" fill="black"/>
<path d="M200.023 102.381H195.943L194.719 97.8931H187.273L186.049 102.381H181.969L188.735 79.7031H193.257L200.023 102.381ZM193.971 94.5611L191.013 83.7151L188.055 94.5611H193.971Z" fill="black"/>
<path d="M174.555 102.381H165.715V79.7031H174.283C176.142 79.7031 177.581 80.2471 178.601 81.3351C179.621 82.4231 180.131 83.8058 180.131 85.4831C180.131 86.8658 179.791 88.0105 179.111 88.9171C178.454 89.8011 177.604 90.3905 176.561 90.6851C177.672 90.8438 178.601 91.4671 179.349 92.5551C180.12 93.6205 180.505 94.8558 180.505 96.2611C180.505 98.0971 179.995 99.5818 178.975 100.715C177.955 101.826 176.482 102.381 174.555 102.381ZM173.467 89.1551C174.397 89.1551 175.088 88.8831 175.541 88.3391C176.017 87.7725 176.255 87.0245 176.255 86.0951C176.255 85.1658 176.017 84.4178 175.541 83.8511C175.065 83.2845 174.374 83.0011 173.467 83.0011H169.489V89.1551H173.467ZM173.603 99.0491C174.601 99.0491 175.349 98.7658 175.847 98.1991C176.369 97.6098 176.629 96.7938 176.629 95.7511C176.629 94.7991 176.369 94.0171 175.847 93.4051C175.326 92.7931 174.578 92.4871 173.603 92.4871H169.489V99.0491H173.603Z" fill="black"/>
<path d="M149.198 102.381H145.594V79.7031H149.368V94.4591L157.562 79.7031H161.37V102.381H157.63V87.2171L149.198 102.381Z" fill="black"/>
<path d="M137.514 79.7031H141.254V102.381H118.202V79.7031H121.942V99.0491H127.858V79.7031H131.598V99.0491H137.514V79.7031Z" fill="black"/>
<path d="M115.919 102.381H111.839L110.615 97.8931H103.169L101.945 102.381H97.865L104.631 79.7031H109.153L115.919 102.381ZM109.867 94.5611L106.909 83.7151L103.951 94.5611H109.867Z" fill="black"/>
<path d="M88.0421 102.381H84.2681V79.7031H91.9861C94.1167 79.7031 95.7601 80.3831 96.9161 81.7431C98.0947 83.0805 98.6841 84.7465 98.6841 86.7411C98.6841 88.7585 98.0947 90.4471 96.9161 91.8071C95.7601 93.1445 94.1167 93.8131 91.9861 93.8131H88.0421V102.381ZM91.5441 90.4811C92.5414 90.4811 93.3347 90.1411 93.9241 89.4611C94.5361 88.7811 94.8421 87.8745 94.8421 86.7411C94.8421 85.6078 94.5361 84.7011 93.9241 84.0211C93.3347 83.3411 92.5414 83.0011 91.5441 83.0011H88.0421V90.4811H91.5441Z" fill="black"/>
<path d="M81.8488 102.381H77.3948L71.5468 93.0311L69.8468 95.6151V102.381H66.0728V79.7031H69.8468V90.6171L76.8848 79.7031H81.3048L73.8928 90.4131L81.8488 102.381Z" fill="black"/>
<path d="M60.1123 99.4921C58.503 101.691 56.293 102.79 53.4823 102.79C50.6716 102.79 48.4503 101.691 46.8183 99.4921C45.209 97.2934 44.4043 94.4827 44.4043 91.0601C44.4043 87.6374 45.209 84.8267 46.8183 82.6281C48.4503 80.4294 50.6716 79.3301 53.4823 79.3301C56.293 79.3301 58.503 80.4294 60.1123 82.6281C61.7443 84.8267 62.5603 87.6374 62.5603 91.0601C62.5603 94.4827 61.7443 97.2934 60.1123 99.4921ZM53.4823 99.4241C55.1143 99.4241 56.395 98.6421 57.3243 97.0781C58.2536 95.4914 58.7183 93.4854 58.7183 91.0601C58.7183 88.6121 58.2536 86.6061 57.3243 85.0421C56.395 83.4554 55.1143 82.6621 53.4823 82.6621C51.8276 82.6621 50.5356 83.4441 49.6063 85.0081C48.6996 86.5721 48.2463 88.5894 48.2463 91.0601C48.2463 93.5081 48.6996 95.5141 49.6063 97.0781C50.5356 98.6421 51.8276 99.4241 53.4823 99.4241Z" fill="black"/>
<path d="M253.164 66.3811H240.754V43.7031H253.164V47.0011H244.528V53.1551H252.926V56.4871H244.528V63.0491H253.164V66.3811Z" fill="black"/>
<path d="M234.794 63.4921C233.185 65.6907 230.975 66.7901 228.164 66.7901C225.353 66.7901 223.132 65.6907 221.5 63.4921C219.891 61.2934 219.086 58.4827 219.086 55.0601C219.086 51.6374 219.891 48.8267 221.5 46.6281C223.132 44.4294 225.353 43.3301 228.164 43.3301C230.975 43.3301 233.185 44.4294 234.794 46.6281C236.426 48.8267 237.242 51.6374 237.242 55.0601C237.242 58.4827 236.426 61.2934 234.794 63.4921ZM228.164 63.4241C229.796 63.4241 231.077 62.6421 232.006 61.0781C232.935 59.4914 233.4 57.4854 233.4 55.0601C233.4 52.6121 232.935 50.6061 232.006 49.0421C231.077 47.4554 229.796 46.6621 228.164 46.6621C226.509 46.6621 225.217 47.4441 224.288 49.0081C223.381 50.5721 222.928 52.5894 222.928 55.0601C222.928 57.5081 223.381 59.5141 224.288 61.0781C225.217 62.6421 226.509 63.4241 228.164 63.4241Z" fill="black"/>
<path d="M215.626 66.3811H211.852V56.3851H203.556V66.3811H199.782V43.7031H203.556V53.0531H211.852V43.7031H215.626V66.3811Z" fill="black"/>
<path d="M190.26 66.3811H181.42V43.7031H189.988C191.847 43.7031 193.286 44.2471 194.306 45.3351C195.326 46.4231 195.836 47.8058 195.836 49.4831C195.836 50.8658 195.496 52.0105 194.816 52.9171C194.159 53.8011 193.309 54.3905 192.266 54.6851C193.377 54.8438 194.306 55.4671 195.054 56.5551C195.825 57.6205 196.21 58.8558 196.21 60.2611C196.21 62.0971 195.7 63.5818 194.68 64.7151C193.66 65.8258 192.187 66.3811 190.26 66.3811ZM189.172 53.1551C190.102 53.1551 190.793 52.8831 191.246 52.3391C191.722 51.7725 191.96 51.0245 191.96 50.0951C191.96 49.1658 191.722 48.4178 191.246 47.8511C190.77 47.2845 190.079 47.0011 189.172 47.0011H185.194V53.1551H189.172ZM189.308 63.0491C190.306 63.0491 191.054 62.7658 191.552 62.1991C192.074 61.6098 192.334 60.7938 192.334 59.7511C192.334 58.7991 192.074 58.0171 191.552 57.4051C191.031 56.7931 190.283 56.4871 189.308 56.4871H185.194V63.0491H189.308Z" fill="black"/>
<path d="M164.903 66.3811H161.299V43.7031H165.073V58.4591L173.267 43.7031H177.075V66.3811H173.335V51.2171L164.903 66.3811Z" fill="black"/>
<path d="M153.142 66.3811H149.402V47.0011H144.2V43.7031H158.344V47.0011H153.142V66.3811Z" fill="black"/>
<path d="M144.905 66.3811H140.825L139.601 61.8931H132.155L130.931 66.3811H126.851L133.617 43.7031H138.139L144.905 66.3811ZM138.853 58.5611L135.895 47.7151L132.937 58.5611H138.853Z" fill="black"/>
<path d="M117.028 66.3811H113.254V43.7031H120.972C123.103 43.7031 124.746 44.3831 125.902 45.7431C127.081 47.0805 127.67 48.7465 127.67 50.7411C127.67 52.7585 127.081 54.4471 125.902 55.8071C124.746 57.1445 123.103 57.8131 120.972 57.8131H117.028V66.3811ZM120.53 54.4811C121.528 54.4811 122.321 54.1411 122.91 53.4611C123.522 52.7811 123.828 51.8745 123.828 50.7411C123.828 49.6078 123.522 48.7011 122.91 48.0211C122.321 47.3411 121.528 47.0011 120.53 47.0011H117.028V54.4811H120.53Z" fill="black"/>
<path d="M109.627 66.3811H97.2173V43.7031H109.627V47.0011H100.991V53.1551H109.389V56.4871H100.991V63.0491H109.627V66.3811Z" fill="black"/>
<path d="M92.907 66.3811H89.133V56.3851H80.837V66.3811H77.063V43.7031H80.837V53.0531H89.133V43.7031H92.907V66.3811Z" fill="black"/>
<path d="M73.4359 66.3811H61.0259V43.7031H73.4359V47.0011H64.7999V53.1551H73.1979V56.4871H64.7999V63.0491H73.4359V66.3811Z" fill="black"/>
<path d="M49.0284 66.3811H45.2544V43.7031H57.6644V47.0011H49.0284V66.3811Z" fill="black"/>
<path d="M23.7607 37.7912C22.1061 37.7912 20.6441 37.4512 19.3747 36.7712C18.1054 36.0686 17.1194 35.1732 16.4167 34.0852L18.7287 31.7392C19.9754 33.5299 21.5961 34.4252 23.5907 34.4252C24.8374 34.4252 25.7667 34.1079 26.3787 33.4732C27.0134 32.8386 27.3307 31.9659 27.3307 30.8552C27.3307 28.5886 26.0161 27.4552 23.3867 27.4552C22.2761 27.4552 21.6187 27.4779 21.4147 27.5232V24.1232C21.6414 24.1459 22.2761 24.1572 23.3187 24.1572C24.4294 24.1572 25.3247 23.8966 26.0047 23.3752C26.6847 22.8312 27.0247 22.0492 27.0247 21.0292C27.0247 19.9412 26.6961 19.1139 26.0387 18.5472C25.4041 17.9806 24.5541 17.6972 23.4887 17.6972C21.6754 17.6972 20.1567 18.5132 18.9327 20.1452L16.7227 17.9692C18.3547 15.5666 20.7007 14.3652 23.7607 14.3652C25.8914 14.3652 27.5914 14.8979 28.8607 15.9632C30.1301 17.0059 30.7647 18.5019 30.7647 20.4512C30.7647 21.7432 30.3567 22.8766 29.5407 23.8512C28.7247 24.8032 27.7387 25.4039 26.5827 25.6532C27.7614 25.8346 28.8041 26.4352 29.7107 27.4552C30.6174 28.4526 31.0707 29.6992 31.0707 31.1952C31.0707 33.1446 30.4134 34.7312 29.0987 35.9552C27.7841 37.1792 26.0047 37.7912 23.7607 37.7912Z" fill="black"/>
</svg>
