<svg width="328" height="121" viewBox="0 0 328 121" fill="none" xmlns="http://www.w3.org/2000/svg">
<mask id="path-1-inside-1_444_298805" fill="white">
<path fill-rule="evenodd" clip-rule="evenodd" d="M50.9985 0.951172H0.988525V52.2891H14.9861V120.061H327.53V23.9473H50.9985V0.951172Z"/>
</mask>
<path fill-rule="evenodd" clip-rule="evenodd" d="M50.9985 0.951172H0.988525V52.2891H14.9861V120.061H327.53V23.9473H50.9985V0.951172Z" fill="white"/>
<path d="M0.988525 0.951172V-2.04883H-2.01147V0.951172H0.988525ZM50.9985 0.951172H53.9985V-2.04883H50.9985V0.951172ZM0.988525 52.2891H-2.01147V55.2891H0.988525V52.2891ZM14.9861 52.2891H17.9861V49.2891H14.9861V52.2891ZM14.9861 120.061H11.9861V123.061H14.9861V120.061ZM327.53 120.061V123.061H330.53V120.061H327.53ZM327.53 23.9473H330.53V20.9473H327.53V23.9473ZM50.9985 23.9473H47.9985V26.9473H50.9985V23.9473ZM0.988525 3.95117H50.9985V-2.04883H0.988525V3.95117ZM3.98853 52.2891V0.951172H-2.01147V52.2891H3.98853ZM14.9861 49.2891H0.988525V55.2891H14.9861V49.2891ZM17.9861 120.061V52.2891H11.9861V120.061H17.9861ZM327.53 117.061H14.9861V123.061H327.53V117.061ZM324.53 23.9473V120.061H330.53V23.9473H324.53ZM50.9985 26.9473H327.53V20.9473H50.9985V26.9473ZM47.9985 0.951172V23.9473H53.9985V0.951172H47.9985Z" fill="black" mask="url(#path-1-inside-1_444_298805)"/>
<path d="M53.4391 67.0762H49.6991V47.6962H44.4971V44.3982H58.6411V47.6962H53.4391V67.0762ZM77.3722 67.0762H72.9182L67.0702 57.7262L65.3702 60.3102V67.0762H61.5962V44.3982H65.3702V55.3122L72.4082 44.3982H76.8282L69.4162 55.1082L77.3722 67.0762ZM95.7375 67.0762H91.6575L90.4335 62.5882H82.9875L81.7635 67.0762H77.6835L84.4495 44.3982H88.9715L95.7375 67.0762ZM89.6855 59.2562L86.7275 48.4102L83.7695 59.2562H89.6855ZM113.864 67.0762H110.09V57.0802H101.794V67.0762H98.02V44.3982H101.794V53.7482H110.09V44.3982H113.864V67.0762ZM118.174 44.3982H121.948V52.9662H125.892C128.023 52.9662 129.666 53.6462 130.822 55.0062C132.001 56.3435 132.59 58.0095 132.59 60.0042C132.59 62.0215 132.001 63.7102 130.822 65.0702C129.666 66.4075 128.023 67.0762 125.892 67.0762H118.174V44.3982ZM125.45 56.2642H121.948V63.7442H125.45C126.448 63.7442 127.241 63.4042 127.83 62.7242C128.442 62.0442 128.748 61.1375 128.748 60.0042C128.748 58.8935 128.442 57.9982 127.83 57.3182C127.241 56.6155 126.448 56.2642 125.45 56.2642ZM49.4951 103.076H45.8911V80.3982H49.6651V95.1542L57.8591 80.3982H61.6671V103.076H57.9271V87.9122L49.4951 103.076ZM72.2002 103.484C70.5455 103.484 69.0495 103.144 67.7122 102.464C66.3748 101.762 65.3548 100.866 64.6522 99.7782L66.9642 97.4322C67.5308 98.2482 68.2675 98.9055 69.1742 99.4042C70.0808 99.8802 71.0328 100.118 72.0302 100.118C73.3222 100.118 74.2968 99.8008 74.9542 99.1662C75.6115 98.5315 75.9402 97.6588 75.9402 96.5482C75.9402 95.4148 75.5662 94.5762 74.8182 94.0322C74.0702 93.4655 73.0388 93.1822 71.7242 93.1822H68.1882V89.8502H71.5882C72.8122 89.8502 73.7868 89.5895 74.5122 89.0682C75.2375 88.5242 75.6002 87.7422 75.6002 86.7222C75.6002 85.6342 75.2488 84.8068 74.5462 84.2402C73.8662 83.6735 72.9482 83.3902 71.7922 83.3902C69.9335 83.3902 68.3922 84.2062 67.1682 85.8382L64.9582 83.6622C65.7062 82.5515 66.7148 81.6788 67.9842 81.0442C69.2762 80.3868 70.6815 80.0582 72.2002 80.0582C74.3308 80.0582 76.0648 80.5908 77.4022 81.6562C78.7622 82.6988 79.4422 84.1948 79.4422 86.1442C79.4422 87.4588 79.0228 88.5922 78.1842 89.5442C77.3455 90.4962 76.2802 91.1082 74.9882 91.3802C76.3028 91.5388 77.4248 92.1168 78.3542 93.1142C79.2835 94.1115 79.7482 95.3695 79.7482 96.8882C79.7482 98.8148 79.0568 100.402 77.6742 101.648C76.2915 102.872 74.4668 103.484 72.2002 103.484ZM105.374 100.186C103.765 102.385 101.555 103.484 98.7441 103.484C95.9334 103.484 93.7121 102.385 92.0801 100.186C90.4708 97.9875 89.6661 95.1768 89.6661 91.7542C89.6661 88.3315 90.4708 85.5208 92.0801 83.3222C93.7121 81.1235 95.9334 80.0242 98.7441 80.0242C101.555 80.0242 103.765 81.1235 105.374 83.3222C107.006 85.5208 107.822 88.3315 107.822 91.7542C107.822 95.1768 107.006 97.9875 105.374 100.186ZM98.7441 100.118C100.376 100.118 101.657 99.3362 102.586 97.7722C103.515 96.1855 103.98 94.1795 103.98 91.7542C103.98 89.3062 103.515 87.3002 102.586 85.7362C101.657 84.1495 100.376 83.3562 98.7441 83.3562C97.0894 83.3562 95.7974 84.1382 94.8681 85.7022C93.9614 87.2662 93.5081 89.2835 93.5081 91.7542C93.5081 94.2022 93.9614 96.2082 94.8681 97.7722C95.7974 99.3362 97.0894 100.118 98.7441 100.118ZM127.178 103.076H123.404V83.6962H115.108V103.076H111.334V80.3982H127.178V103.076ZM139.037 103.076H135.297V83.6962H130.095V80.3982H144.239V83.6962H139.037V103.076ZM161.454 100.186C159.845 102.385 157.635 103.484 154.824 103.484C152.013 103.484 149.792 102.385 148.16 100.186C146.551 97.9875 145.746 95.1768 145.746 91.7542C145.746 88.3315 146.551 85.5208 148.16 83.3222C149.792 81.1235 152.013 80.0242 154.824 80.0242C157.635 80.0242 159.845 81.1235 161.454 83.3222C163.086 85.5208 163.902 88.3315 163.902 91.7542C163.902 95.1768 163.086 97.9875 161.454 100.186ZM154.824 100.118C156.456 100.118 157.737 99.3362 158.666 97.7722C159.595 96.1855 160.06 94.1795 160.06 91.7542C160.06 89.3062 159.595 87.3002 158.666 85.7362C157.737 84.1495 156.456 83.3562 154.824 83.3562C153.169 83.3562 151.877 84.1382 150.948 85.7022C150.041 87.2662 149.588 89.2835 149.588 91.7542C149.588 94.2022 150.041 96.2082 150.948 97.7722C151.877 99.3362 153.169 100.118 154.824 100.118ZM176.255 103.076H167.415V80.3982H175.983C177.841 80.3982 179.281 80.9422 180.301 82.0302C181.321 83.1182 181.831 84.5008 181.831 86.1782C181.831 87.5608 181.491 88.7055 180.811 89.6122C180.153 90.4962 179.303 91.0855 178.261 91.3802C179.371 91.5388 180.301 92.1622 181.049 93.2502C181.819 94.3155 182.205 95.5508 182.205 96.9562C182.205 98.7922 181.695 100.277 180.675 101.41C179.655 102.521 178.181 103.076 176.255 103.076ZM175.167 89.8502C176.096 89.8502 176.787 89.5782 177.241 89.0342C177.717 88.4675 177.955 87.7195 177.955 86.7902C177.955 85.8608 177.717 85.1128 177.241 84.5462C176.765 83.9795 176.073 83.6962 175.167 83.6962H171.189V89.8502H175.167ZM175.303 99.7442C176.3 99.7442 177.048 99.4608 177.547 98.8942C178.068 98.3048 178.329 97.4888 178.329 96.4462C178.329 95.4942 178.068 94.7122 177.547 94.1002C177.025 93.4882 176.277 93.1822 175.303 93.1822H171.189V99.7442H175.303ZM200.634 100.186C199.025 102.385 196.815 103.484 194.004 103.484C191.193 103.484 188.972 102.385 187.34 100.186C185.731 97.9875 184.926 95.1768 184.926 91.7542C184.926 88.3315 185.731 85.5208 187.34 83.3222C188.972 81.1235 191.193 80.0242 194.004 80.0242C196.815 80.0242 199.025 81.1235 200.634 83.3222C202.266 85.5208 203.082 88.3315 203.082 91.7542C203.082 95.1768 202.266 97.9875 200.634 100.186ZM194.004 100.118C195.636 100.118 196.917 99.3362 197.846 97.7722C198.775 96.1855 199.24 94.1795 199.24 91.7542C199.24 89.3062 198.775 87.3002 197.846 85.7362C196.917 84.1495 195.636 83.3562 194.004 83.3562C192.349 83.3562 191.057 84.1382 190.128 85.7022C189.221 87.2662 188.768 89.2835 188.768 91.7542C188.768 94.2022 189.221 96.2082 190.128 97.7722C191.057 99.3362 192.349 100.118 194.004 100.118ZM204.504 103.484V100.118C205.229 100.118 205.796 99.9595 206.204 99.6422C206.634 99.3022 207.02 98.5542 207.36 97.3982C207.7 96.2422 207.972 94.5422 208.176 92.2982L209.23 80.3982H221.708V103.076H217.934V83.6962H212.664L211.882 92.5702C211.678 94.8595 211.36 96.7522 210.93 98.2482C210.522 99.7442 209.978 100.866 209.298 101.614C208.618 102.34 207.915 102.827 207.19 103.076C206.464 103.348 205.569 103.484 204.504 103.484ZM240.876 100.186C239.267 102.385 237.057 103.484 234.246 103.484C231.435 103.484 229.214 102.385 227.582 100.186C225.973 97.9875 225.168 95.1768 225.168 91.7542C225.168 88.3315 225.973 85.5208 227.582 83.3222C229.214 81.1235 231.435 80.0242 234.246 80.0242C237.057 80.0242 239.267 81.1235 240.876 83.3222C242.508 85.5208 243.324 88.3315 243.324 91.7542C243.324 95.1768 242.508 97.9875 240.876 100.186ZM234.246 100.118C235.878 100.118 237.159 99.3362 238.088 97.7722C239.017 96.1855 239.482 94.1795 239.482 91.7542C239.482 89.3062 239.017 87.3002 238.088 85.7362C237.159 84.1495 235.878 83.3562 234.246 83.3562C232.591 83.3562 231.299 84.1382 230.37 85.7022C229.463 87.2662 229.01 89.2835 229.01 91.7542C229.01 94.2022 229.463 96.2082 230.37 97.7722C231.299 99.3362 232.591 100.118 234.246 100.118ZM262.68 103.076H258.906V93.0802H250.61V103.076H246.836V80.3982H250.61V89.7482H258.906V80.3982H262.68V103.076ZM282.767 103.076H278.313L272.465 93.7262L270.765 96.3102V103.076H266.991V80.3982H270.765V91.3122L277.803 80.3982H282.223L274.811 91.1082L282.767 103.076ZM301.132 103.076H297.052L295.828 98.5882H288.382L287.158 103.076H283.078L289.844 80.3982H294.366L301.132 103.076ZM295.08 95.2562L292.122 84.4102L289.164 95.2562H295.08Z" fill="black"/>
<path d="M31.8095 37.7656H17.8695V34.7056C22.1535 30.2403 24.8849 27.237 26.0635 25.6956C27.2649 24.1543 27.8655 22.7036 27.8655 21.3436C27.8655 20.3463 27.5482 19.553 26.9135 18.9636C26.2789 18.3743 25.5082 18.0796 24.6015 18.0796C22.6069 18.0796 20.9975 18.975 19.7735 20.7656L17.4615 18.4196C19.2069 15.9716 21.5982 14.7476 24.6355 14.7476C26.6755 14.7476 28.3642 15.3483 29.7015 16.5496C31.0389 17.7283 31.7075 19.315 31.7075 21.3096C31.7075 22.987 31.1069 24.721 29.9055 26.5116C28.7269 28.2796 26.5509 30.9203 23.3775 34.4336H31.8095V37.7656Z" fill="black"/>
</svg>
