<svg width="445" height="470" viewBox="0 0 445 470" fill="none" xmlns="http://www.w3.org/2000/svg">
<g clip-path="url(#clip0_454_299270)">
<mask id="mask0_454_299270" style="mask-type:alpha" maskUnits="userSpaceOnUse" x="-121" y="-338" width="496" height="524">
<path d="M21.1339 160.59C12.0928 148.568 16.8381 144.926 21.3836 141.434C17.2377 137.592 12.0428 132.753 6.74798 127.815C1.65297 133.452 7.69705 133.851 8.19656 136.395C7.09764 137.193 5.59911 138.989 4.65004 138.74C1.70293 138.041 -1.04438 136.545 -3.94154 135.298C-13.682 142.681 -24.1217 150.563 -39.2069 161.987C-31.9141 146.672 -26.9689 136.146 -21.9239 125.57C-25.5204 124.273 -28.4175 123.275 -31.7642 122.078C-28.1178 118.186 -24.921 114.744 -21.2745 110.853C-24.5214 109.706 -27.3686 108.708 -30.5155 107.61C-31.2647 103.17 -32.0639 98.5809 -33.8622 88.1046C-36.0101 99.0299 -37.0091 104.068 -37.9582 109.107C-44.8514 90.599 -33.7623 77.8778 -24.4714 64.558C-1.79364 57.4741 8.79599 37.4195 24.131 19.5101C8.34643 20.2086 0.104518 29.8367 -8.3372 38.4672C-16.8788 41.3606 -27.0189 34.8753 -33.9121 44.0046C-35.6604 42.4581 -37.4586 40.8617 -38.6075 39.8141C-43.6526 42.508 -48.4978 45.0522 -52.6438 47.2472C-56.9396 46.5488 -61.0855 45.0522 -65.0316 45.4014C-68.3284 45.7008 -71.4254 48.1452 -78.0189 51.1883C-69.8269 35.0748 -54.492 40.2631 -45.7006 30.6848C-50.9454 29.7868 -55.391 29.0385 -59.8367 28.2902C-53.4929 20.5079 -47.9983 16.5169 -44.7515 19.3605C-34.6614 28.3401 -25.7701 23.2018 -16.1295 19.2108C-10.4351 16.8661 -4.34114 15.2199 1.75289 14.2221C12.3425 12.4761 14.1907 5.44203 13.5413 -3.43784C18.2867 -6.13173 23.032 -8.87551 28.6266 -12.0683C26.8283 -14.3631 25.5795 -16.0093 23.2818 -19.0025C28.5766 -20.1499 33.3219 -21.2475 38.8665 -22.4448C36.1192 -25.3382 34.0213 -27.633 31.4238 -30.3768C3.85084 -20.998 -24.871 -28.4312 -53.5429 -25.0389C-56.49 -20.5989 -59.8866 -15.5105 -63.2833 -10.3721C-64.1824 -10.6714 -65.0816 -10.9708 -65.9807 -11.2701C-65.0816 -15.2112 -64.1824 -19.1522 -62.8837 -24.7894C-64.7818 -28.6806 -83.9131 -26.4357 -101.196 -18.2044C-99.6976 -16.5082 -98.1991 -14.7622 -96.6006 -12.9662C-98.249 -12.1681 -99.8974 -10.6216 -100.946 -10.9209C-103.844 -11.8687 -106.491 -13.6647 -109.438 -15.1613C-110.637 -14.0638 -112.385 -12.5173 -114.083 -10.9209L-120.927 -17.7554C-116.731 -21.3971 -112.485 -25.0389 -106.241 -30.3768L-63.633 -30.3768C-60.9356 -33.7691 -57.8886 -37.6602 -53.9924 -42.5991C-52.394 -37.9097 -51.395 -34.9664 -50.0463 -31.0253C-42.8533 -32.5219 -35.5605 -34.667 -28.1178 -35.4652C-20.725 -36.2135 -13.0326 -34.8167 -5.6898 -35.8643C1.90275 -36.9618 9.29549 -39.8054 14.0408 -41.1523C10.5942 -44.5945 5.79893 -49.3837 -0.345042 -55.4699C11.6932 -62.1048 19.4855 -66.3951 27.9772 -71.0845C24.081 -81.461 14.7901 -84.2546 7.34742 -89.0937C0.80384 -93.3839 -9.43611 -92.5359 -12.583 -103.711C4.55018 -99.52 20.4346 -95.6288 37.1682 -91.588C37.7676 -94.9803 38.6168 -99.5699 39.8156 -106.105C45.5599 -104.01 50.9047 -102.064 59.9458 -98.7717C57.3484 -105.806 55.8998 -109.647 54.3014 -113.937C56.3993 -114.686 59.2964 -115.683 63.0927 -117.03C56.649 -127.507 50.3053 -137.833 43.6618 -148.559C46.1593 -149.407 49.0565 -150.405 53.9018 -152.051C44.2612 -176.595 41.1643 -202.287 44.3112 -228.577C51.8038 -233.915 56.4992 -226.582 57.6481 -222.89C60.8449 -212.414 61.8939 -201.289 63.3925 -190.314C65.3405 -176.096 65.5403 -161.48 69.0869 -147.711C72.4336 -134.69 79.3268 -122.668 92.2142 -115.484C98.8743 -116.847 106.8 -123.549 115.991 -135.588C118.139 -133.044 120.287 -130.55 123.683 -126.559L123.683 -94.9304C133.74 -116.482 137.07 -133.027 133.674 -144.568C138.069 -142.722 141.865 -141.176 145.512 -139.679C146.811 -141.924 148.259 -143.271 148.259 -144.618C148.109 -152.749 150.207 -162.477 146.511 -168.663C141.965 -176.196 144.763 -182.981 143.414 -189.915C141.915 -197.598 143.614 -204.881 139.368 -213.262C134.772 -222.242 137.32 -234.614 134.173 -245.838C129.528 -262.6 130.277 -280.809 128.279 -298.369C127.779 -302.909 124.982 -307.149 124.433 -311.639C123.234 -321.068 119.937 -331.145 128.129 -337.48C131.875 -333.739 135.572 -329.997 139.318 -326.256C144.863 -317.476 145.262 -305.453 147.16 -293.979C149.208 -281.607 153.104 -269.235 153.654 -256.364C154.153 -244.541 156.801 -232.818 158.399 -221.044C160.098 -208.423 161.646 -195.802 163.444 -183.23C165.143 -171.457 167.041 -159.733 168.789 -148.609C173.135 -144.718 177.381 -140.926 182.775 -136.087L192.516 -136.087C193.065 -140.627 193.515 -144.568 194.314 -151.452C197.261 -148.808 198.959 -147.262 202.156 -144.418C205.753 -146.863 209.599 -149.457 213.495 -152.151C212.496 -171.108 213.445 -188.818 237.122 -194.405C250.359 -196.151 263.196 -191.611 276.683 -185.774C298.262 -176.495 320.79 -168.663 344.717 -170.31C348.113 -167.666 351.26 -165.171 355.756 -161.679C351.36 -157.04 348.213 -150.904 345.116 -150.904C335.725 -151.003 326.484 -149.257 316.544 -153.797C301.159 -160.831 284.426 -164.223 270.24 -174.899C262.647 -180.636 251.658 -181.933 241.368 -185.575C237.172 -181.285 232.676 -176.695 228.381 -172.355C228.381 -171.108 228.031 -169.91 228.431 -169.461C243.166 -153.847 258.002 -138.332 273.137 -122.418C272.288 -115.135 273.936 -108.001 282.528 -105.656C290.07 -103.611 292.967 -99.6696 293.567 -91.987C294.066 -85.1026 298.612 -81.9598 306.104 -80.114C320.44 -76.6219 321.09 -72.8804 313.098 -57.2658C335.575 -39.6557 351.81 -16.4583 366.345 5.84116C361.65 15.5691 356.955 25.2472 351.76 35.9728C356.255 39.0658 360.051 41.5602 363.748 44.2042C366.995 46.499 370.192 48.9434 374.238 51.9367C370.491 53.2337 367.594 54.1816 364.747 55.1793C362.949 71.0433 348.912 81.8688 347.813 99.0798C335.725 90.0004 324.686 81.6692 311.099 71.4923C309.651 76.2815 308.352 80.472 306.604 86.209C306.104 85.2112 308.152 89.3518 310.35 93.8416C312.099 92.4448 313.747 91.048 317.493 88.0049C316.794 92.8439 317.493 97.0843 315.745 98.7804C307.453 106.663 302.558 114.195 314.446 122.576C309.351 130.359 305.055 136.844 300.06 144.427C299.161 141.284 298.412 138.59 296.813 132.953C292.418 138.54 289.171 142.731 285.325 147.57C282.278 146.073 277.782 143.878 273.237 141.633C274.585 140.286 275.734 139.139 277.383 137.493C276.084 134.549 274.385 131.456 273.386 128.114C272.537 125.221 272.587 122.078 272.088 117.987C267.193 127.615 263.047 135.797 258.201 145.325C259.3 146.822 261.198 149.266 263.047 151.661C259.1 153.706 254.955 155.801 249.41 158.645C246.613 141.234 249.66 123.375 247.212 100.826C244.814 106.762 244.265 108.708 243.266 110.404C242.067 112.449 240.469 114.295 238.77 116.54C240.019 117.987 241.518 119.733 243.865 122.427C239.67 131.556 236.722 140.735 224.734 146.223C216.642 149.915 211.997 160.989 204.154 170.867L204.154 150.613C209.599 144.327 221.238 142.182 222.386 129.511C218.44 129.261 214.494 129.062 208.8 128.713L208.8 110.205C201.557 112 195.962 113.347 188.37 115.243C190.867 109.406 192.366 105.814 193.914 102.173C191.95 100.211 185.706 104.434 175.183 114.844C166.791 113.647 156.851 112.25 144.513 110.454C139.867 115.343 133.324 122.227 125.881 130.06C131.426 132.803 134.772 134.45 139.218 136.694C132.425 139.588 126.53 142.132 116.54 146.422C119.887 137.044 121.835 131.706 123.883 125.969C120.137 124.622 117.29 123.624 114.143 122.477C113.493 116.391 112.844 110.205 111.745 99.8281C109.297 106.912 108.298 109.805 107 113.547C101.405 108.608 95.5609 106.862 89.6167 114.445C88.7176 108.608 88.0183 104.019 86.8694 96.2362C79.5266 101.973 74.082 106.214 68.4375 110.654C68.4375 118.386 65.5903 127.715 69.0369 132.704C75.7803 142.481 60.4453 154.055 72.6333 161.089C66.9889 168.971 61.4943 176.704 55.0006 185.783C49.8557 181.443 45.7098 175.107 40.8645 174.559C33.0222 173.611 30.9243 166.427 25.08 163.983C19.4356 161.638 13.7911 159.293 21.1339 160.69C42.5629 171.166 46.0094 178.101 55.2504 169.919C51.8038 165.779 48.9566 162.336 46.0095 158.844C43.2122 161.638 40.9145 163.933 21.1339 160.69L21.1339 160.59ZM54.4013 40.762C46.8087 48.3448 42.6128 52.4854 38.4169 56.626C39.0164 57.1748 39.6158 57.7235 41.0643 59.1203C49.3063 59.5693 52.7029 54.5806 38.5668 53.4332C38.367 51.0886 38.0673 47.9956 37.368 40.313C34.4708 51.2382 20.5345 45.152 23.9811 57.5738C28.5766 56.2768 33.3719 54.8799 54.3513 40.8118L54.4013 40.762ZM12.5923 111.901C9.89492 113.048 6.39833 114.495 -1.94349 117.937L34.6207 117.937C30.8244 113.647 28.3268 110.753 28.2269 110.654C20.1848 106.812 15.939 118.635 12.6422 111.901L12.5923 111.901ZM14.2906 63.66C2.75191 64.8074 -1.2941 69.0977 -1.69371 79.8733C7.84693 78.3767 12.7421 75.0343 14.2906 63.66ZM293.966 49.6418L293.966 68.7984C303.557 64.4583 304.956 58.0228 301.859 49.6418L293.966 49.6418Z" fill="#8682EF"/>
</mask>
<g mask="url(#mask0_454_299270)">
<path d="M318.942 18.9616C327.067 29.7667 322.803 33.0396 318.717 36.178C322.443 39.6303 327.112 43.9792 331.871 48.4178C336.45 43.3515 331.018 42.9928 330.569 40.7063C331.556 39.9889 332.903 38.3749 333.756 38.5991C336.405 39.2267 338.874 40.5718 341.478 41.6926C350.232 35.0572 359.614 27.9733 373.171 17.7063C366.617 31.4704 362.173 40.9304 357.639 50.4353C360.871 51.601 363.475 52.4977 366.482 53.5737C363.205 57.0708 360.332 60.1644 357.055 63.6614C359.973 64.6926 362.532 65.5893 365.36 66.5757C366.033 70.5659 366.752 74.6907 368.368 84.1059C370.298 74.2872 371.196 69.7589 372.049 65.2306C378.244 81.8642 368.278 93.2969 359.928 105.268C339.547 111.634 330.03 129.658 316.248 145.753C330.434 145.125 337.841 136.472 345.428 128.716C353.105 126.116 362.218 131.944 368.413 123.739C369.984 125.129 371.6 126.564 372.633 127.505C377.167 125.084 381.521 122.798 385.247 120.825C389.108 121.453 392.834 122.798 396.38 122.484C399.343 122.215 402.127 120.018 408.052 117.283C400.69 131.765 386.908 127.102 379.007 135.71C383.721 136.517 387.716 137.19 391.712 137.862C386.01 144.856 381.072 148.443 378.154 145.888C369.086 137.817 361.095 142.435 352.431 146.022C347.314 148.129 341.837 149.609 336.36 150.505C326.843 152.075 325.182 158.396 325.765 166.377C321.501 168.798 317.236 171.264 312.208 174.133C313.824 176.196 314.946 177.675 317.011 180.365C312.253 181.396 307.988 182.383 303.005 183.459C305.474 186.059 307.36 188.121 309.694 190.587C334.474 182.159 360.287 188.839 386.055 185.79C388.704 181.8 391.757 177.227 394.809 172.609C395.617 172.878 396.425 173.147 397.233 173.416C396.425 176.958 395.617 180.5 394.45 185.566C396.156 189.063 413.35 187.045 428.882 179.648C427.535 178.123 426.189 176.554 424.752 174.94C426.234 174.223 427.715 172.833 428.658 173.102C431.261 173.954 433.641 175.568 436.289 176.913C437.367 175.927 438.938 174.537 440.464 173.102L446.614 179.244C442.844 182.517 439.028 185.79 433.416 190.587H395.123C392.699 193.636 389.961 197.133 386.459 201.572C385.023 197.357 384.125 194.712 382.913 191.17C376.448 192.515 369.894 194.443 363.205 195.16C356.561 195.833 349.648 194.578 343.049 195.519C336.225 196.506 329.581 199.061 325.317 200.272C328.414 203.365 332.724 207.669 338.245 213.139C327.426 219.102 320.423 222.958 312.792 227.172C316.293 236.498 324.643 239.008 331.332 243.357C337.213 247.213 346.416 246.451 349.244 256.494C333.846 252.728 319.57 249.231 304.532 245.599C303.993 248.648 303.23 252.773 302.152 258.646C296.99 256.763 292.186 255.014 284.061 252.055C286.395 258.377 287.697 261.829 289.134 265.685C287.248 266.357 284.644 267.254 281.233 268.465C287.024 277.88 292.725 287.16 298.696 296.8C296.451 297.562 293.847 298.459 289.493 299.938C298.157 321.997 300.94 345.086 298.112 368.714C291.378 373.511 287.158 366.921 286.126 363.603C283.253 354.188 282.31 344.19 280.963 334.326C279.212 321.548 279.033 308.412 275.846 296.038C272.838 284.336 266.643 273.531 255.061 267.075C249.075 268.3 241.952 274.323 233.692 285.143C231.762 282.856 229.831 280.615 226.779 277.028V248.603C217.74 267.971 214.748 282.841 217.8 293.213C213.85 291.554 210.438 290.164 207.161 288.819C205.994 290.837 204.692 292.047 204.692 293.258C204.827 300.566 202.941 309.309 206.263 314.868C210.348 321.638 207.834 327.736 209.046 333.967C210.393 340.872 208.867 347.418 212.683 354.95C216.813 363.02 214.523 374.139 217.351 384.227C221.526 399.291 220.853 415.656 222.649 431.437C223.098 435.517 225.612 439.328 226.105 443.363C227.183 451.837 230.146 460.893 222.783 466.587C219.416 463.225 216.094 459.862 212.728 456.5C207.745 448.609 207.385 437.804 205.68 427.492C203.839 416.373 200.337 405.254 199.844 393.687C199.395 383.061 197.015 372.525 195.579 361.944C194.053 350.601 192.661 339.258 191.045 327.96C189.518 317.379 187.813 306.843 186.241 296.845C182.336 293.348 178.52 289.94 173.672 285.591H164.918C164.424 289.671 164.02 293.213 163.302 299.4C160.653 297.024 159.127 295.634 156.254 293.079C153.021 295.275 149.565 297.607 146.063 300.028C146.961 317.065 146.108 332.981 124.829 338.003C112.933 339.572 101.396 335.492 89.2748 330.246C69.8814 321.907 49.6352 314.868 28.132 316.348C25.0793 313.971 22.2511 311.73 18.2108 308.591C22.1613 304.422 24.9895 298.907 27.7728 298.907C36.2125 298.997 44.5175 297.428 53.451 301.507C67.2777 307.829 82.3165 310.878 95.0658 320.472C101.889 325.628 111.766 326.794 121.013 330.067C124.784 326.211 128.825 322.086 132.685 318.186C132.685 317.065 133 315.989 132.64 315.585C119.397 301.552 106.064 287.609 92.4621 273.307C93.2253 266.761 91.7438 260.35 84.0224 258.242C77.2437 256.404 74.64 252.862 74.1013 245.958C73.6524 239.771 69.5672 236.946 62.8334 235.287C49.9494 232.149 49.3658 228.786 56.5485 214.753C36.3472 198.927 21.7573 178.079 8.69375 158.038C12.9136 149.295 17.1334 140.597 21.8022 130.958C17.7619 128.178 14.3501 125.936 11.0281 123.56C8.11016 121.498 5.23708 119.301 1.60083 116.611C4.96772 115.445 7.57146 114.593 10.1303 113.697C11.7464 99.4392 24.361 89.7102 25.3487 74.2423C36.2125 82.4022 46.1336 89.8895 58.3442 99.0357C59.6461 94.7316 60.8133 90.9655 62.3845 85.8096C62.8334 86.7063 60.9928 82.985 59.0176 78.9499C57.4464 80.2053 55.9649 81.4607 52.5981 84.1956C53.2265 79.8466 52.5981 76.0357 54.1693 74.5113C61.6213 67.4275 66.0207 60.6575 55.3365 53.1254C59.9154 46.1312 63.7761 40.3028 68.2653 33.4879C69.0734 36.3125 69.7468 38.7336 71.1833 43.7998C75.1338 38.7784 78.0518 35.0123 81.5085 30.6634C84.2469 32.0084 88.2871 33.9811 92.3723 35.9987C91.1602 37.2092 90.1277 38.2404 88.6463 39.7199C89.8135 42.3651 91.3398 45.1449 92.2376 48.1488C93.0008 50.7492 92.9559 53.5737 93.4048 57.2501C97.8042 48.5971 101.53 41.2443 105.885 32.6809C104.897 31.3359 103.191 29.139 101.53 26.987C105.077 25.1488 108.803 23.2657 113.786 20.7102C116.3 36.3574 113.561 52.408 115.761 72.6731C117.916 67.3379 118.41 65.5893 119.307 64.065C120.385 62.2267 121.821 60.5679 123.348 58.5503C122.225 57.2501 120.879 55.6809 118.769 53.2599C122.54 45.0552 125.188 36.8057 135.962 31.8739C143.235 28.5562 147.41 18.603 154.458 9.72577V27.9285C149.565 33.5776 139.105 35.5055 138.072 46.8934C141.619 47.1176 145.165 47.2969 150.283 47.6108V64.2443C156.792 62.6303 161.82 61.4197 168.644 59.716C166.399 64.9616 165.052 68.1897 163.661 71.4626C165.426 73.2261 171.038 69.4301 180.495 60.0747C188.037 61.1507 196.97 62.4061 208.059 64.0201C212.234 59.6264 218.115 53.4392 224.803 46.4002C219.82 43.9343 216.813 42.4548 212.817 40.4373C218.923 37.8369 224.22 35.5503 233.198 31.6946C230.191 40.1234 228.44 44.9207 226.599 50.0766C229.966 51.2872 232.525 52.1839 235.353 53.2151C235.937 58.6848 236.52 64.2443 237.508 73.5698C239.708 67.2034 240.605 64.603 241.773 61.2404C246.801 65.679 252.053 67.2482 257.395 60.4334C258.203 65.679 258.832 69.8037 259.864 76.7979C266.463 71.642 271.356 67.831 276.429 63.8408C276.429 56.8915 278.988 48.5074 275.891 44.024C269.83 35.2365 283.612 24.8349 272.658 18.5133C277.731 11.4295 282.669 4.48016 288.505 -3.67969C293.129 0.220897 296.855 5.91485 301.21 6.40803C308.258 7.25988 310.143 13.716 315.395 15.9129C320.468 18.0201 325.541 20.1273 318.942 18.872C299.683 9.45677 296.586 3.2248 288.281 10.5776C291.378 14.2989 293.937 17.3924 296.586 20.5308C299.1 18.0201 301.165 15.9577 318.942 18.872V18.9616ZM289.044 126.654C295.867 119.839 299.638 116.118 303.409 112.396C302.871 111.903 302.332 111.41 301.03 110.155C293.623 109.751 290.57 114.235 303.275 115.266C303.454 117.373 303.723 120.153 304.352 127.057C306.956 117.238 319.481 122.708 316.383 111.544C312.253 112.71 307.943 113.966 289.089 126.609L289.044 126.654ZM326.618 62.7199C329.043 61.6887 332.185 60.3885 339.682 57.295H306.821C310.233 61.1507 312.477 63.7511 312.567 63.8408C319.795 67.293 323.611 56.6673 326.573 62.7199H326.618ZM325.092 106.075C335.462 105.044 339.098 101.188 339.457 91.5035C330.883 92.8486 326.484 95.8525 325.092 106.075ZM73.7422 118.673V101.457C65.1229 105.357 63.8659 111.141 66.6492 118.673H73.7422Z" fill="#8682EF"/>
</g>
</g>
<defs>
<clipPath id="clip0_454_299270">
<rect width="445" height="470" fill="white"/>
</clipPath>
</defs>
</svg>
