<svg width="2223" height="470" viewBox="0 0 2223 470" fill="none" xmlns="http://www.w3.org/2000/svg">
<g clip-path="url(#clip0_454_299265)">
<g clip-path="url(#clip1_454_299265)">
<mask id="mask0_454_299265" style="mask-type:alpha" maskUnits="userSpaceOnUse" x="-37" y="-198" width="223" height="236">
<path d="M121.768 -185.913C125.818 -180.527 123.692 -178.896 121.656 -177.332C123.513 -175.611 125.84 -173.444 128.212 -171.231C130.494 -173.757 127.787 -173.935 127.563 -175.075C128.055 -175.432 128.727 -176.237 129.152 -176.125C130.472 -175.812 131.703 -175.142 133 -174.583C137.363 -177.891 142.04 -181.421 148.797 -186.538C145.53 -179.678 143.315 -174.963 141.055 -170.226C142.666 -169.645 143.964 -169.198 145.463 -168.662C143.829 -166.919 142.398 -165.377 140.764 -163.634C142.219 -163.12 143.494 -162.673 144.903 -162.181C145.239 -160.193 145.597 -158.137 146.403 -153.444C147.365 -158.338 147.812 -160.595 148.237 -162.852C151.325 -154.562 146.358 -148.863 142.196 -142.897C132.038 -139.724 127.295 -130.741 120.426 -122.719C127.496 -123.032 131.188 -127.344 134.969 -131.21C138.795 -132.506 143.337 -129.601 146.425 -133.691C147.208 -132.998 148.014 -132.283 148.528 -131.814C150.788 -133.02 152.958 -134.16 154.815 -135.143C156.74 -134.83 158.597 -134.16 160.364 -134.316C161.841 -134.45 163.228 -135.545 166.182 -136.908C162.512 -129.691 155.643 -132.015 151.705 -127.724C154.055 -127.322 156.046 -126.987 158.037 -126.652C155.196 -123.166 152.735 -121.378 151.28 -122.652C146.761 -126.674 142.778 -124.372 138.46 -122.585C135.909 -121.534 133.179 -120.797 130.45 -120.35C125.706 -119.568 124.878 -116.417 125.169 -112.44C123.044 -111.233 120.918 -110.004 118.412 -108.574C119.218 -107.546 119.777 -106.809 120.806 -105.468C118.434 -104.954 116.309 -104.462 113.825 -103.926C115.056 -102.63 115.996 -101.602 117.159 -100.373C129.51 -104.574 142.375 -101.245 155.218 -102.764C156.538 -104.753 158.06 -107.032 159.581 -109.334C159.984 -109.2 160.387 -109.066 160.789 -108.931C160.387 -107.166 159.984 -105.401 159.402 -102.876C160.252 -101.133 168.822 -102.138 176.563 -105.825C175.892 -106.585 175.221 -107.367 174.505 -108.172C175.243 -108.529 175.982 -109.222 176.451 -109.088C177.749 -108.663 178.935 -107.859 180.255 -107.189C180.792 -107.68 181.575 -108.373 182.336 -109.088L185.401 -106.027C183.522 -104.395 181.62 -102.764 178.823 -100.373H159.738C158.53 -98.8535 157.165 -97.1106 155.419 -94.8983C154.703 -96.9988 154.256 -98.3172 153.652 -100.083C150.43 -99.4122 147.163 -98.4513 143.829 -98.0938C140.518 -97.7586 137.072 -98.3843 133.783 -97.915C130.382 -97.4234 127.071 -96.1497 124.945 -95.5464C126.489 -94.0045 128.637 -91.8593 131.389 -89.1331C125.997 -86.1611 122.507 -84.2394 118.703 -82.1389C120.448 -77.491 124.61 -76.2396 127.944 -74.0721C130.875 -72.1503 135.461 -72.5302 136.871 -67.5248C129.197 -69.4018 122.081 -71.1448 114.586 -72.9548C114.318 -71.4353 113.937 -69.3795 113.4 -66.4522C110.827 -67.3907 108.433 -68.2622 104.383 -69.737C105.547 -66.5863 106.196 -64.8656 106.912 -62.9439C105.972 -62.6087 104.674 -62.1618 102.974 -61.5584C105.86 -56.8658 108.702 -52.2403 111.677 -47.4359C110.559 -47.056 109.261 -46.6091 107.091 -45.8717C111.409 -34.8776 112.796 -23.3695 111.386 -11.5933C108.03 -9.20231 105.927 -12.4871 105.413 -14.1407C103.981 -18.8333 103.511 -23.8164 102.839 -28.7325C101.967 -35.1011 101.877 -41.6484 100.289 -47.8158C98.7897 -53.648 95.702 -59.0334 89.9294 -62.2512C86.9461 -61.6404 83.396 -58.6386 79.2791 -53.2458C78.317 -54.3855 77.3549 -55.5027 75.8334 -57.2904V-71.4576C71.3287 -61.8042 69.8371 -54.3929 71.3585 -49.2236C69.3896 -50.0504 67.6891 -50.7431 66.0558 -51.4135C65.4741 -50.4079 64.8252 -49.8046 64.8252 -49.2012C64.8923 -45.5589 63.9526 -41.2014 65.6083 -38.4306C67.6444 -35.0564 66.3914 -32.0173 66.9955 -28.9113C67.6668 -25.47 66.906 -22.2075 68.8079 -18.4534C70.8663 -14.4312 69.7252 -8.88946 71.1348 -3.86166C73.2156 3.64652 72.88 11.8027 73.775 19.6684C73.9987 21.7019 75.2517 23.6013 75.4978 25.6124C76.0348 29.8358 77.5115 34.3496 73.8421 37.1875C72.164 35.5116 70.5083 33.8356 68.8302 32.1597C66.3467 28.2269 66.1677 22.8415 65.3174 17.702C64.4001 12.1602 62.6549 6.61851 62.4088 0.8533C62.185 -4.44265 60.9992 -9.69391 60.2832 -14.9675C59.5224 -20.621 58.8288 -26.2745 58.0234 -31.9056C57.2626 -37.1792 56.4124 -42.4305 55.6293 -47.4136C53.6827 -49.1565 51.7809 -50.8548 49.3644 -53.0224H45.0014C44.7553 -50.9889 44.5539 -49.2236 44.1959 -46.1399C42.8758 -47.3242 42.1151 -48.0169 40.6831 -49.2906C39.0722 -48.1957 37.3493 -47.0337 35.6041 -45.827C36.0516 -37.3356 35.6265 -29.4029 25.021 -26.9001C19.0918 -26.118 13.3415 -28.1515 7.30039 -30.766C-2.36538 -34.9223 -12.4563 -38.4306 -23.1737 -37.6932C-24.6951 -38.8775 -26.1047 -39.9948 -28.1184 -41.559C-26.1495 -43.6372 -24.7399 -46.3857 -23.3526 -46.3857C-19.1462 -46.341 -15.007 -47.1231 -10.5544 -45.0896C-3.6631 -41.9388 3.83235 -40.4193 10.1867 -35.6373C13.5876 -33.0676 18.51 -32.4866 23.1192 -30.8554C24.9986 -32.7771 27.0123 -34.8329 28.9365 -36.777C28.9365 -37.3356 29.0931 -37.8719 28.9142 -38.073C22.3137 -45.0673 15.6685 -52.0168 8.88899 -59.1451C9.26935 -62.4076 8.53099 -65.603 4.68258 -66.6533C1.30404 -67.5695 0.0063171 -69.3348 -0.262177 -72.776C-0.485922 -75.8597 -2.522 -77.2675 -5.87817 -78.0943C-12.2997 -79.6585 -12.5905 -81.3344 -9.0106 -88.3287C-19.0791 -96.2167 -26.3508 -106.608 -32.8618 -116.596C-30.7586 -120.954 -28.6554 -125.289 -26.3285 -130.093C-28.3422 -131.478 -30.0426 -132.596 -31.6983 -133.78C-33.1527 -134.808 -34.5846 -135.903 -36.397 -137.244C-34.7189 -137.825 -33.4212 -138.249 -32.1458 -138.696C-31.3403 -145.802 -25.0531 -150.651 -24.5609 -158.36C-19.1462 -154.293 -14.2015 -150.562 -8.11562 -146.003C-7.46676 -148.148 -6.88503 -150.025 -6.10192 -152.595C-5.87818 -152.148 -6.79553 -154.003 -7.78001 -156.014C-8.56311 -155.388 -9.30147 -154.763 -10.9796 -153.4C-10.6663 -155.567 -10.9796 -157.466 -10.1965 -158.226C-6.48229 -161.757 -4.28959 -165.131 -9.61471 -168.885C-7.33252 -172.371 -5.40831 -175.276 -3.17086 -178.673C-2.76812 -177.265 -2.4325 -176.058 -1.71652 -173.533C0.252435 -176.036 1.70677 -177.913 3.42961 -180.08C4.79445 -179.41 6.80816 -178.427 8.84424 -177.421C8.24013 -176.818 7.72551 -176.304 6.98715 -175.567C7.56889 -174.248 8.32962 -172.863 8.77711 -171.366C9.15747 -170.07 9.13511 -168.662 9.35885 -166.829C11.5515 -171.142 13.4086 -174.807 15.579 -179.075C15.0867 -179.745 14.2365 -180.84 13.4086 -181.913C15.1762 -182.829 17.0333 -183.767 19.5169 -185.041C20.7698 -177.242 19.405 -169.243 20.5013 -159.142C21.5753 -161.802 21.8214 -162.673 22.2689 -163.433C22.8059 -164.349 23.5219 -165.176 24.2826 -166.181C23.7233 -166.829 23.052 -167.611 22.0004 -168.818C23.8799 -172.907 25.2 -177.019 30.5699 -179.477C34.1945 -181.131 36.2754 -186.091 39.7881 -190.516V-181.443C37.3493 -178.628 32.1361 -177.667 31.6215 -171.991C33.389 -171.88 35.1566 -171.79 37.7073 -171.634V-163.343C40.9516 -164.148 43.4576 -164.751 46.8585 -165.6C45.7398 -162.986 45.0685 -161.377 44.3749 -159.746C45.255 -158.867 48.0518 -160.759 52.7654 -165.422C56.5243 -164.885 60.9768 -164.26 66.5033 -163.455C68.5841 -165.645 71.5152 -168.729 74.849 -172.237C72.3654 -173.466 70.8663 -174.203 68.875 -175.209C71.9179 -176.505 74.5581 -177.645 79.033 -179.566C77.5339 -175.365 76.6613 -172.974 75.7439 -170.405C77.422 -169.801 78.6974 -169.354 80.107 -168.84C80.3978 -166.114 80.6887 -163.343 81.1809 -158.696C82.2773 -161.869 82.7248 -163.165 83.3065 -164.841C85.8125 -162.628 88.4303 -161.846 91.0928 -165.243C91.4956 -162.628 91.8088 -160.573 92.3234 -157.087C95.6125 -159.656 98.0513 -161.556 100.58 -163.545C100.58 -167.008 101.855 -171.187 100.311 -173.421C97.2906 -177.801 104.16 -182.985 98.7002 -186.136C101.228 -189.667 103.69 -193.13 106.598 -197.197C108.903 -195.253 110.76 -192.415 112.93 -192.169C116.443 -191.745 117.383 -188.527 120.001 -187.432C122.529 -186.382 125.057 -185.332 121.768 -185.957C112.17 -190.65 110.626 -193.756 106.486 -190.091C108.03 -188.237 109.306 -186.695 110.626 -185.131C111.879 -186.382 112.908 -187.41 121.768 -185.957V-185.913ZM106.867 -132.238C110.268 -135.635 112.147 -137.489 114.027 -139.344C113.758 -139.59 113.49 -139.836 112.841 -140.461C109.149 -140.662 107.628 -138.428 113.96 -137.914C114.049 -136.864 114.183 -135.478 114.497 -132.037C115.794 -136.931 122.037 -134.205 120.493 -139.769C118.434 -139.188 116.287 -138.562 106.889 -132.26L106.867 -132.238ZM125.594 -164.103C126.803 -164.617 128.369 -165.265 132.105 -166.807H115.727C117.428 -164.885 118.546 -163.589 118.591 -163.545C122.193 -161.824 124.095 -167.12 125.572 -164.103H125.594ZM124.834 -142.495C130.002 -143.009 131.814 -144.931 131.993 -149.757C127.72 -149.087 125.527 -147.59 124.834 -142.495ZM-0.441177 -136.216V-144.796C-4.73708 -142.852 -5.36356 -139.97 -3.97634 -136.216H-0.441177Z" fill="#8682EF"/>
</mask>
<g mask="url(#mask0_454_299265)">
<path d="M318.942 18.9616C327.067 29.7667 322.803 33.0396 318.717 36.178C322.443 39.6303 327.112 43.9792 331.871 48.4178C336.45 43.3515 331.018 42.9928 330.569 40.7063C331.556 39.9889 332.903 38.3749 333.756 38.5991C336.405 39.2267 338.874 40.5718 341.478 41.6926C350.232 35.0572 359.614 27.9733 373.171 17.7063C366.617 31.4704 362.173 40.9304 357.639 50.4353C360.871 51.601 363.475 52.4977 366.482 53.5737C363.205 57.0708 360.332 60.1644 357.055 63.6614C359.973 64.6926 362.532 65.5893 365.36 66.5757C366.033 70.5659 366.752 74.6907 368.368 84.1059C370.298 74.2872 371.196 69.7589 372.049 65.2306C378.244 81.8642 368.278 93.2969 359.928 105.268C339.547 111.634 330.03 129.658 316.248 145.753C330.434 145.125 337.841 136.472 345.428 128.716C353.105 126.116 362.218 131.944 368.413 123.739C369.984 125.129 371.6 126.564 372.633 127.505C377.167 125.084 381.521 122.798 385.247 120.825C389.108 121.453 392.834 122.798 396.38 122.484C399.343 122.215 402.127 120.018 408.052 117.283C400.69 131.765 386.908 127.102 379.007 135.71C383.721 136.517 387.716 137.19 391.712 137.862C386.01 144.856 381.072 148.443 378.154 145.888C369.086 137.817 361.095 142.435 352.431 146.022C347.314 148.129 341.837 149.609 336.36 150.505C326.843 152.075 325.182 158.396 325.765 166.377C321.501 168.798 317.236 171.264 312.208 174.133C313.824 176.196 314.946 177.675 317.011 180.365C312.253 181.396 307.988 182.383 303.005 183.459C305.474 186.059 307.36 188.121 309.694 190.587C334.474 182.159 360.287 188.839 386.055 185.79C388.704 181.8 391.757 177.227 394.809 172.609C395.617 172.878 396.425 173.147 397.233 173.416C396.425 176.958 395.617 180.5 394.45 185.566C396.156 189.063 413.35 187.045 428.882 179.648C427.535 178.123 426.189 176.554 424.752 174.94C426.234 174.223 427.715 172.833 428.658 173.102C431.261 173.954 433.641 175.568 436.289 176.913C437.367 175.927 438.938 174.537 440.464 173.102L446.614 179.244C442.844 182.517 439.028 185.79 433.416 190.587H395.123C392.699 193.636 389.961 197.133 386.459 201.572C385.023 197.357 384.125 194.712 382.913 191.17C376.448 192.515 369.894 194.443 363.205 195.16C356.561 195.833 349.648 194.578 343.049 195.519C336.225 196.506 329.581 199.061 325.317 200.272C328.414 203.365 332.724 207.669 338.245 213.139C327.426 219.102 320.423 222.958 312.792 227.172C316.293 236.498 324.643 239.008 331.332 243.357C337.213 247.213 346.416 246.451 349.244 256.494C333.846 252.728 319.57 249.231 304.532 245.599C303.993 248.648 303.23 252.773 302.152 258.646C296.99 256.763 292.186 255.014 284.061 252.055C286.395 258.377 287.697 261.829 289.134 265.685C287.248 266.357 284.644 267.254 281.233 268.465C287.024 277.88 292.725 287.16 298.696 296.8C296.451 297.562 293.847 298.459 289.493 299.938C298.157 321.997 300.94 345.086 298.112 368.714C291.378 373.511 287.158 366.921 286.126 363.603C283.253 354.188 282.31 344.19 280.963 334.326C279.212 321.548 279.033 308.412 275.846 296.038C272.838 284.336 266.643 273.531 255.061 267.075C249.075 268.3 241.952 274.323 233.692 285.143C231.762 282.856 229.831 280.615 226.779 277.028V248.603C217.74 267.971 214.748 282.841 217.8 293.213C213.85 291.554 210.438 290.164 207.161 288.819C205.994 290.837 204.692 292.047 204.692 293.258C204.827 300.566 202.941 309.309 206.263 314.868C210.348 321.638 207.834 327.736 209.046 333.967C210.393 340.872 208.867 347.418 212.683 354.95C216.813 363.02 214.523 374.139 217.351 384.227C221.526 399.291 220.853 415.656 222.649 431.437C223.098 435.517 225.612 439.328 226.105 443.363C227.183 451.837 230.146 460.893 222.783 466.587C219.416 463.225 216.094 459.862 212.728 456.5C207.745 448.609 207.385 437.804 205.68 427.492C203.839 416.373 200.337 405.254 199.844 393.687C199.395 383.061 197.015 372.525 195.579 361.944C194.053 350.601 192.661 339.258 191.045 327.96C189.518 317.379 187.813 306.843 186.241 296.845C182.336 293.348 178.52 289.94 173.672 285.591H164.918C164.424 289.671 164.02 293.213 163.302 299.4C160.653 297.024 159.127 295.634 156.254 293.079C153.021 295.275 149.565 297.607 146.063 300.028C146.961 317.065 146.108 332.981 124.829 338.003C112.933 339.572 101.396 335.492 89.2748 330.246C69.8814 321.907 49.6352 314.868 28.132 316.348C25.0793 313.971 22.2511 311.73 18.2108 308.591C22.1613 304.422 24.9895 298.907 27.7728 298.907C36.2125 298.997 44.5175 297.428 53.451 301.507C67.2777 307.829 82.3165 310.878 95.0658 320.472C101.889 325.628 111.766 326.794 121.013 330.067C124.784 326.211 128.825 322.086 132.685 318.186C132.685 317.065 133 315.989 132.64 315.585C119.397 301.552 106.064 287.609 92.4621 273.307C93.2253 266.761 91.7438 260.35 84.0224 258.242C77.2437 256.404 74.64 252.862 74.1013 245.958C73.6524 239.771 69.5672 236.946 62.8334 235.287C49.9494 232.149 49.3658 228.786 56.5485 214.753C36.3472 198.927 21.7573 178.079 8.69375 158.038C12.9136 149.295 17.1334 140.597 21.8022 130.958C17.7619 128.178 14.3501 125.936 11.0281 123.56C8.11016 121.498 5.23708 119.301 1.60083 116.611C4.96772 115.445 7.57146 114.593 10.1303 113.697C11.7464 99.4392 24.361 89.7102 25.3487 74.2423C36.2125 82.4022 46.1336 89.8895 58.3442 99.0357C59.6461 94.7316 60.8133 90.9655 62.3845 85.8096C62.8334 86.7063 60.9928 82.985 59.0176 78.9499C57.4464 80.2053 55.9649 81.4607 52.5981 84.1956C53.2265 79.8466 52.5981 76.0357 54.1693 74.5113C61.6213 67.4275 66.0207 60.6575 55.3365 53.1254C59.9154 46.1312 63.7761 40.3028 68.2653 33.4879C69.0734 36.3125 69.7468 38.7336 71.1833 43.7998C75.1338 38.7784 78.0518 35.0123 81.5085 30.6634C84.2469 32.0084 88.2871 33.9811 92.3723 35.9987C91.1602 37.2092 90.1277 38.2404 88.6463 39.7199C89.8135 42.3651 91.3398 45.1449 92.2376 48.1488C93.0008 50.7492 92.9559 53.5737 93.4048 57.2501C97.8042 48.5971 101.53 41.2443 105.885 32.6809C104.897 31.3359 103.191 29.139 101.53 26.987C105.077 25.1488 108.803 23.2657 113.786 20.7102C116.3 36.3574 113.561 52.408 115.761 72.6731C117.916 67.3379 118.41 65.5893 119.307 64.065C120.385 62.2267 121.821 60.5679 123.348 58.5503C122.225 57.2501 120.879 55.6809 118.769 53.2599C122.54 45.0552 125.188 36.8057 135.962 31.8739C143.235 28.5562 147.41 18.603 154.458 9.72577V27.9285C149.565 33.5776 139.105 35.5055 138.072 46.8934C141.619 47.1176 145.165 47.2969 150.283 47.6108V64.2443C156.792 62.6303 161.82 61.4197 168.644 59.716C166.399 64.9616 165.052 68.1897 163.661 71.4626C165.426 73.2261 171.038 69.4301 180.495 60.0747C188.037 61.1507 196.97 62.4061 208.059 64.0201C212.234 59.6264 218.115 53.4392 224.803 46.4002C219.82 43.9343 216.813 42.4548 212.817 40.4373C218.923 37.8369 224.22 35.5503 233.198 31.6946C230.191 40.1234 228.44 44.9207 226.599 50.0766C229.966 51.2872 232.525 52.1839 235.353 53.2151C235.937 58.6848 236.52 64.2443 237.508 73.5698C239.708 67.2034 240.605 64.603 241.773 61.2404C246.801 65.679 252.053 67.2482 257.395 60.4334C258.203 65.679 258.832 69.8037 259.864 76.7979C266.463 71.642 271.356 67.831 276.429 63.8408C276.429 56.8915 278.988 48.5074 275.891 44.024C269.83 35.2365 283.612 24.8349 272.658 18.5133C277.731 11.4295 282.669 4.48016 288.505 -3.67969C293.129 0.220897 296.855 5.91485 301.21 6.40803C308.258 7.25988 310.143 13.716 315.395 15.9129C320.468 18.0201 325.541 20.1273 318.942 18.872C299.683 9.45677 296.586 3.2248 288.281 10.5776C291.378 14.2989 293.937 17.3924 296.586 20.5308C299.1 18.0201 301.165 15.9577 318.942 18.872V18.9616ZM289.044 126.654C295.867 119.839 299.638 116.118 303.409 112.396C302.871 111.903 302.332 111.41 301.03 110.155C293.623 109.751 290.57 114.235 303.275 115.266C303.454 117.373 303.723 120.153 304.352 127.057C306.956 117.238 319.481 122.708 316.383 111.544C312.253 112.71 307.943 113.966 289.089 126.609L289.044 126.654ZM326.618 62.7199C329.043 61.6887 332.185 60.3885 339.682 57.295H306.821C310.233 61.1507 312.477 63.7511 312.567 63.8408C319.795 67.293 323.611 56.6673 326.573 62.7199H326.618ZM325.092 106.075C335.462 105.044 339.098 101.188 339.457 91.5035C330.883 92.8486 326.484 95.8525 325.092 106.075ZM73.7422 118.673V101.457C65.1229 105.357 63.8659 111.141 66.6492 118.673H73.7422Z" fill="#8682EF"/>
</g>
</g>
<g clip-path="url(#clip2_454_299265)">
<mask id="mask1_454_299265" style="mask-type:alpha" maskUnits="userSpaceOnUse" x="324" y="-338" width="496" height="524">
<path d="M466.134 160.59C457.093 148.568 461.838 144.926 466.384 141.434C462.238 137.592 457.043 132.753 451.748 127.815C446.653 133.452 452.697 133.851 453.197 136.395C452.098 137.193 450.599 138.989 449.65 138.74C446.703 138.041 443.956 136.545 441.058 135.298C431.318 142.681 420.878 150.563 405.793 161.987C413.086 146.672 418.031 136.146 423.076 125.57C419.48 124.273 416.582 123.275 413.236 122.078C416.882 118.186 420.079 114.744 423.725 110.853C420.479 109.706 417.631 108.708 414.485 107.61C413.735 103.17 412.936 98.5809 411.138 88.1046C408.99 99.0299 407.991 104.068 407.042 109.107C400.149 90.599 411.238 77.8778 420.529 64.558C443.206 57.4741 453.796 37.4195 469.131 19.5101C453.346 20.2086 445.105 29.8367 436.663 38.4672C428.121 41.3606 417.981 34.8753 411.088 44.0046C409.34 42.4581 407.541 40.8617 406.392 39.8141C401.347 42.508 396.502 45.0522 392.356 47.2472C388.06 46.5488 383.915 45.0522 379.968 45.4014C376.672 45.7008 373.575 48.1452 366.981 51.1883C375.173 35.0748 390.508 40.2631 399.299 30.6848C394.055 29.7868 389.609 29.0385 385.163 28.2902C391.507 20.5079 397.002 16.5169 400.249 19.3605C410.339 28.3401 419.23 23.2018 428.87 19.2108C434.565 16.8661 440.659 15.2199 446.753 14.2221C457.342 12.4761 459.191 5.44203 458.541 -3.43784C463.287 -6.13173 468.032 -8.87551 473.627 -12.0683C471.828 -14.3631 470.58 -16.0093 468.282 -19.0025C473.577 -20.1499 478.322 -21.2475 483.866 -22.4448C481.119 -25.3382 479.021 -27.633 476.424 -30.3768C448.851 -20.998 420.129 -28.4312 391.457 -25.0389C388.51 -20.5989 385.113 -15.5105 381.717 -10.3721C380.818 -10.6714 379.918 -10.9708 379.019 -11.2701C379.918 -15.2112 380.818 -19.1522 382.116 -24.7894C380.218 -28.6806 361.087 -26.4357 343.804 -18.2044C345.302 -16.5082 346.801 -14.7622 348.399 -12.9662C346.751 -12.1681 345.103 -10.6216 344.054 -10.9209C341.156 -11.8687 338.509 -13.6647 335.562 -15.1613C334.363 -14.0638 332.615 -12.5173 330.917 -10.9209L324.073 -17.7554C328.269 -21.3971 332.515 -25.0389 338.759 -30.3768L381.367 -30.3768C384.064 -33.7691 387.111 -37.6602 391.008 -42.5991C392.606 -37.9097 393.605 -34.9664 394.954 -31.0253C402.147 -32.5219 409.44 -34.667 416.882 -35.4652C424.275 -36.2135 431.967 -34.8167 439.31 -35.8643C446.903 -36.9618 454.295 -39.8054 459.041 -41.1523C455.594 -44.5945 450.799 -49.3837 444.655 -55.4699C456.693 -62.1048 464.486 -66.3951 472.977 -71.0845C469.081 -81.461 459.79 -84.2546 452.347 -89.0937C445.804 -93.3839 435.564 -92.5359 432.417 -103.711C449.55 -99.52 465.435 -95.6288 482.168 -91.588C482.768 -94.9803 483.617 -99.5699 484.816 -106.105C490.56 -104.01 495.905 -102.064 504.946 -98.7717C502.348 -105.806 500.9 -109.647 499.301 -113.937C501.399 -114.686 504.296 -115.683 508.093 -117.03C501.649 -127.507 495.305 -137.833 488.662 -148.559C491.159 -149.407 494.057 -150.405 498.902 -152.051C489.261 -176.595 486.164 -202.287 489.311 -228.577C496.804 -233.915 501.499 -226.582 502.648 -222.89C505.845 -212.414 506.894 -201.289 508.392 -190.314C510.341 -176.096 510.54 -161.48 514.087 -147.711C517.434 -134.69 524.327 -122.668 537.214 -115.484C543.874 -116.847 551.8 -123.549 560.991 -135.588C563.139 -133.044 565.287 -130.55 568.683 -126.559L568.683 -94.9304C578.74 -116.482 582.07 -133.027 578.674 -144.568C583.069 -142.722 586.865 -141.176 590.512 -139.679C591.811 -141.924 593.259 -143.271 593.259 -144.618C593.109 -152.749 595.207 -162.477 591.511 -168.663C586.965 -176.196 589.763 -182.981 588.414 -189.915C586.915 -197.598 588.614 -204.881 584.368 -213.262C579.772 -222.242 582.32 -234.614 579.173 -245.838C574.528 -262.6 575.277 -280.809 573.279 -298.369C572.779 -302.909 569.982 -307.149 569.433 -311.639C568.234 -321.068 564.937 -331.145 573.129 -337.48C576.875 -333.739 580.572 -329.997 584.318 -326.256C589.863 -317.476 590.262 -305.453 592.16 -293.979C594.208 -281.607 598.104 -269.235 598.654 -256.364C599.153 -244.541 601.801 -232.818 603.399 -221.044C605.098 -208.423 606.646 -195.802 608.444 -183.23C610.143 -171.457 612.041 -159.733 613.789 -148.609C618.135 -144.718 622.381 -140.926 627.775 -136.087L637.516 -136.087C638.065 -140.627 638.515 -144.568 639.314 -151.452C642.261 -148.808 643.959 -147.262 647.156 -144.418C650.753 -146.863 654.599 -149.457 658.495 -152.151C657.496 -171.108 658.445 -188.818 682.122 -194.405C695.359 -196.151 708.196 -191.611 721.683 -185.774C743.262 -176.495 765.79 -168.663 789.717 -170.31C793.113 -167.666 796.26 -165.171 800.756 -161.679C796.36 -157.04 793.213 -150.904 790.116 -150.904C780.725 -151.003 771.484 -149.257 761.544 -153.797C746.159 -160.831 729.426 -164.223 715.24 -174.899C707.647 -180.636 696.658 -181.933 686.368 -185.575C682.172 -181.285 677.676 -176.695 673.381 -172.355C673.381 -171.108 673.031 -169.91 673.431 -169.461C688.166 -153.847 703.002 -138.332 718.137 -122.418C717.288 -115.135 718.936 -108.001 727.528 -105.656C735.07 -103.611 737.967 -99.6696 738.567 -91.987C739.066 -85.1026 743.612 -81.9598 751.104 -80.114C765.44 -76.6219 766.09 -72.8804 758.098 -57.2658C780.575 -39.6557 796.81 -16.4583 811.345 5.84116C806.65 15.5691 801.955 25.2472 796.76 35.9728C801.255 39.0658 805.051 41.5602 808.748 44.2042C811.995 46.499 815.192 48.9434 819.238 51.9367C815.491 53.2337 812.594 54.1816 809.747 55.1793C807.949 71.0433 793.912 81.8688 792.813 99.0798C780.725 90.0004 769.686 81.6692 756.099 71.4923C754.651 76.2815 753.352 80.472 751.604 86.209C751.104 85.2112 753.152 89.3518 755.35 93.8416C757.099 92.4448 758.747 91.048 762.493 88.0049C761.794 92.8439 762.493 97.0843 760.745 98.7804C752.453 106.663 747.558 114.195 759.446 122.576C754.351 130.359 750.055 136.844 745.06 144.427C744.161 141.284 743.412 138.59 741.813 132.953C737.418 138.54 734.171 142.731 730.325 147.57C727.278 146.073 722.782 143.878 718.237 141.633C719.585 140.286 720.734 139.139 722.383 137.493C721.084 134.549 719.385 131.456 718.386 128.114C717.537 125.221 717.587 122.078 717.088 117.987C712.193 127.615 708.047 135.797 703.201 145.325C704.3 146.822 706.198 149.266 708.047 151.661C704.1 153.706 699.955 155.801 694.41 158.645C691.613 141.234 694.66 123.375 692.212 100.826C689.814 106.762 689.265 108.708 688.266 110.404C687.067 112.449 685.469 114.295 683.77 116.54C685.019 117.987 686.518 119.733 688.865 122.427C684.67 131.556 681.722 140.735 669.734 146.223C661.642 149.915 656.997 160.989 649.154 170.867L649.154 150.613C654.599 144.327 666.238 142.182 667.386 129.511C663.44 129.261 659.494 129.062 653.8 128.713L653.8 110.205C646.557 112 640.962 113.347 633.37 115.243C635.867 109.406 637.366 105.814 638.914 102.173C636.95 100.211 630.706 104.434 620.183 114.844C611.791 113.647 601.851 112.25 589.513 110.454C584.867 115.343 578.324 122.227 570.881 130.06C576.426 132.803 579.772 134.45 584.218 136.694C577.425 139.588 571.53 142.132 561.54 146.422C564.887 137.044 566.835 131.706 568.883 125.969C565.137 124.622 562.29 123.624 559.143 122.477C558.493 116.391 557.844 110.205 556.745 99.8281C554.297 106.912 553.298 109.805 552 113.547C546.405 108.608 540.561 106.862 534.617 114.445C533.718 108.608 533.018 104.019 531.869 96.2362C524.527 101.973 519.082 106.214 513.437 110.654C513.437 118.386 510.59 127.715 514.037 132.704C520.78 142.481 505.445 154.055 517.633 161.089C511.989 168.971 506.494 176.704 500.001 185.783C494.856 181.443 490.71 175.107 485.865 174.559C478.022 173.611 475.924 166.427 470.08 163.983C464.436 161.638 458.791 159.293 466.134 160.69C487.563 171.166 491.009 178.101 500.25 169.919C496.804 165.779 493.957 162.336 491.009 158.844C488.212 161.638 485.914 163.933 466.134 160.69L466.134 160.59ZM499.401 40.762C491.809 48.3448 487.613 52.4854 483.417 56.626C484.016 57.1748 484.616 57.7235 486.064 59.1203C494.306 59.5693 497.703 54.5806 483.567 53.4332C483.367 51.0886 483.067 47.9956 482.368 40.313C479.471 51.2382 465.534 45.152 468.981 57.5738C473.577 56.2768 478.372 54.8799 499.351 40.8118L499.401 40.762ZM457.592 111.901C454.895 113.048 451.398 114.495 443.057 117.937L479.621 117.937C475.824 113.647 473.327 110.753 473.227 110.654C465.185 106.812 460.939 118.635 457.642 111.901L457.592 111.901ZM459.291 63.66C447.752 64.8074 443.706 69.0977 443.306 79.8733C452.847 78.3767 457.742 75.0343 459.291 63.66ZM738.966 49.6418L738.966 68.7984C748.557 64.4583 749.956 58.0228 746.859 49.6418L738.966 49.6418Z" fill="#8682EF"/>
</mask>
<g mask="url(#mask1_454_299265)">
<path d="M763.942 18.9616C772.067 29.7667 767.803 33.0396 763.717 36.178C767.443 39.6303 772.112 43.9792 776.871 48.4178C781.45 43.3515 776.018 42.9928 775.569 40.7063C776.556 39.9889 777.903 38.3749 778.756 38.5991C781.405 39.2267 783.874 40.5718 786.478 41.6926C795.232 35.0572 804.614 27.9733 818.171 17.7063C811.617 31.4704 807.173 40.9304 802.639 50.4353C805.871 51.601 808.475 52.4977 811.482 53.5737C808.205 57.0708 805.332 60.1644 802.055 63.6614C804.973 64.6926 807.532 65.5893 810.36 66.5757C811.033 70.5659 811.752 74.6907 813.368 84.1059C815.298 74.2872 816.196 69.7589 817.049 65.2306C823.244 81.8642 813.278 93.2969 804.928 105.268C784.547 111.634 775.03 129.658 761.248 145.753C775.434 145.125 782.841 136.472 790.428 128.716C798.105 126.116 807.218 131.944 813.413 123.739C814.984 125.129 816.6 126.564 817.633 127.505C822.167 125.084 826.521 122.798 830.247 120.825C834.108 121.453 837.834 122.798 841.38 122.484C844.343 122.215 847.127 120.018 853.052 117.283C845.69 131.765 831.908 127.102 824.007 135.71C828.721 136.517 832.716 137.19 836.712 137.862C831.01 144.856 826.072 148.443 823.154 145.888C814.086 137.817 806.095 142.435 797.431 146.022C792.314 148.129 786.837 149.609 781.36 150.505C771.843 152.075 770.182 158.396 770.765 166.377C766.501 168.798 762.236 171.264 757.208 174.133C758.824 176.196 759.946 177.675 762.011 180.365C757.253 181.396 752.988 182.383 748.005 183.459C750.474 186.059 752.36 188.121 754.694 190.587C779.474 182.159 805.287 188.839 831.055 185.79C833.704 181.8 836.757 177.227 839.809 172.609C840.617 172.878 841.425 173.147 842.233 173.416C841.425 176.958 840.617 180.5 839.45 185.566C841.156 189.063 858.35 187.045 873.882 179.648C872.535 178.123 871.189 176.554 869.752 174.94C871.234 174.223 872.715 172.833 873.658 173.102C876.261 173.954 878.641 175.568 881.289 176.913C882.367 175.927 883.938 174.537 885.464 173.102L891.614 179.244C887.844 182.517 884.028 185.79 878.416 190.587H840.123C837.699 193.636 834.961 197.133 831.459 201.572C830.023 197.357 829.125 194.712 827.913 191.17C821.448 192.515 814.894 194.443 808.205 195.16C801.561 195.833 794.648 194.578 788.049 195.519C781.225 196.506 774.581 199.061 770.317 200.272C773.414 203.365 777.724 207.669 783.245 213.139C772.426 219.102 765.423 222.958 757.792 227.172C761.293 236.498 769.643 239.008 776.332 243.357C782.213 247.213 791.416 246.451 794.244 256.494C778.846 252.728 764.57 249.231 749.532 245.599C748.993 248.648 748.23 252.773 747.152 258.646C741.99 256.763 737.186 255.014 729.061 252.055C731.395 258.377 732.697 261.829 734.134 265.685C732.248 266.357 729.644 267.254 726.233 268.465C732.024 277.88 737.725 287.16 743.696 296.8C741.451 297.562 738.847 298.459 734.493 299.938C743.157 321.997 745.94 345.086 743.112 368.714C736.378 373.511 732.158 366.921 731.126 363.603C728.253 354.188 727.31 344.19 725.963 334.326C724.212 321.548 724.033 308.412 720.846 296.038C717.838 284.336 711.643 273.531 700.061 267.075C694.075 268.3 686.952 274.323 678.692 285.143C676.762 282.856 674.831 280.615 671.779 277.028V248.603C662.74 267.971 659.748 282.841 662.8 293.213C658.85 291.554 655.438 290.164 652.161 288.819C650.994 290.837 649.692 292.047 649.692 293.258C649.827 300.566 647.941 309.309 651.263 314.868C655.348 321.638 652.834 327.736 654.046 333.967C655.393 340.872 653.867 347.418 657.683 354.95C661.813 363.02 659.523 374.139 662.351 384.227C666.526 399.291 665.853 415.656 667.649 431.437C668.098 435.517 670.612 439.328 671.105 443.363C672.183 451.837 675.146 460.893 667.783 466.587C664.416 463.225 661.094 459.862 657.728 456.5C652.745 448.609 652.385 437.804 650.68 427.492C648.839 416.373 645.337 405.254 644.844 393.687C644.395 383.061 642.015 372.525 640.579 361.944C639.053 350.601 637.661 339.258 636.045 327.96C634.518 317.379 632.813 306.843 631.241 296.845C627.336 293.348 623.52 289.94 618.672 285.591H609.918C609.424 289.671 609.02 293.213 608.302 299.4C605.653 297.024 604.127 295.634 601.254 293.079C598.021 295.275 594.565 297.607 591.063 300.028C591.961 317.065 591.108 332.981 569.829 338.003C557.933 339.572 546.396 335.492 534.275 330.246C514.881 321.907 494.635 314.868 473.132 316.348C470.079 313.971 467.251 311.73 463.211 308.591C467.161 304.422 469.99 298.907 472.773 298.907C481.213 298.997 489.518 297.428 498.451 301.507C512.278 307.829 527.317 310.878 540.066 320.472C546.889 325.628 556.766 326.794 566.013 330.067C569.784 326.211 573.825 322.086 577.685 318.186C577.685 317.065 578 315.989 577.64 315.585C564.397 301.552 551.064 287.609 537.462 273.307C538.225 266.761 536.744 260.35 529.022 258.242C522.244 256.404 519.64 252.862 519.101 245.958C518.652 239.771 514.567 236.946 507.833 235.287C494.949 232.149 494.366 228.786 501.549 214.753C481.347 198.927 466.757 178.079 453.694 158.038C457.914 149.295 462.133 140.597 466.802 130.958C462.762 128.178 459.35 125.936 456.028 123.56C453.11 121.498 450.237 119.301 446.601 116.611C449.968 115.445 452.571 114.593 455.13 113.697C456.746 99.4392 469.361 89.7102 470.349 74.2423C481.213 82.4022 491.134 89.8895 503.344 99.0357C504.646 94.7316 505.813 90.9655 507.384 85.8096C507.833 86.7063 505.993 82.985 504.018 78.9499C502.446 80.2053 500.965 81.4607 497.598 84.1956C498.227 79.8466 497.598 76.0357 499.169 74.5113C506.621 67.4275 511.021 60.6575 500.336 53.1254C504.915 46.1312 508.776 40.3028 513.265 33.4879C514.073 36.3125 514.747 38.7336 516.183 43.7998C520.134 38.7784 523.052 35.0123 526.508 30.6634C529.247 32.0084 533.287 33.9811 537.372 35.9987C536.16 37.2092 535.128 38.2404 533.646 39.7199C534.813 42.3651 536.34 45.1449 537.238 48.1488C538.001 50.7492 537.956 53.5737 538.405 57.2501C542.804 48.5971 546.53 41.2443 550.885 32.6809C549.897 31.3359 548.191 29.139 546.53 26.987C550.077 25.1488 553.803 23.2657 558.786 20.7102C561.3 36.3574 558.561 52.408 560.761 72.6731C562.916 67.3379 563.41 65.5893 564.307 64.065C565.385 62.2267 566.821 60.5679 568.348 58.5503C567.225 57.2501 565.879 55.6809 563.769 53.2599C567.54 45.0552 570.188 36.8057 580.962 31.8739C588.235 28.5562 592.41 18.603 599.458 9.72577V27.9285C594.565 33.5776 584.105 35.5055 583.072 46.8934C586.619 47.1176 590.165 47.2969 595.283 47.6108V64.2443C601.792 62.6303 606.82 61.4197 613.644 59.716C611.399 64.9616 610.052 68.1897 608.661 71.4626C610.426 73.2261 616.038 69.4301 625.495 60.0747C633.037 61.1507 641.97 62.4061 653.059 64.0201C657.234 59.6264 663.115 53.4392 669.803 46.4002C664.82 43.9343 661.813 42.4548 657.817 40.4373C663.923 37.8369 669.22 35.5503 678.198 31.6946C675.191 40.1234 673.44 44.9207 671.599 50.0766C674.966 51.2872 677.525 52.1839 680.353 53.2151C680.937 58.6848 681.52 64.2443 682.508 73.5698C684.708 67.2034 685.605 64.603 686.773 61.2404C691.801 65.679 697.053 67.2482 702.395 60.4334C703.203 65.679 703.832 69.8037 704.864 76.7979C711.463 71.642 716.356 67.831 721.429 63.8408C721.429 56.8915 723.988 48.5074 720.891 44.024C714.83 35.2365 728.612 24.8349 717.658 18.5133C722.731 11.4295 727.669 4.48016 733.505 -3.67969C738.129 0.220897 741.855 5.91485 746.21 6.40803C753.258 7.25988 755.143 13.716 760.395 15.9129C765.468 18.0201 770.541 20.1273 763.942 18.872C744.683 9.45677 741.586 3.2248 733.281 10.5776C736.378 14.2989 738.937 17.3924 741.586 20.5308C744.1 18.0201 746.165 15.9577 763.942 18.872V18.9616ZM734.044 126.654C740.867 119.839 744.638 116.118 748.409 112.396C747.871 111.903 747.332 111.41 746.03 110.155C738.623 109.751 735.57 114.235 748.275 115.266C748.454 117.373 748.723 120.153 749.352 127.057C751.956 117.238 764.481 122.708 761.383 111.544C757.253 112.71 752.943 113.966 734.089 126.609L734.044 126.654ZM771.618 62.7199C774.043 61.6887 777.185 60.3885 784.682 57.295H751.821C755.233 61.1507 757.477 63.7511 757.567 63.8408C764.795 67.293 768.611 56.6673 771.573 62.7199H771.618ZM770.092 106.075C780.462 105.044 784.098 101.188 784.457 91.5035C775.883 92.8486 771.484 95.8525 770.092 106.075ZM518.742 118.673V101.457C510.123 105.357 508.866 111.141 511.649 118.673H518.742Z" fill="#8682EF"/>
</g>
</g>
<g clip-path="url(#clip3_454_299265)">
<mask id="mask2_454_299265" style="mask-type:alpha" maskUnits="userSpaceOnUse" x="752" y="-360" width="607" height="642">
<path d="M926.685 250.282C915.624 235.574 921.43 231.118 926.991 226.846C921.919 222.146 915.563 216.226 909.085 210.184C902.852 217.081 910.246 217.569 910.858 220.682C909.513 221.658 907.68 223.855 906.519 223.55C902.913 222.696 899.552 220.865 896.008 219.339C884.091 228.372 871.319 238.015 852.864 251.991C861.786 233.254 867.836 220.377 874.008 207.438C869.608 205.851 866.064 204.63 861.969 203.165C866.43 198.405 870.341 194.194 874.802 189.433C870.83 188.029 867.347 186.809 863.497 185.466C862.58 180.034 861.602 174.419 859.403 161.603C856.775 174.969 855.553 181.133 854.391 187.297C845.958 164.654 859.525 149.091 870.891 132.795C898.635 124.129 911.591 99.5939 930.352 77.6834C911.041 78.5378 900.958 90.317 890.63 100.876C880.18 104.415 867.775 96.4813 859.341 107.65C857.203 105.758 855.003 103.805 853.597 102.523C847.425 105.819 841.497 108.932 836.425 111.617C831.169 110.763 826.097 108.932 821.27 109.359C817.236 109.725 813.447 112.716 805.381 116.439C815.403 96.7254 834.164 103.073 844.919 91.3546C838.503 90.256 833.064 89.3405 827.625 88.425C835.386 78.904 842.108 74.0214 846.08 77.5003C858.425 88.4861 869.302 82.1998 881.097 77.3172C888.063 74.4487 895.519 72.4346 902.974 71.214C915.93 69.0779 918.191 60.4723 917.396 49.6086C923.202 46.3129 929.007 42.9561 935.852 39.05C933.652 36.2426 932.124 34.2285 929.313 30.5666C935.791 29.1628 941.596 27.8201 948.379 26.3553C945.018 22.8155 942.452 20.008 939.274 16.6513C905.541 28.1253 870.402 19.0315 835.325 23.1817C831.719 28.6135 827.564 34.8388 823.408 41.1251C822.308 40.7589 821.208 40.3927 820.108 40.0265C821.208 35.205 822.308 30.3835 823.897 23.4868C821.575 18.7263 798.17 21.4728 777.025 31.5431C778.859 33.6182 780.692 35.7543 782.648 37.9514C780.631 38.928 778.614 40.82 777.331 40.4538C773.787 39.2942 770.548 37.097 766.942 35.266C765.476 36.6087 763.337 38.5007 761.259 40.4538L752.887 32.0924C758.02 27.637 763.215 23.1817 770.853 16.6512L822.981 16.6512C826.281 12.5011 830.008 7.74055 834.775 1.69837C836.731 7.43539 837.953 11.0363 839.603 15.8578C848.403 14.0269 857.325 11.4025 866.43 10.426C875.475 9.51049 884.886 11.2194 893.869 9.93771C903.158 8.595 912.202 5.11616 918.008 3.46829C913.791 -0.742924 907.924 -6.602 900.408 -14.0479C915.135 -22.1652 924.669 -27.414 935.057 -33.151C930.291 -45.8457 918.924 -49.2635 909.819 -55.1836C901.813 -60.4324 889.286 -59.3948 885.436 -73.066C906.397 -67.9393 925.83 -63.1788 946.302 -58.2352C947.035 -62.3854 948.074 -68.0003 949.541 -75.9955C956.568 -73.4322 963.107 -71.0519 974.168 -67.0238C970.99 -75.6293 969.218 -80.3288 967.263 -85.5776C969.829 -86.493 973.374 -87.7137 978.018 -89.3616C970.135 -102.178 962.374 -114.812 954.246 -127.934C957.302 -128.971 960.846 -130.192 966.774 -132.206C954.979 -162.234 951.191 -193.665 955.041 -225.829C964.207 -232.36 969.952 -223.388 971.357 -218.872C975.268 -206.055 976.551 -192.445 978.385 -179.018C980.768 -161.624 981.013 -143.741 985.351 -126.896C989.446 -110.967 997.879 -96.2582 1013.65 -87.4696C1021.79 -89.1378 1031.49 -97.3364 1042.73 -112.066C1045.36 -108.953 1047.99 -105.901 1052.15 -101.019L1052.15 -62.3243C1064.45 -88.6902 1068.52 -108.933 1064.37 -123.051C1069.75 -120.793 1074.39 -118.901 1078.85 -117.07C1080.44 -119.817 1082.21 -121.464 1082.21 -123.112C1082.03 -133.061 1084.59 -144.962 1080.07 -152.53C1074.51 -161.746 1077.93 -170.046 1076.28 -178.529C1074.45 -187.928 1076.53 -196.839 1071.33 -207.093C1065.71 -218.078 1068.83 -233.214 1064.98 -246.947C1059.3 -267.453 1060.21 -289.73 1057.77 -311.213C1057.16 -316.767 1053.73 -321.955 1053.06 -327.448C1051.6 -338.983 1047.56 -351.311 1057.58 -359.063C1062.17 -354.485 1066.69 -349.908 1071.27 -345.33C1078.06 -334.589 1078.54 -319.88 1080.87 -305.843C1083.37 -290.707 1088.14 -275.571 1088.81 -259.824C1089.42 -245.36 1092.66 -231.017 1094.62 -216.614C1096.69 -201.172 1098.59 -185.731 1100.79 -170.351C1102.87 -155.948 1105.19 -141.605 1107.33 -127.995C1112.64 -123.234 1117.84 -118.596 1124.44 -112.676L1136.36 -112.676C1137.03 -118.23 1137.58 -123.051 1138.56 -131.474C1142.16 -128.239 1144.24 -126.347 1148.15 -122.868C1152.55 -125.859 1157.26 -129.032 1162.02 -132.328C1160.8 -155.52 1161.96 -177.187 1190.93 -184.022C1207.12 -186.159 1222.83 -180.605 1239.33 -173.464C1265.73 -162.112 1293.29 -152.53 1322.56 -154.544C1326.71 -151.309 1330.56 -148.258 1336.06 -143.985C1330.69 -138.309 1326.84 -130.802 1323.05 -130.802C1311.56 -130.924 1300.25 -128.788 1288.09 -134.342C1269.27 -142.948 1248.8 -147.098 1231.44 -160.159C1222.15 -167.178 1208.71 -168.764 1196.12 -173.22C1190.99 -167.971 1185.49 -162.356 1180.23 -157.046C1180.23 -155.52 1179.81 -154.056 1180.29 -153.506C1198.32 -134.403 1216.47 -115.422 1234.99 -95.953C1233.95 -87.0423 1235.97 -78.3147 1246.48 -75.4462C1255.7 -72.9439 1259.25 -68.1223 1259.98 -58.7234C1260.59 -50.301 1266.15 -46.4559 1275.32 -44.1978C1292.86 -39.9255 1293.65 -35.3481 1283.88 -16.2451C1311.38 5.29929 1331.24 33.6792 1349.02 60.9606C1343.28 72.8619 1337.53 84.7021 1331.18 97.824C1336.68 101.608 1341.32 104.66 1345.84 107.894C1349.81 110.702 1353.73 113.692 1358.68 117.354C1354.09 118.941 1350.55 120.101 1347.06 121.321C1344.86 140.73 1327.69 153.974 1326.35 175.03C1311.56 163.922 1298.05 153.729 1281.43 141.279C1279.66 147.138 1278.07 152.265 1275.93 159.283C1275.32 158.063 1277.83 163.128 1280.52 168.621C1282.65 166.912 1284.67 165.203 1289.25 161.481C1288.4 167.401 1289.25 172.588 1287.12 174.663C1276.97 184.307 1270.98 193.522 1285.53 203.776C1279.29 213.297 1274.04 221.231 1267.93 230.508C1266.83 226.663 1265.91 223.367 1263.95 216.47C1258.58 223.306 1254.6 228.433 1249.9 234.353C1246.17 232.522 1240.67 229.837 1235.11 227.09C1236.76 225.442 1238.17 224.038 1240.18 222.024C1238.59 218.424 1236.52 214.64 1235.29 210.55C1234.25 207.01 1234.32 203.165 1233.7 198.161C1227.72 209.94 1222.64 219.949 1216.72 231.606C1218.06 233.437 1220.38 236.428 1222.64 239.358C1217.82 241.86 1212.74 244.423 1205.96 247.902C1202.54 226.602 1206.27 204.752 1203.27 177.166C1200.34 184.429 1199.67 186.809 1198.44 188.884C1196.98 191.386 1195.02 193.644 1192.94 196.391C1194.47 198.161 1196.31 200.297 1199.18 203.593C1194.04 214.762 1190.44 225.991 1175.77 232.705C1165.87 237.221 1160.19 250.771 1150.59 262.855L1150.59 238.076C1157.26 230.386 1171.49 227.761 1172.9 212.259C1168.07 211.954 1163.24 211.71 1156.28 211.283L1156.28 188.64C1147.42 190.837 1140.57 192.485 1131.28 194.804C1134.34 187.663 1136.17 183.269 1138.07 178.814C1135.66 176.413 1128.02 181.58 1115.15 194.316C1104.88 192.851 1092.72 191.142 1077.63 188.945C1071.95 194.926 1063.94 203.349 1054.83 212.931C1061.62 216.287 1065.71 218.301 1071.15 221.048C1062.84 224.588 1055.63 227.7 1043.41 232.949C1047.5 221.475 1049.88 214.945 1052.39 207.926C1047.81 206.278 1044.32 205.057 1040.47 203.654C1039.68 196.208 1038.88 188.64 1037.54 175.945C1034.55 184.612 1033.32 188.152 1031.73 192.729C1024.89 186.687 1017.74 184.551 1010.47 193.828C1009.37 186.687 1008.51 181.072 1007.11 171.551C998.123 178.569 991.462 183.757 984.557 189.189C984.557 198.649 981.074 210.062 985.29 216.165C993.54 228.128 974.779 242.287 989.69 250.893C982.785 260.536 976.063 269.996 968.118 281.103C961.824 275.794 956.752 268.043 950.824 267.371C941.23 266.212 938.663 257.423 931.513 254.432C924.607 251.564 917.702 248.695 926.685 250.404C952.902 263.221 957.118 271.705 968.424 261.695C964.207 256.63 960.724 252.418 957.118 248.146C953.696 251.564 950.885 254.371 926.685 250.404L926.685 250.282ZM967.385 103.683C958.096 112.96 952.963 118.026 947.83 123.091C948.563 123.763 949.296 124.434 951.068 126.143C961.152 126.692 965.307 120.589 948.013 119.185C947.768 116.317 947.402 112.533 946.546 103.134C943.002 116.5 925.952 109.054 930.169 124.251C935.791 122.664 941.657 120.955 967.324 103.744L967.385 103.683ZM916.235 190.715C912.935 192.119 908.658 193.889 898.452 198.1L943.185 198.1C938.541 192.851 935.485 189.311 935.363 189.189C925.524 184.49 920.33 198.954 916.296 190.715L916.235 190.715ZM918.313 131.697C904.197 133.101 899.247 138.349 898.758 151.532C910.43 149.701 916.419 145.612 918.313 131.697ZM1260.47 114.547L1260.47 137.983C1272.2 132.673 1273.92 124.8 1270.13 114.547L1260.47 114.547Z" fill="#8682EF"/>
</mask>
<g mask="url(#mask2_454_299265)">
<path d="M1208.94 18.9616C1217.07 29.7667 1212.8 33.0396 1208.72 36.178C1212.44 39.6303 1217.11 43.9792 1221.87 48.4178C1226.45 43.3515 1221.02 42.9928 1220.57 40.7063C1221.56 39.9889 1222.9 38.3749 1223.76 38.5991C1226.4 39.2267 1228.87 40.5718 1231.48 41.6926C1240.23 35.0572 1249.61 27.9733 1263.17 17.7063C1256.62 31.4704 1252.17 40.9304 1247.64 50.4353C1250.87 51.601 1253.47 52.4977 1256.48 53.5737C1253.21 57.0708 1250.33 60.1644 1247.06 63.6614C1249.97 64.6926 1252.53 65.5893 1255.36 66.5757C1256.03 70.5659 1256.75 74.6907 1258.37 84.1059C1260.3 74.2872 1261.2 69.7589 1262.05 65.2306C1268.24 81.8642 1258.28 93.2969 1249.93 105.268C1229.55 111.634 1220.03 129.658 1206.25 145.753C1220.43 145.125 1227.84 136.472 1235.43 128.716C1243.1 126.116 1252.22 131.944 1258.41 123.739C1259.98 125.129 1261.6 126.564 1262.63 127.505C1267.17 125.084 1271.52 122.798 1275.25 120.825C1279.11 121.453 1282.83 122.798 1286.38 122.484C1289.34 122.215 1292.13 120.018 1298.05 117.283C1290.69 131.765 1276.91 127.102 1269.01 135.71C1273.72 136.517 1277.72 137.19 1281.71 137.862C1276.01 144.856 1271.07 148.443 1268.15 145.888C1259.09 137.817 1251.1 142.435 1242.43 146.022C1237.31 148.129 1231.84 149.609 1226.36 150.505C1216.84 152.075 1215.18 158.396 1215.77 166.377C1211.5 168.798 1207.24 171.264 1202.21 174.133C1203.82 176.196 1204.95 177.675 1207.01 180.365C1202.25 181.396 1197.99 182.383 1193.01 183.459C1195.47 186.059 1197.36 188.121 1199.69 190.587C1224.47 182.159 1250.29 188.839 1276.06 185.79C1278.7 181.8 1281.76 177.227 1284.81 172.609C1285.62 172.878 1286.43 173.147 1287.23 173.416C1286.43 176.958 1285.62 180.5 1284.45 185.566C1286.16 189.063 1303.35 187.045 1318.88 179.648C1317.54 178.123 1316.19 176.554 1314.75 174.94C1316.23 174.223 1317.71 172.833 1318.66 173.102C1321.26 173.954 1323.64 175.568 1326.29 176.913C1327.37 175.927 1328.94 174.537 1330.46 173.102L1336.61 179.244C1332.84 182.517 1329.03 185.79 1323.42 190.587H1285.12C1282.7 193.636 1279.96 197.133 1276.46 201.572C1275.02 197.357 1274.12 194.712 1272.91 191.17C1266.45 192.515 1259.89 194.443 1253.21 195.16C1246.56 195.833 1239.65 194.578 1233.05 195.519C1226.23 196.506 1219.58 199.061 1215.32 200.272C1218.41 203.365 1222.72 207.669 1228.25 213.139C1217.43 219.102 1210.42 222.958 1202.79 227.172C1206.29 236.498 1214.64 239.008 1221.33 243.357C1227.21 247.213 1236.42 246.451 1239.24 256.494C1223.85 252.728 1209.57 249.231 1194.53 245.599C1193.99 248.648 1193.23 252.773 1192.15 258.646C1186.99 256.763 1182.19 255.014 1174.06 252.055C1176.4 258.377 1177.7 261.829 1179.13 265.685C1177.25 266.357 1174.64 267.254 1171.23 268.465C1177.02 277.88 1182.72 287.16 1188.7 296.8C1186.45 297.562 1183.85 298.459 1179.49 299.938C1188.16 321.997 1190.94 345.086 1188.11 368.714C1181.38 373.511 1177.16 366.921 1176.13 363.603C1173.25 354.188 1172.31 344.19 1170.96 334.326C1169.21 321.548 1169.03 308.412 1165.85 296.038C1162.84 284.336 1156.64 273.531 1145.06 267.075C1139.08 268.3 1131.95 274.323 1123.69 285.143C1121.76 282.856 1119.83 280.615 1116.78 277.028V248.603C1107.74 267.971 1104.75 282.841 1107.8 293.213C1103.85 291.554 1100.44 290.164 1097.16 288.819C1095.99 290.837 1094.69 292.047 1094.69 293.258C1094.83 300.566 1092.94 309.309 1096.26 314.868C1100.35 321.638 1097.83 327.736 1099.05 333.967C1100.39 340.872 1098.87 347.418 1102.68 354.95C1106.81 363.02 1104.52 374.139 1107.35 384.227C1111.53 399.291 1110.85 415.656 1112.65 431.437C1113.1 435.517 1115.61 439.328 1116.11 443.363C1117.18 451.837 1120.15 460.893 1112.78 466.587C1109.42 463.225 1106.09 459.862 1102.73 456.5C1097.74 448.609 1097.39 437.804 1095.68 427.492C1093.84 416.373 1090.34 405.254 1089.84 393.687C1089.39 383.061 1087.02 372.525 1085.58 361.944C1084.05 350.601 1082.66 339.258 1081.04 327.96C1079.52 317.379 1077.81 306.843 1076.24 296.845C1072.34 293.348 1068.52 289.94 1063.67 285.591H1054.92C1054.42 289.671 1054.02 293.213 1053.3 299.4C1050.65 297.024 1049.13 295.634 1046.25 293.079C1043.02 295.275 1039.56 297.607 1036.06 300.028C1036.96 317.065 1036.11 332.981 1014.83 338.003C1002.93 339.572 991.396 335.492 979.275 330.246C959.881 321.907 939.635 314.868 918.132 316.348C915.079 313.971 912.251 311.73 908.211 308.591C912.161 304.422 914.99 298.907 917.773 298.907C926.213 298.997 934.518 297.428 943.451 301.507C957.278 307.829 972.317 310.878 985.066 320.472C991.889 325.628 1001.77 326.794 1011.01 330.067C1014.78 326.211 1018.82 322.086 1022.69 318.186C1022.69 317.065 1023 315.989 1022.64 315.585C1009.4 301.552 996.064 287.609 982.462 273.307C983.225 266.761 981.744 260.35 974.022 258.242C967.244 256.404 964.64 252.862 964.101 245.958C963.652 239.771 959.567 236.946 952.833 235.287C939.949 232.149 939.366 228.786 946.549 214.753C926.347 198.927 911.757 178.079 898.694 158.038C902.914 149.295 907.133 140.597 911.802 130.958C907.762 128.178 904.35 125.936 901.028 123.56C898.11 121.498 895.237 119.301 891.601 116.611C894.968 115.445 897.571 114.593 900.13 113.697C901.746 99.4392 914.361 89.7102 915.349 74.2423C926.213 82.4022 936.134 89.8895 948.344 99.0357C949.646 94.7316 950.813 90.9655 952.384 85.8096C952.833 86.7063 950.993 82.985 949.018 78.9499C947.446 80.2053 945.965 81.4607 942.598 84.1956C943.227 79.8466 942.598 76.0357 944.169 74.5113C951.621 67.4275 956.021 60.6575 945.336 53.1254C949.915 46.1312 953.776 40.3028 958.265 33.4879C959.073 36.3125 959.747 38.7336 961.183 43.7998C965.134 38.7784 968.052 35.0123 971.508 30.6634C974.247 32.0084 978.287 33.9811 982.372 35.9987C981.16 37.2092 980.128 38.2404 978.646 39.7199C979.813 42.3651 981.34 45.1449 982.238 48.1488C983.001 50.7492 982.956 53.5737 983.405 57.2501C987.804 48.5971 991.53 41.2443 995.885 32.6809C994.897 31.3359 993.191 29.139 991.53 26.987C995.077 25.1488 998.803 23.2657 1003.79 20.7102C1006.3 36.3574 1003.56 52.408 1005.76 72.6731C1007.92 67.3379 1008.41 65.5893 1009.31 64.065C1010.38 62.2267 1011.82 60.5679 1013.35 58.5503C1012.23 57.2501 1010.88 55.6809 1008.77 53.2599C1012.54 45.0552 1015.19 36.8057 1025.96 31.8739C1033.23 28.5562 1037.41 18.603 1044.46 9.72577V27.9285C1039.56 33.5776 1029.1 35.5055 1028.07 46.8934C1031.62 47.1176 1035.17 47.2969 1040.28 47.6108V64.2443C1046.79 62.6303 1051.82 61.4197 1058.64 59.716C1056.4 64.9616 1055.05 68.1897 1053.66 71.4626C1055.43 73.2261 1061.04 69.4301 1070.5 60.0747C1078.04 61.1507 1086.97 62.4061 1098.06 64.0201C1102.23 59.6264 1108.11 53.4392 1114.8 46.4002C1109.82 43.9343 1106.81 42.4548 1102.82 40.4373C1108.92 37.8369 1114.22 35.5503 1123.2 31.6946C1120.19 40.1234 1118.44 44.9207 1116.6 50.0766C1119.97 51.2872 1122.52 52.1839 1125.35 53.2151C1125.94 58.6848 1126.52 64.2443 1127.51 73.5698C1129.71 67.2034 1130.61 64.603 1131.77 61.2404C1136.8 65.679 1142.05 67.2482 1147.4 60.4334C1148.2 65.679 1148.83 69.8037 1149.86 76.7979C1156.46 71.642 1161.36 67.831 1166.43 63.8408C1166.43 56.8915 1168.99 48.5074 1165.89 44.024C1159.83 35.2365 1173.61 24.8349 1162.66 18.5133C1167.73 11.4295 1172.67 4.48016 1178.51 -3.67969C1183.13 0.220897 1186.86 5.91485 1191.21 6.40803C1198.26 7.25988 1200.14 13.716 1205.4 15.9129C1210.47 18.0201 1215.54 20.1273 1208.94 18.872C1189.68 9.45677 1186.59 3.2248 1178.28 10.5776C1181.38 14.2989 1183.94 17.3924 1186.59 20.5308C1189.1 18.0201 1191.16 15.9577 1208.94 18.872V18.9616ZM1179.04 126.654C1185.87 119.839 1189.64 116.118 1193.41 112.396C1192.87 111.903 1192.33 111.41 1191.03 110.155C1183.62 109.751 1180.57 114.235 1193.27 115.266C1193.45 117.373 1193.72 120.153 1194.35 127.057C1196.96 117.238 1209.48 122.708 1206.38 111.544C1202.25 112.71 1197.94 113.966 1179.09 126.609L1179.04 126.654ZM1216.62 62.7199C1219.04 61.6887 1222.18 60.3885 1229.68 57.295H1196.82C1200.23 61.1507 1202.48 63.7511 1202.57 63.8408C1209.79 67.293 1213.61 56.6673 1216.57 62.7199H1216.62ZM1215.09 106.075C1225.46 105.044 1229.1 101.188 1229.46 91.5035C1220.88 92.8486 1216.48 95.8525 1215.09 106.075ZM963.742 118.673V101.457C955.123 105.357 953.866 111.141 956.649 118.673H963.742Z" fill="#8682EF"/>
</g>
</g>
<g clip-path="url(#clip4_454_299265)">
<mask id="mask3_454_299265" style="mask-type:alpha" maskUnits="userSpaceOnUse" x="1209" y="-357" width="888" height="939">
<path d="M1842.23 -311.747C1858.45 -290.186 1849.94 -283.655 1841.79 -277.393C1849.22 -270.504 1858.54 -261.826 1868.03 -252.969C1877.17 -263.079 1866.33 -263.794 1865.43 -268.357C1867.4 -269.789 1870.09 -273.009 1871.79 -272.562C1877.08 -271.309 1882.01 -268.625 1887.2 -266.389C1904.67 -279.629 1923.39 -293.765 1950.44 -314.252C1937.37 -286.787 1928.5 -267.91 1919.45 -248.944C1925.9 -246.617 1931.1 -244.828 1937.1 -242.681C1930.56 -235.703 1924.82 -229.53 1918.29 -222.552C1924.11 -220.494 1929.21 -218.705 1934.86 -216.737C1936.2 -208.775 1937.63 -200.544 1940.86 -181.757C1944.71 -201.349 1946.5 -210.385 1948.2 -219.421C1960.57 -186.23 1940.68 -163.417 1924.02 -139.53C1883.35 -126.826 1864.36 -90.8619 1836.86 -58.7445C1865.17 -59.997 1879.95 -77.2634 1895.08 -92.7406C1910.4 -97.9295 1928.59 -86.2992 1940.95 -102.671C1944.08 -99.8977 1947.31 -97.0348 1949.37 -95.1561C1958.42 -99.9871 1967.11 -104.55 1974.54 -108.486C1982.24 -107.234 1989.68 -104.55 1996.76 -105.176C2002.67 -105.713 2008.22 -110.096 2020.05 -115.554C2005.36 -86.6571 1977.85 -95.9612 1962.09 -78.7843C1971.49 -77.1739 1979.47 -75.832 1987.44 -74.4901C1976.06 -60.5338 1966.21 -53.3767 1960.39 -58.4761C1942.29 -74.5795 1926.35 -65.3648 1909.06 -58.2077C1898.85 -54.003 1887.92 -51.0507 1876.99 -49.2614C1858 -46.1302 1854.68 -33.5158 1855.85 -17.5914C1847.34 -12.7604 1838.83 -7.83987 1828.8 -2.11422C1832.02 2.00109 1834.26 4.95338 1838.38 10.3212C1828.89 12.3788 1820.38 14.3471 1810.43 16.4942C1815.36 21.683 1819.12 25.7983 1823.78 30.7188C1873.23 13.8997 1924.74 27.2297 1976.15 21.1462C1981.44 13.184 1987.53 4.05875 1993.62 -5.15597C1995.23 -4.61919 1996.85 -4.08241 1998.46 -3.54563C1996.85 3.52197 1995.23 10.5896 1992.9 20.6989C1996.31 27.6771 2030.62 23.6512 2061.61 8.88977C2058.92 5.84801 2056.24 2.7168 2053.37 -0.503876C2056.33 -1.93529 2059.28 -4.70865 2061.16 -4.17187C2066.36 -2.47207 2071.11 0.748598 2076.39 3.4325C2078.54 1.46431 2081.68 -1.30904 2084.72 -4.17187L2096.99 8.0846C2089.47 14.6154 2081.86 21.1462 2070.66 30.7188H1994.25C1989.41 36.8023 1983.95 43.7805 1976.96 52.6373C1974.09 44.2278 1972.3 38.9494 1969.88 31.8818C1956.98 34.5657 1943.9 38.4127 1930.56 39.8441C1917.3 41.186 1903.5 38.6811 1890.34 40.5598C1876.72 42.528 1863.46 47.6274 1854.95 50.0429C1861.13 56.2159 1869.73 64.8044 1880.75 75.7189C1859.16 87.6175 1845.19 95.3114 1829.96 103.721C1836.95 122.329 1853.61 127.339 1866.96 136.017C1878.69 143.711 1897.06 142.19 1902.7 162.23C1871.97 154.715 1843.49 147.737 1813.48 140.49C1812.4 146.574 1810.88 154.804 1808.73 166.524C1798.43 162.767 1788.84 159.278 1772.63 153.373C1777.29 165.987 1779.89 172.876 1782.75 180.57C1778.99 181.912 1773.8 183.701 1766.99 186.117C1778.54 204.904 1789.92 223.423 1801.83 242.657C1797.35 244.178 1792.16 245.968 1783.47 248.92C1800.76 292.936 1806.31 339.009 1800.67 386.157C1787.23 395.729 1778.81 382.578 1776.75 375.958C1771.02 357.17 1769.14 337.22 1766.45 317.538C1762.96 292.041 1762.6 265.829 1756.24 241.137C1750.24 217.787 1737.87 196.226 1714.76 183.343C1702.82 185.789 1688.61 197.806 1672.12 219.397C1668.27 214.834 1664.42 210.361 1658.33 203.204V146.484C1640.29 185.133 1634.32 214.805 1640.41 235.5C1632.53 232.19 1625.72 229.417 1619.18 226.733C1616.85 230.759 1614.26 233.174 1614.26 235.59C1614.53 250.172 1610.76 267.618 1617.39 278.711C1625.54 292.22 1620.53 304.387 1622.95 316.823C1625.63 330.6 1622.59 343.662 1630.2 358.691C1638.44 374.795 1633.87 396.982 1639.52 417.111C1647.85 447.171 1646.5 479.825 1650.09 511.316C1650.98 519.457 1656 527.061 1656.99 535.113C1659.14 552.022 1665.05 570.093 1650.36 581.455C1643.64 574.745 1637.01 568.036 1630.29 561.326C1620.35 545.58 1619.63 524.02 1616.23 503.443C1612.55 481.256 1605.57 459.069 1604.58 435.988C1603.69 414.785 1598.94 393.761 1596.07 372.648C1593.03 350.013 1590.25 327.379 1587.02 304.834C1583.98 283.721 1580.58 262.697 1577.44 242.747C1569.65 235.769 1562.03 228.97 1552.36 220.292H1534.89C1533.9 228.433 1533.1 235.5 1531.67 247.846C1526.38 243.105 1523.33 240.331 1517.6 235.232C1511.15 239.616 1504.25 244.268 1497.27 249.099C1499.06 283.095 1497.36 314.854 1454.9 324.874C1431.16 328.006 1408.14 319.864 1383.95 309.397C1345.25 292.757 1304.85 278.711 1261.95 281.664C1255.85 276.922 1250.21 272.449 1242.15 266.186C1250.03 257.866 1255.67 246.862 1261.23 246.862C1278.07 247.041 1294.64 243.91 1312.47 252.051C1340.06 264.665 1370.07 270.749 1395.51 289.894C1409.12 300.182 1428.83 302.508 1447.28 309.039C1454.81 301.345 1462.87 293.115 1470.57 285.331C1470.57 283.095 1471.2 280.948 1470.48 280.143C1444.06 252.141 1417.45 224.317 1390.31 195.779C1391.83 182.717 1388.88 169.924 1373.47 165.719C1359.94 162.051 1354.75 154.983 1353.67 141.206C1352.78 128.86 1344.63 123.224 1331.19 119.914C1305.48 113.651 1304.32 106.942 1318.65 78.9396C1278.34 47.359 1249.23 5.75855 1223.16 -34.2316C1231.58 -51.6769 1240 -69.0328 1249.31 -88.2674C1241.25 -93.8141 1234.44 -98.2873 1227.82 -103.029C1221.99 -107.144 1216.26 -111.528 1209 -116.896C1215.72 -119.222 1220.92 -120.922 1226.02 -122.711C1229.25 -151.16 1254.42 -170.574 1256.39 -201.439C1278.07 -185.156 1297.87 -170.216 1322.23 -151.965C1324.83 -160.554 1327.16 -168.069 1330.29 -178.357C1331.19 -176.568 1327.52 -183.993 1323.58 -192.045C1320.44 -189.54 1317.48 -187.035 1310.77 -181.578C1312.02 -190.256 1310.77 -197.86 1313.9 -200.902C1328.77 -215.037 1337.55 -228.546 1316.23 -243.576C1325.37 -257.532 1333.07 -269.162 1342.03 -282.761C1343.64 -277.125 1344.98 -272.293 1347.85 -262.184C1355.73 -272.204 1361.56 -279.719 1368.45 -288.397C1373.92 -285.713 1381.98 -281.777 1390.13 -277.751C1387.71 -275.335 1385.65 -273.278 1382.7 -270.325C1385.03 -265.047 1388.07 -259.5 1389.86 -253.506C1391.39 -248.317 1391.3 -242.681 1392.19 -235.345C1400.97 -252.612 1408.41 -267.284 1417.09 -284.371C1415.12 -287.055 1411.72 -291.439 1408.41 -295.733C1415.48 -299.401 1422.92 -303.158 1432.86 -308.258C1437.88 -277.035 1432.41 -245.007 1436.8 -204.57C1441.1 -215.216 1442.09 -218.705 1443.88 -221.747C1446.03 -225.415 1448.9 -228.725 1451.94 -232.751C1449.7 -235.345 1447.01 -238.476 1442.8 -243.307C1450.33 -259.679 1455.61 -276.14 1477.11 -285.981C1491.62 -292.602 1499.95 -312.463 1514.02 -330.176V-293.854C1504.25 -282.582 1483.38 -278.735 1481.32 -256.011C1488.4 -255.564 1495.48 -255.206 1505.69 -254.58V-221.389C1518.68 -224.61 1528.71 -227.025 1542.33 -230.425C1537.85 -219.957 1535.16 -213.516 1532.38 -206.985C1535.91 -203.466 1547.1 -211.041 1565.97 -229.709C1581.02 -227.562 1598.85 -225.057 1620.98 -221.836C1629.31 -230.604 1641.04 -242.949 1654.39 -256.995C1644.44 -261.916 1638.44 -264.868 1630.47 -268.894C1642.65 -274.083 1653.22 -278.645 1671.14 -286.339C1665.14 -269.52 1661.64 -259.948 1657.97 -249.659C1664.69 -247.244 1669.8 -245.454 1675.44 -243.397C1676.6 -232.482 1677.77 -221.389 1679.74 -202.78C1684.13 -215.484 1685.92 -220.673 1688.25 -227.383C1698.28 -218.526 1708.76 -215.395 1719.42 -228.993C1721.03 -218.526 1722.29 -210.295 1724.35 -196.339C1737.52 -206.627 1747.28 -214.232 1757.4 -222.194C1757.4 -236.061 1762.51 -252.79 1756.33 -261.737C1744.23 -279.272 1771.74 -300.027 1749.88 -312.641C1760 -326.777 1769.85 -340.643 1781.5 -356.926C1790.73 -349.142 1798.16 -337.781 1806.85 -336.797C1820.91 -335.097 1824.68 -322.214 1835.16 -317.83C1845.28 -313.626 1855.4 -309.421 1842.23 -311.926C1803.8 -330.713 1797.62 -343.148 1781.05 -328.476C1787.23 -321.051 1792.34 -314.878 1797.62 -308.616C1802.64 -313.626 1806.76 -317.741 1842.23 -311.926V-311.747ZM1782.57 -96.8559C1796.19 -110.454 1803.71 -117.88 1811.24 -125.305C1810.16 -126.289 1809.09 -127.273 1806.49 -129.778C1791.71 -130.584 1785.62 -121.637 1810.97 -119.58C1811.33 -115.375 1811.87 -109.828 1813.12 -96.0507C1818.32 -115.643 1843.31 -104.729 1837.13 -127.005C1828.89 -124.679 1820.29 -122.174 1782.66 -96.9453L1782.57 -96.8559ZM1857.55 -224.431C1862.39 -226.488 1868.66 -229.083 1883.62 -235.256H1818.05C1824.86 -227.562 1829.33 -222.373 1829.51 -222.194C1843.94 -215.305 1851.55 -236.508 1857.46 -224.431H1857.55ZM1854.51 -137.92C1875.2 -139.977 1882.45 -147.671 1883.17 -166.995C1866.06 -164.311 1857.28 -158.317 1854.51 -137.92ZM1352.96 -112.78V-147.134C1335.76 -139.351 1333.25 -127.81 1338.8 -112.78H1352.96Z" fill="#8682EF"/>
</mask>
<g mask="url(#mask3_454_299265)">
<path d="M1653.94 18.9616C1662.07 29.7667 1657.8 33.0396 1653.72 36.178C1657.44 39.6303 1662.11 43.9792 1666.87 48.4178C1671.45 43.3515 1666.02 42.9928 1665.57 40.7063C1666.56 39.9889 1667.9 38.3749 1668.76 38.5991C1671.4 39.2267 1673.87 40.5718 1676.48 41.6926C1685.23 35.0571 1694.61 27.9733 1708.17 17.7063C1701.62 31.4704 1697.17 40.9304 1692.64 50.4353C1695.87 51.601 1698.47 52.4977 1701.48 53.5737C1698.21 57.0708 1695.33 60.1644 1692.05 63.6614C1694.97 64.6926 1697.53 65.5893 1700.36 66.5757C1701.03 70.5659 1701.75 74.6907 1703.37 84.1059C1705.3 74.2872 1706.2 69.7589 1707.05 65.2306C1713.24 81.8642 1703.28 93.2969 1694.93 105.268C1674.55 111.634 1665.03 129.658 1651.25 145.753C1665.43 145.125 1672.84 136.472 1680.43 128.716C1688.1 126.116 1697.22 131.944 1703.41 123.739C1704.98 125.129 1706.6 126.564 1707.63 127.505C1712.17 125.084 1716.52 122.798 1720.25 120.825C1724.11 121.453 1727.83 122.798 1731.38 122.484C1734.34 122.215 1737.13 120.018 1743.05 117.283C1735.69 131.765 1721.91 127.102 1714.01 135.71C1718.72 136.517 1722.72 137.19 1726.71 137.862C1721.01 144.856 1716.07 148.443 1713.15 145.888C1704.09 137.817 1696.1 142.435 1687.43 146.022C1682.31 148.129 1676.84 149.609 1671.36 150.505C1661.84 152.075 1660.18 158.396 1660.77 166.377C1656.5 168.798 1652.24 171.264 1647.21 174.133C1648.82 176.196 1649.95 177.675 1652.01 180.365C1647.25 181.396 1642.99 182.383 1638 183.459C1640.47 186.059 1642.36 188.121 1644.69 190.587C1669.47 182.159 1695.29 188.839 1721.06 185.79C1723.7 181.8 1726.76 177.227 1729.81 172.609C1730.62 172.878 1731.43 173.147 1732.23 173.416C1731.43 176.958 1730.62 180.5 1729.45 185.566C1731.16 189.063 1748.35 187.045 1763.88 179.648C1762.54 178.123 1761.19 176.554 1759.75 174.94C1761.23 174.223 1762.71 172.833 1763.66 173.102C1766.26 173.954 1768.64 175.568 1771.29 176.913C1772.37 175.927 1773.94 174.537 1775.46 173.102L1781.61 179.244C1777.84 182.517 1774.03 185.79 1768.42 190.587H1730.12C1727.7 193.636 1724.96 197.133 1721.46 201.572C1720.02 197.357 1719.12 194.712 1717.91 191.17C1711.45 192.515 1704.89 194.443 1698.21 195.16C1691.56 195.833 1684.65 194.578 1678.05 195.519C1671.22 196.506 1664.58 199.061 1660.32 200.272C1663.41 203.365 1667.72 207.669 1673.25 213.139C1662.43 219.102 1655.42 222.958 1647.79 227.172C1651.29 236.498 1659.64 239.008 1666.33 243.357C1672.21 247.213 1681.42 246.451 1684.24 256.494C1668.85 252.728 1654.57 249.231 1639.53 245.599C1638.99 248.648 1638.23 252.773 1637.15 258.646C1631.99 256.763 1627.19 255.014 1619.06 252.055C1621.39 258.377 1622.7 261.829 1624.13 265.685C1622.25 266.357 1619.64 267.254 1616.23 268.465C1622.02 277.88 1627.72 287.16 1633.7 296.8C1631.45 297.562 1628.85 298.459 1624.49 299.938C1633.16 321.997 1635.94 345.086 1633.11 368.714C1626.38 373.511 1622.16 366.921 1621.13 363.603C1618.25 354.188 1617.31 344.19 1615.96 334.326C1614.21 321.548 1614.03 308.412 1610.85 296.038C1607.84 284.336 1601.64 273.531 1590.06 267.075C1584.07 268.3 1576.95 274.323 1568.69 285.143C1566.76 282.856 1564.83 280.615 1561.78 277.028V248.603C1552.74 267.971 1549.75 282.841 1552.8 293.213C1548.85 291.554 1545.44 290.164 1542.16 288.819C1540.99 290.837 1539.69 292.047 1539.69 293.258C1539.83 300.566 1537.94 309.309 1541.26 314.868C1545.35 321.638 1542.83 327.735 1544.05 333.967C1545.39 340.872 1543.87 347.418 1547.68 354.95C1551.81 363.02 1549.52 374.139 1552.35 384.227C1556.53 399.291 1555.85 415.656 1557.65 431.437C1558.1 435.517 1560.61 439.328 1561.11 443.363C1562.18 451.837 1565.15 460.893 1557.78 466.587C1554.42 463.225 1551.09 459.862 1547.73 456.5C1542.74 448.609 1542.39 437.804 1540.68 427.492C1538.84 416.373 1535.34 405.254 1534.84 393.687C1534.39 383.061 1532.02 372.525 1530.58 361.944C1529.05 350.601 1527.66 339.258 1526.04 327.96C1524.52 317.379 1522.81 306.843 1521.24 296.845C1517.34 293.348 1513.52 289.94 1508.67 285.591H1499.92C1499.42 289.671 1499.02 293.213 1498.3 299.4C1495.65 297.024 1494.13 295.634 1491.25 293.079C1488.02 295.275 1484.56 297.607 1481.06 300.028C1481.96 317.065 1481.11 332.981 1459.83 338.003C1447.93 339.572 1436.4 335.492 1424.27 330.246C1404.88 321.907 1384.63 314.868 1363.13 316.348C1360.08 313.971 1357.25 311.73 1353.21 308.591C1357.16 304.422 1359.99 298.907 1362.77 298.907C1371.21 298.997 1379.52 297.428 1388.45 301.507C1402.28 307.829 1417.32 310.878 1430.07 320.472C1436.89 325.628 1446.77 326.794 1456.01 330.067C1459.78 326.211 1463.82 322.086 1467.69 318.186C1467.69 317.065 1468 315.989 1467.64 315.585C1454.4 301.552 1441.06 287.609 1427.46 273.307C1428.23 266.761 1426.74 260.35 1419.02 258.242C1412.24 256.404 1409.64 252.862 1409.1 245.958C1408.65 239.771 1404.57 236.946 1397.83 235.287C1384.95 232.149 1384.37 228.786 1391.55 214.753C1371.35 198.927 1356.76 178.079 1343.69 158.038C1347.91 149.295 1352.13 140.597 1356.8 130.958C1352.76 128.178 1349.35 125.936 1346.03 123.56C1343.11 121.498 1340.24 119.301 1336.6 116.611C1339.97 115.445 1342.57 114.593 1345.13 113.697C1346.75 99.4392 1359.36 89.7102 1360.35 74.2423C1371.21 82.4022 1381.13 89.8895 1393.34 99.0357C1394.65 94.7316 1395.81 90.9655 1397.38 85.8096C1397.83 86.7063 1395.99 82.985 1394.02 78.9499C1392.45 80.2053 1390.96 81.4607 1387.6 84.1955C1388.23 79.8466 1387.6 76.0357 1389.17 74.5114C1396.62 67.4275 1401.02 60.6575 1390.34 53.1254C1394.92 46.1312 1398.78 40.3028 1403.27 33.4879C1404.07 36.3125 1404.75 38.7336 1406.18 43.7998C1410.13 38.7784 1413.05 35.0123 1416.51 30.6634C1419.25 32.0084 1423.29 33.9811 1427.37 35.9987C1426.16 37.2092 1425.13 38.2404 1423.65 39.7199C1424.81 42.3651 1426.34 45.1449 1427.24 48.1488C1428 50.7492 1427.96 53.5737 1428.4 57.2501C1432.8 48.5971 1436.53 41.2443 1440.88 32.6809C1439.9 31.3359 1438.19 29.139 1436.53 26.987C1440.08 25.1488 1443.8 23.2657 1448.79 20.7102C1451.3 36.3574 1448.56 52.408 1450.76 72.6731C1452.92 67.3379 1453.41 65.5893 1454.31 64.065C1455.38 62.2268 1456.82 60.5679 1458.35 58.5503C1457.23 57.2501 1455.88 55.6809 1453.77 53.2599C1457.54 45.0552 1460.19 36.8057 1470.96 31.8739C1478.23 28.5562 1482.41 18.603 1489.46 9.72577V27.9285C1484.56 33.5776 1474.1 35.5055 1473.07 46.8934C1476.62 47.1176 1480.16 47.2969 1485.28 47.6108V64.2443C1491.79 62.6303 1496.82 61.4197 1503.64 59.716C1501.4 64.9616 1500.05 68.1897 1498.66 71.4626C1500.43 73.2261 1506.04 69.4301 1515.49 60.0747C1523.04 61.1507 1531.97 62.4061 1543.06 64.0201C1547.23 59.6264 1553.11 53.4392 1559.8 46.4002C1554.82 43.9343 1551.81 42.4548 1547.82 40.4373C1553.92 37.8369 1559.22 35.5503 1568.2 31.6946C1565.19 40.1234 1563.44 44.9207 1561.6 50.0766C1564.97 51.2872 1567.52 52.1839 1570.35 53.2151C1570.94 58.6848 1571.52 64.2443 1572.51 73.5698C1574.71 67.2034 1575.61 64.603 1576.77 61.2404C1581.8 65.679 1587.05 67.2482 1592.39 60.4334C1593.2 65.679 1593.83 69.8037 1594.86 76.7979C1601.46 71.642 1606.36 67.831 1611.43 63.8408C1611.43 56.8915 1613.99 48.5074 1610.89 44.024C1604.83 35.2365 1618.61 24.8349 1607.66 18.5133C1612.73 11.4295 1617.67 4.48016 1623.5 -3.67969C1628.13 0.220897 1631.85 5.91485 1636.21 6.40803C1643.26 7.25988 1645.14 13.716 1650.4 15.9129C1655.47 18.0201 1660.54 20.1273 1653.94 18.872C1634.68 9.45677 1631.59 3.2248 1623.28 10.5776C1626.38 14.2989 1628.94 17.3924 1631.59 20.5308C1634.1 18.0201 1636.16 15.9577 1653.94 18.872V18.9616ZM1624.04 126.654C1630.87 119.839 1634.64 116.118 1638.41 112.396C1637.87 111.903 1637.33 111.41 1636.03 110.155C1628.62 109.751 1625.57 114.235 1638.27 115.266C1638.45 117.373 1638.72 120.153 1639.35 127.057C1641.96 117.238 1654.48 122.708 1651.38 111.544C1647.25 112.71 1642.94 113.966 1624.09 126.609L1624.04 126.654ZM1661.62 62.7199C1664.04 61.6887 1667.18 60.3885 1674.68 57.295H1641.82C1645.23 61.1507 1647.48 63.7511 1647.57 63.8408C1654.79 67.293 1658.61 56.6673 1661.57 62.7199H1661.62ZM1660.09 106.075C1670.46 105.044 1674.1 101.188 1674.46 91.5035C1665.88 92.8486 1661.48 95.8525 1660.09 106.075ZM1408.74 118.673V101.457C1400.12 105.357 1398.87 111.141 1401.65 118.673H1408.74Z" fill="#8682EF"/>
</g>
</g>
<g clip-path="url(#clip5_454_299265)">
<mask id="mask4_454_299265" style="mask-type:alpha" maskUnits="userSpaceOnUse" x="1568" y="-248" width="1196" height="1263">
<path d="M2420.61 -186.452C2442.42 -157.453 2430.97 -148.669 2420.01 -140.246C2430.01 -130.981 2442.54 -119.309 2455.31 -107.396C2467.6 -120.993 2453.02 -121.956 2451.81 -128.093C2454.46 -130.018 2458.08 -134.35 2460.37 -133.748C2467.48 -132.064 2474.1 -128.454 2481.09 -125.446C2504.58 -143.254 2529.77 -162.266 2566.15 -189.821C2548.56 -152.88 2536.63 -127.491 2524.46 -101.982C2533.14 -98.8532 2540.13 -96.4467 2548.2 -93.5588C2539.4 -84.1733 2531.69 -75.8707 2522.9 -66.4852C2530.73 -63.7176 2537.6 -61.3111 2545.19 -58.6639C2546.99 -47.9548 2548.92 -36.8847 2553.26 -11.6159C2558.44 -37.9676 2560.85 -50.1207 2563.14 -62.2737C2579.77 -17.6323 2553.02 13.0512 2530.61 45.1786C2475.91 62.2651 2450.37 110.637 2413.38 153.834C2451.45 152.15 2471.33 128.926 2491.69 108.11C2512.3 101.131 2536.75 116.773 2553.38 94.7534C2557.6 98.4836 2561.93 102.334 2564.71 104.861C2576.87 98.3632 2588.56 92.2266 2598.56 86.9322C2608.92 88.6168 2618.92 92.2266 2628.44 91.3843C2636.39 90.6623 2643.86 84.7663 2659.77 77.4263C2640.01 116.292 2603.02 103.778 2581.81 126.881C2594.46 129.047 2605.19 130.852 2615.91 132.657C2600.61 151.428 2587.36 161.054 2579.52 154.195C2555.19 132.536 2533.74 144.93 2510.49 154.556C2496.75 160.212 2482.05 164.182 2467.36 166.589C2441.81 170.8 2437.36 187.766 2438.92 209.185C2427.48 215.682 2416.03 222.3 2402.54 230.001C2406.87 235.536 2409.89 239.507 2415.43 246.727C2402.66 249.494 2391.21 252.142 2377.84 255.029C2384.46 262.008 2389.52 267.543 2395.79 274.161C2462.3 251.54 2531.57 269.469 2600.73 261.286C2607.84 250.577 2616.03 238.304 2624.22 225.91C2626.39 226.632 2628.56 227.354 2630.73 228.076C2628.56 237.582 2626.39 247.088 2623.26 260.685C2627.84 270.07 2673.98 264.656 2715.67 244.802C2712.05 240.71 2708.44 236.499 2704.58 232.167C2708.56 230.242 2712.54 226.512 2715.07 227.234C2722.05 229.52 2728.44 233.852 2735.55 237.462C2738.44 234.814 2742.66 231.084 2746.75 227.234L2763.26 243.719C2753.14 252.503 2742.9 261.286 2727.84 274.161H2625.07C2618.56 282.344 2611.21 291.729 2601.81 303.642C2597.96 292.331 2595.55 285.232 2592.3 275.726C2574.95 279.336 2557.36 284.51 2539.4 286.435C2521.57 288.24 2503.02 284.871 2485.31 287.397C2466.99 290.045 2449.16 296.903 2437.72 300.152C2446.03 308.455 2457.6 320.006 2472.42 334.686C2443.38 350.69 2424.58 361.038 2404.1 372.349C2413.5 397.377 2435.91 404.115 2453.86 415.787C2469.64 426.135 2494.34 424.089 2501.93 451.043C2460.61 440.935 2422.3 431.55 2381.93 421.803C2380.49 429.985 2378.44 441.055 2375.55 456.818C2361.69 451.765 2348.8 447.072 2326.99 439.13C2333.26 456.096 2336.75 465.362 2340.61 475.71C2335.55 477.515 2328.56 479.921 2319.4 483.17C2334.95 508.439 2350.25 533.347 2366.27 559.217C2360.25 561.263 2353.26 563.669 2341.57 567.64C2364.83 626.841 2372.3 688.809 2364.71 752.222C2346.63 765.097 2335.31 747.409 2332.54 738.505C2324.83 713.236 2322.3 686.403 2318.68 659.931C2313.98 625.638 2313.5 590.382 2304.95 557.171C2296.87 525.766 2280.25 496.767 2249.16 479.44C2233.1 482.729 2213.98 498.893 2191.81 527.932C2186.63 521.795 2181.45 515.779 2173.26 506.153V429.865C2149 481.846 2140.97 521.755 2149.16 549.591C2138.56 545.139 2129.4 541.409 2120.61 537.799C2117.48 543.213 2113.98 546.462 2113.98 549.711C2114.34 569.324 2109.28 592.788 2118.2 607.709C2129.16 625.878 2122.42 642.243 2125.67 658.968C2129.28 677.499 2125.19 695.067 2135.43 715.282C2146.51 736.94 2140.37 766.782 2147.96 793.855C2159.16 834.285 2157.36 878.205 2162.18 920.56C2163.38 931.51 2170.13 941.738 2171.45 952.567C2174.34 975.309 2182.3 999.615 2162.54 1014.9C2153.5 1005.87 2144.58 996.847 2135.55 987.823C2122.18 966.645 2121.21 937.646 2116.63 909.971C2111.69 880.13 2102.3 850.289 2100.97 819.244C2099.77 790.727 2093.38 762.45 2089.52 734.053C2085.43 703.61 2081.69 673.167 2077.36 642.844C2073.26 614.447 2068.68 586.17 2064.46 559.337C2053.98 549.952 2043.74 540.807 2030.73 529.135H2007.24C2005.91 540.085 2004.83 549.591 2002.9 566.196C1995.79 559.819 1991.69 556.088 1983.98 549.23C1975.31 555.126 1966.03 561.383 1956.63 567.881C1959.04 613.605 1956.75 656.321 1899.64 669.798C1867.72 674.009 1836.75 663.059 1804.22 648.981C1752.17 626.6 1697.84 607.709 1640.13 611.68C1631.93 605.302 1624.34 599.286 1613.5 590.863C1624.1 579.672 1631.69 564.872 1639.16 564.872C1661.81 565.113 1684.1 560.902 1708.08 571.851C1745.19 588.818 1785.55 597 1819.77 622.75C1838.08 636.587 1864.58 639.716 1889.4 648.5C1899.52 638.152 1910.37 627.081 1920.73 616.613C1920.73 613.605 1921.57 610.717 1920.61 609.634C1885.07 571.972 1849.28 534.55 1812.78 496.165C1814.83 478.598 1810.85 461.391 1790.13 455.735C1771.93 450.802 1764.95 441.296 1763.5 422.766C1762.3 406.161 1751.33 398.58 1733.26 394.128C1698.68 385.705 1697.11 376.68 1716.39 339.018C1662.17 296.542 1623.02 240.59 1587.96 186.804C1599.28 163.34 1610.61 139.997 1623.14 114.126C1612.3 106.666 1603.14 100.649 1594.22 94.2722C1586.39 88.7371 1578.68 82.841 1568.92 75.6214C1577.96 72.4929 1584.95 70.2067 1591.81 67.8001C1596.15 29.536 1630.01 3.425 1632.66 -38.0879C1661.81 -16.1884 1688.44 3.90632 1721.21 28.4531C1724.71 16.9017 1727.84 6.79416 1732.05 -7.04348C1733.26 -4.63693 1728.32 -14.6241 1723.02 -25.4535C1718.8 -22.0844 1714.83 -18.7152 1705.79 -11.3753C1707.48 -23.047 1705.79 -33.2748 1710.01 -37.3659C1730.01 -56.3777 1741.81 -74.5471 1713.14 -94.7621C1725.43 -113.533 1735.79 -129.176 1747.84 -147.465C1750.01 -139.885 1751.81 -133.387 1755.67 -119.79C1766.27 -133.267 1774.1 -143.374 1783.38 -155.046C1790.73 -151.436 1801.57 -146.142 1812.54 -140.727C1809.28 -137.478 1806.51 -134.711 1802.54 -130.74C1805.67 -123.641 1809.77 -116.18 1812.17 -108.118C1814.22 -101.139 1814.1 -93.5588 1815.31 -83.692C1827.11 -106.915 1837.11 -126.649 1848.8 -149.631C1846.15 -153.241 1841.57 -159.137 1837.11 -164.913C1846.63 -169.846 1856.63 -174.9 1870.01 -181.759C1876.75 -139.764 1869.4 -96.6873 1875.31 -42.2994C1881.09 -56.6183 1882.42 -61.3111 1884.83 -65.4022C1887.72 -70.3356 1891.57 -74.7878 1895.67 -80.2025C1892.66 -83.692 1889.04 -87.9034 1883.38 -94.4011C1893.5 -116.421 1900.61 -138.561 1929.52 -151.797C1949.04 -160.701 1960.25 -187.414 1979.16 -211.239V-162.386C1966.03 -147.225 1937.96 -142.051 1935.19 -111.488C1944.71 -110.886 1954.22 -110.405 1967.96 -109.562V-64.9209C1985.43 -69.2527 1998.92 -72.5015 2017.24 -77.074C2011.21 -62.9957 2007.6 -54.3321 2003.86 -45.5482C2008.6 -40.8153 2023.66 -51.0031 2049.04 -76.1114C2069.28 -73.2235 2093.26 -69.8543 2123.02 -65.5225C2134.22 -77.3146 2150.01 -93.9198 2167.96 -112.811C2154.58 -119.429 2146.51 -123.4 2135.79 -128.815C2152.17 -135.794 2166.39 -141.93 2190.49 -152.279C2182.42 -129.657 2177.72 -116.782 2172.78 -102.944C2181.81 -99.6955 2188.68 -97.2889 2196.27 -94.5214C2197.84 -79.8415 2199.4 -64.9209 2202.05 -39.8928C2207.96 -56.9793 2210.37 -63.9583 2213.5 -72.9828C2226.99 -61.0704 2241.09 -56.859 2255.43 -75.1487C2257.6 -61.0704 2259.28 -50.0003 2262.05 -31.2292C2279.77 -45.0669 2292.9 -55.2947 2306.51 -66.0039C2306.51 -84.6546 2313.38 -107.156 2305.07 -119.189C2288.8 -142.773 2325.79 -170.689 2296.39 -187.655C2310.01 -206.666 2323.26 -225.317 2338.92 -247.217C2351.33 -236.748 2361.33 -221.467 2373.02 -220.143C2391.93 -217.857 2396.99 -200.53 2411.09 -194.634C2424.71 -188.978 2438.32 -183.323 2420.61 -186.692C2368.92 -211.961 2360.61 -228.686 2338.32 -208.953C2346.63 -198.966 2353.5 -190.663 2360.61 -182.24C2367.36 -188.978 2372.9 -194.513 2420.61 -186.692V-186.452ZM2340.37 102.575C2358.68 84.285 2368.8 74.2978 2378.92 64.3106C2377.48 62.987 2376.03 61.6634 2372.54 58.2943C2352.66 57.2113 2344.46 69.244 2378.56 72.0116C2379.04 77.667 2379.77 85.1273 2381.45 103.658C2388.44 77.306 2422.05 91.9859 2413.74 62.0244C2402.66 65.1529 2391.09 68.5221 2340.49 102.454L2340.37 102.575ZM2441.21 -69.012C2447.72 -71.7796 2456.15 -75.2691 2476.27 -83.5716H2388.08C2397.24 -73.2235 2403.26 -66.2445 2403.5 -66.0039C2422.9 -56.7387 2433.14 -85.2562 2441.09 -69.012H2441.21ZM2437.11 47.3445C2464.95 44.5769 2474.71 34.2288 2475.67 8.2381C2452.66 11.8479 2440.85 19.9098 2437.11 47.3445ZM1762.54 81.1565V34.9508C1739.4 45.4193 1736.03 60.9415 1743.5 81.1565H1762.54Z" fill="#8682EF"/>
</mask>
<g mask="url(#mask4_454_299265)">
<path d="M2098.94 18.9616C2107.07 29.7667 2102.8 33.0396 2098.72 36.178C2102.44 39.6303 2107.11 43.9792 2111.87 48.4178C2116.45 43.3515 2111.02 42.9928 2110.57 40.7063C2111.56 39.9889 2112.9 38.3749 2113.76 38.5991C2116.4 39.2267 2118.87 40.5718 2121.48 41.6926C2130.23 35.0571 2139.61 27.9733 2153.17 17.7063C2146.62 31.4704 2142.17 40.9304 2137.64 50.4353C2140.87 51.601 2143.47 52.4977 2146.48 53.5737C2143.21 57.0708 2140.33 60.1644 2137.05 63.6614C2139.97 64.6926 2142.53 65.5893 2145.36 66.5757C2146.03 70.5659 2146.75 74.6907 2148.37 84.1059C2150.3 74.2872 2151.2 69.7589 2152.05 65.2306C2158.24 81.8642 2148.28 93.2969 2139.93 105.268C2119.55 111.634 2110.03 129.658 2096.25 145.753C2110.43 145.125 2117.84 136.472 2125.43 128.716C2133.1 126.116 2142.22 131.944 2148.41 123.739C2149.98 125.129 2151.6 126.564 2152.63 127.505C2157.17 125.084 2161.52 122.798 2165.25 120.825C2169.11 121.453 2172.83 122.798 2176.38 122.484C2179.34 122.215 2182.13 120.018 2188.05 117.283C2180.69 131.765 2166.91 127.102 2159.01 135.71C2163.72 136.517 2167.72 137.19 2171.71 137.862C2166.01 144.856 2161.07 148.443 2158.15 145.888C2149.09 137.817 2141.1 142.435 2132.43 146.022C2127.31 148.129 2121.84 149.609 2116.36 150.505C2106.84 152.075 2105.18 158.396 2105.77 166.377C2101.5 168.798 2097.24 171.264 2092.21 174.133C2093.82 176.196 2094.95 177.675 2097.01 180.365C2092.25 181.396 2087.99 182.383 2083 183.459C2085.47 186.059 2087.36 188.121 2089.69 190.587C2114.47 182.159 2140.29 188.839 2166.06 185.79C2168.7 181.8 2171.76 177.227 2174.81 172.609C2175.62 172.878 2176.43 173.147 2177.23 173.416C2176.43 176.958 2175.62 180.5 2174.45 185.566C2176.16 189.063 2193.35 187.045 2208.88 179.648C2207.54 178.123 2206.19 176.554 2204.75 174.94C2206.23 174.223 2207.71 172.833 2208.66 173.102C2211.26 173.954 2213.64 175.568 2216.29 176.913C2217.37 175.927 2218.94 174.537 2220.46 173.102L2226.61 179.244C2222.84 182.517 2219.03 185.79 2213.42 190.587H2175.12C2172.7 193.636 2169.96 197.133 2166.46 201.572C2165.02 197.357 2164.12 194.712 2162.91 191.17C2156.45 192.515 2149.89 194.443 2143.21 195.16C2136.56 195.833 2129.65 194.578 2123.05 195.519C2116.22 196.506 2109.58 199.061 2105.32 200.272C2108.41 203.365 2112.72 207.669 2118.25 213.139C2107.43 219.102 2100.42 222.958 2092.79 227.172C2096.29 236.498 2104.64 239.008 2111.33 243.357C2117.21 247.213 2126.42 246.451 2129.24 256.494C2113.85 252.728 2099.57 249.231 2084.53 245.599C2083.99 248.648 2083.23 252.773 2082.15 258.646C2076.99 256.763 2072.19 255.014 2064.06 252.055C2066.39 258.377 2067.7 261.829 2069.13 265.685C2067.25 266.357 2064.64 267.254 2061.23 268.465C2067.02 277.88 2072.72 287.16 2078.7 296.8C2076.45 297.562 2073.85 298.459 2069.49 299.938C2078.16 321.997 2080.94 345.086 2078.11 368.714C2071.38 373.511 2067.16 366.921 2066.13 363.603C2063.25 354.188 2062.31 344.19 2060.96 334.326C2059.21 321.548 2059.03 308.412 2055.85 296.038C2052.84 284.336 2046.64 273.531 2035.06 267.075C2029.07 268.3 2021.95 274.323 2013.69 285.143C2011.76 282.856 2009.83 280.615 2006.78 277.028V248.603C1997.74 267.971 1994.75 282.841 1997.8 293.213C1993.85 291.554 1990.44 290.164 1987.16 288.819C1985.99 290.837 1984.69 292.047 1984.69 293.258C1984.83 300.566 1982.94 309.309 1986.26 314.868C1990.35 321.638 1987.83 327.735 1989.05 333.967C1990.39 340.872 1988.87 347.418 1992.68 354.95C1996.81 363.02 1994.52 374.139 1997.35 384.227C2001.53 399.291 2000.85 415.656 2002.65 431.437C2003.1 435.517 2005.61 439.328 2006.11 443.363C2007.18 451.837 2010.15 460.893 2002.78 466.587C1999.42 463.225 1996.09 459.862 1992.73 456.5C1987.74 448.609 1987.39 437.804 1985.68 427.492C1983.84 416.373 1980.34 405.254 1979.84 393.687C1979.39 383.061 1977.02 372.525 1975.58 361.944C1974.05 350.601 1972.66 339.258 1971.04 327.96C1969.52 317.379 1967.81 306.843 1966.24 296.845C1962.34 293.348 1958.52 289.94 1953.67 285.591H1944.92C1944.42 289.671 1944.02 293.213 1943.3 299.4C1940.65 297.024 1939.13 295.634 1936.25 293.079C1933.02 295.275 1929.56 297.607 1926.06 300.028C1926.96 317.065 1926.11 332.981 1904.83 338.003C1892.93 339.572 1881.4 335.492 1869.27 330.246C1849.88 321.907 1829.63 314.868 1808.13 316.348C1805.08 313.971 1802.25 311.73 1798.21 308.591C1802.16 304.422 1804.99 298.907 1807.77 298.907C1816.21 298.997 1824.52 297.428 1833.45 301.507C1847.28 307.829 1862.32 310.878 1875.07 320.472C1881.89 325.628 1891.77 326.794 1901.01 330.067C1904.78 326.211 1908.82 322.086 1912.69 318.186C1912.69 317.065 1913 315.989 1912.64 315.585C1899.4 301.552 1886.06 287.609 1872.46 273.307C1873.23 266.761 1871.74 260.35 1864.02 258.242C1857.24 256.404 1854.64 252.862 1854.1 245.958C1853.65 239.771 1849.57 236.946 1842.83 235.287C1829.95 232.149 1829.37 228.786 1836.55 214.753C1816.35 198.927 1801.76 178.079 1788.69 158.038C1792.91 149.295 1797.13 140.597 1801.8 130.958C1797.76 128.178 1794.35 125.936 1791.03 123.56C1788.11 121.498 1785.24 119.301 1781.6 116.611C1784.97 115.445 1787.57 114.593 1790.13 113.697C1791.75 99.4392 1804.36 89.7102 1805.35 74.2423C1816.21 82.4022 1826.13 89.8895 1838.34 99.0357C1839.65 94.7316 1840.81 90.9655 1842.38 85.8096C1842.83 86.7063 1840.99 82.985 1839.02 78.9499C1837.45 80.2053 1835.96 81.4607 1832.6 84.1955C1833.23 79.8466 1832.6 76.0357 1834.17 74.5114C1841.62 67.4275 1846.02 60.6575 1835.34 53.1254C1839.92 46.1312 1843.78 40.3028 1848.27 33.4879C1849.07 36.3125 1849.75 38.7336 1851.18 43.7998C1855.13 38.7784 1858.05 35.0123 1861.51 30.6634C1864.25 32.0084 1868.29 33.9811 1872.37 35.9987C1871.16 37.2092 1870.13 38.2404 1868.65 39.7199C1869.81 42.3651 1871.34 45.1449 1872.24 48.1488C1873 50.7492 1872.96 53.5737 1873.4 57.2501C1877.8 48.5971 1881.53 41.2443 1885.88 32.6809C1884.9 31.3359 1883.19 29.139 1881.53 26.987C1885.08 25.1488 1888.8 23.2657 1893.79 20.7102C1896.3 36.3574 1893.56 52.408 1895.76 72.6731C1897.92 67.3379 1898.41 65.5893 1899.31 64.065C1900.38 62.2268 1901.82 60.5679 1903.35 58.5503C1902.23 57.2501 1900.88 55.6809 1898.77 53.2599C1902.54 45.0552 1905.19 36.8057 1915.96 31.8739C1923.23 28.5562 1927.41 18.603 1934.46 9.72577V27.9285C1929.56 33.5776 1919.1 35.5055 1918.07 46.8934C1921.62 47.1176 1925.16 47.2969 1930.28 47.6108V64.2443C1936.79 62.6303 1941.82 61.4197 1948.64 59.716C1946.4 64.9616 1945.05 68.1897 1943.66 71.4626C1945.43 73.2261 1951.04 69.4301 1960.49 60.0747C1968.04 61.1507 1976.97 62.4061 1988.06 64.0201C1992.23 59.6264 1998.11 53.4392 2004.8 46.4002C1999.82 43.9343 1996.81 42.4548 1992.82 40.4373C1998.92 37.8369 2004.22 35.5503 2013.2 31.6946C2010.19 40.1234 2008.44 44.9207 2006.6 50.0766C2009.97 51.2872 2012.52 52.1839 2015.35 53.2151C2015.94 58.6848 2016.52 64.2443 2017.51 73.5698C2019.71 67.2034 2020.61 64.603 2021.77 61.2404C2026.8 65.679 2032.05 67.2482 2037.39 60.4334C2038.2 65.679 2038.83 69.8037 2039.86 76.7979C2046.46 71.642 2051.36 67.831 2056.43 63.8408C2056.43 56.8915 2058.99 48.5074 2055.89 44.024C2049.83 35.2365 2063.61 24.8349 2052.66 18.5133C2057.73 11.4295 2062.67 4.48016 2068.5 -3.67969C2073.13 0.220897 2076.85 5.91485 2081.21 6.40803C2088.26 7.25988 2090.14 13.716 2095.4 15.9129C2100.47 18.0201 2105.54 20.1273 2098.94 18.872C2079.68 9.45677 2076.59 3.2248 2068.28 10.5776C2071.38 14.2989 2073.94 17.3924 2076.59 20.5308C2079.1 18.0201 2081.16 15.9577 2098.94 18.872V18.9616ZM2069.04 126.654C2075.87 119.839 2079.64 116.118 2083.41 112.396C2082.87 111.903 2082.33 111.41 2081.03 110.155C2073.62 109.751 2070.57 114.235 2083.27 115.266C2083.45 117.373 2083.72 120.153 2084.35 127.057C2086.96 117.238 2099.48 122.708 2096.38 111.544C2092.25 112.71 2087.94 113.966 2069.09 126.609L2069.04 126.654ZM2106.62 62.7199C2109.04 61.6887 2112.18 60.3885 2119.68 57.295H2086.82C2090.23 61.1507 2092.48 63.7511 2092.57 63.8408C2099.79 67.293 2103.61 56.6673 2106.57 62.7199H2106.62ZM2105.09 106.075C2115.46 105.044 2119.1 101.188 2119.46 91.5035C2110.88 92.8486 2106.48 95.8525 2105.09 106.075ZM1853.74 118.673V101.457C1845.12 105.357 1843.87 111.141 1846.65 118.673H1853.74Z" fill="#8682EF"/>
</g>
</g>
</g>
<defs>
<clipPath id="clip0_454_299265">
<rect width="2223" height="470" fill="white"/>
</clipPath>
<clipPath id="clip1_454_299265">
<rect width="445" height="470" fill="white"/>
</clipPath>
<clipPath id="clip2_454_299265">
<rect width="445" height="470" fill="white" transform="translate(445)"/>
</clipPath>
<clipPath id="clip3_454_299265">
<rect width="445" height="470" fill="white" transform="translate(890)"/>
</clipPath>
<clipPath id="clip4_454_299265">
<rect width="445" height="470" fill="white" transform="translate(1335)"/>
</clipPath>
<clipPath id="clip5_454_299265">
<rect width="445" height="470" fill="white" transform="translate(1780)"/>
</clipPath>
</defs>
</svg>
