<svg width="445" height="470" viewBox="0 0 445 470" fill="none" xmlns="http://www.w3.org/2000/svg">
<g clip-path="url(#clip0_454_299278)">
<mask id="mask0_454_299278" style="mask-type:alpha" maskUnits="userSpaceOnUse" x="-126" y="-357" width="888" height="939">
<path d="M507.233 -311.747C523.447 -290.186 514.937 -283.655 506.786 -277.393C514.221 -270.504 523.537 -261.826 533.032 -252.969C542.169 -263.079 531.33 -263.794 530.434 -268.357C532.405 -269.789 535.092 -273.009 536.794 -272.562C542.079 -271.309 547.006 -268.625 552.202 -266.389C569.669 -279.629 588.391 -293.765 615.444 -314.252C602.366 -286.787 593.497 -267.91 584.45 -248.944C590.9 -246.617 596.095 -244.828 602.097 -242.681C595.558 -235.703 589.825 -229.53 583.285 -222.552C589.108 -220.494 594.214 -218.705 599.857 -216.737C601.201 -208.775 602.634 -200.544 605.859 -181.757C609.711 -201.349 611.503 -210.385 613.205 -219.421C625.566 -186.23 605.68 -163.417 589.018 -139.53C548.35 -126.826 529.359 -90.8619 501.859 -58.7445C530.165 -59.997 544.946 -77.2634 560.085 -92.7406C575.402 -97.9295 593.587 -86.2992 605.949 -102.671C609.084 -99.8977 612.309 -97.0348 614.369 -95.1561C623.416 -99.9871 632.106 -104.55 639.541 -108.486C647.244 -107.234 654.679 -104.55 661.756 -105.176C667.668 -105.713 673.222 -110.096 685.046 -115.554C670.356 -86.6571 642.855 -95.9612 627.089 -78.7843C636.495 -77.1739 644.467 -75.832 652.44 -74.4901C641.063 -60.5338 631.21 -53.3767 625.387 -58.4761C607.292 -74.5795 591.347 -65.3648 574.059 -58.2077C563.847 -54.003 552.918 -51.0507 541.99 -49.2614C522.999 -46.1302 519.685 -33.5158 520.849 -17.5914C512.339 -12.7604 503.829 -7.83987 493.797 -2.11422C497.021 2.00109 499.261 4.95338 503.382 10.3212C493.886 12.3788 485.376 14.3471 475.433 16.4942C480.36 21.683 484.122 25.7983 488.78 30.7188C538.227 13.8997 589.735 27.2297 641.153 21.1462C646.438 13.184 652.529 4.05875 658.621 -5.15597C660.233 -4.61919 661.846 -4.08241 663.458 -3.54563C661.846 3.52197 660.233 10.5896 657.904 20.6989C661.308 27.6771 695.617 23.6512 726.611 8.88977C723.923 5.84801 721.236 2.7168 718.369 -0.503876C721.326 -1.93529 724.282 -4.70865 726.163 -4.17187C731.358 -2.47207 736.106 0.748598 741.391 3.4325C743.541 1.46431 746.676 -1.30904 749.722 -4.17187L761.994 8.0846C754.47 14.6154 746.855 21.1462 735.658 30.7188H659.248C654.411 36.8023 648.946 43.7805 641.959 52.6373C639.093 44.2278 637.301 38.9494 634.882 31.8818C621.983 34.5657 608.905 38.4127 595.558 39.8441C582.3 41.186 568.505 38.6811 555.337 40.5598C541.721 42.528 528.463 47.6274 519.954 50.0429C526.134 56.2159 534.734 64.8044 545.752 75.7189C524.164 87.6175 510.19 95.3114 494.961 103.721C501.948 122.329 518.61 127.339 531.957 136.017C543.692 143.711 562.055 142.19 567.699 162.23C536.973 154.715 508.487 147.737 478.479 140.49C477.404 146.574 475.881 154.804 473.731 166.524C463.43 162.767 453.845 159.278 437.631 153.373C442.289 165.987 444.887 172.876 447.753 180.57C443.991 181.912 438.796 183.701 431.988 186.117C443.543 204.904 454.92 223.423 466.834 242.657C462.355 244.178 457.159 245.968 448.47 248.92C465.759 292.936 471.312 339.009 465.669 386.157C452.232 395.729 443.812 382.578 441.752 375.958C436.019 357.17 434.138 337.22 431.45 317.538C427.957 292.041 427.598 265.829 421.238 241.137C415.237 217.787 402.875 196.226 379.764 183.343C367.82 185.789 353.607 197.806 337.124 219.397C333.272 214.834 329.42 210.361 323.329 203.204V146.484C305.294 185.133 299.322 214.805 305.414 235.5C297.531 232.19 290.723 229.417 284.183 226.733C281.854 230.759 279.257 233.174 279.257 235.59C279.525 250.172 275.763 267.618 282.392 278.711C290.544 292.22 285.527 304.387 287.946 316.823C290.633 330.6 287.587 343.662 295.202 358.691C303.443 374.795 298.874 396.982 304.518 417.111C312.849 447.171 311.505 479.825 315.088 511.316C315.984 519.457 321 527.061 321.986 535.113C324.135 552.022 330.048 570.093 315.357 581.455C308.638 574.745 302.01 568.036 295.291 561.326C285.348 545.58 284.631 524.02 281.227 503.443C277.555 481.256 270.568 459.069 269.582 435.988C268.686 414.785 263.939 393.761 261.072 372.648C258.027 350.013 255.25 327.379 252.025 304.834C248.979 283.721 245.575 262.697 242.44 242.747C234.647 235.769 227.033 228.97 217.358 220.292H199.89C198.905 228.433 198.099 235.5 196.665 247.846C191.38 243.105 188.335 240.331 182.602 235.232C176.152 239.616 169.254 244.268 162.267 249.099C164.059 283.095 162.357 314.854 119.897 324.874C96.1586 328.006 73.137 319.864 48.9508 309.397C10.253 292.757 -30.1468 278.711 -73.0548 281.664C-79.1462 276.922 -84.7896 272.449 -92.8516 266.186C-84.9687 257.866 -79.3253 246.862 -73.7715 246.862C-56.9307 247.041 -40.3587 243.91 -22.5327 252.051C5.05745 264.665 35.0662 270.749 60.5064 289.894C74.1223 300.182 93.8296 302.508 112.283 309.039C119.807 301.345 127.869 293.115 135.573 285.331C135.573 283.095 136.2 280.948 135.483 280.143C109.058 252.141 82.4531 224.317 55.3109 195.779C56.8337 182.717 53.8776 169.924 38.4702 165.719C24.9438 162.051 19.7483 154.983 18.6734 141.206C17.7776 128.86 9.62595 123.224 -3.8108 119.914C-29.5198 113.651 -30.6843 106.942 -16.3518 78.9396C-56.662 47.359 -85.7749 5.75855 -111.842 -34.2316C-103.422 -51.6769 -95.0015 -69.0328 -85.6854 -88.2674C-93.7474 -93.8141 -100.555 -98.2873 -107.184 -103.029C-113.007 -107.144 -118.74 -111.528 -125.996 -116.896C-119.277 -119.222 -114.082 -120.922 -108.976 -122.711C-105.751 -151.16 -80.5794 -170.574 -78.6087 -201.439C-56.9307 -185.156 -37.1339 -170.216 -12.7686 -151.965C-10.1709 -160.554 -7.84182 -168.069 -4.70658 -178.357C-3.8108 -176.568 -7.48351 -183.993 -11.425 -192.045C-14.5602 -189.54 -17.5163 -187.035 -24.2347 -181.578C-22.9806 -190.256 -24.2347 -197.86 -21.0994 -200.902C-6.22941 -215.037 2.54926 -228.546 -18.7704 -243.576C-9.63339 -257.532 -1.92966 -269.162 7.02817 -282.761C8.64058 -277.125 9.98427 -272.293 12.8508 -262.184C20.7337 -272.204 26.5562 -279.719 33.4538 -288.397C38.918 -285.713 46.9801 -281.777 55.1317 -277.751C52.7131 -275.335 50.6528 -273.278 47.6967 -270.325C50.0258 -265.047 53.0714 -259.5 54.863 -253.506C56.3858 -248.317 56.2963 -242.681 57.192 -235.345C65.9707 -252.612 73.4057 -267.284 82.0948 -284.371C80.1241 -287.055 76.7201 -291.439 73.4057 -295.733C80.4824 -299.401 87.9174 -303.158 97.8606 -308.258C102.877 -277.035 97.4127 -245.007 101.802 -204.57C106.102 -215.216 107.087 -218.705 108.879 -221.747C111.029 -225.415 113.895 -228.725 116.941 -232.751C114.701 -235.345 112.014 -238.476 107.804 -243.307C115.328 -259.679 120.613 -276.14 142.112 -285.981C156.624 -292.602 164.955 -312.463 179.019 -330.176V-293.854C169.254 -282.582 148.383 -278.735 146.322 -256.011C153.399 -255.564 160.476 -255.206 170.688 -254.58V-221.389C183.677 -224.61 193.709 -227.025 207.325 -230.425C202.846 -219.957 200.159 -213.516 197.382 -206.985C200.906 -203.466 212.103 -211.041 230.974 -229.709C246.023 -227.562 263.849 -225.057 285.975 -221.836C294.306 -230.604 306.041 -242.949 319.388 -256.995C309.445 -261.916 303.443 -264.868 295.47 -268.894C307.653 -274.083 318.223 -278.645 336.139 -286.339C330.137 -269.52 326.644 -259.948 322.971 -249.659C329.689 -247.244 334.795 -245.454 340.439 -243.397C341.603 -232.482 342.768 -221.389 344.738 -202.78C349.128 -215.484 350.919 -220.673 353.248 -227.383C363.281 -218.526 373.762 -215.395 384.422 -228.993C386.034 -218.526 387.288 -210.295 389.348 -196.339C402.516 -206.627 412.28 -214.232 422.403 -222.194C422.403 -236.061 427.509 -252.79 421.328 -261.737C409.235 -279.272 436.735 -300.027 414.878 -312.641C425.001 -326.777 434.854 -340.643 446.499 -356.926C455.726 -349.142 463.161 -337.781 471.85 -336.797C485.914 -335.097 489.676 -322.214 500.157 -317.83C510.279 -313.626 520.401 -309.421 507.233 -311.926C468.804 -330.713 462.623 -343.148 446.051 -328.476C452.232 -321.051 457.338 -314.878 462.623 -308.616C467.64 -313.626 471.76 -317.741 507.233 -311.926V-311.747ZM447.574 -96.8559C461.19 -110.454 468.715 -117.88 476.239 -125.305C475.164 -126.289 474.089 -127.273 471.492 -129.778C456.711 -130.584 450.62 -121.637 475.971 -119.58C476.329 -115.375 476.866 -109.828 478.12 -96.0507C483.316 -115.643 508.308 -104.729 502.127 -127.005C493.886 -124.679 485.287 -122.174 447.664 -96.9453L447.574 -96.8559ZM522.551 -224.431C527.388 -226.488 533.659 -229.083 548.619 -235.256H483.047C489.855 -227.562 494.334 -222.373 494.513 -222.194C508.935 -215.305 516.55 -236.508 522.462 -224.431H522.551ZM519.506 -137.92C540.198 -139.977 547.454 -147.671 548.171 -166.995C531.061 -164.311 522.283 -158.317 519.506 -137.92ZM17.9567 -112.78V-147.134C0.757693 -139.351 -1.75049 -127.81 3.80336 -112.78H17.9567Z" fill="#8682EF"/>
</mask>
<g mask="url(#mask0_454_299278)">
<path d="M318.942 18.9616C327.067 29.7667 322.802 33.0396 318.717 36.178C322.443 39.6303 327.112 43.9792 331.87 48.4178C336.449 43.3515 331.018 42.9928 330.569 40.7063C331.556 39.9889 332.903 38.3749 333.756 38.5991C336.405 39.2267 338.874 40.5718 341.477 41.6926C350.231 35.0571 359.614 27.9733 373.171 17.7063C366.617 31.4704 362.173 40.9304 357.638 50.4353C360.871 51.601 363.474 52.4977 366.482 53.5737C363.205 57.0708 360.332 60.1644 357.055 63.6614C359.973 64.6926 362.532 65.5893 365.36 66.5757C366.033 70.5659 366.751 74.6907 368.368 84.1059C370.298 74.2872 371.196 69.7589 372.049 65.2306C378.244 81.8642 368.278 93.2969 359.928 105.268C339.547 111.634 330.03 129.658 316.248 145.753C330.434 145.125 337.841 136.472 345.428 128.716C353.104 126.116 362.217 131.944 368.413 123.739C369.984 125.129 371.6 126.564 372.632 127.505C377.166 125.084 381.521 122.798 385.247 120.825C389.108 121.453 392.834 122.798 396.38 122.484C399.343 122.215 402.126 120.018 408.052 117.283C400.69 131.765 386.908 127.102 379.007 135.71C383.721 136.517 387.716 137.19 391.711 137.862C386.01 144.856 381.072 148.443 378.154 145.888C369.086 137.817 361.095 142.435 352.431 146.022C347.313 148.129 341.836 149.609 336.36 150.505C326.843 152.075 325.182 158.396 325.765 166.377C321.5 168.798 317.236 171.264 312.208 174.133C313.824 176.196 314.946 177.675 317.011 180.365C312.253 181.396 307.988 182.383 303.005 183.459C305.474 186.059 307.359 188.121 309.694 190.587C334.474 182.159 360.287 188.839 386.055 185.79C388.704 181.8 391.756 177.227 394.809 172.609C395.617 172.878 396.425 173.147 397.233 173.416C396.425 176.958 395.617 180.5 394.45 185.566C396.156 189.063 413.349 187.045 428.882 179.648C427.535 178.123 426.188 176.554 424.752 174.94C426.233 174.223 427.715 172.833 428.657 173.102C431.261 173.954 433.64 175.568 436.289 176.913C437.366 175.927 438.938 174.537 440.464 173.102L446.614 179.244C442.843 182.517 439.027 185.79 433.416 190.587H395.123C392.699 193.636 389.961 197.133 386.459 201.572C385.023 197.357 384.125 194.712 382.913 191.17C376.448 192.515 369.894 194.443 363.205 195.16C356.561 195.833 349.648 194.578 343.049 195.519C336.225 196.506 329.581 199.061 325.316 200.272C328.414 203.365 332.723 207.669 338.245 213.139C327.426 219.102 320.423 222.958 312.791 227.172C316.293 236.498 324.643 239.008 331.332 243.357C337.213 247.213 346.415 246.451 349.244 256.494C333.846 252.728 319.57 249.231 304.531 245.599C303.993 248.648 303.229 252.773 302.152 258.646C296.989 256.763 292.186 255.014 284.061 252.055C286.395 258.377 287.697 261.829 289.133 265.685C287.248 266.357 284.644 267.254 281.232 268.465C287.023 277.88 292.725 287.16 298.695 296.8C296.451 297.562 293.847 298.459 289.492 299.938C298.157 321.997 300.94 345.086 298.112 368.714C291.378 373.511 287.158 366.921 286.126 363.603C283.253 354.188 282.31 344.19 280.963 334.326C279.212 321.548 279.033 308.412 275.845 296.038C272.838 284.336 266.643 273.531 255.06 267.075C249.075 268.3 241.952 274.323 233.692 285.143C231.761 282.856 229.831 280.615 226.778 277.028V248.603C217.74 267.971 214.747 282.841 217.8 293.213C213.85 291.554 210.438 290.164 207.161 288.819C205.994 290.837 204.692 292.047 204.692 293.258C204.826 300.566 202.941 309.309 206.263 314.868C210.348 321.638 207.834 327.735 209.046 333.967C210.393 340.872 208.867 347.418 212.682 354.95C216.812 363.02 214.523 374.139 217.351 384.227C221.526 399.291 220.853 415.656 222.648 431.437C223.097 435.517 225.611 439.328 226.105 443.363C227.183 451.837 230.145 460.893 222.783 466.587C219.416 463.225 216.094 459.862 212.727 456.5C207.744 448.609 207.385 437.804 205.679 427.492C203.839 416.373 200.337 405.254 199.843 393.687C199.394 383.061 197.015 372.525 195.579 361.944C194.052 350.601 192.661 339.258 191.045 327.96C189.518 317.379 187.812 306.843 186.241 296.845C182.335 293.348 178.52 289.94 173.671 285.591H164.917C164.424 289.671 164.02 293.213 163.301 299.4C160.653 297.024 159.126 295.634 156.253 293.079C153.021 295.275 149.564 297.607 146.063 300.028C146.961 317.065 146.108 332.981 124.829 338.003C112.933 339.572 101.395 335.492 89.2745 330.246C69.8812 321.907 49.6349 314.868 28.1317 316.348C25.0791 313.971 22.2509 311.73 18.2106 308.591C22.1611 304.422 24.9893 298.907 27.7726 298.907C36.2123 298.997 44.5173 297.428 53.4508 301.507C67.2775 307.829 82.3163 310.878 95.0656 320.472C101.889 325.628 111.765 326.794 121.013 330.067C124.784 326.211 128.824 322.086 132.685 318.186C132.685 317.065 132.999 315.989 132.64 315.585C119.397 301.552 106.064 287.609 92.4619 273.307C93.225 266.761 91.7436 260.35 84.0222 258.242C77.2435 256.404 74.6398 252.862 74.1011 245.958C73.6521 239.771 69.567 236.946 62.8332 235.287C49.9492 232.149 49.3656 228.786 56.5483 214.753C36.3469 198.927 21.7571 178.079 8.69351 158.038C12.9134 149.295 17.1332 140.597 21.802 130.958C17.7617 128.178 14.3499 125.936 11.0279 123.56C8.10992 121.498 5.23683 119.301 1.60059 116.611C4.96748 115.445 7.57121 114.593 10.1301 113.697C11.7462 99.4392 24.3608 89.7102 25.3484 74.2423C36.2123 82.4022 46.1334 89.8895 58.344 99.0357C59.6458 94.7316 60.813 90.9655 62.3843 85.8096C62.8332 86.7063 60.9926 82.985 59.0174 78.9499C57.4461 80.2053 55.9647 81.4607 52.5978 84.1955C53.2263 79.8466 52.5978 76.0357 54.169 74.5114C61.6211 67.4275 66.0205 60.6575 55.3362 53.1254C59.9152 46.1312 63.7759 40.3028 68.2651 33.4879C69.0731 36.3125 69.7465 38.7336 71.1831 43.7998C75.1336 38.7784 78.0515 35.0123 81.5082 30.6634C84.2466 32.0084 88.2869 33.9811 92.3721 35.9987C91.16 37.2092 90.1275 38.2404 88.646 39.7199C89.8132 42.3651 91.3395 45.1449 92.2374 48.1488C93.0005 50.7492 92.9557 53.5737 93.4046 57.2501C97.804 48.5971 101.53 41.2443 105.885 32.6809C104.897 31.3359 103.191 29.139 101.53 26.987C105.076 25.1488 108.803 23.2657 113.786 20.7102C116.299 36.3574 113.561 52.408 115.761 72.6731C117.916 67.3379 118.409 65.5893 119.307 64.065C120.385 62.2268 121.821 60.5679 123.347 58.5503C122.225 57.2501 120.878 55.6809 118.769 53.2599C122.539 45.0552 125.188 36.8057 135.962 31.8739C143.235 28.5562 147.41 18.603 154.458 9.72577V27.9285C149.564 33.5776 139.105 35.5055 138.072 46.8934C141.618 47.1176 145.165 47.2969 150.283 47.6108V64.2443C156.792 62.6303 161.82 61.4197 168.643 59.716C166.399 64.9616 165.052 68.1897 163.66 71.4626C165.426 73.2261 171.038 69.4301 180.495 60.0747C188.037 61.1507 196.97 62.4061 208.059 64.0201C212.234 59.6264 218.114 53.4392 224.803 46.4002C219.82 43.9343 216.812 42.4548 212.817 40.4373C218.922 37.8369 224.22 35.5503 233.198 31.6946C230.19 40.1234 228.439 44.9207 226.599 50.0766C229.966 51.2872 232.525 52.1839 235.353 53.2151C235.936 58.6848 236.52 64.2443 237.508 73.5698C239.707 67.2034 240.605 64.603 241.772 61.2404C246.8 65.679 252.053 67.2482 257.395 60.4334C258.203 65.679 258.831 69.8037 259.864 76.7979C266.463 71.642 271.356 67.831 276.429 63.8408C276.429 56.8915 278.988 48.5074 275.89 44.024C269.83 35.2365 283.612 24.8349 272.658 18.5133C277.731 11.4295 282.669 4.48016 288.505 -3.67969C293.129 0.220897 296.855 5.91485 301.209 6.40803C308.257 7.25988 310.143 13.716 315.395 15.9129C320.468 18.0201 325.541 20.1273 318.942 18.872C299.683 9.45677 296.585 3.2248 288.28 10.5776C291.378 14.2989 293.937 17.3924 296.585 20.5308C299.099 18.0201 301.164 15.9577 318.942 18.872V18.9616ZM289.044 126.654C295.867 119.839 299.638 116.118 303.409 112.396C302.87 111.903 302.332 111.41 301.03 110.155C293.623 109.751 290.57 114.235 303.274 115.266C303.454 117.373 303.723 120.153 304.352 127.057C306.955 117.238 319.48 122.708 316.383 111.544C312.253 112.71 307.943 113.966 289.088 126.609L289.044 126.654ZM326.618 62.7199C329.042 61.6887 332.185 60.3885 339.682 57.295H306.821C310.233 61.1507 312.477 63.7511 312.567 63.8408C319.795 67.293 323.61 56.6673 326.573 62.7199H326.618ZM325.092 106.075C335.462 105.044 339.098 101.188 339.457 91.5035C330.883 92.8486 326.483 95.8525 325.092 106.075ZM73.7419 118.673V101.457C65.1227 105.357 63.8657 111.141 66.649 118.673H73.7419Z" fill="#8682EF"/>
</g>
</g>
<defs>
<clipPath id="clip0_454_299278">
<rect width="445" height="470" fill="white"/>
</clipPath>
</defs>
</svg>
