<svg width="445" height="470" viewBox="0 0 445 470" fill="none" xmlns="http://www.w3.org/2000/svg">
<g clip-path="url(#clip0_454_299274)">
<mask id="mask0_454_299274" style="mask-type:alpha" maskUnits="userSpaceOnUse" x="-138" y="-360" width="607" height="642">
<path d="M36.6852 250.282C25.6242 235.574 31.4297 231.118 36.9908 226.846C31.9186 222.146 25.5631 216.226 19.0854 210.184C12.8521 217.081 20.2465 217.569 20.8576 220.682C19.5132 221.658 17.6798 223.855 16.5187 223.55C12.9132 222.696 9.55213 220.865 6.00772 219.339C-5.90884 228.372 -18.6809 238.015 -37.1363 251.991C-28.2142 233.254 -22.1642 220.377 -15.9921 207.438C-20.392 205.851 -23.9365 204.63 -28.0309 203.165C-23.5698 198.405 -19.6587 194.194 -15.1977 189.433C-19.1698 188.029 -22.6531 186.809 -26.5031 185.466C-27.4198 180.034 -28.3975 174.419 -30.5975 161.603C-33.2252 174.969 -34.4475 181.133 -35.6086 187.297C-44.0418 164.654 -30.4753 149.091 -19.1087 132.795C8.63548 124.129 21.5909 99.5939 40.3519 77.6834C21.0409 78.5378 10.9577 90.317 0.630015 100.876C-9.81989 104.415 -22.2254 96.4813 -30.6586 107.65C-32.7975 105.758 -34.9974 103.805 -36.403 102.523C-42.5751 105.819 -48.5029 108.932 -53.5751 111.617C-58.8306 110.763 -63.9027 108.932 -68.7305 109.359C-72.7638 109.725 -76.5527 112.716 -84.6192 116.439C-74.5971 96.7254 -55.8362 103.073 -45.0807 91.3546C-51.4973 90.256 -56.9361 89.3405 -62.375 88.425C-54.6139 78.904 -47.8918 74.0214 -43.9196 77.5003C-31.5753 88.4861 -20.6976 82.1998 -8.90322 77.3172C-1.93661 74.4487 5.51884 72.4346 12.9743 71.214C25.9298 69.0779 28.1909 60.4723 27.3964 49.6086C33.2019 46.3129 39.0075 42.9561 45.8518 39.05C43.6519 36.2426 42.1241 34.2285 39.313 30.5666C45.7907 29.1628 51.5962 27.8201 58.3795 26.3553C55.0184 22.8155 52.4518 20.008 49.274 16.6513C15.541 28.1253 -19.5976 19.0315 -54.6751 23.1817C-58.2806 28.6135 -62.4361 34.8388 -66.5916 41.1251C-67.6916 40.7589 -68.7916 40.3927 -69.8916 40.0265C-68.7916 35.205 -67.6916 30.3835 -66.1027 23.4868C-68.4249 18.7263 -91.8303 21.4728 -112.975 31.5431C-111.141 33.6182 -109.308 35.7543 -107.352 37.9514C-109.369 38.928 -111.386 40.82 -112.669 40.4538C-116.213 39.2942 -119.452 37.097 -123.058 35.266C-124.524 36.6087 -126.663 38.5007 -128.741 40.4538L-137.113 32.0924C-131.98 27.637 -126.785 23.1817 -119.147 16.6512L-67.0194 16.6512C-63.7194 12.5011 -59.9917 7.74055 -55.225 1.69837C-53.2695 7.43539 -52.0473 11.0363 -50.3973 15.8578C-41.5974 14.0269 -32.6752 11.4025 -23.5698 10.426C-14.5254 9.51049 -5.11438 11.2194 3.86888 9.93771C13.1577 8.595 22.202 5.11616 28.0075 3.46829C23.7909 -0.742924 17.9243 -6.602 10.4077 -14.0479C25.1354 -22.1652 34.6686 -27.414 45.0574 -33.151C40.2908 -45.8457 28.9242 -49.2635 19.8187 -55.1836C11.8133 -60.4324 -0.714394 -59.3948 -4.56436 -73.066C16.3966 -67.9393 35.8297 -63.1788 56.3018 -58.2352C57.0351 -62.3854 58.074 -68.0003 59.5406 -75.9955C66.5683 -73.4322 73.1071 -71.0519 84.1681 -67.0238C80.9904 -75.6293 79.2182 -80.3288 77.2627 -85.5776C79.8293 -86.493 83.3737 -87.7137 88.0181 -89.3616C80.1348 -102.178 72.3738 -114.812 64.2461 -127.934C67.3016 -128.971 70.8461 -130.192 76.7738 -132.206C64.9795 -162.234 61.1906 -193.665 65.0406 -225.829C74.2072 -232.36 79.9515 -223.388 81.3571 -218.872C85.2681 -206.055 86.5515 -192.445 88.3848 -179.018C90.7681 -161.624 91.0125 -143.741 95.3514 -126.896C99.4458 -110.967 107.879 -96.2582 123.646 -87.4696C131.794 -89.1378 141.49 -97.3364 152.734 -112.066C155.362 -108.953 157.99 -105.901 162.145 -101.019L162.145 -62.3243C174.449 -88.6902 178.523 -108.933 174.367 -123.051C179.745 -120.793 184.389 -118.901 188.851 -117.07C190.439 -119.817 192.212 -121.464 192.212 -123.112C192.028 -133.061 194.595 -144.962 190.073 -152.53C184.512 -161.746 187.934 -170.046 186.284 -178.529C184.451 -187.928 186.528 -196.839 181.334 -207.093C175.712 -218.078 178.828 -233.214 174.978 -246.947C169.295 -267.453 170.212 -289.73 167.767 -311.213C167.156 -316.767 163.734 -321.955 163.062 -327.448C161.595 -338.983 157.562 -351.311 167.584 -359.063C172.167 -354.485 176.69 -349.908 181.273 -345.33C188.056 -334.589 188.545 -319.88 190.867 -305.843C193.373 -290.707 198.139 -275.571 198.812 -259.824C199.423 -245.36 202.662 -231.017 204.617 -216.614C206.695 -201.172 208.589 -185.731 210.789 -170.351C212.867 -155.948 215.189 -141.605 217.328 -127.995C222.645 -123.234 227.839 -118.596 234.439 -112.676L246.356 -112.676C247.028 -118.23 247.578 -123.051 248.556 -131.474C252.161 -128.239 254.239 -126.347 258.15 -122.868C262.55 -125.859 267.255 -129.032 272.022 -132.328C270.8 -155.52 271.961 -177.187 300.927 -184.022C317.122 -186.159 332.827 -180.605 349.327 -173.464C375.727 -162.112 403.288 -152.53 432.559 -154.544C436.715 -151.309 440.565 -148.258 446.065 -143.985C440.687 -138.309 436.837 -130.802 433.048 -130.802C421.56 -130.924 410.254 -128.788 398.093 -134.342C379.271 -142.948 358.799 -147.098 341.444 -160.159C332.155 -167.178 318.71 -168.764 306.122 -173.22C300.988 -167.971 295.488 -162.356 290.233 -157.046C290.233 -155.52 289.805 -154.056 290.294 -153.506C308.322 -134.403 326.472 -115.422 344.988 -95.953C343.949 -87.0423 345.966 -78.3147 356.477 -75.4462C365.705 -72.9439 369.249 -68.1223 369.982 -58.7234C370.593 -50.301 376.154 -46.4559 385.321 -44.1978C402.86 -39.9255 403.654 -35.3481 393.876 -16.2451C421.376 5.29929 441.237 33.6792 459.02 60.9606C453.276 72.8619 447.532 84.7021 441.176 97.824C446.676 101.608 451.32 104.66 455.843 107.894C459.815 110.702 463.726 113.692 468.676 117.354C464.093 118.941 460.548 120.101 457.065 121.321C454.865 140.73 437.693 153.974 436.348 175.03C421.56 163.922 408.054 153.729 391.432 141.279C389.66 147.138 388.071 152.265 385.932 159.283C385.321 158.063 387.827 163.128 390.515 168.621C392.654 166.912 394.671 165.203 399.254 161.481C398.399 167.401 399.254 172.588 397.115 174.663C386.971 184.307 380.982 193.522 395.526 203.776C389.293 213.297 384.038 221.231 377.927 230.508C376.827 226.663 375.91 223.367 373.954 216.47C368.577 223.306 364.605 228.433 359.899 234.353C356.171 232.522 350.671 229.837 345.11 227.09C346.76 225.442 348.166 224.038 350.182 222.024C348.594 218.424 346.516 214.64 345.294 210.55C344.255 207.01 344.316 203.165 343.705 198.161C337.716 209.94 332.644 219.949 326.716 231.606C328.06 233.437 330.383 236.428 332.644 239.358C327.816 241.86 322.744 244.423 315.96 247.902C312.538 226.602 316.266 204.752 313.272 177.166C310.338 184.429 309.666 186.809 308.444 188.884C306.977 191.386 305.022 193.644 302.944 196.391C304.472 198.161 306.305 200.297 309.177 203.593C304.044 214.762 300.438 225.991 285.772 232.705C275.872 237.221 270.189 250.771 260.594 262.855L260.594 238.076C267.255 230.386 281.494 227.761 282.9 212.259C278.072 211.954 273.244 211.71 266.278 211.283L266.278 188.64C257.417 190.837 250.572 192.485 241.283 194.804C244.339 187.663 246.172 183.269 248.067 178.814C245.663 176.413 238.024 181.58 225.15 194.316C214.884 192.851 202.723 191.142 187.628 188.945C181.945 194.926 173.94 203.349 164.834 212.931C171.617 216.287 175.712 218.301 181.151 221.048C172.84 224.588 165.629 227.7 153.406 232.949C157.501 221.475 159.884 214.945 162.39 207.926C157.806 206.278 154.323 205.057 150.473 203.654C149.679 196.208 148.884 188.64 147.54 175.945C144.545 184.612 143.323 188.152 141.734 192.729C134.89 186.687 127.74 184.551 120.468 193.828C119.368 186.687 118.512 181.072 117.107 171.551C108.123 178.569 101.462 183.757 94.5569 189.189C94.5569 198.649 91.0736 210.062 95.2902 216.165C103.54 228.128 84.7792 242.287 99.6902 250.893C92.7847 260.536 86.0625 269.996 78.1182 281.103C71.8238 275.794 66.7516 268.043 60.8239 267.371C51.2295 266.212 48.6629 257.423 41.513 254.432C34.6075 251.564 27.702 248.695 36.6852 250.404C62.9017 263.221 67.1182 271.705 78.4237 261.695C74.2071 256.63 70.7238 252.418 67.1183 248.146C63.6961 251.564 60.885 254.371 36.6852 250.404L36.6852 250.282ZM77.3849 103.683C68.0961 112.96 62.9628 118.026 57.8295 123.091C58.5628 123.763 59.2962 124.434 61.0684 126.143C71.1516 126.692 75.3071 120.589 58.0128 119.185C57.7684 116.317 57.4017 112.533 56.5462 103.134C53.0018 116.5 35.9519 109.054 40.1686 124.251C45.7907 122.664 51.6573 120.955 77.3237 103.744L77.3849 103.683ZM26.2353 190.715C22.9354 192.119 18.6576 193.889 8.45215 198.1L53.1851 198.1C48.5407 192.851 45.4852 189.311 45.3629 189.189C35.5241 184.49 30.3297 198.954 26.2964 190.715L26.2353 190.715ZM28.3131 131.697C14.1966 133.101 9.24661 138.349 8.75773 151.532C20.4298 149.701 26.4187 145.612 28.3131 131.697ZM370.471 114.547L370.471 137.983C382.204 132.673 383.915 124.8 380.127 114.547L370.471 114.547Z" fill="#8682EF"/>
</mask>
<g mask="url(#mask0_454_299274)">
<path d="M318.942 18.9616C327.067 29.7667 322.803 33.0396 318.717 36.178C322.443 39.6303 327.112 43.9792 331.871 48.4178C336.45 43.3515 331.018 42.9928 330.569 40.7063C331.556 39.9889 332.903 38.3749 333.756 38.5991C336.405 39.2267 338.874 40.5718 341.478 41.6926C350.232 35.0572 359.614 27.9733 373.171 17.7063C366.617 31.4704 362.173 40.9304 357.639 50.4353C360.871 51.601 363.475 52.4977 366.482 53.5737C363.205 57.0708 360.332 60.1644 357.055 63.6614C359.973 64.6926 362.532 65.5893 365.36 66.5757C366.033 70.5659 366.752 74.6907 368.368 84.1059C370.298 74.2872 371.196 69.7589 372.049 65.2306C378.244 81.8642 368.278 93.2969 359.928 105.268C339.547 111.634 330.03 129.658 316.248 145.753C330.434 145.125 337.841 136.472 345.428 128.716C353.105 126.116 362.218 131.944 368.413 123.739C369.984 125.129 371.6 126.564 372.633 127.505C377.167 125.084 381.521 122.798 385.247 120.825C389.108 121.453 392.834 122.798 396.38 122.484C399.343 122.215 402.127 120.018 408.052 117.283C400.69 131.765 386.908 127.102 379.007 135.71C383.721 136.517 387.716 137.19 391.712 137.862C386.01 144.856 381.072 148.443 378.154 145.888C369.086 137.817 361.095 142.435 352.431 146.022C347.314 148.129 341.837 149.609 336.36 150.505C326.843 152.075 325.182 158.396 325.765 166.377C321.501 168.798 317.236 171.264 312.208 174.133C313.824 176.196 314.946 177.675 317.011 180.365C312.253 181.396 307.988 182.383 303.005 183.459C305.474 186.059 307.36 188.121 309.694 190.587C334.474 182.159 360.287 188.839 386.055 185.79C388.704 181.8 391.757 177.227 394.809 172.609C395.617 172.878 396.425 173.147 397.233 173.416C396.425 176.958 395.617 180.5 394.45 185.566C396.156 189.063 413.35 187.045 428.882 179.648C427.535 178.123 426.189 176.554 424.752 174.94C426.234 174.223 427.715 172.833 428.658 173.102C431.261 173.954 433.641 175.568 436.289 176.913C437.367 175.927 438.938 174.537 440.464 173.102L446.614 179.244C442.844 182.517 439.028 185.79 433.416 190.587H395.123C392.699 193.636 389.961 197.133 386.459 201.572C385.023 197.357 384.125 194.712 382.913 191.17C376.448 192.515 369.894 194.443 363.205 195.16C356.561 195.833 349.648 194.578 343.049 195.519C336.225 196.506 329.581 199.061 325.317 200.272C328.414 203.365 332.724 207.669 338.245 213.139C327.426 219.102 320.423 222.958 312.792 227.172C316.293 236.498 324.643 239.008 331.332 243.357C337.213 247.213 346.416 246.451 349.244 256.494C333.846 252.728 319.57 249.231 304.532 245.599C303.993 248.648 303.23 252.773 302.152 258.646C296.99 256.763 292.186 255.014 284.061 252.055C286.395 258.377 287.697 261.829 289.134 265.685C287.248 266.357 284.644 267.254 281.233 268.465C287.024 277.88 292.725 287.16 298.696 296.8C296.451 297.562 293.847 298.459 289.493 299.938C298.157 321.997 300.94 345.086 298.112 368.714C291.378 373.511 287.158 366.921 286.126 363.603C283.253 354.188 282.31 344.19 280.963 334.326C279.212 321.548 279.033 308.412 275.846 296.038C272.838 284.336 266.643 273.531 255.061 267.075C249.075 268.3 241.952 274.323 233.692 285.143C231.762 282.856 229.831 280.615 226.779 277.028V248.603C217.74 267.971 214.748 282.841 217.8 293.213C213.85 291.554 210.438 290.164 207.161 288.819C205.994 290.837 204.692 292.047 204.692 293.258C204.827 300.566 202.941 309.309 206.263 314.868C210.348 321.638 207.834 327.736 209.046 333.967C210.393 340.872 208.867 347.418 212.683 354.95C216.813 363.02 214.523 374.139 217.351 384.227C221.526 399.291 220.853 415.656 222.649 431.437C223.098 435.517 225.612 439.328 226.105 443.363C227.183 451.837 230.146 460.893 222.783 466.587C219.416 463.225 216.094 459.862 212.728 456.5C207.745 448.609 207.385 437.804 205.68 427.492C203.839 416.373 200.337 405.254 199.844 393.687C199.395 383.061 197.015 372.525 195.579 361.944C194.053 350.601 192.661 339.258 191.045 327.96C189.518 317.379 187.813 306.843 186.241 296.845C182.336 293.348 178.52 289.94 173.672 285.591H164.918C164.424 289.671 164.02 293.213 163.302 299.4C160.653 297.024 159.127 295.634 156.254 293.079C153.021 295.275 149.565 297.607 146.063 300.028C146.961 317.065 146.108 332.981 124.829 338.003C112.933 339.572 101.396 335.492 89.2748 330.246C69.8814 321.907 49.6352 314.868 28.132 316.348C25.0793 313.971 22.2511 311.73 18.2108 308.591C22.1613 304.422 24.9895 298.907 27.7728 298.907C36.2125 298.997 44.5175 297.428 53.451 301.507C67.2777 307.829 82.3165 310.878 95.0658 320.472C101.889 325.628 111.766 326.794 121.013 330.067C124.784 326.211 128.825 322.086 132.685 318.186C132.685 317.065 133 315.989 132.64 315.585C119.397 301.552 106.064 287.609 92.4621 273.307C93.2253 266.761 91.7438 260.35 84.0224 258.242C77.2437 256.404 74.64 252.862 74.1013 245.958C73.6524 239.771 69.5672 236.946 62.8334 235.287C49.9494 232.149 49.3658 228.786 56.5485 214.753C36.3472 198.927 21.7573 178.079 8.69375 158.038C12.9136 149.295 17.1334 140.597 21.8022 130.958C17.7619 128.178 14.3501 125.936 11.0281 123.56C8.11016 121.498 5.23708 119.301 1.60083 116.611C4.96772 115.445 7.57146 114.593 10.1303 113.697C11.7464 99.4392 24.361 89.7102 25.3487 74.2423C36.2125 82.4022 46.1336 89.8895 58.3442 99.0357C59.6461 94.7316 60.8133 90.9655 62.3845 85.8096C62.8334 86.7063 60.9928 82.985 59.0176 78.9499C57.4464 80.2053 55.9649 81.4607 52.5981 84.1956C53.2265 79.8466 52.5981 76.0357 54.1693 74.5113C61.6213 67.4275 66.0207 60.6575 55.3365 53.1254C59.9154 46.1312 63.7761 40.3028 68.2653 33.4879C69.0734 36.3125 69.7468 38.7336 71.1833 43.7998C75.1338 38.7784 78.0518 35.0123 81.5085 30.6634C84.2469 32.0084 88.2871 33.9811 92.3723 35.9987C91.1602 37.2092 90.1277 38.2404 88.6463 39.7199C89.8135 42.3651 91.3398 45.1449 92.2376 48.1488C93.0008 50.7492 92.9559 53.5737 93.4048 57.2501C97.8042 48.5971 101.53 41.2443 105.885 32.6809C104.897 31.3359 103.191 29.139 101.53 26.987C105.077 25.1488 108.803 23.2657 113.786 20.7102C116.3 36.3574 113.561 52.408 115.761 72.6731C117.916 67.3379 118.41 65.5893 119.307 64.065C120.385 62.2267 121.821 60.5679 123.348 58.5503C122.225 57.2501 120.879 55.6809 118.769 53.2599C122.54 45.0552 125.188 36.8057 135.962 31.8739C143.235 28.5562 147.41 18.603 154.458 9.72577V27.9285C149.565 33.5776 139.105 35.5055 138.072 46.8934C141.619 47.1176 145.165 47.2969 150.283 47.6108V64.2443C156.792 62.6303 161.82 61.4197 168.644 59.716C166.399 64.9616 165.052 68.1897 163.661 71.4626C165.426 73.2261 171.038 69.4301 180.495 60.0747C188.037 61.1507 196.97 62.4061 208.059 64.0201C212.234 59.6264 218.115 53.4392 224.803 46.4002C219.82 43.9343 216.813 42.4548 212.817 40.4373C218.923 37.8369 224.22 35.5503 233.198 31.6946C230.191 40.1234 228.44 44.9207 226.599 50.0766C229.966 51.2872 232.525 52.1839 235.353 53.2151C235.937 58.6848 236.52 64.2443 237.508 73.5698C239.708 67.2034 240.605 64.603 241.773 61.2404C246.801 65.679 252.053 67.2482 257.395 60.4334C258.203 65.679 258.832 69.8037 259.864 76.7979C266.463 71.642 271.356 67.831 276.429 63.8408C276.429 56.8915 278.988 48.5074 275.891 44.024C269.83 35.2365 283.612 24.8349 272.658 18.5133C277.731 11.4295 282.669 4.48016 288.505 -3.67969C293.129 0.220897 296.855 5.91485 301.21 6.40803C308.258 7.25988 310.143 13.716 315.395 15.9129C320.468 18.0201 325.541 20.1273 318.942 18.872C299.683 9.45677 296.586 3.2248 288.281 10.5776C291.378 14.2989 293.937 17.3924 296.586 20.5308C299.1 18.0201 301.165 15.9577 318.942 18.872V18.9616ZM289.044 126.654C295.867 119.839 299.638 116.118 303.409 112.396C302.871 111.903 302.332 111.41 301.03 110.155C293.623 109.751 290.57 114.235 303.275 115.266C303.454 117.373 303.723 120.153 304.352 127.057C306.956 117.238 319.481 122.708 316.383 111.544C312.253 112.71 307.943 113.966 289.089 126.609L289.044 126.654ZM326.618 62.7199C329.043 61.6887 332.185 60.3885 339.682 57.295H306.821C310.233 61.1507 312.477 63.7511 312.567 63.8408C319.795 67.293 323.611 56.6673 326.573 62.7199H326.618ZM325.092 106.075C335.462 105.044 339.098 101.188 339.457 91.5035C330.883 92.8486 326.484 95.8525 325.092 106.075ZM73.7422 118.673V101.457C65.1229 105.357 63.8659 111.141 66.6492 118.673H73.7422Z" fill="#8682EF"/>
</g>
</g>
<defs>
<clipPath id="clip0_454_299274">
<rect width="445" height="470" fill="white"/>
</clipPath>
</defs>
</svg>
