<svg width="445" height="470" viewBox="0 0 445 470" fill="none" xmlns="http://www.w3.org/2000/svg">
<g clip-path="url(#clip0_454_299266)">
<mask id="mask0_454_299266" style="mask-type:alpha" maskUnits="userSpaceOnUse" x="-37" y="-198" width="223" height="236">
<path d="M121.768 -185.913C125.818 -180.527 123.692 -178.896 121.656 -177.332C123.513 -175.611 125.84 -173.444 128.212 -171.231C130.494 -173.757 127.787 -173.935 127.563 -175.075C128.055 -175.432 128.727 -176.237 129.152 -176.125C130.472 -175.812 131.703 -175.142 133 -174.583C137.363 -177.891 142.04 -181.421 148.797 -186.538C145.53 -179.678 143.315 -174.963 141.055 -170.226C142.666 -169.645 143.964 -169.198 145.463 -168.662C143.829 -166.919 142.398 -165.377 140.764 -163.634C142.219 -163.12 143.494 -162.673 144.903 -162.181C145.239 -160.193 145.597 -158.137 146.403 -153.444C147.365 -158.338 147.812 -160.595 148.237 -162.852C151.325 -154.562 146.358 -148.863 142.196 -142.897C132.038 -139.724 127.295 -130.741 120.426 -122.719C127.496 -123.032 131.188 -127.344 134.969 -131.21C138.795 -132.506 143.337 -129.601 146.425 -133.691C147.208 -132.998 148.014 -132.283 148.528 -131.814C150.788 -133.02 152.958 -134.16 154.815 -135.143C156.74 -134.83 158.597 -134.16 160.364 -134.316C161.841 -134.45 163.228 -135.545 166.182 -136.908C162.512 -129.691 155.643 -132.015 151.705 -127.724C154.055 -127.322 156.046 -126.987 158.037 -126.652C155.196 -123.166 152.735 -121.378 151.28 -122.652C146.761 -126.674 142.778 -124.372 138.46 -122.585C135.909 -121.534 133.179 -120.797 130.45 -120.35C125.706 -119.568 124.878 -116.417 125.169 -112.44C123.044 -111.233 120.918 -110.004 118.412 -108.574C119.218 -107.546 119.777 -106.809 120.806 -105.468C118.434 -104.954 116.309 -104.462 113.825 -103.926C115.056 -102.63 115.996 -101.602 117.159 -100.373C129.51 -104.574 142.375 -101.245 155.218 -102.764C156.538 -104.753 158.06 -107.032 159.581 -109.334C159.984 -109.2 160.387 -109.066 160.789 -108.931C160.387 -107.166 159.984 -105.401 159.402 -102.876C160.252 -101.133 168.822 -102.138 176.563 -105.825C175.892 -106.585 175.221 -107.367 174.505 -108.172C175.243 -108.529 175.982 -109.222 176.451 -109.088C177.749 -108.663 178.935 -107.859 180.255 -107.189C180.792 -107.68 181.575 -108.373 182.336 -109.088L185.401 -106.027C183.522 -104.395 181.62 -102.764 178.823 -100.373H159.738C158.53 -98.8535 157.165 -97.1106 155.419 -94.8983C154.703 -96.9988 154.256 -98.3172 153.652 -100.083C150.43 -99.4122 147.163 -98.4513 143.829 -98.0938C140.518 -97.7586 137.072 -98.3843 133.783 -97.915C130.382 -97.4234 127.071 -96.1497 124.945 -95.5464C126.489 -94.0045 128.637 -91.8593 131.389 -89.1331C125.997 -86.1611 122.507 -84.2394 118.703 -82.1389C120.448 -77.491 124.61 -76.2396 127.944 -74.0721C130.875 -72.1503 135.461 -72.5302 136.871 -67.5248C129.197 -69.4018 122.081 -71.1448 114.586 -72.9548C114.318 -71.4353 113.937 -69.3795 113.4 -66.4522C110.827 -67.3907 108.433 -68.2622 104.383 -69.737C105.547 -66.5863 106.196 -64.8656 106.912 -62.9439C105.972 -62.6087 104.674 -62.1618 102.974 -61.5584C105.86 -56.8658 108.702 -52.2403 111.677 -47.4359C110.559 -47.056 109.261 -46.6091 107.091 -45.8717C111.409 -34.8776 112.796 -23.3695 111.386 -11.5933C108.03 -9.20231 105.927 -12.4871 105.413 -14.1407C103.981 -18.8333 103.511 -23.8164 102.839 -28.7325C101.967 -35.1011 101.877 -41.6484 100.289 -47.8158C98.7897 -53.648 95.702 -59.0334 89.9294 -62.2512C86.9461 -61.6404 83.396 -58.6386 79.2791 -53.2458C78.317 -54.3855 77.3549 -55.5027 75.8334 -57.2904V-71.4576C71.3287 -61.8042 69.8371 -54.3929 71.3585 -49.2236C69.3896 -50.0504 67.6891 -50.7431 66.0558 -51.4135C65.4741 -50.4079 64.8252 -49.8046 64.8252 -49.2012C64.8923 -45.5589 63.9526 -41.2014 65.6083 -38.4306C67.6444 -35.0564 66.3914 -32.0173 66.9955 -28.9113C67.6668 -25.47 66.906 -22.2075 68.8079 -18.4534C70.8663 -14.4312 69.7252 -8.88946 71.1348 -3.86166C73.2156 3.64652 72.88 11.8027 73.775 19.6684C73.9987 21.7019 75.2517 23.6013 75.4978 25.6124C76.0348 29.8358 77.5115 34.3496 73.8421 37.1875C72.164 35.5116 70.5083 33.8356 68.8302 32.1597C66.3467 28.2269 66.1677 22.8415 65.3174 17.702C64.4001 12.1602 62.6549 6.61851 62.4088 0.8533C62.185 -4.44265 60.9992 -9.69391 60.2832 -14.9675C59.5224 -20.621 58.8288 -26.2745 58.0234 -31.9056C57.2626 -37.1792 56.4124 -42.4305 55.6293 -47.4136C53.6827 -49.1565 51.7809 -50.8548 49.3644 -53.0224H45.0014C44.7553 -50.9889 44.5539 -49.2236 44.1959 -46.1399C42.8758 -47.3242 42.1151 -48.0169 40.6831 -49.2906C39.0722 -48.1957 37.3493 -47.0337 35.6041 -45.827C36.0516 -37.3356 35.6265 -29.4029 25.021 -26.9001C19.0918 -26.118 13.3415 -28.1515 7.30039 -30.766C-2.36538 -34.9223 -12.4563 -38.4306 -23.1737 -37.6932C-24.6951 -38.8775 -26.1047 -39.9948 -28.1184 -41.559C-26.1495 -43.6372 -24.7399 -46.3857 -23.3526 -46.3857C-19.1462 -46.341 -15.007 -47.1231 -10.5544 -45.0896C-3.6631 -41.9388 3.83235 -40.4193 10.1867 -35.6373C13.5876 -33.0676 18.51 -32.4866 23.1192 -30.8554C24.9986 -32.7771 27.0123 -34.8329 28.9365 -36.777C28.9365 -37.3356 29.0931 -37.8719 28.9142 -38.073C22.3137 -45.0673 15.6685 -52.0168 8.88899 -59.1451C9.26935 -62.4076 8.53099 -65.603 4.68258 -66.6533C1.30404 -67.5695 0.0063171 -69.3348 -0.262177 -72.776C-0.485922 -75.8597 -2.522 -77.2675 -5.87817 -78.0943C-12.2997 -79.6585 -12.5905 -81.3344 -9.0106 -88.3287C-19.0791 -96.2167 -26.3508 -106.608 -32.8618 -116.596C-30.7586 -120.954 -28.6554 -125.289 -26.3285 -130.093C-28.3422 -131.478 -30.0426 -132.596 -31.6983 -133.78C-33.1527 -134.808 -34.5846 -135.903 -36.397 -137.244C-34.7189 -137.825 -33.4212 -138.249 -32.1458 -138.696C-31.3403 -145.802 -25.0531 -150.651 -24.5609 -158.36C-19.1462 -154.293 -14.2015 -150.562 -8.11562 -146.003C-7.46676 -148.148 -6.88503 -150.025 -6.10192 -152.595C-5.87818 -152.148 -6.79553 -154.003 -7.78001 -156.014C-8.56311 -155.388 -9.30147 -154.763 -10.9796 -153.4C-10.6663 -155.567 -10.9796 -157.466 -10.1965 -158.226C-6.48229 -161.757 -4.28959 -165.131 -9.61471 -168.885C-7.33252 -172.371 -5.40831 -175.276 -3.17086 -178.673C-2.76812 -177.265 -2.4325 -176.058 -1.71652 -173.533C0.252435 -176.036 1.70677 -177.913 3.42961 -180.08C4.79445 -179.41 6.80816 -178.427 8.84424 -177.421C8.24013 -176.818 7.72551 -176.304 6.98715 -175.567C7.56889 -174.248 8.32962 -172.863 8.77711 -171.366C9.15747 -170.07 9.13511 -168.662 9.35885 -166.829C11.5515 -171.142 13.4086 -174.807 15.579 -179.075C15.0867 -179.745 14.2365 -180.84 13.4086 -181.913C15.1762 -182.829 17.0333 -183.767 19.5169 -185.041C20.7698 -177.242 19.405 -169.243 20.5013 -159.142C21.5753 -161.802 21.8214 -162.673 22.2689 -163.433C22.8059 -164.349 23.5219 -165.176 24.2826 -166.181C23.7233 -166.829 23.052 -167.611 22.0004 -168.818C23.8799 -172.907 25.2 -177.019 30.5699 -179.477C34.1945 -181.131 36.2754 -186.091 39.7881 -190.516V-181.443C37.3493 -178.628 32.1361 -177.667 31.6215 -171.991C33.389 -171.88 35.1566 -171.79 37.7073 -171.634V-163.343C40.9516 -164.148 43.4576 -164.751 46.8585 -165.6C45.7398 -162.986 45.0685 -161.377 44.3749 -159.746C45.255 -158.867 48.0518 -160.759 52.7654 -165.422C56.5243 -164.885 60.9768 -164.26 66.5033 -163.455C68.5841 -165.645 71.5152 -168.729 74.849 -172.237C72.3654 -173.466 70.8663 -174.203 68.875 -175.209C71.9179 -176.505 74.5581 -177.645 79.033 -179.566C77.5339 -175.365 76.6613 -172.974 75.7439 -170.405C77.422 -169.801 78.6974 -169.354 80.107 -168.84C80.3978 -166.114 80.6887 -163.343 81.1809 -158.696C82.2773 -161.869 82.7248 -163.165 83.3065 -164.841C85.8125 -162.628 88.4303 -161.846 91.0928 -165.243C91.4956 -162.628 91.8088 -160.573 92.3234 -157.087C95.6125 -159.656 98.0513 -161.556 100.58 -163.545C100.58 -167.008 101.855 -171.187 100.311 -173.421C97.2906 -177.801 104.16 -182.985 98.7002 -186.136C101.228 -189.667 103.69 -193.13 106.598 -197.197C108.903 -195.253 110.76 -192.415 112.93 -192.169C116.443 -191.745 117.383 -188.527 120.001 -187.432C122.529 -186.382 125.057 -185.332 121.768 -185.957C112.17 -190.65 110.626 -193.756 106.486 -190.091C108.03 -188.237 109.306 -186.695 110.626 -185.131C111.879 -186.382 112.908 -187.41 121.768 -185.957V-185.913ZM106.867 -132.238C110.268 -135.635 112.147 -137.489 114.027 -139.344C113.758 -139.59 113.49 -139.836 112.841 -140.461C109.149 -140.662 107.628 -138.428 113.96 -137.914C114.049 -136.864 114.183 -135.478 114.497 -132.037C115.794 -136.931 122.037 -134.205 120.493 -139.769C118.434 -139.188 116.287 -138.562 106.889 -132.26L106.867 -132.238ZM125.594 -164.103C126.803 -164.617 128.369 -165.265 132.105 -166.807H115.727C117.428 -164.885 118.546 -163.589 118.591 -163.545C122.193 -161.824 124.095 -167.12 125.572 -164.103H125.594ZM124.834 -142.495C130.002 -143.009 131.814 -144.931 131.993 -149.757C127.72 -149.087 125.527 -147.59 124.834 -142.495ZM-0.441177 -136.216V-144.796C-4.73708 -142.852 -5.36356 -139.97 -3.97634 -136.216H-0.441177Z" fill="#8682EF"/>
</mask>
<g mask="url(#mask0_454_299266)">
<path d="M318.942 18.9616C327.067 29.7667 322.803 33.0396 318.717 36.178C322.443 39.6303 327.112 43.9792 331.871 48.4178C336.45 43.3515 331.018 42.9928 330.569 40.7063C331.556 39.9889 332.903 38.3749 333.756 38.5991C336.405 39.2267 338.874 40.5718 341.478 41.6926C350.232 35.0572 359.614 27.9733 373.171 17.7063C366.617 31.4704 362.173 40.9304 357.639 50.4353C360.871 51.601 363.475 52.4977 366.482 53.5737C363.205 57.0708 360.332 60.1644 357.055 63.6614C359.973 64.6926 362.532 65.5893 365.36 66.5757C366.033 70.5659 366.752 74.6907 368.368 84.1059C370.298 74.2872 371.196 69.7589 372.049 65.2306C378.244 81.8642 368.278 93.2969 359.928 105.268C339.547 111.634 330.03 129.658 316.248 145.753C330.434 145.125 337.841 136.472 345.428 128.716C353.105 126.116 362.218 131.944 368.413 123.739C369.984 125.129 371.6 126.564 372.633 127.505C377.167 125.084 381.521 122.798 385.247 120.825C389.108 121.453 392.834 122.798 396.38 122.484C399.343 122.215 402.127 120.018 408.052 117.283C400.69 131.765 386.908 127.102 379.007 135.71C383.721 136.517 387.716 137.19 391.712 137.862C386.01 144.856 381.072 148.443 378.154 145.888C369.086 137.817 361.095 142.435 352.431 146.022C347.314 148.129 341.837 149.609 336.36 150.505C326.843 152.075 325.182 158.396 325.765 166.377C321.501 168.798 317.236 171.264 312.208 174.133C313.824 176.196 314.946 177.675 317.011 180.365C312.253 181.396 307.988 182.383 303.005 183.459C305.474 186.059 307.36 188.121 309.694 190.587C334.474 182.159 360.287 188.839 386.055 185.79C388.704 181.8 391.757 177.227 394.809 172.609C395.617 172.878 396.425 173.147 397.233 173.416C396.425 176.958 395.617 180.5 394.45 185.566C396.156 189.063 413.35 187.045 428.882 179.648C427.535 178.123 426.189 176.554 424.752 174.94C426.234 174.223 427.715 172.833 428.658 173.102C431.261 173.954 433.641 175.568 436.289 176.913C437.367 175.927 438.938 174.537 440.464 173.102L446.614 179.244C442.844 182.517 439.028 185.79 433.416 190.587H395.123C392.699 193.636 389.961 197.133 386.459 201.572C385.023 197.357 384.125 194.712 382.913 191.17C376.448 192.515 369.894 194.443 363.205 195.16C356.561 195.833 349.648 194.578 343.049 195.519C336.225 196.506 329.581 199.061 325.317 200.272C328.414 203.365 332.724 207.669 338.245 213.139C327.426 219.102 320.423 222.958 312.792 227.172C316.293 236.498 324.643 239.008 331.332 243.357C337.213 247.213 346.416 246.451 349.244 256.494C333.846 252.728 319.57 249.231 304.532 245.599C303.993 248.648 303.23 252.773 302.152 258.646C296.99 256.763 292.186 255.014 284.061 252.055C286.395 258.377 287.697 261.829 289.134 265.685C287.248 266.357 284.644 267.254 281.233 268.465C287.024 277.88 292.725 287.16 298.696 296.8C296.451 297.562 293.847 298.459 289.493 299.938C298.157 321.997 300.94 345.086 298.112 368.714C291.378 373.511 287.158 366.921 286.126 363.603C283.253 354.188 282.31 344.19 280.963 334.326C279.212 321.548 279.033 308.412 275.846 296.038C272.838 284.336 266.643 273.531 255.061 267.075C249.075 268.3 241.952 274.323 233.692 285.143C231.762 282.856 229.831 280.615 226.779 277.028V248.603C217.74 267.971 214.748 282.841 217.8 293.213C213.85 291.554 210.438 290.164 207.161 288.819C205.994 290.837 204.692 292.047 204.692 293.258C204.827 300.566 202.941 309.309 206.263 314.868C210.348 321.638 207.834 327.736 209.046 333.967C210.393 340.872 208.867 347.418 212.683 354.95C216.813 363.02 214.523 374.139 217.351 384.227C221.526 399.291 220.853 415.656 222.649 431.437C223.098 435.517 225.612 439.328 226.105 443.363C227.183 451.837 230.146 460.893 222.783 466.587C219.416 463.225 216.094 459.862 212.728 456.5C207.745 448.609 207.385 437.804 205.68 427.492C203.839 416.373 200.337 405.254 199.844 393.687C199.395 383.061 197.015 372.525 195.579 361.944C194.053 350.601 192.661 339.258 191.045 327.96C189.518 317.379 187.813 306.843 186.241 296.845C182.336 293.348 178.52 289.94 173.672 285.591H164.918C164.424 289.671 164.02 293.213 163.302 299.4C160.653 297.024 159.127 295.634 156.254 293.079C153.021 295.275 149.565 297.607 146.063 300.028C146.961 317.065 146.108 332.981 124.829 338.003C112.933 339.572 101.396 335.492 89.2748 330.246C69.8814 321.907 49.6352 314.868 28.132 316.348C25.0793 313.971 22.2511 311.73 18.2108 308.591C22.1613 304.422 24.9895 298.907 27.7728 298.907C36.2125 298.997 44.5175 297.428 53.451 301.507C67.2777 307.829 82.3165 310.878 95.0658 320.472C101.889 325.628 111.766 326.794 121.013 330.067C124.784 326.211 128.825 322.086 132.685 318.186C132.685 317.065 133 315.989 132.64 315.585C119.397 301.552 106.064 287.609 92.4621 273.307C93.2253 266.761 91.7438 260.35 84.0224 258.242C77.2437 256.404 74.64 252.862 74.1013 245.958C73.6524 239.771 69.5672 236.946 62.8334 235.287C49.9494 232.149 49.3658 228.786 56.5485 214.753C36.3472 198.927 21.7573 178.079 8.69375 158.038C12.9136 149.295 17.1334 140.597 21.8022 130.958C17.7619 128.178 14.3501 125.936 11.0281 123.56C8.11016 121.498 5.23708 119.301 1.60083 116.611C4.96772 115.445 7.57146 114.593 10.1303 113.697C11.7464 99.4392 24.361 89.7102 25.3487 74.2423C36.2125 82.4022 46.1336 89.8895 58.3442 99.0357C59.6461 94.7316 60.8133 90.9655 62.3845 85.8096C62.8334 86.7063 60.9928 82.985 59.0176 78.9499C57.4464 80.2053 55.9649 81.4607 52.5981 84.1956C53.2265 79.8466 52.5981 76.0357 54.1693 74.5113C61.6213 67.4275 66.0207 60.6575 55.3365 53.1254C59.9154 46.1312 63.7761 40.3028 68.2653 33.4879C69.0734 36.3125 69.7468 38.7336 71.1833 43.7998C75.1338 38.7784 78.0518 35.0123 81.5085 30.6634C84.2469 32.0084 88.2871 33.9811 92.3723 35.9987C91.1602 37.2092 90.1277 38.2404 88.6463 39.7199C89.8135 42.3651 91.3398 45.1449 92.2376 48.1488C93.0008 50.7492 92.9559 53.5737 93.4048 57.2501C97.8042 48.5971 101.53 41.2443 105.885 32.6809C104.897 31.3359 103.191 29.139 101.53 26.987C105.077 25.1488 108.803 23.2657 113.786 20.7102C116.3 36.3574 113.561 52.408 115.761 72.6731C117.916 67.3379 118.41 65.5893 119.307 64.065C120.385 62.2267 121.821 60.5679 123.348 58.5503C122.225 57.2501 120.879 55.6809 118.769 53.2599C122.54 45.0552 125.188 36.8057 135.962 31.8739C143.235 28.5562 147.41 18.603 154.458 9.72577V27.9285C149.565 33.5776 139.105 35.5055 138.072 46.8934C141.619 47.1176 145.165 47.2969 150.283 47.6108V64.2443C156.792 62.6303 161.82 61.4197 168.644 59.716C166.399 64.9616 165.052 68.1897 163.661 71.4626C165.426 73.2261 171.038 69.4301 180.495 60.0747C188.037 61.1507 196.97 62.4061 208.059 64.0201C212.234 59.6264 218.115 53.4392 224.803 46.4002C219.82 43.9343 216.813 42.4548 212.817 40.4373C218.923 37.8369 224.22 35.5503 233.198 31.6946C230.191 40.1234 228.44 44.9207 226.599 50.0766C229.966 51.2872 232.525 52.1839 235.353 53.2151C235.937 58.6848 236.52 64.2443 237.508 73.5698C239.708 67.2034 240.605 64.603 241.773 61.2404C246.801 65.679 252.053 67.2482 257.395 60.4334C258.203 65.679 258.832 69.8037 259.864 76.7979C266.463 71.642 271.356 67.831 276.429 63.8408C276.429 56.8915 278.988 48.5074 275.891 44.024C269.83 35.2365 283.612 24.8349 272.658 18.5133C277.731 11.4295 282.669 4.48016 288.505 -3.67969C293.129 0.220897 296.855 5.91485 301.21 6.40803C308.258 7.25988 310.143 13.716 315.395 15.9129C320.468 18.0201 325.541 20.1273 318.942 18.872C299.683 9.45677 296.586 3.2248 288.281 10.5776C291.378 14.2989 293.937 17.3924 296.586 20.5308C299.1 18.0201 301.165 15.9577 318.942 18.872V18.9616ZM289.044 126.654C295.867 119.839 299.638 116.118 303.409 112.396C302.871 111.903 302.332 111.41 301.03 110.155C293.623 109.751 290.57 114.235 303.275 115.266C303.454 117.373 303.723 120.153 304.352 127.057C306.956 117.238 319.481 122.708 316.383 111.544C312.253 112.71 307.943 113.966 289.089 126.609L289.044 126.654ZM326.618 62.7199C329.043 61.6887 332.185 60.3885 339.682 57.295H306.821C310.233 61.1507 312.477 63.7511 312.567 63.8408C319.795 67.293 323.611 56.6673 326.573 62.7199H326.618ZM325.092 106.075C335.462 105.044 339.098 101.188 339.457 91.5035C330.883 92.8486 326.484 95.8525 325.092 106.075ZM73.7422 118.673V101.457C65.1229 105.357 63.8659 111.141 66.6492 118.673H73.7422Z" fill="#8682EF"/>
</g>
</g>
<defs>
<clipPath id="clip0_454_299266">
<rect width="445" height="470" fill="white"/>
</clipPath>
</defs>
</svg>
