<svg width="443" height="470" viewBox="0 0 443 470" fill="none" xmlns="http://www.w3.org/2000/svg">
<g clip-path="url(#clip0_454_299282)">
<mask id="mask0_454_299282" style="mask-type:alpha" maskUnits="userSpaceOnUse" x="-212" y="-248" width="1196" height="1263">
<path d="M640.609 -186.452C662.416 -157.453 650.97 -148.669 640.006 -140.246C650.006 -130.981 662.536 -119.309 675.308 -107.396C687.597 -120.993 673.018 -121.956 671.814 -128.093C674.464 -130.018 678.079 -134.35 680.368 -133.748C687.476 -132.064 694.103 -128.454 701.091 -125.446C724.585 -143.254 749.765 -162.266 786.151 -189.821C768.561 -152.88 756.633 -127.491 744.464 -101.982C753.139 -98.8532 760.127 -96.4467 768.199 -93.5588C759.404 -84.1733 751.693 -75.8707 742.898 -66.4852C750.729 -63.7176 757.597 -61.3111 765.187 -58.6639C766.994 -47.9548 768.922 -36.8847 773.259 -11.6159C778.44 -37.9676 780.85 -50.1207 783.139 -62.2737C799.765 -17.6323 773.018 13.0512 750.609 45.1786C695.91 62.2651 670.368 110.637 633.38 153.834C671.452 152.15 691.332 128.926 711.693 108.11C732.295 101.131 756.753 116.773 773.38 94.7534C777.597 98.4836 781.934 102.334 784.705 104.861C796.874 98.3632 808.561 92.2266 818.561 86.9322C828.922 88.6168 838.922 92.2266 848.44 91.3843C856.392 90.6623 863.862 84.7663 879.765 77.4263C860.006 116.292 823.018 103.778 801.814 126.881C814.464 129.047 825.187 130.852 835.91 132.657C820.609 151.428 807.356 161.054 799.524 154.195C775.187 132.536 753.741 144.93 730.488 154.556C716.753 160.212 702.055 164.182 687.356 166.589C661.814 170.8 657.356 187.766 658.922 209.185C647.476 215.682 636.03 222.3 622.536 230.001C626.874 235.536 629.886 239.507 635.428 246.727C622.657 249.494 611.211 252.142 597.838 255.029C604.464 262.008 609.524 267.543 615.789 274.161C682.295 251.54 751.573 269.469 820.729 261.286C827.838 250.577 836.03 238.304 844.223 225.91C846.392 226.632 848.561 227.354 850.729 228.076C848.561 237.582 846.392 247.088 843.259 260.685C847.838 270.07 893.982 264.656 935.669 244.802C932.055 240.71 928.44 236.499 924.585 232.167C928.561 230.242 932.537 226.512 935.067 227.234C942.055 229.52 948.44 233.852 955.549 237.462C958.44 234.814 962.657 231.084 966.753 227.234L983.259 243.719C973.139 252.503 962.898 261.286 947.838 274.161H845.067C838.561 282.344 831.211 291.729 821.814 303.642C817.958 292.331 815.548 285.232 812.295 275.726C794.946 279.336 777.356 284.51 759.404 286.435C741.573 288.24 723.018 284.871 705.308 287.397C686.994 290.045 669.163 296.903 657.717 300.152C666.03 308.455 677.597 320.006 692.416 334.686C663.38 350.69 644.585 361.038 624.103 372.349C633.5 397.377 655.91 404.115 673.862 415.787C689.645 426.135 714.344 424.089 721.934 451.043C680.609 440.935 642.295 431.55 601.934 421.803C600.488 429.985 598.44 441.055 595.548 456.818C581.693 451.765 568.802 447.072 546.994 439.13C553.259 456.096 556.753 465.362 560.609 475.71C555.548 477.515 548.561 479.921 539.404 483.17C554.946 508.439 570.247 533.347 586.271 559.217C580.247 561.263 573.259 563.669 561.573 567.64C584.826 626.841 592.295 688.809 584.705 752.222C566.633 765.097 555.308 747.409 552.536 738.505C544.826 713.236 542.295 686.403 538.681 659.931C533.982 625.638 533.5 590.382 524.946 557.171C516.874 525.766 500.247 496.767 469.163 479.44C453.099 482.729 433.982 498.893 411.814 527.932C406.633 521.795 401.452 515.779 393.259 506.153V429.865C369.002 481.846 360.97 521.755 369.163 549.591C358.561 545.139 349.404 541.409 340.609 537.799C337.476 543.213 333.982 546.462 333.982 549.711C334.344 569.324 329.283 592.788 338.199 607.709C349.163 625.878 342.416 642.243 345.669 658.968C349.283 677.499 345.187 695.067 355.428 715.282C366.512 736.94 360.368 766.782 367.958 793.855C379.163 834.285 377.356 878.205 382.175 920.56C383.38 931.51 390.127 941.738 391.452 952.567C394.344 975.309 402.295 999.615 382.536 1014.9C373.5 1005.87 364.585 996.847 355.549 987.823C342.175 966.645 341.211 937.646 336.633 909.971C331.693 880.13 322.295 850.289 320.97 819.244C319.765 790.727 313.38 762.45 309.524 734.053C305.428 703.61 301.693 673.167 297.356 642.844C293.259 614.447 288.681 586.17 284.464 559.337C273.982 549.952 263.741 540.807 250.729 529.135H227.235C225.91 540.085 224.826 549.591 222.898 566.196C215.789 559.819 211.693 556.088 203.982 549.23C195.307 555.126 186.03 561.383 176.633 567.881C179.042 613.605 176.753 656.321 119.645 669.798C87.7171 674.009 56.7532 663.059 24.2231 648.981C-27.8251 626.6 -82.1624 607.709 -139.873 611.68C-148.066 605.302 -155.656 599.286 -166.5 590.863C-155.897 579.672 -148.307 564.872 -140.837 564.872C-118.187 565.113 -95.8974 560.902 -71.9215 571.851C-34.813 588.818 5.54842 597 39.7653 622.75C58.0785 636.587 84.5846 639.716 109.404 648.5C119.524 638.152 130.368 627.081 140.729 616.613C140.729 613.605 141.573 610.717 140.609 609.634C105.067 571.972 69.2834 534.55 32.7774 496.165C34.8256 478.598 30.8496 461.391 10.1267 455.735C-8.06603 450.802 -15.054 441.296 -16.4998 422.766C-17.7046 406.161 -28.6685 398.58 -46.7407 394.128C-81.3191 385.705 -82.8853 376.68 -63.6082 339.018C-117.825 296.542 -156.982 240.59 -192.042 186.804C-180.717 163.34 -169.391 139.997 -156.861 114.126C-167.705 106.666 -176.861 100.649 -185.777 94.2722C-193.608 88.7371 -201.319 82.841 -211.078 75.6214C-202.042 72.4929 -195.054 70.2067 -188.187 67.8001C-183.849 29.536 -149.994 3.425 -147.343 -38.0879C-118.187 -16.1884 -91.56 3.90632 -58.7889 28.4531C-55.295 16.9017 -52.1624 6.79416 -47.9456 -7.04348C-46.7407 -4.63693 -51.6805 -14.6241 -56.9817 -25.4535C-61.1986 -22.0844 -65.1745 -18.7152 -74.2106 -11.3753C-72.5239 -23.047 -74.2106 -33.2748 -69.9938 -37.3659C-49.9938 -56.3777 -38.1865 -74.5471 -66.8612 -94.7621C-54.5721 -113.533 -44.2106 -129.176 -32.1624 -147.465C-29.9938 -139.885 -28.1865 -133.387 -24.3311 -119.79C-13.7287 -133.267 -5.89738 -143.374 3.37973 -155.046C10.7291 -151.436 21.5725 -146.142 32.5364 -140.727C29.2834 -137.478 26.5123 -134.711 22.5364 -130.74C25.6689 -123.641 29.7653 -116.18 32.1749 -108.118C34.2231 -101.139 34.1027 -93.5588 35.3075 -83.692C47.1147 -106.915 57.1147 -126.649 68.8014 -149.631C66.1508 -153.241 61.5725 -159.137 57.1147 -164.913C66.6327 -169.846 76.6328 -174.9 90.0063 -181.759C96.7533 -139.764 89.4039 -96.6873 95.3075 -42.2994C101.091 -56.6183 102.416 -61.3111 104.826 -65.4022C107.717 -70.3356 111.573 -74.7878 115.669 -80.2025C112.657 -83.692 109.042 -87.9034 103.38 -94.4011C113.5 -116.421 120.609 -138.561 149.524 -151.797C169.042 -160.701 180.247 -187.414 199.163 -211.239V-162.386C186.03 -147.225 157.958 -142.051 155.187 -111.488C164.705 -110.886 174.223 -110.405 187.958 -109.562V-64.9209C205.428 -69.2527 218.922 -72.5015 237.235 -77.074C231.211 -62.9957 227.597 -54.3321 223.862 -45.5482C228.601 -40.8153 243.661 -51.0031 269.042 -76.1114C289.283 -73.2235 313.259 -69.8543 343.018 -65.5225C354.223 -77.3146 370.006 -93.9198 387.958 -112.811C374.585 -119.429 366.512 -123.4 355.789 -128.815C372.175 -135.794 386.392 -141.93 410.488 -152.279C402.416 -129.657 397.717 -116.782 392.777 -102.944C401.814 -99.6955 408.681 -97.2889 416.271 -94.5214C417.838 -79.8415 419.404 -64.9209 422.055 -39.8928C427.958 -56.9793 430.368 -63.9583 433.5 -72.9828C446.994 -61.0704 461.091 -56.859 475.428 -75.1487C477.597 -61.0704 479.283 -50.0003 482.055 -31.2292C499.765 -45.0669 512.898 -55.2947 526.512 -66.0039C526.512 -84.6546 533.38 -107.156 525.067 -119.189C508.802 -142.773 545.789 -170.689 516.392 -187.655C530.006 -206.666 543.259 -225.317 558.922 -247.217C571.332 -236.748 581.332 -221.467 593.018 -220.143C611.934 -217.857 616.994 -200.53 631.091 -194.634C644.705 -188.978 658.32 -183.323 640.609 -186.692C588.922 -211.961 580.609 -228.686 558.32 -208.953C566.633 -198.966 573.5 -190.663 580.609 -182.24C587.356 -188.978 592.898 -194.513 640.609 -186.692V-186.452ZM560.368 102.575C578.681 84.285 588.801 74.2978 598.922 64.3106C597.476 62.987 596.03 61.6634 592.536 58.2943C572.657 57.2113 564.464 69.244 598.561 72.0116C599.042 77.667 599.765 85.1273 601.452 103.658C608.44 77.306 642.054 91.9859 633.741 62.0244C622.657 65.1529 611.091 68.5221 560.488 102.454L560.368 102.575ZM661.211 -69.012C667.717 -71.7796 676.151 -75.2691 696.271 -83.5716H608.079C617.235 -73.2235 623.259 -66.2445 623.5 -66.0039C642.898 -56.7387 653.139 -85.2562 661.091 -69.012H661.211ZM657.115 47.3445C684.946 44.5769 694.705 34.2288 695.669 8.2381C672.657 11.8479 660.85 19.9098 657.115 47.3445ZM-17.4636 81.1565V34.9508C-40.5962 45.4193 -43.9697 60.9415 -36.4998 81.1565H-17.4636Z" fill="#8682EF"/>
</mask>
<g mask="url(#mask0_454_299282)">
<path d="M318.942 18.9616C327.067 29.7667 322.802 33.0396 318.717 36.178C322.443 39.6303 327.112 43.9792 331.87 48.4178C336.449 43.3515 331.018 42.9928 330.569 40.7063C331.556 39.9889 332.903 38.3749 333.756 38.5991C336.405 39.2267 338.874 40.5718 341.477 41.6926C350.231 35.0571 359.614 27.9733 373.171 17.7063C366.617 31.4704 362.173 40.9304 357.638 50.4353C360.871 51.601 363.474 52.4977 366.482 53.5737C363.205 57.0708 360.332 60.1644 357.055 63.6614C359.973 64.6926 362.532 65.5893 365.36 66.5757C366.033 70.5659 366.751 74.6907 368.368 84.1059C370.298 74.2872 371.196 69.7589 372.049 65.2306C378.244 81.8642 368.278 93.2969 359.928 105.268C339.547 111.634 330.03 129.658 316.248 145.753C330.434 145.125 337.841 136.472 345.428 128.716C353.104 126.116 362.217 131.944 368.413 123.739C369.984 125.129 371.6 126.564 372.632 127.505C377.166 125.084 381.521 122.798 385.247 120.825C389.108 121.453 392.834 122.798 396.38 122.484C399.343 122.215 402.126 120.018 408.052 117.283C400.69 131.765 386.908 127.102 379.007 135.71C383.721 136.517 387.716 137.19 391.711 137.862C386.01 144.856 381.072 148.443 378.154 145.888C369.086 137.817 361.095 142.435 352.431 146.022C347.313 148.129 341.836 149.609 336.36 150.505C326.843 152.075 325.182 158.396 325.765 166.377C321.5 168.798 317.236 171.264 312.208 174.133C313.824 176.196 314.946 177.675 317.011 180.365C312.253 181.396 307.988 182.383 303.005 183.459C305.474 186.059 307.359 188.121 309.694 190.587C334.474 182.159 360.287 188.839 386.055 185.79C388.704 181.8 391.756 177.227 394.809 172.609C395.617 172.878 396.425 173.147 397.233 173.416C396.425 176.958 395.617 180.5 394.45 185.566C396.156 189.063 413.349 187.045 428.882 179.648C427.535 178.123 426.188 176.554 424.752 174.94C426.233 174.223 427.715 172.833 428.657 173.102C431.261 173.954 433.64 175.568 436.289 176.913C437.366 175.927 438.938 174.537 440.464 173.102L446.614 179.244C442.843 182.517 439.027 185.79 433.416 190.587H395.123C392.699 193.636 389.961 197.133 386.459 201.572C385.023 197.357 384.125 194.712 382.913 191.17C376.448 192.515 369.894 194.443 363.205 195.16C356.561 195.833 349.648 194.578 343.049 195.519C336.225 196.506 329.581 199.061 325.316 200.272C328.414 203.365 332.723 207.669 338.245 213.139C327.426 219.102 320.423 222.958 312.791 227.172C316.293 236.498 324.643 239.008 331.332 243.357C337.213 247.213 346.415 246.451 349.244 256.494C333.846 252.728 319.57 249.231 304.531 245.599C303.993 248.648 303.229 252.773 302.152 258.646C296.989 256.763 292.186 255.014 284.061 252.055C286.395 258.377 287.697 261.829 289.133 265.685C287.248 266.357 284.644 267.254 281.232 268.465C287.023 277.88 292.725 287.16 298.695 296.8C296.451 297.562 293.847 298.459 289.492 299.938C298.157 321.997 300.94 345.086 298.112 368.714C291.378 373.511 287.158 366.921 286.126 363.603C283.253 354.188 282.31 344.19 280.963 334.326C279.212 321.548 279.033 308.412 275.845 296.038C272.838 284.336 266.643 273.531 255.06 267.075C249.075 268.3 241.952 274.323 233.692 285.143C231.761 282.856 229.831 280.615 226.778 277.028V248.603C217.74 267.971 214.747 282.841 217.8 293.213C213.85 291.554 210.438 290.164 207.161 288.819C205.994 290.837 204.692 292.047 204.692 293.258C204.826 300.566 202.941 309.309 206.263 314.868C210.348 321.638 207.834 327.735 209.046 333.967C210.393 340.872 208.867 347.418 212.682 354.95C216.812 363.02 214.523 374.139 217.351 384.227C221.526 399.291 220.853 415.656 222.648 431.437C223.097 435.517 225.611 439.328 226.105 443.363C227.183 451.837 230.145 460.893 222.783 466.587C219.416 463.225 216.094 459.862 212.727 456.5C207.744 448.609 207.385 437.804 205.679 427.492C203.839 416.373 200.337 405.254 199.843 393.687C199.394 383.061 197.015 372.525 195.579 361.944C194.052 350.601 192.661 339.258 191.045 327.96C189.518 317.379 187.812 306.843 186.241 296.845C182.335 293.348 178.52 289.94 173.671 285.591H164.917C164.424 289.671 164.02 293.213 163.301 299.4C160.653 297.024 159.126 295.634 156.253 293.079C153.021 295.275 149.564 297.607 146.063 300.028C146.961 317.065 146.108 332.981 124.829 338.003C112.933 339.572 101.395 335.492 89.2745 330.246C69.8812 321.907 49.6349 314.868 28.1317 316.348C25.0791 313.971 22.2509 311.73 18.2106 308.591C22.1611 304.422 24.9893 298.907 27.7726 298.907C36.2123 298.997 44.5173 297.428 53.4508 301.507C67.2775 307.829 82.3163 310.878 95.0656 320.472C101.889 325.628 111.765 326.794 121.013 330.067C124.784 326.211 128.824 322.086 132.685 318.186C132.685 317.065 132.999 315.989 132.64 315.585C119.397 301.552 106.064 287.609 92.4619 273.307C93.225 266.761 91.7436 260.35 84.0222 258.242C77.2435 256.404 74.6398 252.862 74.1011 245.958C73.6521 239.771 69.567 236.946 62.8332 235.287C49.9492 232.149 49.3656 228.786 56.5483 214.753C36.3469 198.927 21.7571 178.079 8.69351 158.038C12.9134 149.295 17.1332 140.597 21.802 130.958C17.7617 128.178 14.3499 125.936 11.0279 123.56C8.10992 121.498 5.23683 119.301 1.60059 116.611C4.96748 115.445 7.57121 114.593 10.1301 113.697C11.7462 99.4392 24.3608 89.7102 25.3484 74.2423C36.2123 82.4022 46.1334 89.8895 58.344 99.0357C59.6458 94.7316 60.813 90.9655 62.3843 85.8096C62.8332 86.7063 60.9926 82.985 59.0174 78.9499C57.4461 80.2053 55.9647 81.4607 52.5978 84.1955C53.2263 79.8466 52.5978 76.0357 54.169 74.5114C61.6211 67.4275 66.0205 60.6575 55.3362 53.1254C59.9152 46.1312 63.7759 40.3028 68.2651 33.4879C69.0731 36.3125 69.7465 38.7336 71.1831 43.7998C75.1336 38.7784 78.0515 35.0123 81.5082 30.6634C84.2466 32.0084 88.2869 33.9811 92.3721 35.9987C91.16 37.2092 90.1275 38.2404 88.646 39.7199C89.8132 42.3651 91.3395 45.1449 92.2374 48.1488C93.0005 50.7492 92.9557 53.5737 93.4046 57.2501C97.804 48.5971 101.53 41.2443 105.885 32.6809C104.897 31.3359 103.191 29.139 101.53 26.987C105.076 25.1488 108.803 23.2657 113.786 20.7102C116.299 36.3574 113.561 52.408 115.761 72.6731C117.916 67.3379 118.409 65.5893 119.307 64.065C120.385 62.2268 121.821 60.5679 123.347 58.5503C122.225 57.2501 120.878 55.6809 118.769 53.2599C122.539 45.0552 125.188 36.8057 135.962 31.8739C143.235 28.5562 147.41 18.603 154.458 9.72577V27.9285C149.564 33.5776 139.105 35.5055 138.072 46.8934C141.618 47.1176 145.165 47.2969 150.283 47.6108V64.2443C156.792 62.6303 161.82 61.4197 168.643 59.716C166.399 64.9616 165.052 68.1897 163.66 71.4626C165.426 73.2261 171.038 69.4301 180.495 60.0747C188.037 61.1507 196.97 62.4061 208.059 64.0201C212.234 59.6264 218.114 53.4392 224.803 46.4002C219.82 43.9343 216.812 42.4548 212.817 40.4373C218.922 37.8369 224.22 35.5503 233.198 31.6946C230.19 40.1234 228.439 44.9207 226.599 50.0766C229.966 51.2872 232.525 52.1839 235.353 53.2151C235.936 58.6848 236.52 64.2443 237.508 73.5698C239.707 67.2034 240.605 64.603 241.772 61.2404C246.8 65.679 252.053 67.2482 257.395 60.4334C258.203 65.679 258.831 69.8037 259.864 76.7979C266.463 71.642 271.356 67.831 276.429 63.8408C276.429 56.8915 278.988 48.5074 275.89 44.024C269.83 35.2365 283.612 24.8349 272.658 18.5133C277.731 11.4295 282.669 4.48016 288.505 -3.67969C293.129 0.220897 296.855 5.91485 301.209 6.40803C308.257 7.25988 310.143 13.716 315.395 15.9129C320.468 18.0201 325.541 20.1273 318.942 18.872C299.683 9.45677 296.585 3.2248 288.28 10.5776C291.378 14.2989 293.937 17.3924 296.585 20.5308C299.099 18.0201 301.164 15.9577 318.942 18.872V18.9616ZM289.044 126.654C295.867 119.839 299.638 116.118 303.409 112.396C302.87 111.903 302.332 111.41 301.03 110.155C293.623 109.751 290.57 114.235 303.274 115.266C303.454 117.373 303.723 120.153 304.352 127.057C306.955 117.238 319.48 122.708 316.383 111.544C312.253 112.71 307.943 113.966 289.088 126.609L289.044 126.654ZM326.618 62.7199C329.042 61.6887 332.185 60.3885 339.682 57.295H306.821C310.233 61.1507 312.477 63.7511 312.567 63.8408C319.795 67.293 323.61 56.6673 326.573 62.7199H326.618ZM325.092 106.075C335.462 105.044 339.098 101.188 339.457 91.5035C330.883 92.8486 326.483 95.8525 325.092 106.075ZM73.7419 118.673V101.457C65.1227 105.357 63.8657 111.141 66.649 118.673H73.7419Z" fill="#8682EF"/>
</g>
</g>
<defs>
<clipPath id="clip0_454_299282">
<rect width="445" height="470" fill="white"/>
</clipPath>
</defs>
</svg>
