<svg width="863" height="546" viewBox="0 0 863 546" fill="none" xmlns="http://www.w3.org/2000/svg">
<g clip-path="url(#clip0_450_299231)">
<path d="M498.528 276.4C493.1 278.155 490.444 283.777 483.091 281.674C485.334 278.568 488.61 277.755 490.642 275.724C485.537 269.545 478.965 275.047 473.241 273.522C467.286 271.944 462.907 265.23 456.407 266.897C450.392 268.43 445.168 267.38 440.994 266.111C439.041 263.186 438.064 260.237 436.169 259.357C434.077 258.403 431.1 259.374 428.522 259.645C425.404 259.886 432.609 252.372 425.156 255.312C423.193 256.085 420.237 255.877 418.261 254.949C409.396 250.839 399.595 248.651 388.856 248.388C385.961 248.315 383.097 247.157 380.202 246.539C374.638 245.382 369.366 244.413 363.374 245.435C358.169 246.331 351.447 249.525 346.812 242.329C345.663 240.555 340.917 239.673 338.473 240.429C328.333 243.585 319.597 237.502 310.086 237.311C309.407 234.793 308.823 232.661 308.268 230.535C306.33 232.011 304.35 233.538 303.047 229.88C296.468 232.439 290.276 228.806 283.812 228.146C282.629 231.126 281.629 233.692 280.629 236.258C280.109 236.142 279.589 236.025 279.069 235.909C279.257 233.312 279.467 230.751 279.717 227.471C274.858 227.23 269.953 227.192 265.052 226.731C260.295 226.301 255.244 224.077 250.918 225.109C245.05 226.524 240.464 222.766 235.314 223.279C230.787 223.72 226.084 226.973 223.017 220.766C219.122 221.773 215.205 223.685 211.389 223.527C208.564 223.41 205.818 220.641 201.601 218.209C200.691 219.431 199.175 221.456 197.827 223.277C197.25 222.602 197.729 223.71 198.394 223.859C211.37 226.859 224.365 229.772 237.367 232.657C239.706 233.181 242.747 234.499 244.354 233.555C248.367 231.21 250.526 231.997 252.493 235.805C252.788 236.386 254.512 236.136 255.143 236.702C259.514 240.745 266.799 231.52 270.115 239.998C275.768 240.355 281.069 244.576 287.01 241.48C290.765 245.567 296.181 245.355 300.881 246.985C306.138 248.831 310.388 247.6 313.954 244.002C316.293 246.558 318.055 250.198 320.734 251.102C333.925 255.576 347.317 259.427 360.715 263.249C363.795 264.122 367.012 265.874 370.477 263.133C371.512 262.303 375.273 262.843 375.843 263.82C378.755 268.961 382.331 267.215 386.682 266.341C390.24 265.622 394.208 267.269 398.008 267.636C398.749 267.711 399.599 266.628 400.785 265.802C401.025 267.979 401.227 269.783 401.423 271.616C402.202 272.064 402.958 272.749 403.789 272.966C408.592 274.133 413.419 275.064 418.209 276.289C419.958 276.742 421.779 277.545 423.158 278.703C425.276 280.482 427.628 284.739 428.861 284.379C436.271 282.309 441.729 292.056 449.384 287.402C450.403 286.782 452.683 287.839 454.2 288.512C460.945 291.571 467.347 296.434 474.368 297.583C490.776 300.291 505.564 307.791 521.527 311.673C525.926 312.75 529.808 315.864 534.193 317.272C539.339 318.941 545.873 318.343 549.716 321.358C553.171 324.074 558.579 321.192 560.262 326.27C570.077 326.863 578.288 332.313 587.267 335.417C596.246 338.522 604.551 343.69 614.327 344.456C625.376 354.97 641.801 357.469 651.903 369.5C653.005 370.808 655.168 371.172 656.671 372.176C664.773 377.571 666.926 388.669 661.911 397.918C661.292 399.053 661.889 400.855 661.928 402.441C657.126 402.213 650.787 408.981 646.472 400.219C641.929 400.596 637.38 401.002 631.633 401.473C633.151 405.119 634.503 408.425 635.762 411.467C634.723 412.72 633.677 414.275 632.358 415.557C631.496 416.425 630.266 416.907 629.183 417.544C628.402 416.156 627.557 414.784 626.847 413.351C626.425 412.528 626.202 411.629 625.73 410.219C622.737 410.852 619.679 411.501 615.829 412.306C616.035 408.682 616.226 405.935 616.385 403.332C611.884 400.139 608.445 400.46 606.22 406.331C599.087 404.732 591.873 403.357 584.817 401.412C582.273 400.72 580.084 398.713 577.773 397.254C576.708 396.591 568.892 394.657 565.93 394.205C564.611 394.001 563.38 393.27 560.669 392.237C564.125 391.435 566.109 390.97 567.937 390.53C567.517 389.83 567.266 388.651 566.701 388.464C562.547 387.108 556.854 388.016 556.97 380.732C556.987 379.978 551.043 377.675 549.128 378.641C542.452 381.906 536.848 377.677 533.263 377.571C527.483 376.973 528.034 386.286 522.552 380.569C523.485 379.383 524.412 378.226 526.007 376.248C519.741 374.843 514.117 373.006 508.381 372.479C503.156 371.975 497.9 372.829 494.375 367.58C494.01 367.043 492.347 367.429 491.317 367.289C486.086 366.541 480.243 366.899 475.885 364.557C473.207 363.108 471.606 361.05 469.594 363.936C468.345 365.718 468.674 368.582 468.148 371.74C465.22 372.084 460.144 372.402 458.097 368.273C454.745 361.577 448.617 361.993 443.161 360.892C439.215 360.098 434.925 360.835 430.819 360.885C429.014 354.323 424.583 361.64 421.407 359.169C419.833 357.937 416.154 359.599 413.419 359.623C411.532 359.655 408.344 359.668 407.912 358.752C404.246 350.348 397.515 358.727 392.529 355.941C391.102 355.136 386.857 359.188 384.48 354.501C384.036 353.643 381.784 352.865 380.823 353.226C372.076 356.664 365.301 352.385 358.27 347.624C356.89 349.317 355.509 351.009 353.878 353.009C353.347 350.645 352.879 348.539 352.146 345.311C348.911 346.891 346.137 348.574 343.134 349.66C339.334 351.053 336.728 348.74 335.081 342.153C333.517 344.259 332.342 345.846 330.724 348.061C328.223 346.227 325.745 344.428 323.033 342.455C321.411 344.548 320.018 346.298 318.348 348.471C318.072 339.826 309.867 348.42 308.044 343.159C305.087 344.983 302.095 346.83 298.261 349.185C305.643 351.841 313.468 352.109 319.735 357.032C322.078 358.892 326.614 360.303 330.805 357.845C332.447 356.879 335.382 358.265 337.76 358.343C342.46 358.487 345.646 362.81 351.329 361.809C356.255 360.942 361.806 363.915 367.136 364.898C370.778 365.563 374.12 367.434 378.355 365.047C380.685 363.719 385.863 367.003 387.882 365.575C392.391 362.37 391.86 368.257 394.522 368.156C402.249 367.916 408.173 374.097 416.697 373.551C424.424 373.039 432.326 374.052 440.196 372.632C444.242 371.901 445.361 374.214 443.006 378.903C433.092 374.284 424.253 378.945 413.589 383.894C418.656 385.242 422.284 386.238 425.92 387.204C431.679 388.708 437.977 388.755 442.71 393.213C450.003 389.904 453.701 398.709 460.686 398.395C466.847 398.108 474.045 399.418 479.255 402.558C487.842 407.819 497.368 408.62 506.441 411.442C510.355 412.653 515.039 417.464 517.404 416.387C522.757 413.886 524.409 419.231 528.219 419.418C532.598 419.641 537.55 420.144 541.08 422.392C548.204 426.87 556.16 428.047 563.873 430.443C571.534 432.797 579.448 435.512 586.353 438.94C599.291 445.358 614.063 447.517 625.83 456.312C633.939 456.128 640.009 461.523 647.047 464.223C657.498 468.203 668.3 471.838 677.752 477.566C684.582 481.736 693.177 482.631 698.659 488.076C704.142 493.521 710.578 497.147 717.224 499.699C738.931 507.992 757.676 521.384 777.599 532.765C778.786 533.425 780.136 533.758 782.237 534.533C766.022 536.782 765.66 536.64 750.772 532.969C748.757 532.487 746.192 534.459 744.141 534C742.149 533.553 740.657 531.278 738.72 530.176C734.503 527.745 734.098 531.718 732.421 534.466C731.184 533.218 730.162 531.958 728.889 531.005C727.828 530.191 726.51 529.714 725.121 529.008C726.61 527.916 727.76 527.113 731.662 524.318C726.287 525.296 722.779 526.876 721.837 525.937C719.732 523.827 717.915 521.782 714.808 521.844C713.681 521.864 711.863 522.669 711.582 523.516C710.31 527.295 709.805 526.03 707.26 524.125C705.365 522.699 700.893 525.063 698.458 523.88C695.755 522.546 694.501 518.262 691.782 516.864C688.597 515.24 684.452 513.704 680.947 517.165C680.678 516.74 680.172 516.293 680.169 515.898C680.328 513.568 680.608 511.235 680.831 508.889C675.301 508.256 668.474 509.486 664.958 506.635C659.83 502.452 651.903 504.527 649.352 500.619C645.152 494.188 639.58 500.643 635.692 497.557C639.232 491.375 643.978 494.016 648.483 494.753C653.573 495.59 658.892 499.058 663.246 493.3C657.067 486.365 648.041 492.804 640.217 489.685C641.646 487.912 642.608 486.733 644.866 483.964C637.252 485.866 633.998 478.191 627.435 479.328C622.509 480.195 617.602 481.249 612.143 482.33C612.111 481.929 611.999 480.266 611.837 477.742C608.098 478.724 604.453 479.696 600.265 480.79L602 473.05C604.356 473.093 607.431 473.176 610.535 473.265C610.652 472.745 610.775 472.196 610.92 471.683C598.061 466.404 585.179 461.09 571.768 455.567C573.263 454.446 574.285 453.674 575.307 452.902C574.397 452.092 573.536 450.655 572.579 450.593C559.943 449.731 558.531 449.263 551.382 442.596C547.637 449.156 539.97 449.803 533.46 454.895C533.903 451.294 534.207 448.724 534.578 445.713C537.887 445.97 540.635 446.161 543.376 446.381C543.505 445.804 543.663 445.233 543.822 444.662C539.571 443.466 535.326 442.242 530.135 440.775C530.631 443.433 531.346 445.383 531.227 447.267C531.155 448.131 529.436 448.898 528.494 449.718C524.902 444.636 518.694 449.462 515.14 446.512C511.175 443.227 505.775 450.539 502.731 444.094C502.571 443.725 499.17 444.418 497.647 445.26C493.765 447.423 490.108 449.939 486.113 452.471C478.302 449.567 469.834 449.185 461.907 444.497C456.444 441.27 448.795 439.131 440.894 441.091C435.692 442.381 429.314 441.74 425.856 435.384C423.044 430.204 418.21 429.849 413.388 431.74C406.803 434.328 400.436 433.507 393.923 431.713C389.181 430.408 383.614 430.616 379.683 428.127C375.512 425.494 370.296 432.119 367.248 425.825C367.059 425.449 363.673 427.298 362.168 426.839C357.747 425.454 352.378 429.922 348.757 424.561C344.103 426.247 339.487 426.274 334.855 424.478C330.078 422.649 324.651 423.586 320.459 418.612C318.181 415.918 312.074 416.641 307.849 415.33C302.524 413.651 296.195 414.689 292.151 409.051C291.088 407.569 287.512 407.283 285.146 407.42C280.263 407.69 275.986 406.61 271.547 404.493C269.107 403.339 265.628 404.379 262.341 404.431C262.587 403.061 262.821 401.748 263.236 399.354L297.457 407.026C294.478 402.324 293.073 400.068 291.101 396.957C298.012 396.838 305.104 396.729 315.123 396.549L290.056 390.93C288.339 394.892 284.759 397.962 279.317 400.139C279.106 398.241 279.538 395.366 278.605 394.793C270.72 390.053 263.046 384.238 252.722 387.808C249.796 388.82 246.313 389.07 243.216 388.679C237.606 387.998 232.279 385.378 226.39 387.971C222.624 389.614 220.672 381.412 215.962 385.512C215.637 383.71 215.342 381.915 214.659 378.062C212.812 380.62 211.451 382.499 209.616 384.999C203.678 377.663 194.666 380.253 189.892 373.814C183.741 375.681 177.622 377.675 171.401 379.314C168.504 380.06 165.387 380.028 159.114 380.684C166.243 373.911 163.098 366.291 170.093 361.066C165.779 360.826 162.288 361.651 160.654 360.284C158.923 358.804 158.252 355.166 158.492 352.611C158.786 349.402 157.32 349.043 155.073 347.568C151.664 345.318 149.643 341.074 146.351 338.577C139.209 333.094 139.167 326.381 142.137 317.736C147.097 315.633 152.567 312.34 158.466 311.054C163.665 309.914 169.283 311.234 174.698 311.841C181.027 312.563 188.303 311.494 194.991 310.749C201.55 310.036 207.42 310.775 213.227 312.471C228.188 316.765 244.189 313.983 258.922 319.561C269.263 315.237 279.159 324.673 289.67 320.539C291.803 319.683 293.226 325.916 297.54 322.364C298.949 321.224 303.079 323.363 305.967 324.01C312.234 325.415 318.655 328.432 324.669 327.717C329.774 327.133 334.24 333.321 339.103 328.405C341.765 333.036 347.859 328.852 349.341 331.034C352.841 336.125 356.765 331.606 360.393 332.875C365.565 334.701 371.018 336.894 377.205 334.187C379.763 333.062 384.373 334.55 387.031 336.359C390.169 338.458 392.081 342.647 396.355 338.328C398.539 343.064 401.812 340.643 405.455 340.762C412.468 341 420.269 342.87 426.104 346.604C432.5 350.677 428.17 341.851 431.368 343.144C435.945 345.322 441.946 343.179 445.579 348.756C446.408 350.064 449.958 349.919 452.27 349.892C455.441 349.814 458.607 349.22 462.939 348.704C461.946 345.691 461.008 342.842 460.369 340.819C450.573 340.412 441.861 340.037 432.604 339.66C431.994 337.916 431.447 335.215 430.135 332.95C429.303 331.52 426.354 329.524 425.981 329.834C421.741 333.191 418.967 331.629 416.685 327.599C411.488 329.679 407.588 325.833 403.225 324.46C391.791 320.805 378.829 322.207 368.794 314.073C360.608 319.335 352.674 309.671 343.839 313.908C339.999 315.747 335.062 308.817 329.034 310.68C327.373 311.187 324.748 307.202 322.265 306.645C320.07 306.153 317.419 307.561 314.127 308.309C317.197 300.839 322.737 304.537 326.742 303.312C326.028 301.089 325.373 299.001 324.665 296.75C333.093 296.091 339.608 296.794 341.976 298.811C342.9 297.259 343.747 295.781 344.588 294.331C349.723 296.726 354.545 301.598 361.168 296.137C360.793 294.021 360.39 291.626 359.805 288.28L349.322 285.93C349.823 287.619 350.231 289.045 350.662 290.506C344.941 292.621 345.639 288.561 345.574 285.059C344.871 285.084 344.034 284.896 343.481 285.197C341.752 286.143 340.066 288.253 338.484 288.141C332.774 287.77 327.419 286.631 322.056 290.797C320.295 292.161 315.597 289.713 312.24 288.991C310.45 288.589 308.63 288.181 305.408 289.431C307.479 291.29 309.571 293.184 311.34 294.764C305.386 301.032 299.191 303.454 292.757 302.032C297.219 300.121 300.338 298.788 303.358 297.494C303.253 297.288 302.956 296.039 302.517 295.971C293.604 295.004 284.651 293.543 275.711 293.51C261.831 293.462 255.413 292.326 241.744 285.653C239.171 284.409 236.126 284.06 233.267 283.419C222.299 280.93 211.319 278.499 199.046 275.748C201.029 274.069 201.929 273.301 203.688 271.814C201.549 270.941 199.757 269.599 197.969 269.592C195.276 269.565 192.341 269.938 189.941 271.038C181.841 274.833 177.293 270.902 173.864 264.553C169.853 265.534 165.811 267.6 161.982 267.227C155.152 266.576 148.554 263.944 141.74 263.084C135.315 262.25 128.74 262.626 121.836 262.443C124.476 253.239 114.689 255.898 112.911 250.98C112.419 249.656 108.571 249.097 106.228 248.996C99.4357 248.717 100.647 241.012 96.1961 238.68C97.0445 238.142 97.8576 237.627 99.7666 236.417C86.7713 231.745 88.1678 219.562 85.1149 209.233C86.1769 207.742 87.4492 205.449 89.1765 203.562C93.2326 199.133 96.5215 192.985 104.463 196.798C105.697 197.378 108.075 196.243 109.656 195.414C112.647 193.84 115.413 190.972 118.11 195.854C118.328 196.236 120.197 195.745 121.298 195.567C133.616 193.385 145.955 192.329 158.477 193.832C161.581 194.194 165.093 192.464 167.942 193.285C171.022 194.157 175.011 189.622 177.136 194.891C180.702 191.293 184.468 194.381 188.176 194.484C191.826 194.575 195.612 193.513 199.145 194.123C208.086 195.642 217.413 193.001 226.04 196.998C234.257 192.682 242.713 200.826 250.929 196.511C262.023 200.059 273.847 197.372 285.105 200.866C291.204 202.749 298.444 203.462 304.617 202.177C314.674 200.064 324.109 206.819 333.91 203.011C334.309 202.858 334.883 203.138 335.325 203.328C350.052 208.935 366.07 205.944 381.014 210.446C393.491 214.183 407.046 211.217 419.415 216.113C424.274 213.107 429.505 215.887 434.723 214.661C427.542 211.656 420.541 208.115 413.152 205.761C405.735 203.401 397.937 202.199 389.706 200.354C393.464 195.767 396.81 200.187 399.829 199.439C401.114 199.12 401.991 197.102 403.512 195.32C397.617 192.664 393.05 190.579 387.835 194.9C386.421 196.069 382.912 196.162 381.18 195.228C376.655 192.818 372.325 190.756 367.106 192.255C364.934 186.248 358.042 193.316 354.638 187.397C352.913 184.402 346.239 184.271 341.254 182.699C343.202 181.315 344.324 180.505 346.927 178.632C341.989 177.525 338.198 175.766 334.631 176.119C330.634 176.496 329.925 170.999 325.165 172.48C322.656 173.252 319.016 169.737 315.731 168.697C311.997 167.496 308.069 166.889 304.199 166.021L279.017 160.376C281.55 158.548 282.707 157.715 284.259 156.607C282.871 155.902 281.72 154.946 280.443 154.69C277.102 154.033 277.052 164 272.434 157.809C269.168 153.437 266.964 159.615 263.749 157.317C261.71 155.859 259.315 150.985 255.135 154.477C249.34 149.477 242.94 147.588 235.491 150.376C234.7 150.654 232.993 150.423 232.744 149.912C229.843 143.772 221.421 151.984 219.136 144.587C213.535 144.272 210.288 135.082 203.171 140.311C199.572 135.258 194.483 137.393 189.695 137.108C184.841 136.839 180.068 135.132 175.245 134.05C169.96 132.866 164.582 131.963 159.375 130.432C136.891 123.845 112.954 125.364 90.6317 118.055C84.3855 116.018 78.32 113.445 72.2834 110.879C71.1223 110.376 70.0688 108.987 69.5221 107.773C67.652 103.532 65.5445 99.2683 64.4228 94.801C63.3808 90.6549 61.704 86.0935 66.8306 82.572C68.3348 81.5443 68.0172 77.9549 68.6123 75.5709C71.3556 64.145 72.3489 63.3668 84.8286 62.2215C86.6555 62.0548 88.4534 61.8816 90.2549 61.5575C92.371 61.1826 94.4841 60.6858 97.8336 59.9504C96.0358 56.6054 94.1846 54.31 93.496 51.699C92.3325 47.283 90.6423 43.0522 91.9549 38.0085C93.4164 32.3005 97.5581 28.4368 99.9268 23.4175C100.513 22.1538 103.228 21.2761 104.938 21.3563C107.85 21.4933 110.711 22.5291 113.605 23.1476C120.094 24.511 126.357 26.0667 133.312 24.8052C139.131 23.7438 145.132 29.8508 151.512 25.6094C151.795 25.4301 152.436 25.8165 152.933 25.8977C165.247 27.6572 177.549 30.415 189.933 30.9162C208.54 31.6602 226.141 38.7902 244.257 39.697C266.038 40.7582 286.217 47.617 307.172 51.5561C328.473 55.5728 350.301 58.8587 370.514 66.2408C388.482 72.8162 407.488 74.6202 425.035 81.3136C435.428 85.2813 446.4 87.0736 456.447 91.2364C474.428 98.6946 493.374 104.155 509.837 115.003C512.874 117.018 515.994 118.931 519.181 120.949L511.14 156.817C500.244 155.769 493.559 161.914 487.184 168.704C488.013 170.012 488.282 170.436 488.528 170.825C490.563 169.461 492.597 168.098 494.555 166.808C498.124 168.881 501.481 170.817 506.208 173.545C499.939 174.99 494.882 177.527 490.18 176.988C480.921 175.944 471.844 173.272 462.729 171.047C461.545 170.781 460.119 169.43 459.768 168.29C458.047 162.84 453.281 162.59 449.048 162.126C444.304 161.639 438.718 163.693 437.329 156.497C433.272 155.921 431.031 147.654 425.383 153.637C421.315 152.3 416.182 152.06 413.388 149.371C408.652 144.791 400.399 148.188 397.308 141.277C391.989 142.815 386.677 144.323 380.003 146.224C378.17 144.388 373.447 143.268 372.937 137.695C372.846 136.613 369.848 134.697 368.686 135.013C360.791 137.216 353.442 134.689 346.113 132.743C336.35 130.16 326.602 129.673 316.655 131.022C315.781 131.13 314.778 130.056 313.778 129.65C313.139 129.385 311.843 129.216 311.817 129.331C311.381 130.599 311.148 131.911 310.656 134.106C333.489 137.647 353.855 148.946 376.647 151.993C380.624 152.52 385.629 151.974 388.291 156.878C388.675 157.6 391.795 157.481 393.244 156.835C402.461 152.927 410.833 156.441 419.685 158.759C416.7 163.822 417.311 166.78 421.633 167.931C428.794 169.809 436.13 170.908 443.253 172.959C450.035 174.904 457.22 174.786 463.344 180.071C468.149 184.212 477.147 180.466 481.622 187.293C484.39 185.092 485.871 188.093 487.805 188.527C502.315 191.719 515.258 198.654 528.798 204.146C539.082 208.332 549.082 212.97 557.881 219.856C564.747 225.216 571.398 230.862 578.702 236.837C575.764 244.125 578.037 253.066 568.521 256.817C568.023 257.008 569.015 260.84 569.226 263.01C569.709 267.486 566.871 267.426 563.145 266.864C563.542 269.015 563.828 270.99 564.306 272.917C564.736 274.651 565.365 276.309 566.125 278.602C563.14 278.388 560.421 278.203 556.538 277.939C559.055 282.81 563.975 286.976 558.526 292.882C555.672 289.24 552.937 285.746 549.514 281.399C540.564 288.583 529.142 286.902 518.219 286.516C510.631 286.271 503.182 283.782 498.553 276.557L498.528 276.4ZM389.852 306.995C393.716 309.105 395.464 310.103 397.237 310.986C399.251 312.014 403.191 313.382 403.081 313.873C401.488 320.977 407.561 319.458 410.37 319.784C416.763 320.489 421.369 317.124 425.311 310.364C420.518 310.503 416.117 312.004 413.989 310.404C410.552 307.875 408.136 307.151 403.942 308.273C400.525 309.176 396.512 307.73 339.665 307.634C343.165 306.902 346.863 306.64 350.156 305.346C354.515 303.623 355.596 309.628 359.485 308.65C362.118 307.997 364.832 307.665 367.525 307.419C371.15 307.079 374.975 307.603 378.406 306.643C382.157 305.604 385.612 303.042 387.647 308.715C389.459 307.666 391.39 306.764 393.01 305.489C394.299 304.474 395.797 301.716 396.182 301.893C403.052 305.071 406.647 296.748 412.818 297.767C406.717 293.458 400.287 293.866 393.749 295.161C390.916 302.654 385.469 298.946 380.726 298.186C378.47 297.832 376.279 297.189 374.546 296.801C373.232 299.145 372.618 301.343 371.88 301.389C366.38 301.703 360.771 302.235 355.373 301.42C348.945 300.464 343.608 301.815 389.772 306.947L389.852 306.995ZM497.754 427.329C491.084 427.319 485.671 425.621 483.222 427.619C476.927 432.699 475.222 424.34 470.952 424.717C470.515 424.771 470.065 425.155 469.714 425.501C465.756 428.951 465.564 420.204 461.893 423.05C458.292 425.853 455.902 425.013 453.797 421.145C453.429 420.486 450.823 420.205 449.991 420.807C446.053 423.625 442.495 420.825 438.814 420.334C438.346 420.259 438.072 418.772 437.57 417.628C438.79 416.112 440.093 414.494 441.438 412.824C434.537 408.972 428.045 404.514 419.965 409.709C419.287 410.163 417.079 407.97 415.462 407.335C412.402 406.103 408.574 403.425 406.22 404.322C399.242 407.035 397.227 399.789 392.594 398.811C388.133 397.872 383.855 402.615 378.342 398.255C375.229 395.768 368.858 397.403 363.423 397.155C365.067 395.37 366.074 394.261 367.801 392.374C362.574 391.202 358.378 389.898 354.058 389.414C351.423 389.127 348.686 390.242 345.963 390.481C342.31 390.815 338.657 390.875 334.971 391.08C332.239 391.226 331.726 385.531 327.007 388.992C323.96 391.22 320.75 385.921 317.514 384.256C315.122 383.022 312.14 382.929 309.541 382.347L307.573 391.126C311.222 391.762 314.481 392.917 317.717 392.824C324.067 392.64 330.271 392.969 336.467 394.418C346.058 396.69 355.7 398.73 365.317 400.886C372.946 410.421 384.174 403.9 393.214 407.139C394.503 407.61 395.745 408.161 397.326 408.819C396.655 410.458 396.133 411.706 395.617 412.925C392.907 411.62 390.168 410.308 387.24 408.894C383.367 409.39 380.32 415.41 375.745 412.14C371.821 409.35 368.045 409.686 363.687 409.104C350.417 407.281 336.604 408.825 323.806 403.682C318.106 401.373 312.9 402.268 308.083 406.708C307.726 403.838 307.489 402.056 307.153 399.494C304.601 401.409 302.514 403.003 300.843 404.236C301.762 410.69 305.66 411.837 310.21 412.917C316.146 414.309 317.447 408.777 320.716 406.234C322.307 408.744 323.184 411.458 325.047 412.756C328.372 415.108 332.301 416.656 335.973 418.541C339.899 411.717 343.654 422.568 347.536 418.646C351.232 421.234 355.272 416.741 359.943 420.123C363.02 422.36 369.674 419.332 374.807 421.059C377.877 422.111 381.881 423.191 384.583 422.098C392.084 419.078 384.511 428.239 388.962 427.053C390.624 426 392.2 424.382 394.001 424.058C395.51 423.82 397.936 426.123 398.797 425.527C403.413 422.528 407.283 426.368 411.498 426.372C416.108 426.375 420.769 426.146 425.346 426.565C427.577 426.762 429.783 428.015 431.806 429.135C439.695 433.452 444.615 434.099 456.213 434.182C460.184 434.193 464.108 436.71 468.814 438.311C470.18 437.495 472.565 436.058 473.966 435.22C476.9 436.605 479.065 437.637 482.712 439.364C481.023 436.347 480.347 435.164 478.418 431.729C483.059 433.892 485.659 435.688 488.496 436.293C491.801 436.973 495.32 436.701 498.729 436.646C499.152 436.65 499.556 435.527 500.068 434.732C497.341 433.636 494.81 432.613 491.779 431.388C493.544 430.146 494.694 429.342 497.68 427.251L497.754 427.329ZM479.073 320.839C476.103 315.957 476.227 311.345 470.477 313.453C465.225 315.369 466.474 308.582 463.073 307.516C459.81 306.512 456.577 312.005 452.911 306.846C451.685 305.146 446.285 306.907 443.132 305.958C440.087 305.063 436.642 308.931 433.601 304.367C432.759 303.117 426.88 305.257 422.889 305.879C427.26 308.435 430.884 311.614 435.091 312.739C439.781 314.002 444.986 313.653 449.968 313.617C452.186 313.598 455.711 311.538 456.384 312.325C462.124 319.193 470.406 317.016 479.086 320.781L479.073 320.839Z" fill="#AFFF97"/>
</g>
<defs>
<clipPath id="clip0_450_299231">
<rect width="799.045" height="379.469" fill="white" transform="translate(83.005) rotate(12.635)"/>
</clipPath>
</defs>
</svg>
