<svg width="40" height="41" viewBox="0 0 40 41" fill="none" xmlns="http://www.w3.org/2000/svg">
<circle cx="20.2137" cy="20.4904" r="16" transform="rotate(15 20.2137 20.4904)" fill="#AFFF97"/>
<path fill-rule="evenodd" clip-rule="evenodd" d="M20.5005 31.8831C21.3805 31.7799 22.2292 31.4555 23.0464 30.91C23.6627 30.4987 24.2387 29.969 24.7744 29.3209C25.3191 28.6863 25.7967 27.9511 26.2072 27.1155C26.774 25.9626 27.1888 24.7561 27.4516 23.4962C27.719 22.2139 27.8144 21.0367 27.7378 19.9645C27.7199 19.8797 27.6775 19.8306 27.6104 19.8172C27.5568 19.7949 27.5099 19.7971 27.4697 19.824C27.4161 19.8597 27.3938 19.9134 27.4028 19.9848C27.4433 20.5968 27.4013 21.3027 27.2767 22.1025C27.1565 22.8798 26.9715 23.6908 26.7218 24.5353C26.4765 25.3574 26.1598 26.1595 25.7716 26.9415C25.3655 27.7548 24.9236 28.4564 24.4459 29.0464C23.9772 29.6497 23.4949 30.1168 22.9992 30.4477C22.0614 31.0736 21.1189 31.2573 20.1717 30.9987C19.2334 30.7535 18.3954 30.0638 17.6576 28.9295C18.4036 28.8576 19.1161 28.6919 19.795 28.4324C20.4873 28.164 21.1282 27.8331 21.7177 27.4396C22.5081 26.912 23.1957 26.2884 23.7806 25.5689C24.3699 24.8269 24.8095 24.0494 25.0994 23.2361C25.4027 22.414 25.5162 21.583 25.4398 20.7431C25.4369 20.7038 25.4335 20.6645 25.4296 20.6253C25.3731 21.0204 25.331 21.4608 25.3081 21.7689L25.1362 21.5138C25.08 22.4976 24.762 23.4405 24.182 24.3423C23.5928 25.2585 22.8159 26.0385 21.8513 26.6823C21.2618 27.0758 20.6164 27.4 19.9152 27.655C19.214 27.9101 18.4725 28.0758 17.6907 28.1521L17.4763 28.1791L17.235 28.1658C17.0562 27.8398 16.8951 27.4825 16.752 27.0939C16.6088 26.7053 16.4656 26.2877 16.3224 25.841C16.0225 24.7243 15.861 23.583 15.838 22.417C16.5125 22.2379 17.1758 21.9986 17.8279 21.6989C18.4799 21.3992 19.1074 21.0482 19.7103 20.6458C21.1036 19.7158 22.2869 18.6162 23.2601 17.3469L23.6221 17.7152C23.7562 17.8581 23.8792 17.9988 23.9909 18.1372C24.1027 18.2756 24.2077 18.4185 24.3061 18.5659C24.4263 18.746 24.5336 18.9276 24.628 19.1109L24.5956 18.8717L24.8392 18.7501C24.7606 18.6068 24.6744 18.4649 24.5807 18.3245C24.5092 18.2173 24.431 18.1146 24.346 18.0164C24.2745 17.9092 24.2007 17.8132 24.1247 17.7284C24.0219 17.6033 23.9169 17.4895 23.8096 17.3868C23.6934 17.2707 23.5816 17.1613 23.4743 17.0586C23.8136 16.5804 24.1283 16.0799 24.4184 15.5571C24.9896 14.498 25.3889 13.4859 25.6162 12.5208C25.8346 11.5423 25.9033 10.6734 25.8225 9.91395C25.7461 9.13219 25.547 8.50017 25.2251 8.01787C24.8584 7.46858 24.3512 7.15837 23.7034 7.08725C23.06 6.99379 22.323 7.22426 21.4924 7.77868C21.0503 8.07377 20.5814 8.47386 20.0858 8.97895C19.5947 9.4617 19.0902 10.0695 18.5724 10.8025C18.1929 11.3075 17.8403 11.8527 17.5145 12.4381C17.1798 13.0102 16.8629 13.609 16.564 14.2346C16.3361 14.2123 16.106 14.2013 15.8737 14.2014C15.6548 14.1926 15.4404 14.1905 15.2304 14.1951C14.1136 14.2046 13.1219 14.3437 12.2554 14.6122C11.3888 14.8807 10.6541 15.2162 10.0512 15.6186C9.36798 16.0746 8.84558 16.5976 8.48405 17.1875C8.13591 17.7684 7.95307 18.3649 7.93554 18.977C7.92246 19.5667 8.08136 20.1094 8.41222 20.6051C8.74308 21.1008 9.22131 21.4981 9.84691 21.7971L10.229 21.9778L10.2357 22.0314C10.178 22.7284 10.2365 23.4543 10.4111 24.2092C10.5902 24.9417 10.8899 25.6229 11.3102 26.2525C11.7394 26.8956 12.3071 27.4559 13.0132 27.9336C13.7104 28.3978 14.537 28.7078 15.4931 28.8637C15.5513 28.9798 15.6139 29.1026 15.681 29.2321L15.8956 29.5537C16.4947 30.4513 17.192 31.0897 17.9874 31.469C18.7962 31.8394 19.6339 31.9774 20.5005 31.8831ZM23.648 16.1003C23.5097 16.3282 23.3579 16.565 23.1928 16.8108C22.3972 16.1412 21.4945 15.6011 20.4846 15.1907C19.4658 14.7668 18.4426 14.4815 17.415 14.3346C17.8522 13.1907 18.3855 12.1473 19.0149 11.2043C19.5193 10.4222 20.0014 9.7809 20.4613 9.2803C20.9256 8.75735 21.3654 8.35728 21.7807 8.08007C22.4506 7.63296 23.038 7.45394 23.5428 7.54301C24.0521 7.60974 24.4633 7.87756 24.7763 8.34647C25.2144 9.00293 25.3937 9.96779 25.3139 11.241C25.2342 12.5143 24.8061 13.9039 24.0296 15.4098C23.9136 15.6422 23.7864 15.8724 23.648 16.1003ZM15.0049 18.4705C14.6616 19.726 14.4345 20.9525 14.3234 22.1498C13.0994 22.2309 11.9132 22.035 10.7648 21.5621L10.6844 21.5286C10.8714 20.3 11.4069 19.3905 12.2912 18.8004C12.5993 18.5947 12.9052 18.4583 13.209 18.3911C13.2939 18.3732 13.3519 18.3441 13.3832 18.3039C13.4055 18.2503 13.4032 18.2034 13.3764 18.1632C13.3406 18.1096 13.2915 18.094 13.2289 18.1163C13.0011 18.1522 12.7912 18.2149 12.5991 18.3043C12.3981 18.3804 12.2039 18.481 12.0163 18.6062C11.1321 19.1964 10.5675 20.1058 10.3224 21.3345C9.76831 21.0265 9.36158 20.6783 9.10226 20.2898C8.65515 19.6199 8.5788 18.8962 8.87322 18.1187C9.18104 17.3323 9.77036 16.6485 10.6412 16.0672C11.2173 15.6827 11.9006 15.3718 12.6912 15.1346C13.4952 14.8885 14.3953 14.7718 15.3916 14.7847L16.2962 14.7909C15.7831 15.9661 15.3527 17.1926 15.0049 18.4705ZM22.9785 17.0991C22.0499 18.3192 20.9359 19.363 19.6364 20.2304C19.0469 20.6238 18.4328 20.9659 17.7941 21.2566C17.1554 21.5474 16.5011 21.7711 15.8311 21.9278C15.8349 20.744 15.9571 19.5489 16.1977 18.3425C16.4516 17.1273 16.7883 15.9633 17.2076 14.8507C18.2441 14.9529 19.265 15.1913 20.2704 15.566C21.2802 15.9184 22.1829 16.4294 22.9785 17.0991ZM14.7617 27.1151C14.8647 27.4143 14.9698 27.7024 15.0772 27.9793C14.2685 27.7832 13.5647 27.4687 12.9658 27.0356C12.3669 26.6026 11.8797 26.1048 11.5041 25.5421C10.8245 24.5239 10.5336 23.4497 10.6312 22.3194L10.6445 22.1652C11.2388 22.3883 11.8353 22.5421 12.434 22.6266C13.0461 22.7022 13.6648 22.7153 14.2902 22.6658C14.2016 23.9257 14.2715 25.0894 14.4999 26.157C14.5849 26.4875 14.6722 26.8069 14.7617 27.1151Z" fill="black"/>
</svg>
