<svg width="280" height="208" viewBox="0 0 280 208" fill="none" xmlns="http://www.w3.org/2000/svg">
<path d="M46.857 47.4409C46.857 48.5455 45.9616 49.4409 44.857 49.4409H40.002C38.8975 49.4409 38.002 48.5455 38.002 47.4409V39.7258C38.002 37.4648 34.8386 36.9404 34.109 39.0804L31.0388 48.0863C30.7627 48.8963 30.0017 49.4409 29.1458 49.4409H28.5467C27.6891 49.4409 26.9271 48.8943 26.6522 48.082L23.6365 39.17C22.911 37.0258 19.742 37.5474 19.742 39.811V47.4409C19.742 48.5455 18.8466 49.4409 17.742 49.4409H12.832C11.7275 49.4409 10.832 48.5455 10.832 47.4409V14.7559C10.832 13.6513 11.7275 12.7559 12.832 12.7559H21.2237C22.0806 12.7559 22.8423 13.3018 23.1176 14.1132L26.9864 25.5143C27.5997 27.3215 30.1545 27.3249 30.7726 25.5194L34.6791 14.1081C34.956 13.2993 35.7164 12.7559 36.5713 12.7559H44.857C45.9616 12.7559 46.857 13.6513 46.857 14.7559V47.4409Z" fill="white"/>
<path d="M80.2829 48.4509C80.5029 48.5243 80.6679 48.6526 80.7779 48.8359C80.8716 48.961 80.9254 49.086 80.9393 49.211C80.944 49.254 80.9553 49.3254 80.9623 49.3681V49.3681C80.9849 49.5063 80.8641 49.5519 80.7242 49.5457C80.5484 49.5379 80.3463 49.5213 80.1179 49.4959C79.8245 49.4593 79.5495 49.4409 79.2929 49.4409H72.1979L70.8229 49.4959C70.5121 49.5304 70.1201 49.5487 69.6469 49.5507C69.5923 49.551 69.5424 49.5201 69.5181 49.4713V49.4713C69.5081 49.4513 69.5025 49.4293 69.5039 49.407C69.5145 49.2349 69.6058 49.0629 69.7779 48.8909C69.9612 48.6709 70.2545 48.5243 70.6579 48.4509C71.6845 48.2676 72.4179 48.0843 72.8579 47.9009C73.3345 47.7176 73.6645 47.4059 73.8479 46.9659C74.0679 46.5259 74.1412 45.8659 74.0679 44.9859L73.7537 39.0695C73.7432 38.8725 73.7143 38.6617 73.5428 38.5643V38.5643C73.4319 38.5012 73.2957 38.4626 73.1714 38.4338C73.0335 38.4019 72.8556 38.3859 72.6379 38.3859C70.7679 38.3493 68.2929 38.3309 65.2129 38.3309H57.7879C57.5803 38.3309 57.4003 38.3493 57.2479 38.386C57.1291 38.4146 57.01 38.4474 56.8987 38.4978C56.8162 38.5352 56.7338 38.5874 56.6513 38.6545C56.5618 38.7273 56.4895 38.8184 56.4232 38.9128L51.8479 45.4259C51.3712 46.0493 51.1329 46.5626 51.1329 46.9659C51.1329 47.3693 51.3712 47.6809 51.8479 47.9009C52.3612 48.0843 53.1495 48.2676 54.2129 48.4509C54.5795 48.5243 54.8545 48.6526 55.0379 48.8359C55.2212 48.9826 55.3312 49.1476 55.3679 49.3309C55.4045 49.4776 55.4045 49.5509 55.3679 49.5509C54.8179 49.5509 54.3779 49.5326 54.0479 49.4959L52.6179 49.4409H47.9429C47.6862 49.4409 47.4112 49.4593 47.1179 49.4959C46.8341 49.5275 46.5774 49.5454 46.3478 49.5498C46.2871 49.551 46.2379 49.5017 46.2379 49.4409V49.4409C46.2379 49.3232 46.2605 49.2054 46.3059 49.0876C46.3584 48.9515 46.4153 48.8129 46.5049 48.6977C46.5946 48.5824 46.7256 48.5001 46.8979 48.4509C47.7412 48.1943 48.3645 47.9009 48.7679 47.5709C49.1345 47.2409 49.7029 46.5259 50.4729 45.4259L71.6479 15.2309C71.9884 14.7356 72.2113 14.2925 72.3166 13.9018C72.354 13.7632 72.3592 13.6186 72.3521 13.4752L72.3079 12.5909C72.3014 12.5454 72.2943 12.5028 72.2866 12.4631C72.237 12.2053 72.1027 11.9383 71.8679 11.8209V11.8209C71.6479 11.7109 71.5379 11.5826 71.5379 11.4359C71.5379 11.3669 71.55 11.306 71.5744 11.2533C71.6296 11.1337 71.7427 11.0483 71.856 10.9811C71.9011 10.9543 71.9417 10.9409 71.9779 10.9409H74.2879C75.0212 10.9409 75.4978 11.0326 75.7178 11.2159C75.9378 11.3993 76.0662 11.7659 76.1029 12.3159L77.9729 45.0409C78.0095 46.2509 78.1745 47.0576 78.4678 47.4609C78.7612 47.8643 79.3662 48.1943 80.2829 48.4509ZM72.7479 37.1209C73.0051 37.1209 73.209 37.0782 73.3594 36.9928C73.6005 36.8559 73.6199 36.538 73.6045 36.2613L72.7937 21.6656C72.6883 19.7691 70.2466 19.0737 69.1579 20.6302L58.0549 36.5036C58.0237 36.5482 57.9991 36.5972 57.9819 36.6489V36.6489C57.9626 36.7065 57.9496 36.7675 57.9608 36.8272C57.9973 37.023 58.1596 37.1209 58.4479 37.1209H72.7479Z" fill="white"/>
<path d="M115.463 46.3805C116.296 47.7126 115.338 49.4409 113.767 49.4409H108.06C107.327 49.4409 106.654 49.0409 106.304 48.3981L101.23 39.0898C100.49 37.732 98.5543 37.6919 97.7587 39.018L97.5319 39.3959C97.3454 39.7067 97.2469 40.0624 97.2469 40.4249V47.4409C97.2469 48.5455 96.3515 49.4409 95.2469 49.4409H90.3369C89.2323 49.4409 88.3369 48.5455 88.3369 47.4409V14.7559C88.3369 13.6513 89.2323 12.7559 90.3369 12.7559H95.2469C96.3515 12.7559 97.2469 13.6513 97.2469 14.7559V20.8874C97.2469 22.9275 99.9429 23.6583 100.973 21.8975L105.743 13.7459C106.101 13.1327 106.759 12.7559 107.469 12.7559H112.915C114.514 12.7559 115.467 14.5402 114.577 15.869L105.888 28.8402C105.449 29.4947 105.436 30.3457 105.853 31.0137L115.463 46.3805Z" fill="white"/>
<path d="M134.043 15.1196C132.938 15.1196 132.043 16.0151 132.043 17.1196V29.2188C132.043 29.6192 132.368 29.9438 132.768 29.9438V29.9438C135.078 29.9438 136.752 29.2188 137.79 27.7686C138.769 26.4019 139.413 24.423 139.724 21.8319C139.757 21.5587 139.987 21.3501 140.262 21.3501V21.3501C140.558 21.3501 140.798 21.5901 140.798 21.8861V39.8809C140.798 40.1772 140.558 40.4175 140.261 40.4175V40.4175C139.986 40.4175 139.757 40.2093 139.722 39.9364C139.49 38.0765 139.051 36.536 138.408 35.3149C137.727 33.9901 136.931 33.1038 136.018 32.6563C135.493 32.389 134.833 32.1984 134.038 32.0846C132.944 31.9282 132.043 32.8534 132.043 33.958V42.2168C132.043 44.222 132.124 45.4484 132.285 45.896C132.464 46.3436 132.786 46.7106 133.252 46.9971C133.717 47.2835 134.469 47.4268 135.507 47.4268H137.683C141.084 47.4268 143.806 46.639 145.847 45.0635C147.824 43.5505 149.264 41.2781 150.168 38.2462C150.235 38.0225 150.439 37.8662 150.673 37.8662V37.8662C150.989 37.8662 151.232 38.1459 151.188 38.4589L149.877 47.7212C149.737 48.7076 148.893 49.4409 147.896 49.4409H118.656C118.381 49.4409 118.159 49.2185 118.159 48.9441V48.9441C118.159 48.6697 118.381 48.4473 118.656 48.4473H119.367C120.424 48.4473 121.274 48.2593 121.918 47.8833C122.384 47.6327 122.742 47.203 122.993 46.5942C123.19 46.1646 123.288 45.0366 123.288 43.2105V19.2554C123.288 17.6082 123.243 16.5967 123.154 16.2207C122.975 15.5941 122.644 15.1107 122.16 14.7705C121.48 14.2692 120.549 14.0186 119.367 14.0186H118.656C118.381 14.0186 118.159 13.7961 118.159 13.5217V13.5217C118.159 13.2473 118.381 13.0249 118.656 13.0249H146.64C147.744 13.0249 148.64 13.9203 148.64 15.0249V23.2338C148.64 23.5432 148.389 23.7939 148.08 23.7939V23.7939C147.812 23.7939 147.582 23.6044 147.527 23.3427C147.014 20.9451 146.311 19.2067 145.417 18.1274C144.486 16.9816 143.161 16.1401 141.442 15.603C140.44 15.2808 138.56 15.1196 135.803 15.1196H134.043Z" fill="white"/>
<path d="M198.744 46.8744C199.123 48.1558 198.162 49.4409 196.826 49.4409H191.446C190.525 49.4409 189.723 48.8117 189.504 47.917L188.876 45.3548C188.656 44.4601 187.854 43.8309 186.933 43.8309H179.676C178.755 43.8309 177.953 44.4601 177.734 45.3548L177.106 47.917C176.886 48.8117 176.084 49.4409 175.163 49.4409H169.783C168.447 49.4409 167.487 48.1558 167.865 46.8744L177.519 14.1894C177.77 13.3393 178.551 12.7559 179.437 12.7559H187.173C188.059 12.7559 188.84 13.3393 189.091 14.1894L198.744 46.8744ZM184.2 36.0759C185.495 36.0759 186.449 34.8638 186.144 33.6052L185.26 29.9578C184.768 27.9227 181.875 27.9173 181.375 29.9506L180.477 33.598C180.167 34.8585 181.121 36.0759 182.419 36.0759H184.2Z" fill="white"/>
<path d="M211.86 13.0249C212.469 13.0249 213.045 13.3028 213.425 13.7798L227.225 31.1286C228.404 32.6103 230.791 31.7768 230.791 29.8835V19.9536C230.791 17.7694 230.477 16.2923 229.851 15.5225C229.064 14.572 227.79 14.0715 226.028 14.021C225.753 14.0131 225.527 13.7927 225.527 13.5173V13.5173C225.527 13.2454 225.747 13.0249 226.019 13.0249H237.03C237.322 13.0249 237.558 13.2615 237.558 13.5534V13.5534C237.558 13.8193 237.36 14.0431 237.097 14.0816C235.809 14.2698 234.925 14.5084 234.443 14.7974C233.924 15.1017 233.512 15.612 233.208 16.3281C232.921 17.0264 232.778 18.2349 232.778 19.9536V49.6549C232.778 49.9965 232.501 50.2734 232.159 50.2734V50.2734C231.973 50.2734 231.797 50.1895 231.679 50.0448L210.791 24.3273C209.604 22.8656 207.238 23.7051 207.238 25.5883V43.103C207.238 45.1978 207.713 46.6121 208.662 47.3462C209.628 48.0802 210.73 48.4473 211.965 48.4473H212.327C212.602 48.4473 212.824 48.6697 212.824 48.9441V48.9441C212.824 49.2185 212.602 49.4409 212.327 49.4409H200.406C200.13 49.4409 199.907 49.2175 199.907 48.9419V48.9419C199.907 48.668 200.128 48.4465 200.402 48.4343C202.143 48.357 203.375 47.9496 204.096 47.2119C204.884 46.4063 205.278 45.0366 205.278 43.103V18.1077C205.278 17.6512 205.122 17.2085 204.835 16.853L204.499 16.4355C203.729 15.4688 203.049 14.8332 202.458 14.5288C201.957 14.2707 201.269 14.1092 200.395 14.0442C200.123 14.024 199.907 13.8022 199.907 13.5297V13.5297C199.907 13.2509 200.133 13.0249 200.412 13.0249H211.86Z" fill="white"/>
<path d="M258.674 47.4409C258.674 48.5455 257.779 49.4409 256.674 49.4409H251.764C250.66 49.4409 249.764 48.5455 249.764 47.4409V35.025C249.764 34.7037 249.687 34.3871 249.538 34.102L239.955 15.6789C239.262 14.3475 240.228 12.7559 241.729 12.7559H246.868C247.659 12.7559 248.376 13.222 248.696 13.945L252.382 22.2553C253.087 23.8436 255.343 23.8398 256.042 22.2491L259.689 13.9512C260.008 13.2249 260.726 12.7559 261.52 12.7559H266.662C268.161 12.7559 269.127 14.3441 268.438 15.6754L258.898 34.1034C258.751 34.3876 258.674 34.7029 258.674 35.0229V47.4409Z" fill="white"/>
<path d="M59.1489 99.1009C54.8222 99.1009 51.3572 97.3409 48.7539 93.8209C46.1872 90.2643 44.9039 85.6993 44.9039 80.1259C44.9039 74.5526 46.1872 70.0059 48.7539 66.4859C51.3572 62.9293 54.8222 61.1509 59.1489 61.1509C63.1835 61.1509 66.4061 62.94 68.8168 66.5182C69.4482 67.4555 69.0207 68.7017 67.9978 69.1821V69.1821C67.0222 69.6403 65.8788 69.2202 65.2536 68.3423C63.6934 66.1514 61.6585 65.0559 59.1489 65.0559C56.2156 65.0559 53.8506 66.4676 52.0539 69.2909C50.2939 72.1143 49.4139 75.7259 49.4139 80.1259C49.4139 84.5259 50.2939 88.1376 52.0539 90.9609C53.8506 93.7843 56.2156 95.1959 59.1489 95.1959C61.7606 95.1959 63.8317 93.9793 65.362 91.5461C65.9536 90.6054 67.1293 90.1352 68.1379 90.6018V90.6018C69.1491 91.0697 69.5858 92.288 68.9942 93.2322C66.5427 97.1447 63.261 99.1009 59.1489 99.1009Z" fill="white"/>
<path d="M88.9701 99.1009C84.5334 99.1009 81.0134 97.8909 78.4101 95.4709C75.8434 93.0509 74.5601 89.6959 74.5601 85.4059V63.7559C74.5601 62.6513 75.4555 61.7559 76.5601 61.7559H81.5251C82.6296 61.7559 83.5251 62.6513 83.5251 63.7559V85.4609C83.5251 87.3309 83.9834 88.7793 84.9001 89.8059C85.8534 90.7959 87.2101 91.2909 88.9701 91.2909C90.6934 91.2909 92.0134 90.7776 92.9301 89.7509C93.8834 88.7243 94.3601 87.2943 94.3601 85.4609V63.7559C94.3601 62.6513 95.2555 61.7559 96.3601 61.7559H101.325C102.43 61.7559 103.325 62.6513 103.325 63.7559V85.4059C103.325 89.6959 102.023 93.0509 99.4201 95.4709C96.8534 97.8909 93.3701 99.1009 88.9701 99.1009Z" fill="white"/>
<path d="M120.04 99.1009C115.156 99.1009 111.143 97.86 107.999 95.3782C107.26 94.7946 107.14 93.7448 107.636 92.9447L109.639 89.7203C110.334 88.6 111.905 88.4614 112.976 89.2295C114.997 90.6771 117.333 91.4009 119.985 91.4009C121.268 91.4009 122.277 91.1076 123.01 90.5209C123.78 89.9343 124.165 89.1826 124.165 88.2659C124.165 87.4593 123.762 86.7626 122.955 86.1759C122.148 85.5526 121.14 85.0576 119.93 84.6909C118.72 84.2876 117.418 83.7743 116.025 83.1509C114.632 82.5276 113.33 81.8309 112.12 81.0609C110.91 80.2909 109.902 79.1726 109.095 77.7059C108.288 76.2026 107.885 74.4426 107.885 72.4259C107.885 69.3093 109.04 66.6509 111.35 64.4509C113.66 62.2509 116.795 61.1509 120.755 61.1509C124.844 61.1509 128.33 62.1922 131.214 64.2749C132.003 64.8448 132.148 65.9339 131.632 66.7592L129.685 69.8741C129.019 70.9404 127.547 71.117 126.466 70.4741C124.709 69.4286 122.695 68.9059 120.425 68.9059C119.325 68.9059 118.463 69.1626 117.84 69.6759C117.253 70.1893 116.96 70.8676 116.96 71.7109C116.96 72.4443 117.363 73.1043 118.17 73.6909C118.977 74.2776 119.967 74.7726 121.14 75.1759C122.35 75.5793 123.652 76.1109 125.045 76.7709C126.475 77.4309 127.777 78.1459 128.95 78.9159C130.16 79.6859 131.168 80.8043 131.975 82.2709C132.782 83.7376 133.185 85.4426 133.185 87.3859C133.185 90.9426 132.012 93.7843 129.665 95.9109C127.355 98.0376 124.147 99.1009 120.04 99.1009Z" fill="white"/>
<path d="M151.395 96.4409C151.395 97.5455 150.5 98.4409 149.395 98.4409H144.485C143.38 98.4409 142.485 97.5455 142.485 96.4409V71.5109C142.485 70.4063 141.59 69.5109 140.485 69.5109H136.62C135.515 69.5109 134.62 68.6155 134.62 67.5109V63.7559C134.62 62.6513 135.515 61.7559 136.62 61.7559H157.205C158.31 61.7559 159.205 62.6513 159.205 63.7559V67.5109C159.205 68.6155 158.31 69.5109 157.205 69.5109H153.395C152.29 69.5109 151.395 70.4063 151.395 71.5109V96.4409Z" fill="white"/>
<path d="M186.942 93.7659C184.485 97.3226 181.093 99.1009 176.767 99.1009C172.44 99.1009 169.048 97.3226 166.592 93.7659C164.135 90.1726 162.907 85.6259 162.907 80.1259C162.907 74.6259 164.135 70.0976 166.592 66.5409C169.048 62.9476 172.44 61.1509 176.767 61.1509C181.093 61.1509 184.485 62.9476 186.942 66.5409C189.435 70.0976 190.682 74.6259 190.682 80.1259C190.682 85.6259 189.435 90.1726 186.942 93.7659ZM169.892 90.9609C171.542 93.7843 173.833 95.1959 176.767 95.1959C179.7 95.1959 181.992 93.7843 183.642 90.9609C185.328 88.1009 186.172 84.4893 186.172 80.1259C186.172 75.7259 185.347 72.1143 183.697 69.2909C182.047 66.4676 179.737 65.0559 176.767 65.0559C173.833 65.0559 171.542 66.4676 169.892 69.2909C168.242 72.1143 167.417 75.7259 167.417 80.1259C167.417 84.4893 168.242 88.1009 169.892 90.9609Z" fill="white"/>
<path d="M232.187 96.4409C232.187 97.5455 231.291 98.4409 230.187 98.4409H225.332C224.227 98.4409 223.332 97.5455 223.332 96.4409V88.7258C223.332 86.4648 220.168 85.9404 219.439 88.0804L216.368 97.0863C216.092 97.8963 215.331 98.4409 214.475 98.4409H213.876C213.019 98.4409 212.257 97.8943 211.982 97.082L208.966 88.17C208.241 86.0258 205.072 86.5474 205.072 88.811V96.4409C205.072 97.5455 204.176 98.4409 203.072 98.4409H198.162C197.057 98.4409 196.162 97.5455 196.162 96.4409V63.7559C196.162 62.6513 197.057 61.7559 198.162 61.7559H206.553C207.41 61.7559 208.172 62.3018 208.447 63.1132L212.316 74.5143C212.929 76.3215 215.484 76.3249 216.102 74.5194L220.009 63.1081C220.286 62.2993 221.046 61.7559 221.901 61.7559H230.187C231.291 61.7559 232.187 62.6513 232.187 63.7559V96.4409Z" fill="white"/>
<path d="M114.398 145.891C114.188 146.798 113.38 147.441 112.449 147.441H106.517C105.553 147.441 104.727 146.754 104.551 145.807L102.709 135.912C102.303 133.731 99.1766 133.734 98.7758 135.917L96.9607 145.802C96.7863 146.752 95.9588 147.441 94.9936 147.441H89.0656C88.1344 147.441 87.3264 146.798 87.1169 145.891L79.5704 113.206C79.281 111.953 80.2329 110.756 81.5191 110.756H86.8379C87.8101 110.756 88.6415 111.455 88.8082 112.413L90.7781 123.726C91.157 125.902 94.2648 125.948 94.7078 123.784L97.0474 112.355C97.238 111.424 98.0568 110.756 99.0068 110.756H102.559C103.511 110.756 104.33 111.426 104.519 112.359L106.817 123.715C107.256 125.883 110.368 125.84 110.748 123.661L112.706 112.413C112.873 111.455 113.704 110.756 114.677 110.756H119.995C121.282 110.756 122.233 111.953 121.944 113.206L114.398 145.891Z" fill="white"/>
<path d="M134.388 145.441C134.388 146.545 133.493 147.441 132.388 147.441H127.478C126.373 147.441 125.478 146.545 125.478 145.441V112.756C125.478 111.651 126.373 110.756 127.478 110.756H132.388C133.493 110.756 134.388 111.651 134.388 112.756V145.441Z" fill="white"/>
<path d="M155.155 145.441C155.155 146.545 154.259 147.441 153.155 147.441H148.245C147.14 147.441 146.245 146.545 146.245 145.441V120.511C146.245 119.406 145.349 118.511 144.245 118.511H140.38C139.275 118.511 138.38 117.615 138.38 116.511V112.756C138.38 111.651 139.275 110.756 140.38 110.756H160.965C162.069 110.756 162.965 111.651 162.965 112.756V116.511C162.965 117.615 162.069 118.511 160.965 118.511H157.155C156.05 118.511 155.155 119.406 155.155 120.511V145.441Z" fill="white"/>
<path d="M195.487 145.441C195.487 146.545 194.591 147.441 193.487 147.441H188.577C187.472 147.441 186.577 146.545 186.577 145.441V134.481C186.577 133.376 185.681 132.481 184.577 132.481H177.907C176.802 132.481 175.907 133.376 175.907 134.481V145.441C175.907 146.545 175.011 147.441 173.907 147.441H168.997C167.892 147.441 166.997 146.545 166.997 145.441V112.756C166.997 111.651 167.892 110.756 168.997 110.756H173.907C175.011 110.756 175.907 111.651 175.907 112.756V122.671C175.907 123.775 176.802 124.671 177.907 124.671H184.577C185.681 124.671 186.577 123.775 186.577 122.671V112.756C186.577 111.651 187.472 110.756 188.577 110.756H193.487C194.591 110.756 195.487 111.651 195.487 112.756V145.441Z" fill="white"/>
<path d="M66.8472 191.821C63.9505 195.341 60.0638 197.101 55.1872 197.101C50.3105 197.101 46.4238 195.341 43.5272 191.821C40.6305 188.301 39.1822 183.736 39.1822 178.126C39.1822 172.516 40.6305 167.951 43.5272 164.431C46.4238 160.911 50.3105 159.151 55.1872 159.151C60.0638 159.151 63.9505 160.911 66.8472 164.431C69.7438 167.951 71.1922 172.516 71.1922 178.126C71.1922 183.736 69.7438 188.301 66.8472 191.821ZM55.1872 189.236C57.3872 189.236 59.0922 188.209 60.3022 186.156C61.5488 184.066 62.1722 181.389 62.1722 178.126C62.1722 174.826 61.5488 172.149 60.3022 170.096C59.0922 168.043 57.3872 167.016 55.1872 167.016C53.0238 167.016 51.3188 168.043 50.0722 170.096C48.8622 172.149 48.2572 174.826 48.2572 178.126C48.2572 181.389 48.8622 184.066 50.0722 186.156C51.3188 188.209 53.0238 189.236 55.1872 189.236Z" fill="white"/>
<path d="M86.8569 197.101C83.4835 197.101 80.8069 196.221 78.8269 194.461C76.8469 192.664 75.8569 190.226 75.8569 187.146C75.8569 186.193 75.9485 185.313 76.1319 184.506L81.2314 161.326C81.4331 160.409 82.2457 159.756 83.1847 159.756H83.486C84.7647 159.756 85.715 160.939 85.4388 162.188L80.4769 184.616C80.3302 185.643 80.2569 186.358 80.2569 186.761C80.2569 188.741 80.8619 190.318 82.0719 191.491C83.2819 192.664 84.9319 193.251 87.0219 193.251C89.2585 193.251 91.0185 192.554 92.3019 191.161C93.6219 189.731 94.6119 187.549 95.2719 184.616L100.425 161.324C100.628 160.408 101.44 159.756 102.378 159.756H102.63C103.908 159.756 104.858 160.937 104.584 162.185L99.6719 184.561C98.7185 188.741 97.2335 191.876 95.2169 193.966C93.2002 196.056 90.4135 197.101 86.8569 197.101Z" fill="white"/>
<path d="M132.563 193.639C133.142 194.96 132.174 196.441 130.731 196.441H125.264C124.437 196.441 123.694 195.931 123.397 195.158L119.532 185.1C119.242 184.345 118.516 183.846 117.706 183.846V183.846C116.626 183.846 115.75 184.722 115.75 185.802V194.441C115.75 195.545 114.855 196.441 113.75 196.441H108.84C107.736 196.441 106.84 195.545 106.84 194.441V161.756C106.84 160.651 107.736 159.756 108.84 159.756H121.8C125.32 159.756 128.144 160.893 130.27 163.166C132.434 165.403 133.515 168.244 133.515 171.691C133.515 174.514 132.929 176.806 131.755 178.566C131.035 179.657 130.212 180.55 129.286 181.245C128.406 181.905 127.932 183.065 128.373 184.073L132.563 193.639ZM120.425 176.091C121.635 176.091 122.607 175.706 123.34 174.936C124.11 174.166 124.495 173.121 124.495 171.801C124.495 170.481 124.11 169.436 123.34 168.666C122.607 167.896 121.635 167.511 120.425 167.511H117.75C116.646 167.511 115.75 168.406 115.75 169.511V174.091C115.75 175.195 116.646 176.091 117.75 176.091H120.425Z" fill="white"/>
<path d="M178.092 193.874C178.471 195.156 177.51 196.441 176.174 196.441H170.794C169.873 196.441 169.071 195.812 168.852 194.917L168.224 192.355C168.005 191.46 167.203 190.831 166.281 190.831H159.024C158.103 190.831 157.301 191.46 157.082 192.355L156.454 194.917C156.235 195.812 155.433 196.441 154.511 196.441H149.131C147.795 196.441 146.835 195.156 147.213 193.874L156.867 161.189C157.118 160.339 157.899 159.756 158.785 159.756H166.521C167.407 159.756 168.188 160.339 168.439 161.189L178.092 193.874ZM163.548 183.076C164.843 183.076 165.797 181.864 165.492 180.605L164.609 176.958C164.116 174.923 161.223 174.917 160.723 176.951L159.825 180.598C159.515 181.858 160.469 183.076 161.767 183.076H163.548Z" fill="white"/>
<path d="M190.301 194.441C190.301 195.545 189.406 196.441 188.301 196.441H183.391C182.287 196.441 181.391 195.545 181.391 194.441V161.756C181.391 160.651 182.287 159.756 183.391 159.756H196.131C199.944 159.756 202.878 160.911 204.931 163.221C207.021 165.531 208.066 168.409 208.066 171.856C208.066 175.266 207.021 178.126 204.931 180.436C202.878 182.709 199.944 183.846 196.131 183.846H192.301C191.197 183.846 190.301 184.741 190.301 185.846V194.441ZM195.031 176.091C196.241 176.091 197.213 175.706 197.946 174.936C198.679 174.166 199.046 173.121 199.046 171.801C199.046 170.481 198.679 169.436 197.946 168.666C197.213 167.896 196.241 167.511 195.031 167.511H192.301C191.197 167.511 190.301 168.406 190.301 169.511V174.091C190.301 175.195 191.197 176.091 192.301 176.091H195.031Z" fill="white"/>
<path d="M220.863 194.441C220.863 195.545 219.967 196.441 218.863 196.441H213.953C212.848 196.441 211.953 195.545 211.953 194.441V161.756C211.953 160.651 212.848 159.756 213.953 159.756H226.693C230.506 159.756 233.439 160.911 235.493 163.221C237.583 165.531 238.628 168.409 238.628 171.856C238.628 175.266 237.583 178.126 235.493 180.436C233.439 182.709 230.506 183.846 226.693 183.846H222.863C221.758 183.846 220.863 184.741 220.863 185.846V194.441ZM225.593 176.091C226.803 176.091 227.774 175.706 228.508 174.936C229.241 174.166 229.608 173.121 229.608 171.801C229.608 170.481 229.241 169.436 228.508 168.666C227.774 167.896 226.803 167.511 225.593 167.511H222.863C221.758 167.511 220.863 168.406 220.863 169.511V174.091C220.863 175.195 221.758 176.091 222.863 176.091H225.593Z" fill="white"/>
<path fill-rule="evenodd" clip-rule="evenodd" d="M46.1829 49.4409C46.2132 49.4409 46.2379 49.4655 46.2379 49.4959V49.4959C46.2379 49.5263 46.2625 49.5509 46.2928 49.5506C46.465 49.5489 46.6531 49.5393 46.857 49.5217C46.9413 49.5145 47.0282 49.5059 47.1179 49.4959C47.1433 49.4927 47.1686 49.4897 47.1938 49.4868C47.2 49.4861 47.2063 49.4854 47.2125 49.4847C47.2643 49.4788 47.3155 49.4735 47.3661 49.4689C47.5677 49.4502 47.7599 49.4409 47.9429 49.4409H52.6179L54.0479 49.4959C54.1404 49.5062 54.2415 49.515 54.3513 49.5224C54.366 49.5234 54.3808 49.5244 54.3958 49.5253C54.4241 49.5271 54.4529 49.5288 54.4823 49.5304C54.5063 49.5317 54.5306 49.5329 54.5553 49.5341C54.7924 49.5453 55.0633 49.5509 55.3679 49.5509C55.3938 49.5509 55.4014 49.5143 55.3906 49.4409C55.3862 49.4105 55.3786 49.3739 55.3679 49.3309C55.3312 49.1476 55.2212 48.9826 55.0379 48.8359C54.8545 48.6526 54.5795 48.5243 54.2129 48.4509C54.1968 48.4482 54.1808 48.4454 54.1649 48.4426C54.1394 48.4382 54.1141 48.4338 54.0889 48.4293C53.5385 48.3325 53.0648 48.2356 52.6679 48.1387C52.6511 48.1346 52.6344 48.1305 52.6179 48.1264C52.315 48.0512 52.0583 47.9761 51.8479 47.9009C51.3712 47.6809 51.1329 47.3693 51.1329 46.9659C51.1329 46.7145 51.2254 46.4204 51.4106 46.0835C51.4105 46.0838 51.4108 46.0833 51.4106 46.0835C51.5225 45.8802 51.6685 45.6604 51.8479 45.4259L56.4889 38.8192C56.5115 38.7871 56.5366 38.7567 56.5653 38.7298V38.7298C56.6625 38.6386 56.7598 38.5679 56.857 38.518C56.8709 38.5108 56.8848 38.5041 56.8987 38.4978C57.0099 38.4474 57.1291 38.4146 57.2479 38.386C57.4003 38.3493 57.5803 38.3309 57.7879 38.3309H65.2129C66.0437 38.3309 66.8305 38.3323 67.5733 38.3349C67.602 38.335 67.6307 38.3351 67.6592 38.3352C68.1137 38.3369 68.5515 38.3391 68.9726 38.3419C70.3801 38.3509 71.6018 38.3656 72.6378 38.3859C72.6757 38.3859 72.7124 38.3864 72.7478 38.3874C72.9163 38.392 73.0575 38.4074 73.1714 38.4338C73.2957 38.4626 73.4319 38.5012 73.5428 38.5642V38.5642C73.7143 38.6617 73.7433 38.8725 73.7537 39.0695L74.0679 44.9859C74.0727 45.0445 74.077 45.1022 74.0806 45.1589C74.0828 45.194 74.0847 45.2287 74.0865 45.263C74.1237 46.0057 74.0441 46.5734 73.8479 46.9659C73.8339 46.9995 73.819 47.0324 73.8033 47.0645C73.7433 47.187 73.6709 47.2986 73.586 47.3993C73.4813 47.5236 73.3577 47.6312 73.2151 47.7223C73.1069 47.7914 72.9878 47.8509 72.8578 47.9009C72.7912 47.9287 72.7179 47.9564 72.6378 47.9842C72.5784 48.0048 72.5153 48.0254 72.4484 48.046C72.37 48.0702 72.2865 48.0944 72.1979 48.1185C72.1806 48.1232 72.1632 48.1279 72.1455 48.1326C72.1273 48.1375 72.1089 48.1424 72.0903 48.1472C71.9095 48.1944 71.7093 48.2415 71.4897 48.2887C71.3748 48.3134 71.2545 48.3381 71.1288 48.3628C71.0962 48.3692 71.0632 48.3756 71.0298 48.382C70.9487 48.3976 70.8655 48.4132 70.7802 48.4288C70.7556 48.4333 70.7308 48.4378 70.7058 48.4423C70.6899 48.4452 70.6739 48.4481 70.6579 48.4509C70.2545 48.5243 69.9612 48.6709 69.7778 48.8909C69.6765 48.9923 69.6032 49.0936 69.5579 49.195C69.5263 49.2656 69.5083 49.3363 69.5039 49.407C69.5025 49.4293 69.5081 49.4513 69.5181 49.4713V49.4713C69.5424 49.5201 69.5923 49.551 69.6468 49.5507C69.933 49.5495 70.1894 49.5424 70.4162 49.5293C70.4567 49.5269 70.4962 49.5244 70.5347 49.5217C70.6375 49.5144 70.7335 49.5058 70.8229 49.4959L70.9452 49.491L72.1979 49.4409H79.2929C79.3615 49.4409 79.4315 49.4422 79.5029 49.4449C79.5806 49.4477 79.6599 49.4521 79.7408 49.4581C79.7772 49.4608 79.8138 49.4638 79.8508 49.4672C79.8759 49.4694 79.9012 49.4718 79.9266 49.4744C79.9315 49.4748 79.9363 49.4753 79.9412 49.4758C79.9588 49.4776 79.9765 49.4795 79.9943 49.4814C80.023 49.4846 80.0519 49.4879 80.0809 49.4914C80.0932 49.4929 80.1055 49.4944 80.1179 49.4959C80.3921 49.5264 80.6283 49.5442 80.8266 49.5494C80.901 49.5513 80.9728 49.5153 80.9701 49.4409V49.4409V49.4409C80.966 49.3297 80.9497 49.2177 80.9196 49.1106C80.8937 49.019 80.8465 48.9275 80.7779 48.8359C80.6679 48.6526 80.5029 48.5243 80.2829 48.4509C80.2717 48.4478 80.2607 48.4447 80.2496 48.4416C80.2449 48.4402 80.2402 48.4389 80.2355 48.4375C80.0135 48.374 79.8102 48.3061 79.6256 48.2337C79.507 48.1872 79.396 48.1389 79.2929 48.0887C78.913 47.9041 78.638 47.6949 78.4678 47.4609C78.4209 47.3964 78.3773 47.3215 78.3369 47.2364C78.2767 47.1093 78.2238 46.9593 78.1782 46.7864C78.1093 46.5248 78.0571 46.2108 78.0216 45.8443C78.0062 45.6852 77.9939 45.5163 77.9848 45.3374C77.9826 45.2932 77.9805 45.2484 77.9786 45.203C77.9764 45.1498 77.9745 45.0958 77.9729 45.0409L76.1029 12.3159C76.0966 12.2229 76.0878 12.1351 76.0764 12.0526C76.0409 11.7965 75.9801 11.591 75.8942 11.4359C75.844 11.3454 75.7852 11.2721 75.7178 11.2159C75.6279 11.141 75.4951 11.0814 75.3195 11.0371C75.0653 10.973 74.7215 10.9409 74.2879 10.9409H71.9779C71.9417 10.9409 71.9011 10.9543 71.856 10.9811C71.7427 11.0483 71.6295 11.1337 71.5744 11.2533C71.55 11.306 71.5379 11.3669 71.5379 11.4359C71.5379 11.5826 71.6479 11.7109 71.8679 11.8209C71.9088 11.8414 71.9455 11.8633 71.9779 11.8866V11.8866C72.1224 11.9908 72.2116 12.1661 72.2581 12.3381C72.2735 12.3947 72.2871 12.4598 72.2991 12.5333C72.301 12.545 72.3028 12.557 72.3047 12.5691C72.3057 12.5763 72.3068 12.5836 72.3079 12.5909L72.3521 13.4752C72.3592 13.6186 72.354 13.7631 72.3166 13.9017C72.2503 14.1478 72.1374 14.4145 71.9779 14.702C71.884 14.8711 71.774 15.0474 71.6479 15.2309L50.4729 45.4259C50.0205 46.0721 49.6378 46.5854 49.3246 46.9659C49.1047 47.2331 48.9191 47.4348 48.7679 47.5709C48.5671 47.7352 48.3118 47.8904 48.002 48.0364C47.9825 48.0457 47.9628 48.0548 47.9429 48.0639C47.6688 48.1894 47.354 48.308 46.9983 48.4199C46.9935 48.4214 46.9887 48.4229 46.9839 48.4244C46.9555 48.4333 46.9268 48.4421 46.8979 48.4509L46.877 48.4571V48.4571C46.8671 48.4602 46.857 48.4529 46.857 48.4425V14.7559C46.857 13.6513 45.9616 12.7559 44.857 12.7559H36.5713C35.7164 12.7559 34.956 13.2993 34.6791 14.1081L30.7726 25.5194C30.1545 27.3249 27.5997 27.3215 26.9864 25.5143L23.1176 14.1132C22.8423 13.3018 22.0806 12.7559 21.2237 12.7559H12.832C11.7275 12.7559 10.832 13.6513 10.832 14.7559V47.4409C10.832 48.5455 11.7275 49.4409 12.832 49.4409H17.742C18.8466 49.4409 19.742 48.5455 19.742 47.4409V39.811C19.742 37.5474 22.911 37.0258 23.6365 39.17L26.6522 48.082C26.9271 48.8943 27.6891 49.4409 28.5467 49.4409H29.1458C30.0017 49.4409 30.7627 48.8963 31.0388 48.0863L34.109 39.0804C34.8386 36.9404 38.002 37.4648 38.002 39.7258V47.4409C38.002 48.5455 38.8975 49.4409 40.002 49.4409H46.1829ZM24.1783 59.0016C23.6911 58.8521 23.1688 58.8523 22.6817 59.0018C21.7523 59.2873 20.7651 59.4409 19.742 59.4409H10.832C5.30918 59.4409 0.832031 54.9638 0.832031 49.4409V12.7559C0.832031 7.23307 5.30918 2.75592 10.832 2.75592H22.657C24.4237 2.75592 26.1095 3.22 27.5772 4.0499C28.3905 4.5098 29.4085 4.50981 30.2219 4.0499C31.6897 3.21994 33.3755 2.75592 35.142 2.75592H46.857C52.3799 2.75592 56.857 7.23307 56.857 12.7559V12.7559C56.857 14.6532 59.2986 15.424 60.3879 13.8706L61.1578 12.7729C61.42 12.3989 61.5401 11.9465 61.538 11.4897C61.5379 11.4718 61.5379 11.4539 61.5379 11.4359C61.5379 8.67713 62.6646 5.61246 65.2552 3.4569C65.635 3.13121 66.1203 2.76054 66.7091 2.40728C67.641 1.84812 69.4823 0.940918 71.9779 0.940918H74.2879C75.0023 0.940918 75.9942 0.980051 77.0838 1.1896C77.9705 1.36011 80.0988 1.84961 82.1197 3.5337V3.5337C82.6363 3.96418 83.3693 4.049 83.9742 3.75525C85.2926 3.11501 86.7728 2.75592 88.3369 2.75592H97.2469C98.5197 2.75592 99.737 2.99371 100.857 3.4273C101.454 3.65853 102.12 3.65902 102.717 3.42811C103.85 2.99026 105.069 2.75592 106.322 2.75592H116.662C117.368 2.75592 118.064 2.83041 118.739 2.97372C118.891 3.00595 119.045 3.02491 119.201 3.02491L148.64 3.0249C154.163 3.0249 158.64 7.50206 158.64 13.0249V23.7939C158.64 25.2032 158.348 26.5443 157.822 27.7603C157.376 28.7925 157.61 30.0503 158.399 30.8519C158.544 30.9994 158.685 31.152 158.822 31.3093V31.3093C159.658 32.2722 161.786 32.1532 162.147 30.93L168.352 9.92336C169.607 5.67299 173.51 2.75592 177.942 2.75592H188.667C190.333 2.75592 191.923 3.16778 193.327 3.90749C194.053 4.29033 194.929 4.31072 195.673 3.96267C196.959 3.36102 198.394 3.02491 199.907 3.02491H212.824C214.602 3.02491 216.322 3.49757 217.824 4.36467C218.652 4.84263 219.698 4.84225 220.526 4.36345C221.997 3.51215 223.705 3.02491 225.527 3.02491H235.896C236.051 3.02491 236.205 3.00596 236.357 2.97372C237.033 2.83034 237.728 2.75592 238.434 2.75592H248.169C249.864 2.75592 251.491 3.18422 252.924 3.95841C253.709 4.38303 254.674 4.38303 255.46 3.9584C256.892 3.18428 258.519 2.75592 260.214 2.75592H269.949C273.44 2.75592 276.678 4.57622 278.492 7.55846C280.307 10.5407 280.434 14.2532 278.83 17.3532L268.898 36.5383C268.751 36.8225 268.674 37.1378 268.674 37.4578V49.4409C268.674 54.9638 264.197 59.4409 258.674 59.4409H249.764C246.745 59.4409 244.038 58.1027 242.204 55.9871C241.872 55.6036 241.235 55.6356 240.942 56.0496V56.0496C240.775 56.2852 240.76 56.5966 240.901 56.8481C241.72 58.298 242.187 59.9724 242.187 61.7559V98.4409C242.187 103.964 237.709 108.441 232.187 108.441H223.332C222.301 108.441 221.306 108.285 220.37 107.995C219.88 107.843 219.353 107.843 218.862 107.995C217.922 108.286 216.928 108.441 215.907 108.441H212.442C211.428 108.441 210.442 108.288 209.508 108.002C209.021 107.852 208.498 107.852 208.011 108.002C207.852 108.051 207.691 108.096 207.529 108.137C206.366 108.431 205.487 109.557 205.487 110.756V110.756V147.441C205.487 148.506 205.32 149.533 205.011 150.496C204.874 150.925 205.075 151.4 205.489 151.578V151.578C205.76 151.695 206.073 151.661 206.317 151.494C207.922 150.397 209.862 149.756 211.953 149.756H226.693C232.626 149.756 238.555 151.637 242.935 156.542C246.852 160.886 248.628 166.228 248.628 171.856C248.628 177.491 246.825 182.816 242.908 187.145C239.976 190.389 236.364 192.287 232.534 193.191C231.578 193.416 230.863 194.243 230.863 195.225V196.441C230.863 201.964 226.385 206.441 220.863 206.441H211.953C206.43 206.441 201.953 201.964 201.953 196.441V194.201C201.953 193.687 201.474 193.308 200.969 193.404V193.404C200.585 193.477 200.301 193.809 200.301 194.2V196.441C200.301 201.964 195.824 206.441 190.301 206.441H181.391C181.046 206.441 180.706 206.423 180.37 206.389C180.202 206.372 180.032 206.372 179.864 206.39C179.529 206.424 179.191 206.441 178.85 206.441H169.225C167.353 206.441 165.579 205.921 164.06 205.004C163.204 204.487 162.101 204.487 161.246 205.004C159.726 205.921 157.953 206.441 156.08 206.441H146.455C144.681 206.441 142.966 205.97 141.468 205.109C140.643 204.634 139.603 204.634 138.778 205.109C137.283 205.969 135.568 206.441 133.79 206.441H123.89C122.768 206.441 121.677 206.253 120.653 205.903C120.116 205.719 119.53 205.719 118.993 205.903C117.976 206.252 116.885 206.441 115.75 206.441H106.84C104.609 206.441 102.547 205.71 100.884 204.474C100.087 203.883 98.9968 203.764 98.1383 204.261C94.6703 206.268 90.7616 207.101 86.8569 207.101C81.725 207.101 76.4514 205.729 72.1832 201.935C72.1577 201.912 72.1323 201.889 72.107 201.867V201.867C71.7641 201.555 71.2427 201.537 70.8812 201.826C66.4551 205.368 61.0633 207.101 55.1872 207.101C47.5597 207.101 40.7483 204.182 35.8055 198.175C31.1197 192.481 29.1822 185.502 29.1822 178.126C29.1822 170.75 31.1197 163.771 35.8055 158.077C40.7483 152.07 47.5597 149.151 55.1872 149.151C60.7778 149.151 65.93 150.719 70.2294 153.922C71.3416 154.751 73.0149 154.404 73.9051 153.341C74.8141 152.255 75.9458 151.371 77.2222 150.753C77.6166 150.562 77.8297 150.118 77.7311 149.691V149.691L69.2611 113.006V113.006C68.8219 111.104 65.4374 108.268 63.5254 108.662C62.0956 108.957 60.6318 109.101 59.1489 109.101C51.6067 109.101 45.1763 105.801 40.7139 99.7672C40.6907 99.7359 40.6677 99.7044 40.6449 99.6728C36.552 94.0012 34.9039 87.2286 34.9039 80.1259C34.9039 73.0288 36.55 66.2497 40.6738 60.5942L40.6846 60.5795V60.5795C41.0243 60.1153 40.7017 59.4409 40.1264 59.4409H38.002C36.971 59.4409 35.9764 59.2849 35.0406 58.9952C34.5499 58.8432 34.0232 58.843 33.5325 58.9949C32.592 59.2859 31.598 59.4409 30.577 59.4409H27.112C26.0988 59.4409 25.1123 59.2883 24.1783 59.0016ZM87.1169 145.891C87.3264 146.798 88.1344 147.441 89.0656 147.441H94.9936C95.9588 147.441 96.7863 146.752 96.9607 145.802L98.7758 135.917C99.1766 133.734 102.303 133.731 102.709 135.912L104.551 145.807C104.727 146.754 105.553 147.441 106.517 147.441H112.449C113.38 147.441 114.188 146.798 114.398 145.891L121.944 113.206C122.233 111.953 121.282 110.756 119.995 110.756H114.677C113.704 110.756 112.873 111.455 112.706 112.413L110.748 123.661C110.368 125.84 107.256 125.883 106.817 123.715L104.519 112.359C104.33 111.426 103.511 110.756 102.559 110.756H99.0068C98.0568 110.756 97.238 111.424 97.0474 112.355L94.7078 123.784C94.2648 125.948 91.157 125.902 90.7781 123.726L88.8082 112.413C88.6415 111.455 87.8101 110.756 86.8379 110.756H81.5191C80.2329 110.756 79.281 111.953 79.5704 113.206L87.1169 145.891ZM127.478 110.756C126.373 110.756 125.478 111.651 125.478 112.756V145.441C125.478 146.545 126.373 147.441 127.478 147.441H132.388C133.493 147.441 134.388 146.545 134.388 145.441V112.756C134.388 111.651 133.493 110.756 132.388 110.756H127.478ZM141.062 155.995C140.606 155.718 140.031 155.715 139.574 155.993V155.993C138.844 156.436 138.597 157.459 139.115 158.138C139.552 158.711 139.954 159.299 140.324 159.901C141.422 161.691 146.255 161.816 146.85 159.802L147.178 158.69C147.362 158.066 146.895 157.441 146.245 157.441V157.441C144.347 157.441 142.574 156.913 141.062 155.995ZM168.439 161.189C168.188 160.339 167.407 159.756 166.521 159.756H158.785C157.899 159.756 157.118 160.339 156.867 161.189L147.213 193.874C146.835 195.156 147.795 196.441 149.131 196.441H154.511C155.433 196.441 156.235 195.812 156.454 194.917L157.082 192.355C157.301 191.46 158.103 190.831 159.024 190.831H166.281C167.203 190.831 168.005 191.46 168.224 192.355L168.852 194.917C169.071 195.812 169.873 196.441 170.794 196.441H176.174C177.51 196.441 178.471 195.156 178.092 193.874L168.439 161.189ZM159.825 180.598C159.515 181.858 160.469 183.076 161.767 183.076H163.548C164.843 183.076 165.797 181.864 165.492 180.605L164.609 176.958C164.116 174.923 161.223 174.917 160.723 176.951L159.825 180.598ZM181.391 194.441C181.391 195.545 182.287 196.441 183.391 196.441H188.301C189.406 196.441 190.301 195.545 190.301 194.441V185.846C190.301 184.741 191.197 183.846 192.301 183.846H196.131C198.377 183.846 200.317 183.452 201.953 182.663C202.84 182.235 203.638 181.691 204.346 181.031C204.548 180.842 204.743 180.644 204.931 180.436C207.021 178.126 208.066 175.266 208.066 171.856C208.066 171.838 208.066 171.819 208.066 171.801C208.055 168.379 207.01 165.519 204.931 163.221C204.736 163.001 204.533 162.792 204.322 162.594C203.62 161.933 202.83 161.388 201.953 160.958C200.317 160.156 198.377 159.756 196.131 159.756H183.391C182.287 159.756 181.391 160.651 181.391 161.756V194.441ZM190.301 174.091C190.301 175.195 191.197 176.091 192.301 176.091H195.031C195.423 176.091 195.789 176.051 196.131 175.97C196.845 175.801 197.45 175.457 197.946 174.936C198.085 174.79 198.211 174.634 198.324 174.468C198.325 174.466 198.327 174.464 198.328 174.462C198.799 173.767 199.038 172.898 199.046 171.856C199.046 171.838 199.046 171.819 199.046 171.801C199.046 170.752 198.814 169.876 198.351 169.174C198.337 169.152 198.322 169.131 198.307 169.109C198.199 168.952 198.078 168.805 197.946 168.666C197.45 168.145 196.845 167.8 196.131 167.632C195.789 167.551 195.423 167.511 195.031 167.511H192.301C191.197 167.511 190.301 168.406 190.301 169.511V174.091ZM211.953 194.441C211.953 195.545 212.848 196.441 213.953 196.441H218.863C219.967 196.441 220.863 195.545 220.863 194.441V185.846C220.863 184.741 221.758 183.846 222.863 183.846H226.693C230.157 183.846 232.896 182.908 234.907 181.031C235.11 180.842 235.305 180.644 235.493 180.436C237.583 178.126 238.628 175.266 238.628 171.856C238.628 171.838 238.628 171.819 238.628 171.801C238.616 168.379 237.572 165.519 235.493 163.221C235.298 163.001 235.094 162.792 234.883 162.594C232.874 160.702 230.144 159.756 226.693 159.756H213.953C212.848 159.756 211.953 160.651 211.953 161.756V194.441ZM220.863 174.091C220.863 175.195 221.758 176.091 222.863 176.091H225.593C225.984 176.091 226.351 176.051 226.693 175.97C227.407 175.801 228.012 175.457 228.508 174.936C228.647 174.79 228.773 174.634 228.885 174.468C228.887 174.466 228.888 174.464 228.89 174.462C229.36 173.767 229.599 172.898 229.607 171.856C229.608 171.838 229.608 171.819 229.608 171.801C229.608 170.752 229.376 169.876 228.913 169.174C228.898 169.152 228.883 169.131 228.868 169.109C228.76 168.952 228.64 168.805 228.508 168.666C228.012 168.145 227.407 167.8 226.693 167.632C226.351 167.551 225.984 167.511 225.593 167.511H222.863C221.758 167.511 220.863 168.406 220.863 169.511V174.091ZM166.997 145.441C166.997 146.545 167.892 147.441 168.997 147.441H173.907C175.011 147.441 175.907 146.545 175.907 145.441V134.481C175.907 133.376 176.802 132.481 177.907 132.481H184.577C185.681 132.481 186.577 133.376 186.577 134.481V145.441C186.577 146.545 187.472 147.441 188.577 147.441H193.487C194.591 147.441 195.487 146.545 195.487 145.441V112.756C195.487 111.651 194.591 110.756 193.487 110.756H188.577C187.472 110.756 186.577 111.651 186.577 112.756V122.671C186.577 123.775 185.681 124.671 184.577 124.671H177.907C176.802 124.671 175.907 123.775 175.907 122.671V112.756C175.907 111.651 175.011 110.756 173.907 110.756H168.997C167.892 110.756 166.997 111.651 166.997 112.756V145.441ZM196.162 96.4409C196.162 97.5455 197.057 98.4409 198.162 98.4409H203.072C204.176 98.4409 205.072 97.5455 205.072 96.4409V88.811C205.072 86.5474 208.241 86.0258 208.966 88.17L211.982 97.082C212.257 97.8943 213.019 98.4409 213.876 98.4409H214.475C215.331 98.4409 216.092 97.8963 216.368 97.0863L219.439 88.0804C220.168 85.9404 223.332 86.4648 223.332 88.7258V96.4409C223.332 97.5455 224.227 98.4409 225.332 98.4409H230.187C231.291 98.4409 232.187 97.5455 232.187 96.4409V63.7559C232.187 62.6513 231.291 61.7559 230.187 61.7559H221.901C221.046 61.7559 220.286 62.2993 220.009 63.1081L216.102 74.5194C215.484 76.3249 212.929 76.3215 212.316 74.5143L208.447 63.1132C208.172 62.3018 207.41 61.7559 206.553 61.7559H198.162C197.057 61.7559 196.162 62.6513 196.162 63.7559V96.4409ZM187.361 93.1344C189.575 89.6448 190.682 85.3086 190.682 80.1259C190.682 74.9372 189.572 70.6132 187.353 67.1541C187.22 66.9466 187.083 66.7422 186.942 66.5409C186.691 66.1747 186.431 65.8272 186.162 65.4983C183.784 62.6001 180.653 61.1509 176.767 61.1509C173.809 61.1509 171.289 61.9904 169.205 63.6692C168.24 64.4465 167.369 65.4038 166.592 66.5409C166.457 66.7354 166.327 66.9329 166.2 67.1332C165.723 67.8849 165.298 68.6774 164.925 69.5109C163.729 72.1842 163.064 75.2784 162.932 78.7935C162.915 79.2311 162.907 79.6753 162.907 80.1259C162.907 85.2972 163.993 89.6256 166.164 93.1113C166.169 93.1182 166.173 93.125 166.177 93.1318C166.311 93.3464 166.449 93.5577 166.592 93.7659C169.048 97.3226 172.44 99.1009 176.767 99.1009C180.653 99.1009 183.784 97.6666 186.162 94.7979C186.431 94.4724 186.691 94.1284 186.942 93.7659C187.082 93.5633 187.219 93.3576 187.352 93.1488C187.355 93.1441 187.358 93.1392 187.361 93.1344ZM186.162 80.9477C186.168 80.6768 186.172 80.4029 186.172 80.1259C186.172 79.8436 186.168 79.5644 186.162 79.2886C186.063 75.2656 185.241 71.9331 183.697 69.2909C183.631 69.1775 183.563 69.0663 183.495 68.9574C183.486 68.9435 183.477 68.9295 183.468 68.9156C181.836 66.3425 179.602 65.0559 176.767 65.0559C173.957 65.0559 171.736 66.3512 170.104 68.9418C170.1 68.9476 170.096 68.9533 170.093 68.9591C170.025 69.0675 169.958 69.1781 169.892 69.2909C169.612 69.7699 169.356 70.2716 169.123 70.796C168.651 71.8613 168.277 73.0203 168.001 74.2729C167.611 76.038 167.417 77.989 167.417 80.1259C167.417 84.4893 168.242 88.1009 169.892 90.9609C169.966 91.0871 170.041 91.2105 170.117 91.3311C170.121 91.3368 170.124 91.3426 170.128 91.3484C171.758 93.9134 173.971 95.1959 176.767 95.1959C179.569 95.1959 181.786 93.9076 183.417 91.3311C183.418 91.3285 183.42 91.3259 183.422 91.3233C183.496 91.2052 183.57 91.0844 183.642 90.9609C185.221 88.2825 186.061 84.9447 186.162 80.9477ZM157.205 69.5109C158.31 69.5109 159.205 68.6155 159.205 67.5109V63.7559C159.205 62.6513 158.31 61.7559 157.205 61.7559H136.62C135.515 61.7559 134.62 62.6513 134.62 63.7559V67.5109C134.62 68.6155 135.515 69.5109 136.62 69.5109H140.485C141.59 69.5109 142.485 70.4063 142.485 71.5109V96.4409C142.485 97.5455 143.38 98.4409 144.485 98.4409H149.395C150.5 98.4409 151.395 97.5455 151.395 96.4409V71.5109C151.395 70.4063 152.29 69.5109 153.395 69.5109H157.205ZM131.632 66.7592C132.148 65.9339 132.003 64.8449 131.214 64.275C130.191 63.5365 129.093 62.9289 127.919 62.4523C127.239 62.1762 126.534 61.9441 125.803 61.7559C125.417 61.6565 125.024 61.5693 124.623 61.4943C124.177 61.4108 123.722 61.3425 123.258 61.2895C122.451 61.1971 121.616 61.1509 120.755 61.1509C120.644 61.1509 120.534 61.1518 120.425 61.1535C117.641 61.1972 115.274 61.7975 113.325 62.9544C113.097 63.0898 112.875 63.2328 112.658 63.3834C112.591 63.4301 112.524 63.4774 112.458 63.5255C112.07 63.8087 111.7 64.1171 111.35 64.4509C109.219 66.4808 108.07 68.9007 107.906 71.7109C107.892 71.9465 107.885 72.1848 107.885 72.4259C107.885 74.4333 108.285 76.1863 109.084 77.6851C109.087 77.692 109.091 77.699 109.095 77.7059C109.902 79.1726 110.91 80.2909 112.12 81.0609C112.277 81.1607 112.435 81.2592 112.595 81.3566C112.835 81.5026 113.078 81.6459 113.325 81.7864C114.115 82.2361 114.941 82.6574 115.802 83.0503C115.876 83.0841 115.95 83.1176 116.025 83.1509C116.085 83.1779 116.145 83.2046 116.205 83.2312C116.708 83.4541 117.199 83.6625 117.678 83.8564C117.801 83.906 117.922 83.9546 118.043 84.0023C118.062 84.0096 118.08 84.0168 118.098 84.024C118.126 84.0347 118.153 84.0453 118.18 84.0559C118.783 84.2914 119.366 84.5031 119.93 84.6909C119.948 84.6965 119.967 84.7021 119.985 84.7077C120.376 84.8282 120.746 84.9622 121.095 85.1097C121.123 85.1217 121.151 85.1338 121.179 85.146C121.852 85.4378 122.444 85.7811 122.955 86.1759C123.242 86.3844 123.477 86.6067 123.662 86.843C123.678 86.8631 123.693 86.8832 123.708 86.9035C123.737 86.9429 123.765 86.9826 123.791 87.0227C123.868 87.1405 123.933 87.2616 123.987 87.3859C124.106 87.6631 124.165 87.9564 124.165 88.2659C124.165 88.7259 124.068 89.1442 123.874 89.5211C123.863 89.5423 123.852 89.5634 123.84 89.5844C123.649 89.933 123.372 90.2452 123.01 90.5209C122.287 91.0992 121.297 91.3924 120.04 91.4007C120.022 91.4009 120.003 91.4009 119.985 91.4009C119.71 91.4009 119.439 91.3932 119.172 91.3777C119.097 91.3733 119.022 91.3683 118.947 91.3628C118.607 91.3373 118.272 91.2992 117.943 91.2484C117.88 91.2387 117.817 91.2285 117.754 91.2178C117.363 91.1511 116.979 91.0662 116.603 90.9631C115.83 90.751 115.091 90.4617 114.385 90.0954C113.989 89.8894 113.603 89.6591 113.227 89.4044C113.173 89.3676 113.119 89.3302 113.065 89.2923C112.787 89.0966 112.514 88.8874 112.248 88.6646V88.6646C111.593 88.1164 110.576 88.2112 110.125 88.937L107.636 92.9447C107.14 93.7448 107.26 94.7945 107.999 95.3782C108.816 96.0229 109.691 96.584 110.625 97.0612C111.242 97.3761 111.884 97.6545 112.551 97.8965C113.574 98.2675 114.658 98.5528 115.801 98.7523C117.116 98.9819 118.511 99.0981 119.985 99.1009C120.003 99.1009 120.022 99.1009 120.04 99.1009C123.263 99.1009 125.933 98.4458 128.05 97.1356C128.106 97.1008 128.162 97.0656 128.217 97.0299C128.734 96.697 129.216 96.324 129.665 95.9109C130.965 94.7325 131.905 93.3346 132.485 91.7171C132.864 90.6604 133.089 89.51 133.16 88.2659C133.177 87.9776 133.185 87.6843 133.185 87.3859C133.185 85.908 132.952 84.5679 132.485 83.3657C132.338 82.9871 132.168 82.6222 131.975 82.2709C131.816 81.9826 131.65 81.7077 131.476 81.4462C130.764 80.378 129.922 79.5345 128.95 78.9159C128.865 78.8602 128.78 78.8048 128.693 78.7497C128.617 78.7008 128.54 78.6521 128.462 78.6036C127.419 77.9517 126.28 77.3408 125.045 76.7709C125.006 76.7525 124.967 76.7342 124.928 76.716C124.695 76.6062 124.464 76.5001 124.236 76.3976C123.955 76.2713 123.678 76.1505 123.404 76.0352C123.237 75.9648 123.072 75.8965 122.908 75.8302C122.901 75.8273 122.894 75.8244 122.886 75.8214C122.806 75.789 122.726 75.7571 122.647 75.7257C122.13 75.5217 121.627 75.3384 121.14 75.1759C120.893 75.0912 120.655 75.0025 120.425 74.9097C120.219 74.8268 120.02 74.7407 119.827 74.6514C119.208 74.3645 118.656 74.0443 118.17 73.6909C117.935 73.52 117.734 73.3429 117.568 73.1596C117.545 73.1342 117.522 73.1086 117.5 73.0829C117.44 73.0118 117.385 72.9397 117.334 72.8667C117.236 72.7233 117.156 72.5764 117.097 72.4259C117.006 72.1959 116.96 71.9576 116.96 71.7109C116.96 71.29 117.033 70.9103 117.179 70.5716C117.326 70.2316 117.546 69.9331 117.84 69.6759C118.463 69.1626 119.325 68.9059 120.425 68.9059C120.536 68.9059 120.646 68.9072 120.755 68.9096C121.045 68.9162 121.332 68.9316 121.614 68.9557C122.137 69.0004 122.645 69.0752 123.138 69.1801C123.158 69.1843 123.177 69.1884 123.197 69.1927C123.686 69.2993 124.16 69.4356 124.62 69.6018C124.663 69.6173 124.706 69.633 124.749 69.6491C125.507 69.9336 126.224 70.2997 126.902 70.7476C127.064 70.8548 127.224 70.9666 127.382 71.0831C127.453 71.1361 127.525 71.1901 127.595 71.245C127.612 71.2577 127.628 71.2705 127.644 71.2833V71.2833C128.05 71.6021 128.654 71.5244 128.927 71.0868L131.632 66.7592ZM140.38 110.756C139.275 110.756 138.38 111.651 138.38 112.756V116.511C138.38 117.615 139.275 118.511 140.38 118.511H144.245C145.349 118.511 146.245 119.406 146.245 120.511V145.441C146.245 146.545 147.14 147.441 148.245 147.441H153.155C154.259 147.441 155.155 146.545 155.155 145.441V120.511C155.155 119.406 156.05 118.511 157.155 118.511H160.965C162.069 118.511 162.965 117.615 162.965 116.511V112.756C162.965 111.651 162.069 110.756 160.965 110.756H140.38ZM103.325 63.7559C103.325 62.6513 102.43 61.7559 101.325 61.7559H96.3601C95.2555 61.7559 94.3601 62.6513 94.3601 63.7559V85.4609C94.3601 86.9144 94.0605 88.1143 93.4613 89.0607C93.4499 89.0787 93.4384 89.0966 93.4268 89.1144C93.2788 89.3415 93.1132 89.5536 92.9301 89.7509C92.0134 90.7776 90.6934 91.2909 88.9701 91.2909C87.2101 91.2909 85.8534 90.7959 84.9001 89.8059C84.7126 89.5959 84.5443 89.3683 84.3951 89.1231C84.384 89.1048 84.373 89.0864 84.3621 89.0679C83.8041 88.1223 83.5251 86.92 83.5251 85.4609V63.7559C83.5251 62.6513 82.6296 61.7559 81.5251 61.7559H76.5601C75.4555 61.7559 74.5601 62.6513 74.5601 63.7559V85.4059C74.5601 85.4243 74.5601 85.4426 74.5601 85.4609C74.5711 89.7246 75.8544 93.0613 78.4101 95.4709C78.4338 95.493 78.4576 95.5149 78.4815 95.5368C78.5615 95.61 78.6424 95.6821 78.7241 95.7531C78.7622 95.7862 78.8004 95.819 78.8388 95.8515C78.8687 95.8768 78.8987 95.902 78.9287 95.927C81.4743 98.0429 84.8214 99.1009 88.9701 99.1009C92.2061 99.1009 94.9464 98.4464 97.1908 97.1374C97.933 96.7045 98.621 96.2 99.2548 95.6239C99.2965 95.586 99.338 95.5477 99.3793 95.5092C99.3929 95.4965 99.4065 95.4837 99.4201 95.4709C100.634 94.3427 101.565 93.0112 102.212 91.4765C102.82 90.0374 103.179 88.4195 103.289 86.623C103.312 86.2436 103.324 85.8562 103.325 85.4609C103.325 85.4426 103.325 85.4243 103.325 85.4059V63.7559ZM231.679 50.0448C231.797 50.1895 231.973 50.2734 232.159 50.2734V50.2734C232.501 50.2734 232.778 49.9965 232.778 49.6548V19.9536C232.778 18.2349 232.921 17.0264 233.208 16.3281C233.465 15.7229 233.799 15.2647 234.209 14.9536C234.285 14.8966 234.363 14.8445 234.443 14.7974C234.586 14.7114 234.765 14.6299 234.98 14.5528C235.487 14.3709 236.192 14.2138 237.097 14.0816C237.36 14.0431 237.558 13.8193 237.558 13.5534V13.5534C237.558 13.2615 237.322 13.0249 237.03 13.0249H226.019C225.747 13.0249 225.527 13.2454 225.527 13.5173V13.6217C225.527 13.8397 225.706 14.0145 225.924 14.0186V14.0186C226.09 14.0216 226.252 14.0286 226.409 14.0395C227.264 14.0985 227.993 14.2725 228.598 14.5614C229.102 14.802 229.52 15.1224 229.851 15.5225C230.118 15.8507 230.328 16.3076 230.481 16.893C230.664 17.5925 230.766 18.4755 230.787 19.5422C230.788 19.6039 230.789 19.6662 230.789 19.7292C230.79 19.8031 230.791 19.878 230.791 19.9536V29.8835C230.791 31.7768 228.404 32.6103 227.225 31.1286L213.425 13.7798C213.045 13.3028 212.469 13.0249 211.86 13.0249H200.412C200.133 13.0249 199.907 13.2509 199.907 13.5297V13.5297C199.907 13.8022 200.123 14.024 200.395 14.0442C201.269 14.1092 201.957 14.2707 202.458 14.5288C203.049 14.8332 203.729 15.4688 204.499 16.4355L204.835 16.853C205.122 17.2085 205.278 17.6512 205.278 18.1077V43.103C205.278 45.0366 204.884 46.4063 204.096 47.2119C203.375 47.9496 202.143 48.357 200.402 48.4343C200.128 48.4465 199.907 48.668 199.907 48.9419V48.9419C199.907 49.2175 200.13 49.4409 200.406 49.4409H212.327C212.602 49.4409 212.824 49.2185 212.824 48.9441V48.9441C212.824 48.6697 212.602 48.4473 212.327 48.4473H211.965C211.021 48.4473 210.155 48.2328 209.367 47.8039C209.125 47.6717 208.889 47.5191 208.662 47.3462C208.488 47.212 208.331 47.055 208.189 46.8753C207.555 46.0722 207.238 44.8148 207.238 43.103V25.5883C207.238 23.7051 209.604 22.8656 210.791 24.3273L231.679 50.0448ZM196.826 49.4409C198.162 49.4409 199.123 48.1558 198.744 46.8744L189.091 14.1894C188.84 13.3393 188.059 12.7559 187.173 12.7559H179.437C178.551 12.7559 177.77 13.3393 177.519 14.1894L167.865 46.8744C167.487 48.1558 168.447 49.4409 169.783 49.4409H175.163C176.084 49.4409 176.886 48.8117 177.106 47.917L177.734 45.3548C177.953 44.4601 178.755 43.8309 179.676 43.8309H186.933C187.854 43.8309 188.656 44.4601 188.876 45.3548L189.504 47.917C189.723 48.8117 190.525 49.4409 191.446 49.4409H196.826ZM186.144 33.6052C186.449 34.8638 185.495 36.0759 184.2 36.0759H182.419C181.121 36.0759 180.167 34.8585 180.477 33.598L181.375 29.9506C181.875 27.9173 184.768 27.9227 185.26 29.9578L186.144 33.6052ZM249.764 47.4409C249.764 48.5455 250.659 49.4409 251.764 49.4409H256.674C257.779 49.4409 258.674 48.5455 258.674 47.4409V35.0229C258.674 34.7029 258.751 34.3876 258.898 34.1034L268.438 15.6754C269.127 14.3441 268.161 12.7559 266.662 12.7559H261.52C260.726 12.7559 260.008 13.2249 259.689 13.9512L256.042 22.2491C255.343 23.8398 253.087 23.8436 252.382 22.2553L248.696 13.945C248.376 13.222 247.659 12.7559 246.868 12.7559H241.729C240.228 12.7559 239.262 14.3475 239.955 15.6789L249.538 34.102C249.687 34.3871 249.764 34.7037 249.764 35.025V47.4409ZM118.656 13.0249C118.381 13.0249 118.159 13.2473 118.159 13.5217V13.5217C118.159 13.7961 118.381 14.0186 118.656 14.0186H119.367C120.487 14.0186 121.382 14.2438 122.052 14.6943C122.089 14.719 122.125 14.7444 122.16 14.7705C122.307 14.8737 122.439 14.9901 122.558 15.1196C122.831 15.4171 123.029 15.7842 123.154 16.2207C123.196 16.3971 123.228 16.7132 123.25 17.1693C123.276 17.6855 123.288 18.3808 123.288 19.2554V43.2105C123.288 44.352 123.25 45.2207 123.173 45.8165C123.127 46.1739 123.067 46.4331 122.993 46.5942C122.836 46.9739 122.638 47.2839 122.398 47.5242C122.254 47.6693 122.094 47.789 121.918 47.8833C121.274 48.2593 120.424 48.4473 119.367 48.4473H118.656C118.381 48.4473 118.159 48.6697 118.159 48.9441V48.9441C118.159 49.2185 118.381 49.4409 118.656 49.4409H147.896C148.893 49.4409 149.737 48.7076 149.877 47.7212L151.188 38.4589C151.232 38.1459 150.989 37.8662 150.673 37.8662V37.8662C150.439 37.8662 150.235 38.0221 150.169 38.2459C150.007 38.787 149.829 39.3039 149.633 39.7966C149.549 40.008 149.462 40.215 149.372 40.4175C148.495 42.3877 147.32 43.9363 145.847 45.0635C144.472 46.1244 142.789 46.8282 140.798 47.1747C140.485 47.2292 140.164 47.2749 139.835 47.3117C139.816 47.3139 139.797 47.316 139.777 47.3181C139.11 47.3905 138.412 47.4268 137.683 47.4268H135.507C134.469 47.4268 133.717 47.2835 133.251 46.9971C133.205 46.9684 133.16 46.9389 133.116 46.9086C132.723 46.6363 132.446 46.2988 132.285 45.896C132.152 45.5278 132.074 44.6326 132.051 43.2105C132.046 42.9037 132.043 42.5725 132.043 42.2168V32.6833C132.043 32.2827 132.368 31.9559 132.768 31.9725V31.9725C132.946 31.9799 133.12 31.9901 133.288 32.0032C134.427 32.0914 135.337 32.3091 136.018 32.6563C136.931 33.1038 137.727 33.9901 138.408 35.3149C138.718 35.9034 138.98 36.5661 139.195 37.303C139.32 37.7316 139.429 38.1853 139.522 38.6641C139.565 38.8905 139.606 39.1226 139.642 39.3604C139.646 39.3871 139.65 39.414 139.654 39.4409C139.679 39.6036 139.701 39.7688 139.722 39.9367C139.757 40.2095 139.986 40.4175 140.261 40.4175V40.4175C140.558 40.4175 140.798 40.1772 140.798 39.8809V21.8861C140.798 21.5901 140.558 21.3501 140.262 21.3501V21.3501C139.987 21.3501 139.757 21.5585 139.724 21.8317C139.681 22.1907 139.632 22.5379 139.576 22.8735C139.57 22.909 139.564 22.9443 139.558 22.9796C139.555 22.9947 139.553 23.0098 139.55 23.0249C139.536 23.1052 139.522 23.1848 139.507 23.2637C139.473 23.444 139.438 23.6208 139.4 23.7939C139.266 24.4115 139.107 24.9833 138.923 25.5095C138.713 26.1119 138.47 26.6544 138.194 27.137C138.066 27.3604 137.932 27.5709 137.79 27.7686C136.831 29.1076 135.331 29.8284 133.288 29.9311C133.119 29.9396 132.945 29.9438 132.768 29.9438V29.9438C132.368 29.9438 132.043 29.6192 132.043 29.2188V17.1196C132.043 16.0151 132.938 15.1196 134.043 15.1196H135.803C136.883 15.1196 137.829 15.1444 138.64 15.1938C139.054 15.2191 139.433 15.2509 139.777 15.2891C140.161 15.3317 140.502 15.3824 140.798 15.4411C141.043 15.4896 141.257 15.5436 141.442 15.603C141.648 15.6674 141.848 15.736 142.043 15.8091C143.473 16.3461 144.598 17.1188 145.417 18.1274C146.041 18.8806 146.572 19.9548 147.01 21.3501C147.086 21.592 147.159 21.8435 147.229 22.1047C147.309 22.3992 147.384 22.7059 147.457 23.0249C147.48 23.1296 147.504 23.2356 147.527 23.343C147.582 23.6046 147.812 23.7939 148.08 23.7939V23.7939C148.389 23.7939 148.64 23.5432 148.64 23.2338V15.0249C148.64 13.9203 147.744 13.0249 146.64 13.0249H118.656ZM113.767 49.4409C115.338 49.4409 116.296 47.7126 115.463 46.3805L105.853 31.0137C105.436 30.3457 105.449 29.4947 105.888 28.8402L114.577 15.869C115.467 14.5402 114.514 12.7559 112.915 12.7559H107.469C106.759 12.7559 106.101 13.1327 105.743 13.7459L100.973 21.8975C99.9429 23.6583 97.2469 22.9275 97.2469 20.8874V14.7559C97.2469 13.6513 96.3515 12.7559 95.2469 12.7559H90.3369C89.2323 12.7559 88.3369 13.6513 88.3369 14.7559V47.4409C88.3369 48.5455 89.2323 49.4409 90.3369 49.4409H95.2469C96.3515 49.4409 97.2469 48.5455 97.2469 47.4409V40.4249C97.2469 40.0624 97.3454 39.7067 97.5319 39.3959L97.7587 39.018C98.5543 37.6919 100.49 37.732 101.23 39.0898L106.304 48.3981C106.654 49.0409 107.327 49.4409 108.06 49.4409H113.767ZM64.5406 79.8605C64.5518 79.8625 64.5601 79.8722 64.5601 79.8836V79.8836C64.5601 79.8949 64.5519 79.9046 64.5407 79.9066C63.9307 80.0156 63.3278 80.1818 62.7402 80.4056C62.2626 80.5874 61.8027 80.8044 61.3637 81.0535C60.5411 81.5203 59.4139 81.0718 59.4139 80.1259V80.1259V80.1259C59.4139 78.9819 60.7656 78.4511 61.7903 78.9599C62.658 79.3908 63.5851 79.6946 64.5406 79.8605ZM69.8281 68.2138C68.4156 65.5441 66.6596 63.6312 64.5601 62.4752C63.8382 62.0777 63.0758 61.7697 62.2727 61.5512C61.292 61.2844 60.2507 61.1509 59.1489 61.1509C54.8222 61.1509 51.3572 62.9292 48.7539 66.4859C48.6371 66.6461 48.5229 66.8085 48.4114 66.973C48.4039 66.984 48.3964 66.9951 48.3889 67.0062C46.0656 70.4501 44.9039 74.8234 44.9039 80.1259C44.9039 85.4106 46.0577 89.7887 48.3654 93.2602C48.3729 93.2714 48.3804 93.2827 48.3879 93.2939C48.5068 93.4719 48.6288 93.6476 48.7539 93.8209C51.3572 97.3409 54.8222 99.1009 59.1489 99.1009C60.2046 99.1009 61.2055 98.972 62.1517 98.7141C63.8613 98.2482 65.3923 97.3615 66.7446 96.0539C67.5593 95.266 68.3092 94.3255 68.9942 93.2321C69.5858 92.2879 69.1491 91.0697 68.1379 90.6018L66.9582 90.056C66.5966 89.8887 66.17 90.0528 65.9939 90.4101V90.4101C65.7651 90.8743 65.5213 91.3046 65.2625 91.7012C63.7424 94.031 61.7045 95.1959 59.1489 95.1959C56.3302 95.1959 54.0363 93.8925 52.2672 91.2856C52.2577 91.2716 52.2482 91.2576 52.2388 91.2435C52.1765 91.151 52.1149 91.0568 52.0539 90.9609C50.2939 88.1376 49.4139 84.5259 49.4139 80.1259C49.4139 75.7259 50.2939 72.1143 52.0539 69.2909C52.1107 69.2017 52.1681 69.1138 52.226 69.0274C52.2275 69.0252 52.2289 69.023 52.2304 69.0209C54.0045 66.3776 56.3106 65.0559 59.1489 65.0559C61.302 65.0559 63.1058 65.8623 64.5601 67.475C64.8009 67.7421 65.0321 68.0312 65.2538 68.3425C65.8789 69.2204 67.0222 69.6403 67.9977 69.1821L69.7848 68.3428C69.8334 68.3199 69.8532 68.2613 69.8281 68.2138V68.2138ZM106.84 194.441C106.84 195.545 107.736 196.441 108.84 196.441H113.75C114.855 196.441 115.75 195.545 115.75 194.441V185.802C115.75 184.722 116.626 183.846 117.706 183.846V183.846C118.516 183.846 119.242 184.345 119.532 185.1L123.397 195.158C123.694 195.931 124.437 196.441 125.264 196.441H130.731C132.174 196.441 133.142 194.96 132.563 193.639L128.171 183.612C127.842 182.859 128.191 181.991 128.875 181.536V181.536C129.086 181.396 129.291 181.246 129.491 181.087C129.547 181.043 129.602 180.998 129.657 180.952C130.433 180.305 131.133 179.51 131.755 178.566C132.913 176.829 133.5 174.574 133.515 171.801C133.515 171.764 133.515 171.728 133.515 171.691C133.515 168.244 132.434 165.403 130.27 163.166C130.087 162.97 129.899 162.783 129.705 162.604C129.653 162.555 129.6 162.507 129.546 162.46C127.517 160.657 124.935 159.756 121.8 159.756H108.84C107.736 159.756 106.84 160.651 106.84 161.756V194.441ZM115.75 174.091C115.75 175.195 116.646 176.091 117.75 176.091H120.425C121.635 176.091 122.607 175.706 123.34 174.936C123.368 174.908 123.395 174.88 123.422 174.852C123.632 174.628 123.811 174.383 123.96 174.115C124.053 173.947 124.134 173.77 124.203 173.585C124.208 173.57 124.213 173.556 124.219 173.541C124.403 173.027 124.495 172.447 124.495 171.801C124.495 171.764 124.495 171.727 124.494 171.691C124.479 170.774 124.274 169.993 123.879 169.348C123.852 169.305 123.825 169.263 123.797 169.221C123.664 169.022 123.512 168.837 123.34 168.666C122.909 168.213 122.396 167.894 121.8 167.707C121.383 167.576 120.924 167.511 120.425 167.511H117.75C116.646 167.511 115.75 168.406 115.75 169.511V174.091ZM85.4388 162.188C85.715 160.939 84.7647 159.756 83.486 159.756H83.1847C82.2457 159.756 81.4331 160.409 81.2314 161.326L76.1319 184.506C75.9735 185.203 75.8835 185.955 75.8619 186.761C75.8586 186.888 75.8569 187.016 75.8569 187.146C75.8569 189.617 76.4941 191.675 77.7686 193.32C78.0826 193.725 78.4354 194.106 78.8269 194.461C78.8923 194.519 78.9585 194.576 79.0254 194.633C80.9845 196.278 83.595 197.101 86.8569 197.101C86.912 197.101 86.967 197.101 87.0219 197.1C90.4998 197.068 93.2315 196.023 95.2169 193.966C95.2363 193.946 95.2556 193.926 95.2749 193.905C95.2759 193.904 95.277 193.903 95.278 193.902C95.8406 193.31 96.3614 192.636 96.8403 191.879C97.914 190.183 98.7775 188.074 99.4309 185.552C99.4321 185.547 99.4334 185.542 99.4347 185.537C99.5171 185.218 99.5962 184.893 99.6719 184.561L104.584 162.185C104.858 160.937 103.908 159.756 102.63 159.756H102.378C101.44 159.756 100.628 160.408 100.425 161.324L95.2719 184.616C94.6125 187.546 93.6237 189.727 92.3056 191.157C92.3044 191.158 92.3031 191.16 92.3019 191.161C91.0185 192.554 89.2585 193.251 87.0219 193.251C86.9666 193.251 86.9116 193.251 86.8569 193.25C84.8448 193.219 83.2498 192.633 82.0719 191.491C81.9735 191.396 81.8791 191.297 81.7888 191.197C81.7786 191.185 81.7686 191.174 81.7585 191.163C80.8297 190.111 80.3318 188.772 80.2647 187.146C80.2595 187.019 80.2569 186.891 80.2569 186.761C80.2569 186.686 80.2594 186.6 80.2645 186.503C80.2784 186.239 80.3113 185.893 80.3632 185.468C80.3644 185.458 80.3656 185.448 80.3669 185.438C80.3972 185.19 80.4339 184.917 80.4769 184.616L85.4388 162.188ZM71.0728 180.829C71.1524 179.957 71.1922 179.056 71.1922 178.126C71.1922 174.516 70.5925 171.339 69.3932 168.595C68.9427 167.564 68.4075 166.594 67.7877 165.685C67.7662 165.653 67.7446 165.622 67.7229 165.59C67.4474 165.192 67.1555 164.806 66.8472 164.431C63.9505 160.911 60.0638 159.151 55.1872 159.151C50.3105 159.151 46.4238 160.911 43.5272 164.431C43.2188 164.806 42.9269 165.192 42.6514 165.59C42.6297 165.622 42.6081 165.653 42.5866 165.685C40.317 169.013 39.1822 173.16 39.1822 178.126C39.1822 183.064 40.3044 187.193 42.5489 190.511C42.5828 190.562 42.617 190.612 42.6514 190.661C42.9269 191.06 43.2188 191.446 43.5272 191.821C46.4238 195.341 50.3105 197.101 55.1872 197.101C59.8446 197.101 63.599 195.496 66.4504 192.285C66.5847 192.134 66.7169 191.979 66.8472 191.821C67.1699 191.429 67.4747 191.024 67.7615 190.605C67.7703 190.593 67.779 190.58 67.7877 190.567C68.509 189.509 69.1156 188.369 69.6077 187.146C69.9023 186.414 70.1559 185.652 70.3683 184.86C70.5032 184.357 70.6216 183.843 70.7233 183.316C70.7258 183.303 70.7282 183.291 70.7306 183.278C70.734 183.261 70.7374 183.243 70.7407 183.225C70.7866 182.983 70.829 182.738 70.8678 182.49C70.9529 181.948 71.0212 181.395 71.0728 180.829ZM60.3022 186.156C61.5488 184.066 62.1722 181.389 62.1722 178.126C62.1722 174.826 61.5488 172.149 60.3022 170.096C60.265 170.033 60.2274 169.971 60.1894 169.91C58.987 167.981 57.3196 167.016 55.1872 167.016C53.0896 167.016 51.4229 167.981 50.1871 169.912C50.1484 169.972 50.1101 170.033 50.0722 170.096C48.8622 172.149 48.2572 174.826 48.2572 178.126C48.2572 181.389 48.8622 184.066 50.0722 186.156C50.1101 186.218 50.1484 186.28 50.1871 186.34C51.4229 188.271 53.0896 189.236 55.1872 189.236C57.3196 189.236 58.987 188.271 60.1893 186.342C60.2274 186.281 60.265 186.219 60.3022 186.156ZM58.0549 36.5036C58.0237 36.5482 57.9991 36.5972 57.9819 36.6489V36.6489C57.9626 36.7065 57.9496 36.7675 57.9608 36.8272C57.9973 37.023 58.1596 37.1209 58.4479 37.1209H72.7478C73.0051 37.1209 73.209 37.0782 73.3594 36.9928C73.6004 36.8559 73.6199 36.538 73.6045 36.2613L72.7937 21.6656C72.6883 19.7691 70.2466 19.0737 69.1579 20.6302L58.0549 36.5036Z" fill="black"/>
</svg>
