<svg width="640" height="288" viewBox="0 0 640 288" fill="none" xmlns="http://www.w3.org/2000/svg">
<path d="M144.889 89.7686H127.984V48.1886L113.809 89.7686H107.194L93.1239 48.1886V89.7686H76.1139V19.7336H98.6889L110.554 54.6986L122.524 19.7336H144.889V89.7686Z" fill="white"/>
<path d="M208.702 87.8786C209.122 88.0186 209.437 88.2636 209.647 88.6136C209.857 88.8936 209.962 89.1736 209.962 89.4536C210.032 89.7336 210.032 89.9086 209.962 89.9786C209.542 89.9786 209.017 89.9436 208.387 89.8736C207.827 89.8036 207.302 89.7686 206.812 89.7686H193.267L190.642 89.8736C190.012 89.9436 189.207 89.9786 188.227 89.9786L188.122 89.7686C188.122 89.4186 188.297 89.0686 188.647 88.7186C188.997 88.2986 189.557 88.0186 190.327 87.8786C192.287 87.5286 193.687 87.1786 194.527 86.8286C195.437 86.4786 196.067 85.8836 196.417 85.0436C196.837 84.2036 196.977 82.9436 196.837 81.2636L196.207 69.3986C196.067 69.1186 195.822 68.9436 195.472 68.8736C195.192 68.7336 194.737 68.6636 194.107 68.6636C190.537 68.5936 185.812 68.5586 179.932 68.5586H165.757C165.197 68.5586 164.742 68.6286 164.392 68.7686C164.042 68.8386 163.692 69.0486 163.342 69.3986L154.417 82.1036C153.507 83.2936 153.052 84.2736 153.052 85.0436C153.052 85.8136 153.507 86.4086 154.417 86.8286C155.397 87.1786 156.902 87.5286 158.932 87.8786C159.632 88.0186 160.157 88.2636 160.507 88.6136C160.857 88.8936 161.067 89.2086 161.137 89.5586C161.207 89.8386 161.207 89.9786 161.137 89.9786C160.087 89.9786 159.247 89.9436 158.617 89.8736L155.887 89.7686H146.962C146.472 89.7686 145.947 89.8036 145.387 89.8736C144.757 89.9436 144.197 89.9786 143.707 89.9786V89.7686C143.707 89.4186 143.812 89.0686 144.022 88.7186C144.162 88.2986 144.477 88.0186 144.967 87.8786C146.577 87.3886 147.767 86.8286 148.537 86.1986C149.237 85.5686 150.322 84.2036 151.792 82.1036L192.217 24.4586C192.987 23.3386 193.442 22.3586 193.582 21.5186L193.477 19.4186C193.407 18.9286 193.302 18.6136 193.162 18.4736C193.092 18.2636 192.917 18.0886 192.637 17.9486C192.217 17.7386 192.007 17.4936 192.007 17.2136C192.007 16.9336 192.112 16.7236 192.322 16.5836C192.532 16.3736 192.707 16.2686 192.847 16.2686H197.257C198.657 16.2686 199.567 16.4436 199.987 16.7936C200.407 17.1436 200.652 17.8436 200.722 18.8936L204.292 81.3686C204.362 83.6786 204.677 85.2186 205.237 85.9886C205.797 86.7586 206.952 87.3886 208.702 87.8786ZM194.317 66.2486C195.227 66.2486 195.787 65.9686 195.997 65.4086L193.792 25.7186L166.177 65.1986L166.072 65.5136C166.072 66.0036 166.387 66.2486 167.017 66.2486H194.317Z" fill="white"/>
<path d="M279.518 89.7686H259.463L245.498 64.1486L241.088 71.4986V89.7686H224.078V19.7336H241.088V49.3436L258.413 19.7336H278.153L256.208 52.4936L279.518 89.7686Z" fill="white"/>
<path d="M307.517 24.2461V52.5469H308.901C313.31 52.5469 316.506 51.1626 318.488 48.394C320.471 45.6255 321.735 41.541 322.282 36.1406H324.231V72.542H322.282C321.872 68.5772 321.001 65.3301 319.668 62.8008C318.369 60.2715 316.848 58.5796 315.105 57.7251C313.361 56.8364 310.832 56.3921 307.517 56.3921V75.9771C307.517 79.8052 307.67 82.1465 307.978 83.001C308.32 83.8555 308.935 84.5562 309.824 85.103C310.712 85.6499 312.148 85.9233 314.13 85.9233H318.283C324.777 85.9233 329.973 84.4194 333.869 81.4116C337.8 78.4038 340.62 73.8237 342.329 67.6714H344.226L341.098 89.7686H281.01V87.8716H283.317C285.334 87.8716 286.958 87.5127 288.188 86.7949C289.077 86.3164 289.76 85.4961 290.239 84.334C290.615 83.5137 290.803 81.3604 290.803 77.874V32.1416C290.803 28.9971 290.717 27.0659 290.546 26.3481C290.205 25.1519 289.572 24.229 288.649 23.5796C287.351 22.6226 285.573 22.144 283.317 22.144H281.01V20.2471H339.201V40.8062H337.253C336.262 35.7817 334.86 32.1758 333.049 29.9883C331.272 27.8008 328.742 26.1943 325.461 25.169C323.547 24.5537 319.958 24.2461 314.694 24.2461H307.517Z" fill="white"/>
<path d="M436.302 89.7686H417.927L415.302 79.0586H395.457L392.832 89.7686H374.457L395.142 19.7336H415.617L436.302 89.7686ZM411.942 64.2536L405.432 37.3736L398.817 64.2536H411.942Z" fill="white"/>
<path d="M461.735 20.2471L496.035 63.3647V33.4746C496.035 29.3047 495.437 26.4849 494.24 25.0151C492.6 23.0327 489.848 22.0757 485.986 22.144V20.2471H508.955V22.144C506.015 22.52 504.033 23.0156 503.007 23.6309C502.016 24.2119 501.23 25.186 500.649 26.5532C500.102 27.8862 499.829 30.1934 499.829 33.4746V91.3579H498.086L451.071 33.4746V77.6689C451.071 81.668 451.977 84.3682 453.789 85.7695C455.634 87.1709 457.736 87.8716 460.095 87.8716H461.735V89.7686H437.075V87.8716C440.903 87.8374 443.569 87.0513 445.073 85.5132C446.577 83.9751 447.329 81.3604 447.329 77.6689V28.604L445.842 26.7583C444.372 24.9126 443.073 23.6992 441.945 23.1182C440.817 22.5371 439.194 22.2124 437.075 22.144V20.2471H461.735Z" fill="white"/>
<path d="M549.267 89.7686H532.257V61.3136L510.627 19.7336H529.212L540.762 45.7736L552.207 19.7336H570.792L549.267 61.3136V89.7686Z" fill="white"/>
<path d="M43.4113 181.029C35.1513 181.029 28.5363 177.669 23.5663 170.949C18.6663 164.159 16.2163 155.444 16.2163 144.804C16.2163 134.164 18.6663 125.484 23.5663 118.764C28.5363 111.974 35.1513 108.579 43.4113 108.579C52.3013 108.579 59.1263 113.129 63.8863 122.229L56.9563 125.484C53.8063 119.184 49.2913 116.034 43.4113 116.034C37.8113 116.034 33.2963 118.729 29.8663 124.119C26.5063 129.509 24.8263 136.404 24.8263 144.804C24.8263 153.204 26.5063 160.099 29.8663 165.489C33.2963 170.879 37.8113 173.574 43.4113 173.574C49.5013 173.574 54.0513 170.109 57.0613 163.179L64.0963 166.434C59.2663 176.164 52.3713 181.029 43.4113 181.029Z" fill="white"/>
<path d="M100.343 181.029C91.8726 181.029 85.1526 178.719 80.1826 174.099C75.2826 169.479 72.8326 163.074 72.8326 154.884V109.734H89.9476V154.989C89.9476 158.559 90.8226 161.324 92.5726 163.284C94.3926 165.174 96.9826 166.119 100.343 166.119C103.633 166.119 106.153 165.139 107.903 163.179C109.723 161.219 110.633 158.489 110.633 154.989V109.734H127.748V154.884C127.748 163.074 125.263 169.479 120.293 174.099C115.393 178.719 108.743 181.029 100.343 181.029Z" fill="white"/>
<path d="M159.658 181.029C149.088 181.029 140.653 177.984 134.353 171.894L142.438 158.874C147.058 163.844 152.763 166.329 159.553 166.329C162.003 166.329 163.928 165.769 165.328 164.649C166.798 163.529 167.533 162.094 167.533 160.344C167.533 158.804 166.763 157.474 165.223 156.354C163.683 155.164 161.758 154.219 159.448 153.519C157.138 152.749 154.653 151.769 151.993 150.579C149.333 149.389 146.848 148.059 144.538 146.589C142.228 145.119 140.303 142.984 138.763 140.184C137.223 137.314 136.453 133.954 136.453 130.104C136.453 124.154 138.658 119.079 143.068 114.879C147.478 110.679 153.463 108.579 161.023 108.579C170.053 108.579 177.543 111.239 183.493 116.559L175.618 129.159C171.488 125.309 166.413 123.384 160.393 123.384C158.293 123.384 156.648 123.874 155.458 124.854C154.338 125.834 153.778 127.129 153.778 128.739C153.778 130.139 154.548 131.399 156.088 132.519C157.628 133.639 159.518 134.584 161.758 135.354C164.068 136.124 166.553 137.139 169.213 138.399C171.943 139.659 174.428 141.024 176.668 142.494C178.978 143.964 180.903 146.099 182.443 148.899C183.983 151.699 184.753 154.954 184.753 158.664C184.753 165.454 182.513 170.879 178.033 174.939C173.623 178.999 167.498 181.029 159.658 181.029Z" fill="white"/>
<path d="M219.518 179.769H202.508V124.539H187.493V109.734H234.428V124.539H219.518V179.769Z" fill="white"/>
<path d="M287.38 170.844C282.69 177.634 276.215 181.029 267.955 181.029C259.695 181.029 253.22 177.634 248.53 170.844C243.84 163.984 241.495 155.304 241.495 144.804C241.495 134.304 243.84 125.659 248.53 118.869C253.22 112.009 259.695 108.579 267.955 108.579C276.215 108.579 282.69 112.009 287.38 118.869C292.14 125.659 294.52 134.304 294.52 144.804C294.52 155.304 292.14 163.984 287.38 170.844ZM254.83 165.489C257.98 170.879 262.355 173.574 267.955 173.574C273.555 173.574 277.93 170.879 281.08 165.489C284.3 160.029 285.91 153.134 285.91 144.804C285.91 136.404 284.335 129.509 281.185 124.119C278.035 118.729 273.625 116.034 267.955 116.034C262.355 116.034 257.98 118.729 254.83 124.119C251.68 129.509 250.105 136.404 250.105 144.804C250.105 153.134 251.68 160.029 254.83 165.489Z" fill="white"/>
<path d="M373.756 179.769H356.851V138.189L342.676 179.769H336.061L321.991 138.189V179.769H304.981V109.734H327.556L339.421 144.699L351.391 109.734H373.756V179.769Z" fill="white"/>
<path d="M468.022 179.769H450.487L442.612 137.454L434.842 179.769H417.307L401.137 109.734H419.302L427.072 154.359L436.207 109.734H449.227L458.257 154.359L466.027 109.734H484.192L468.022 179.769Z" fill="white"/>
<path d="M506.869 179.769H489.859V109.734H506.869V179.769Z" fill="white"/>
<path d="M546.515 179.769H529.505V124.539H514.49V109.734H561.425V124.539H546.515V179.769Z" fill="white"/>
<path d="M623.512 179.769H606.502V151.209H586.132V179.769H569.122V109.734H586.132V136.299H606.502V109.734H623.512V179.769Z" fill="white"/>
<path d="M183.052 260.949C177.522 267.669 170.102 271.029 160.792 271.029C151.482 271.029 144.062 267.669 138.532 260.949C133.002 254.229 130.237 245.514 130.237 234.804C130.237 224.094 133.002 215.379 138.532 208.659C144.062 201.939 151.482 198.579 160.792 198.579C170.102 198.579 177.522 201.939 183.052 208.659C188.582 215.379 191.347 224.094 191.347 234.804C191.347 245.514 188.582 254.229 183.052 260.949ZM160.792 256.014C164.992 256.014 168.247 254.054 170.557 250.134C172.937 246.144 174.127 241.034 174.127 234.804C174.127 228.504 172.937 223.394 170.557 219.474C168.247 215.554 164.992 213.594 160.792 213.594C156.662 213.594 153.407 215.554 151.027 219.474C148.717 223.394 147.562 228.504 147.562 234.804C147.562 241.034 148.717 246.144 151.027 250.134C153.407 254.054 156.662 256.014 160.792 256.014Z" fill="white"/>
<path d="M221.252 271.029C214.812 271.029 209.702 269.349 205.922 265.989C202.142 262.559 200.252 257.904 200.252 252.024C200.252 250.204 200.427 248.524 200.777 246.984L211.172 199.734H219.572L209.072 247.194C208.792 249.154 208.652 250.519 208.652 251.289C208.652 255.069 209.807 258.079 212.117 260.319C214.427 262.559 217.577 263.679 221.567 263.679C225.837 263.679 229.197 262.349 231.647 259.689C234.167 256.959 236.057 252.794 237.317 247.194L247.817 199.734H256.112L245.717 247.089C243.897 255.069 241.062 261.054 237.212 265.044C233.362 269.034 228.042 271.029 221.252 271.029Z" fill="white"/>
<path d="M310.852 269.769H291.952L282.712 245.724H276.412V269.769H259.402V199.734H287.962C294.682 199.734 300.072 201.904 304.132 206.244C308.262 210.514 310.327 215.939 310.327 222.519C310.327 227.909 309.207 232.284 306.967 235.644C304.797 238.934 302.137 241.279 298.987 242.679L310.852 269.769ZM285.337 230.919C287.647 230.919 289.502 230.184 290.902 228.714C292.372 227.244 293.107 225.249 293.107 222.729C293.107 220.209 292.372 218.214 290.902 216.744C289.502 215.274 287.647 214.539 285.337 214.539H276.412V230.919H285.337Z" fill="white"/>
<path d="M396.876 269.769H378.501L375.876 259.059H356.031L353.406 269.769H335.031L355.716 199.734H376.191L396.876 269.769ZM372.516 244.254L366.006 217.374L359.391 244.254H372.516Z" fill="white"/>
<path d="M418.737 269.769H401.727V199.734H429.867C437.147 199.734 442.747 201.939 446.667 206.349C450.657 210.759 452.652 216.254 452.652 222.834C452.652 229.344 450.657 234.804 446.667 239.214C442.747 243.554 437.147 245.724 429.867 245.724H418.737V269.769ZM427.767 230.919C430.077 230.919 431.932 230.184 433.332 228.714C434.732 227.244 435.432 225.249 435.432 222.729C435.432 220.209 434.732 218.214 433.332 216.744C431.932 215.274 430.077 214.539 427.767 214.539H418.737V230.919H427.767Z" fill="white"/>
<path d="M477.081 269.769H460.071V199.734H488.211C495.491 199.734 501.091 201.939 505.011 206.349C509.001 210.759 510.996 216.254 510.996 222.834C510.996 229.344 509.001 234.804 505.011 239.214C501.091 243.554 495.491 245.724 488.211 245.724H477.081V269.769ZM486.111 230.919C488.421 230.919 490.276 230.184 491.676 228.714C493.076 227.244 493.776 225.249 493.776 222.729C493.776 220.209 493.076 218.214 491.676 216.744C490.276 215.274 488.421 214.539 486.111 214.539H477.081V230.919H486.111Z" fill="white"/>
<path fill-rule="evenodd" clip-rule="evenodd" d="M143.707 89.7686V89.9786C144.064 89.9786 144.458 89.96 144.889 89.9229C144.987 89.9144 145.087 89.905 145.189 89.8946C145.254 89.888 145.32 89.881 145.387 89.8736C145.435 89.8675 145.484 89.8617 145.532 89.8561C145.544 89.8548 145.556 89.8534 145.567 89.8521C145.666 89.8409 145.764 89.8308 145.861 89.8219C146.246 89.7863 146.613 89.7686 146.962 89.7686H155.887L158.617 89.8736C158.793 89.8932 158.987 89.9101 159.196 89.9242C159.224 89.9261 159.253 89.9279 159.281 89.9297C159.335 89.9331 159.39 89.9363 159.446 89.9393C159.492 89.9418 159.538 89.9441 159.586 89.9464C159.625 89.9482 159.665 89.95 159.706 89.9517C159.706 89.9518 159.706 89.9518 159.707 89.9518C160.063 89.9668 160.456 89.9755 160.888 89.9779C160.969 89.9783 161.052 89.9786 161.137 89.9786C161.207 89.9786 161.207 89.8386 161.137 89.5586C161.098 89.3633 161.015 89.1789 160.889 89.0054C160.789 88.8679 160.662 88.7373 160.507 88.6136C160.157 88.2636 159.632 88.0186 158.932 87.8786C158.901 87.8733 158.871 87.868 158.84 87.8627C158.792 87.8542 158.743 87.8458 158.695 87.8373C157.644 87.6524 156.74 87.4675 155.982 87.2825C155.95 87.2747 155.918 87.2669 155.887 87.259C155.309 87.1155 154.819 86.972 154.417 86.8286C153.507 86.4086 153.052 85.8136 153.052 85.0436C153.052 84.5636 153.229 84.0021 153.582 83.359C153.582 83.3585 153.583 83.3579 153.583 83.3574C153.797 82.9692 154.074 82.5512 154.417 82.1036L163.342 69.3986C163.692 69.0486 164.042 68.8386 164.392 68.7686C164.742 68.6286 165.197 68.5586 165.757 68.5586H179.932C180.235 68.5586 180.535 68.5587 180.833 68.5588C181.698 68.5594 182.536 68.5607 183.349 68.5628C184.831 68.5667 186.226 68.5732 187.535 68.5823C190.043 68.5997 192.234 68.6268 194.107 68.6636C194.179 68.6636 194.249 68.6645 194.317 68.6663C194.839 68.6805 195.224 68.7496 195.472 68.8736C195.822 68.9436 196.067 69.1186 196.207 69.3986L196.837 81.2636C196.846 81.3755 196.854 81.4855 196.861 81.5937C196.865 81.6607 196.869 81.727 196.872 81.7925C196.877 81.8815 196.88 81.9691 196.883 82.0554C196.923 83.3451 196.768 84.3412 196.417 85.0436C196.288 85.3526 196.121 85.6285 195.917 85.8712C195.717 86.1086 195.48 86.3142 195.208 86.4881C195.002 86.6196 194.775 86.7329 194.528 86.8282C194.527 86.8283 194.527 86.8284 194.527 86.8286C194.45 86.8605 194.369 86.8925 194.283 86.9244C193.996 87.0309 193.657 87.1375 193.267 87.244C193.234 87.253 193.201 87.262 193.167 87.2709C193.132 87.2802 193.097 87.2894 193.062 87.2987C192.375 87.4779 191.541 87.6571 190.56 87.8364C190.513 87.845 190.466 87.8536 190.418 87.8621C190.388 87.8676 190.357 87.8731 190.327 87.8786C189.829 87.969 189.419 88.118 189.097 88.3254C188.921 88.4389 188.771 88.57 188.647 88.7186C188.453 88.912 188.313 89.1055 188.227 89.299C188.157 89.4555 188.122 89.612 188.122 89.7686L188.227 89.9786C188.713 89.9786 189.156 89.97 189.555 89.9527C189.662 89.9482 189.765 89.943 189.865 89.9372C189.943 89.9327 190.018 89.9279 190.092 89.9227C190.288 89.9089 190.471 89.8925 190.642 89.8736L193.267 89.7686H206.812C207.086 89.7686 207.371 89.7795 207.667 89.8014C207.736 89.8066 207.806 89.8123 207.877 89.8186C207.925 89.8229 207.973 89.8275 208.022 89.8324C208.031 89.8333 208.04 89.8343 208.05 89.8352C208.059 89.8362 208.068 89.8371 208.078 89.8381C208.102 89.8407 208.127 89.8432 208.151 89.8459C208.206 89.8519 208.261 89.8582 208.316 89.8649C208.34 89.8677 208.363 89.8706 208.387 89.8736C209.017 89.9436 209.542 89.9786 209.962 89.9786C210 89.9402 210.018 89.8702 210.014 89.7686C210.011 89.685 209.993 89.58 209.962 89.4536C209.962 89.1736 209.857 88.8936 209.647 88.6136C209.437 88.2636 209.122 88.0186 208.702 87.8786C208.681 87.8726 208.659 87.8667 208.638 87.8607C208.629 87.8581 208.62 87.8555 208.611 87.853C208.427 87.8001 208.249 87.7457 208.078 87.6897C207.856 87.6171 207.646 87.5419 207.447 87.4639C207.221 87.3751 207.009 87.2829 206.812 87.1871C206.087 86.8347 205.562 86.4352 205.237 85.9886C205.014 85.6816 204.829 85.2524 204.684 84.7007C204.465 83.8685 204.334 82.7578 204.292 81.3686L200.722 18.8936C200.71 18.7159 200.693 18.5483 200.671 18.3908C200.603 17.902 200.488 17.5096 200.323 17.2136C200.228 17.0407 200.115 16.9007 199.987 16.7936C199.815 16.6505 199.562 16.5367 199.226 16.4521C198.741 16.3297 198.085 16.2686 197.257 16.2686H192.847C192.707 16.2686 192.532 16.3736 192.322 16.5836C192.112 16.7236 192.007 16.9336 192.007 17.2136C192.007 17.4936 192.217 17.7386 192.637 17.9486C192.715 17.9877 192.785 18.0295 192.847 18.074C193.006 18.189 193.111 18.3222 193.162 18.4736C193.291 18.6028 193.39 18.8811 193.46 19.3085C193.464 19.3309 193.467 19.3537 193.471 19.377C193.473 19.3907 193.475 19.4046 193.477 19.4186L193.582 21.5186C193.486 22.0959 193.241 22.7393 192.847 23.4488C192.668 23.7717 192.458 24.1083 192.217 24.4586L151.792 82.1036C150.928 83.3372 150.198 84.3172 149.6 85.0436C149.18 85.5537 148.826 85.9387 148.537 86.1986C148.129 86.5319 147.604 86.8456 146.962 87.1398C146.483 87.3588 145.94 87.5669 145.331 87.7641C145.274 87.7826 145.217 87.801 145.159 87.8193C145.149 87.8221 145.14 87.825 145.131 87.8279C145.077 87.8448 145.022 87.8617 144.967 87.8786C144.94 87.8861 144.914 87.8941 144.889 87.9025V19.7336H122.524L110.554 54.6986L98.6889 19.7336H76.1139V89.7686H93.1239V48.1886L107.194 89.7686H113.809L127.984 48.1886V89.7686H143.707ZM62.0652 97.4321C60.8211 95.1563 60.1139 92.545 60.1139 89.7686V19.7336C60.1139 10.897 67.2773 3.73355 76.1139 3.73355H98.6889C103.337 3.73355 107.634 5.74087 110.606 9.05668C113.579 5.74043 117.877 3.73355 122.524 3.73355H144.889C153.725 3.73355 160.889 10.897 160.889 19.7336V41.2647L176.152 19.5003C176.058 18.7735 176.007 18.0116 176.007 17.2136C176.007 12.7615 177.821 7.82988 181.988 4.35891C182.611 3.82189 183.409 3.2094 184.378 2.62751C185.884 1.72433 188.843 0.268555 192.847 0.268555H197.257C198.513 0.268555 200.194 0.338251 202.011 0.687702C203.503 0.974676 206.962 1.77912 210.23 4.502C211.501 5.56143 212.519 6.70939 213.336 7.8753C216.176 5.30156 219.944 3.73355 224.078 3.73355H241.088C244.281 3.73355 247.255 4.66877 249.752 6.28021C252.293 4.6447 255.288 3.73355 258.413 3.73355H278.153C279.529 3.73355 280.879 3.9102 282.176 4.24708H339.201C348.038 4.24708 355.201 11.4105 355.201 20.2471V40.8062C355.201 45.5324 353.152 49.78 349.894 52.709C352.341 53.6361 354.552 55.1599 356.306 57.1803C359.345 60.6796 360.717 65.3246 360.068 69.9135L356.94 92.0107C356.857 92.5967 356.743 93.1715 356.6 93.7336H358.956C358.251 90.9747 358.285 88.04 359.113 85.2365L379.798 15.2015C381.806 8.40086 388.051 3.73355 395.142 3.73355H415.617C419.821 3.73355 423.727 5.37372 426.63 8.12617C429.433 5.7088 433.083 4.24708 437.075 4.24708H461.735C466.404 4.24708 470.828 6.28516 473.861 9.80758C476.795 6.40267 481.139 4.24708 485.986 4.24708H506.604C507.902 3.90997 509.252 3.73355 510.627 3.73355H529.212C533.624 3.73355 537.748 5.54687 540.709 8.60593C543.671 5.54737 547.794 3.73355 552.207 3.73355H570.792C576.377 3.73355 581.558 6.64604 584.461 11.4176C587.364 16.1892 587.569 22.1292 585.001 27.0892L565.267 65.2094V89.7686C565.267 91.2571 565.064 92.6982 564.683 94.0656C564.881 94.1066 565.078 94.1512 565.273 94.1994C566.506 93.895 567.795 93.7336 569.122 93.7336H586.132C590.001 93.7336 593.55 95.1072 596.317 97.3934C599.084 95.1072 602.632 93.7336 606.502 93.7336H623.512C632.348 93.7336 639.512 100.897 639.512 109.734V179.769C639.512 188.605 632.348 195.769 623.512 195.769H606.502C602.632 195.769 599.084 194.395 596.317 192.109C593.55 194.395 590.001 195.769 586.132 195.769H569.122C564.709 195.769 560.713 193.982 557.818 191.092C554.924 193.982 550.928 195.769 546.515 195.769H529.505C525.084 195.769 521.083 193.976 518.187 191.078C517.214 192.051 516.117 192.9 514.921 193.598C515.607 194.251 516.275 194.94 516.923 195.666C523.833 203.33 526.996 212.766 526.996 222.834C526.996 232.904 523.789 242.308 516.876 249.948C510.387 257.127 501.952 260.588 493.081 261.483V269.769C493.081 278.605 485.918 285.769 477.081 285.769H460.071C451.235 285.769 444.071 278.605 444.071 269.769V259.467C441.063 260.507 437.928 261.161 434.737 261.483V269.769C434.737 278.605 427.573 285.769 418.737 285.769H401.727C400.9 285.769 400.088 285.706 399.295 285.585C398.5 285.706 397.692 285.769 396.876 285.769H378.501C373.489 285.769 368.917 283.44 365.954 279.698C362.99 283.44 358.419 285.769 353.406 285.769H335.031C330.374 285.769 325.968 283.741 322.942 280.25C319.927 283.728 315.526 285.769 310.852 285.769H291.952C289.172 285.769 286.512 285.049 284.185 283.757C281.884 285.038 279.233 285.769 276.412 285.769H259.402C253.842 285.769 248.945 282.932 246.077 278.628C238.963 284.607 230.196 287.029 221.252 287.029C211.998 287.029 202.733 284.561 195.292 277.947C195.252 277.911 195.211 277.874 195.17 277.838C194.068 276.837 193.056 275.788 192.131 274.697C183.705 282.979 172.874 287.029 160.792 287.029C147.081 287.029 134.981 281.814 126.177 271.115C117.785 260.917 114.237 248.34 114.237 234.804C114.237 221.268 117.785 208.691 126.177 198.492C128.52 195.645 131.096 193.186 133.874 191.111C132.1 190.176 130.379 189.124 128.718 187.949C120.587 194.402 110.66 197.029 100.343 197.029C89.0291 197.029 78.1933 193.911 69.6277 186.129C68.0698 187.699 66.3736 189.15 64.5269 190.453C58.2091 194.911 50.9785 197.029 43.4113 197.029C30.0065 197.029 18.6469 191.205 10.7023 180.463C10.6652 180.412 10.6284 180.362 10.5919 180.312C3.24999 170.138 0.216309 157.89 0.216309 144.804C0.216309 131.726 3.24672 119.474 10.6382 109.337L10.6554 109.313C18.5719 98.4977 29.9376 92.5786 43.4113 92.5786C49.9656 92.5786 56.3162 94.1189 62.0652 97.4321ZM72.8326 154.884C72.8326 162.275 74.8283 168.213 78.8196 172.697C79.2507 173.181 79.705 173.648 80.1826 174.099C81.3415 175.176 82.5954 176.127 83.9445 176.953C88.3814 179.67 93.8475 181.029 100.343 181.029C106.535 181.029 111.776 179.773 116.066 177.263C117.006 176.713 117.9 176.103 118.749 175.432C119.281 175.011 119.796 174.567 120.293 174.099C122.61 171.945 124.387 169.403 125.623 166.473C127.04 163.118 127.748 159.255 127.748 154.884V109.734H110.633V154.989C110.633 158.489 109.723 161.219 107.903 163.179C107.696 163.41 107.479 163.627 107.252 163.831C105.548 165.356 103.245 166.119 100.343 166.119C97.2251 166.119 94.7704 165.305 92.9786 163.678C92.8393 163.551 92.704 163.42 92.5726 163.284C90.8226 161.324 89.9476 158.559 89.9476 154.989V109.734H72.8326V154.884ZM56.8326 141.486V147.18C54.9816 147.207 53.1315 147.554 51.3674 148.226C47.6579 149.639 44.6176 152.374 42.8196 155.886C41.7312 153.634 40.8263 150.154 40.8263 144.804C40.8263 139.137 41.8413 135.568 43.0143 133.334C45.8968 138.462 51.2513 141.439 56.8326 141.486ZM56.8326 125.239C56.8741 125.32 56.9153 125.402 56.9563 125.484L63.8863 122.229C63.8572 122.173 63.8281 122.118 63.7988 122.062C61.8273 118.336 59.5052 115.382 56.8326 113.2C55.2927 111.943 53.6364 110.943 51.8638 110.198C49.2913 109.119 46.4739 108.579 43.4113 108.579C35.1513 108.579 28.5363 111.974 23.5663 118.764C23.3433 119.069 23.1253 119.379 22.9124 119.693C22.8981 119.715 22.8838 119.736 22.8695 119.757C18.434 126.332 16.2163 134.68 16.2163 144.804C16.2163 154.893 18.4191 163.251 22.8247 169.878C22.839 169.9 22.8532 169.921 22.8675 169.942C23.0946 170.282 23.3276 170.618 23.5663 170.949C28.5363 177.669 35.1513 181.029 43.4113 181.029C46.8648 181.029 50.0115 180.306 52.8514 178.86C55.5789 177.472 58.0235 175.417 60.1851 172.696C61.6122 170.899 62.9159 168.811 64.0963 166.434L57.0613 163.179C56.8732 163.612 56.6791 164.031 56.479 164.437C53.4766 170.528 49.1207 173.574 43.4113 173.574C38.0302 173.574 33.651 171.085 30.2735 166.108C30.2554 166.082 30.2374 166.055 30.2193 166.028C30.1004 165.851 29.9827 165.672 29.8663 165.489C26.5063 160.099 24.8263 153.204 24.8263 144.804C24.8263 136.404 26.5063 129.509 29.8663 124.119C29.9748 123.948 30.0843 123.78 30.1949 123.615C30.1977 123.611 30.2004 123.607 30.2032 123.603C33.5901 118.557 37.9928 116.034 43.4113 116.034C49.2148 116.034 53.6886 119.102 56.8326 125.239ZM140.6 142.979C141.545 144.182 142.594 145.205 143.748 146.049C144.006 146.238 144.269 146.418 144.538 146.589C146.724 147.98 149.068 149.246 151.568 150.387C151.709 150.451 151.851 150.515 151.993 150.579C153.185 151.112 154.341 151.603 155.463 152.052C155.463 152.052 155.463 152.052 155.463 152.052C155.463 152.052 155.464 152.052 155.464 152.052C155.592 152.103 155.719 152.154 155.846 152.204C157.091 152.695 158.291 153.133 159.448 153.519C159.483 153.529 159.518 153.54 159.553 153.551C161.816 154.247 163.706 155.182 165.223 156.354C166.763 157.474 167.533 158.804 167.533 160.344C167.533 161.705 167.088 162.875 166.199 163.855C165.945 164.135 165.654 164.4 165.328 164.649C163.948 165.753 162.058 166.312 159.658 166.328C159.623 166.328 159.588 166.329 159.553 166.329C159.029 166.329 158.511 166.314 158.001 166.284C157.857 166.276 157.714 166.266 157.571 166.256C156.922 166.207 156.283 166.134 155.654 166.037C155.534 166.019 155.414 165.999 155.294 165.979C154.547 165.852 153.814 165.69 153.097 165.493C152.954 165.453 152.811 165.413 152.669 165.37C150.525 164.735 148.52 163.784 146.652 162.517C146.012 162.083 145.389 161.612 144.782 161.105C144.348 160.742 143.923 160.36 143.506 159.96C143.144 159.612 142.788 159.25 142.438 158.874L134.353 171.894C135.792 173.285 137.342 174.517 139.004 175.59C140.967 176.858 143.086 177.905 145.361 178.729C146.332 179.081 147.333 179.393 148.361 179.665C151.778 180.566 155.509 181.021 159.553 181.028C159.588 181.029 159.623 181.029 159.658 181.029C165.811 181.029 170.909 179.778 174.949 177.277C175.056 177.21 175.163 177.143 175.269 177.075C175.535 176.903 175.797 176.725 176.054 176.542C176.748 176.049 177.408 175.514 178.033 174.939C182.513 170.879 184.753 165.454 184.753 158.664C184.753 154.954 183.983 151.699 182.443 148.899C181.552 147.28 180.533 145.883 179.385 144.709C178.548 143.852 177.642 143.114 176.668 142.494C174.428 141.024 171.943 139.659 169.213 138.399C168.691 138.152 168.177 137.914 167.669 137.686C166.804 137.298 165.959 136.936 165.134 136.603C163.97 136.132 162.844 135.716 161.758 135.354C161.287 135.192 160.832 135.022 160.393 134.845C158.739 134.179 157.304 133.403 156.088 132.519C154.548 131.399 153.778 130.139 153.778 128.739C153.778 127.801 153.968 126.97 154.348 126.246C154.62 125.727 154.99 125.263 155.458 124.854C156.648 123.874 158.293 123.384 160.393 123.384C160.604 123.384 160.814 123.386 161.023 123.391C161.578 123.403 162.124 123.433 162.662 123.479C163.661 123.564 164.631 123.707 165.573 123.907C165.61 123.915 165.647 123.923 165.684 123.931C166.705 124.154 167.693 124.444 168.648 124.802C168.834 124.872 169.019 124.945 169.202 125.02C170.018 125.353 170.809 125.738 171.575 126.173C172.297 126.583 172.997 127.039 173.674 127.54C173.811 127.641 173.947 127.744 174.082 127.849C174.113 127.873 174.144 127.898 174.175 127.922C174.668 128.31 175.149 128.722 175.618 129.159L183.493 116.559C180.863 114.207 177.932 112.375 174.7 111.063C173.662 110.642 172.593 110.274 171.493 109.96C170.716 109.738 169.923 109.542 169.115 109.374C166.571 108.844 163.874 108.579 161.023 108.579C160.812 108.579 160.602 108.58 160.393 108.583C154.456 108.677 149.513 110.096 145.565 112.841C145.437 112.93 145.31 113.02 145.184 113.112C144.689 113.473 144.21 113.855 143.748 114.259C143.517 114.46 143.29 114.667 143.068 114.879C142.67 115.258 142.29 115.644 141.928 116.037C138.278 120.002 136.453 124.69 136.453 130.104C136.453 133.954 137.223 137.314 138.763 140.184C139.324 141.204 139.936 142.136 140.6 142.979ZM187.493 109.734V124.539H202.508V179.769H219.518V124.539H234.428V109.734H187.493ZM235.513 180.15C236.929 182.176 238.47 184.028 240.125 185.703C237.417 187.189 235.168 189.443 233.694 192.211C233.228 191.338 232.679 190.502 232.049 189.717C234.147 187.079 235.429 183.763 235.513 180.15ZM196.078 194.424C192.749 192.962 190.014 190.398 188.332 187.195C187.39 188.029 186.418 188.802 185.422 189.517C188.972 191.818 192.229 194.697 195.135 198.165L195.546 196.296C195.687 195.655 195.865 195.031 196.078 194.424ZM190.466 244.64C191.053 241.573 191.347 238.294 191.347 234.804C191.347 230.245 190.846 226.048 189.844 222.212C188.492 217.036 186.228 212.518 183.052 208.659C181.676 206.986 180.183 205.522 178.572 204.266C173.712 200.474 167.785 198.579 160.792 198.579C153.984 198.579 148.186 200.375 143.4 203.969C141.641 205.289 140.018 206.853 138.532 208.659C133.002 215.379 130.237 224.094 130.237 234.804C130.237 245.514 133.002 254.229 138.532 260.949C140.018 262.754 141.641 264.318 143.4 265.638C148.186 269.232 153.984 271.029 160.792 271.029C167.785 271.029 173.712 269.133 178.572 265.341C180.183 264.085 181.676 262.621 183.052 260.949C183.666 260.202 184.247 259.43 184.793 258.634C186.194 256.593 187.37 254.389 188.322 252.024C189.242 249.738 189.952 247.3 190.452 244.712C190.456 244.688 190.461 244.664 190.466 244.64ZM168.35 216.598C166.313 214.595 163.794 213.594 160.792 213.594C157.892 213.594 155.424 214.56 153.387 216.492C152.523 217.312 151.736 218.306 151.027 219.474C148.717 223.394 147.562 228.504 147.562 234.804C147.562 241.034 148.717 246.144 151.027 250.134C151.736 251.302 152.523 252.295 153.387 253.115C155.424 255.048 157.892 256.014 160.792 256.014C163.794 256.014 166.313 255.012 168.35 253.009C169.162 252.21 169.898 251.252 170.557 250.134C172.937 246.144 174.127 241.034 174.127 234.804C174.127 228.504 172.937 223.394 170.557 219.474C169.898 218.355 169.162 217.397 168.35 216.598ZM259.402 269.769H276.412V245.724H282.712L291.952 269.769H310.852L298.987 242.679C299.094 242.631 299.2 242.583 299.306 242.533C302.317 241.119 304.871 238.822 306.967 235.644C309.207 232.284 310.327 227.909 310.327 222.519C310.327 215.939 308.262 210.514 304.132 206.244C301.898 203.855 299.261 202.124 296.221 201.05C293.737 200.172 290.984 199.734 287.962 199.734H259.402V269.769ZM276.412 230.919H285.337C286.25 230.919 287.092 230.804 287.863 230.574C288.325 230.436 288.763 230.257 289.174 230.037C289.638 229.788 290.07 229.486 290.469 229.132C290.618 229 290.763 228.86 290.902 228.714C291.547 228.069 292.051 227.323 292.412 226.476C292.876 225.393 293.107 224.143 293.107 222.729C293.107 221.314 292.876 220.064 292.412 218.981C292.051 218.134 291.547 217.388 290.902 216.744C290.595 216.421 290.266 216.134 289.916 215.882C289.326 215.46 288.675 215.137 287.962 214.913C287.165 214.663 286.29 214.539 285.337 214.539H276.412V230.919ZM316.246 195.769C323.158 203.249 326.327 212.565 326.327 222.519C326.327 230.019 324.776 237.758 320.303 244.485C319.705 245.39 319.071 246.27 318.401 247.122L322.364 256.171L340.204 195.769H336.061C333.566 195.769 331.172 195.19 329.03 194.141C326.906 195.183 324.517 195.769 321.991 195.769H316.246ZM321.991 179.769V138.189L336.061 179.769H342.676L356.851 138.189V179.769H373.756V109.734H351.391L339.421 144.699L327.556 109.734H304.981V179.769H321.991ZM341.098 89.7686L344.226 67.6714H342.329C341.75 69.7561 341.043 71.6603 340.209 73.384C340.146 73.5132 340.083 73.6414 340.019 73.7686C338.418 76.9517 336.368 79.4994 333.869 81.4116C331.564 83.1912 328.804 84.4443 325.589 85.171C325.145 85.2714 324.692 85.3618 324.231 85.4421C323.597 85.5523 322.948 85.6435 322.282 85.7158C321.009 85.8542 319.676 85.9233 318.283 85.9233H314.13C313.912 85.9233 313.7 85.92 313.494 85.9134C311.838 85.8597 310.614 85.5896 309.824 85.103C308.935 84.5562 308.32 83.8555 307.978 83.001C307.755 82.3812 307.613 80.979 307.551 78.7946C307.528 77.9676 307.517 77.0284 307.517 75.9771V56.3921C307.759 56.3921 307.997 56.3945 308.231 56.3992C308.458 56.4038 308.681 56.4107 308.901 56.4198C311.545 56.5294 313.613 56.9645 315.105 57.7251C316.848 58.5796 318.369 60.2715 319.668 62.8008C320.198 63.8065 320.655 64.9257 321.039 66.1584C321.371 67.2234 321.648 68.3731 321.871 69.6075C322.039 70.5376 322.176 71.5158 322.282 72.542H324.231V36.1406H322.282C322.279 36.1762 322.275 36.2117 322.271 36.2471C322.17 37.2244 322.046 38.1583 321.897 39.0489C321.886 39.1166 321.875 39.1842 321.863 39.2515C321.678 40.3303 321.457 41.3445 321.201 42.2941C321.151 42.4804 321.099 42.6643 321.047 42.8456C320.398 45.0689 319.545 46.9184 318.488 48.394C316.506 51.1626 313.31 52.5469 308.901 52.5469H307.517V24.2461H314.694C317.811 24.2461 320.34 24.3539 322.282 24.5696C322.605 24.6054 322.911 24.6442 323.201 24.6859C323.309 24.7014 323.414 24.7172 323.517 24.7335C323.768 24.7732 324.006 24.8153 324.231 24.8598C324.698 24.9524 325.108 25.0554 325.461 25.1689C328.742 26.1943 331.272 27.8008 333.049 29.9883C334.24 31.4262 335.253 33.477 336.09 36.1406C336.101 36.176 336.112 36.2115 336.123 36.2471C336.256 36.6761 336.384 37.1208 336.509 37.5813C336.778 38.582 337.026 39.657 337.253 40.8062H339.201V20.2471H281.01V22.144H283.317C285.573 22.144 287.351 22.6226 288.649 23.5796C289.572 24.229 290.205 25.1519 290.546 26.3481C290.627 26.6848 290.688 27.2885 290.731 28.159C290.751 28.5861 290.768 29.0774 290.78 29.6329C290.795 30.3593 290.803 31.1955 290.803 32.1416V77.874C290.803 80.0533 290.729 81.7117 290.582 82.8493C290.494 83.5315 290.38 84.0264 290.239 84.334C289.76 85.4961 289.077 86.3164 288.188 86.7949C286.958 87.5127 285.334 87.8716 283.317 87.8716H281.01V89.7686H341.098ZM279.518 89.7686L256.208 52.4936L278.153 19.7336H258.413L241.088 49.3436V19.7336H224.078V89.7686H241.088V71.4986L245.498 64.1486L259.463 89.7686H279.518ZM248.53 118.869C248.273 119.24 248.024 119.617 247.781 119.999C246.871 121.434 246.06 122.947 245.348 124.539C243.47 128.735 242.278 133.474 241.773 138.757C241.587 140.699 241.495 142.714 241.495 144.804C241.495 154.676 243.568 162.939 247.714 169.594C247.722 169.607 247.73 169.62 247.738 169.633C247.994 170.043 248.258 170.446 248.53 170.844C253.22 177.634 259.695 181.029 267.955 181.029C276.215 181.029 282.69 177.634 287.38 170.844C287.648 170.457 287.909 170.064 288.162 169.666C288.168 169.656 288.174 169.647 288.18 169.638C288.456 169.203 288.723 168.761 288.981 168.312C292.673 161.887 294.52 154.051 294.52 144.804C294.52 135.556 292.673 127.747 288.981 121.377C288.718 120.924 288.446 120.478 288.165 120.039C287.911 119.643 287.649 119.253 287.38 118.869C282.69 112.009 276.215 108.579 267.955 108.579C260.757 108.579 254.915 111.183 250.428 116.392C249.765 117.161 249.133 117.986 248.53 118.869ZM281.08 165.489C284.3 160.029 285.91 153.134 285.91 144.804C285.91 136.404 284.335 129.509 281.185 124.119C281.058 123.902 280.929 123.69 280.799 123.482C280.782 123.455 280.765 123.429 280.748 123.402C277.632 118.49 273.368 116.034 267.955 116.034C262.59 116.034 258.35 118.506 255.234 123.452C255.227 123.463 255.22 123.474 255.213 123.485C255.083 123.692 254.956 123.903 254.83 124.119C251.68 129.509 250.105 136.404 250.105 144.804C250.105 153.134 251.68 160.029 254.83 165.489C254.97 165.729 255.114 165.965 255.259 166.195C255.266 166.206 255.273 166.217 255.28 166.228C258.392 171.125 262.617 173.574 267.955 173.574C273.304 173.574 277.536 171.114 280.65 166.195C280.653 166.19 280.656 166.185 280.659 166.18C280.802 165.955 280.942 165.724 281.08 165.489ZM267.971 156.057C269.055 153.66 269.91 150.09 269.91 144.804C269.91 139.371 269.051 135.778 268.007 133.438C266.963 135.778 266.105 139.371 266.105 144.804C266.105 150.05 266.923 153.631 267.971 156.057ZM387.328 188.246C388.867 185.788 389.756 182.882 389.756 179.769V131.561L401.717 183.368C401.746 183.49 401.775 183.612 401.806 183.734H401.727C396.512 183.734 391.88 186.228 388.959 190.089C388.462 189.431 387.916 188.815 387.328 188.246ZM401.727 269.769H418.737V245.724H429.867C433.117 245.724 436.032 245.291 438.613 244.426C440.639 243.747 442.458 242.801 444.071 241.589C445.006 240.886 445.871 240.095 446.667 239.214C450.657 234.804 452.652 229.344 452.652 222.834C452.652 216.254 450.657 210.759 446.667 206.349C445.871 205.453 445.006 204.649 444.071 203.935C442.493 202.73 440.717 201.784 438.744 201.097C436.131 200.188 433.172 199.734 429.867 199.734H401.727V269.769ZM418.737 230.919H427.767C428.514 230.919 429.214 230.842 429.867 230.688C430.809 230.465 431.653 230.082 432.396 229.537C432.728 229.295 433.04 229.02 433.332 228.714C433.926 228.089 434.395 227.37 434.737 226.556C435.2 225.454 435.432 224.178 435.432 222.729C435.432 221.279 435.2 220.003 434.737 218.901C434.395 218.087 433.926 217.368 433.332 216.744C433.043 216.441 432.736 216.169 432.409 215.929C431.662 215.38 430.815 214.993 429.867 214.77C429.214 214.616 428.514 214.539 427.767 214.539H418.737V230.919ZM460.071 199.734H488.211C491.517 199.734 494.476 200.188 497.088 201.097C500.23 202.19 502.871 203.941 505.011 206.349C509.001 210.759 510.996 216.254 510.996 222.834C510.996 229.344 509.001 234.804 505.011 239.214C502.842 241.616 500.157 243.353 496.958 244.426C494.377 245.291 491.462 245.724 488.211 245.724H477.081V269.769H460.071V199.734ZM477.081 230.919H486.111C486.859 230.919 487.559 230.842 488.211 230.688C489.154 230.465 489.997 230.082 490.741 229.537C491.073 229.295 491.384 229.02 491.676 228.714C492.271 228.089 492.739 227.37 493.081 226.556C493.545 225.454 493.776 224.178 493.776 222.729C493.776 221.279 493.545 220.003 493.081 218.901C492.739 218.087 492.271 217.368 491.676 216.744C491.388 216.441 491.08 216.169 490.753 215.929C490.007 215.38 489.159 214.993 488.211 214.77C487.559 214.616 486.859 214.539 486.111 214.539H477.081V230.919ZM484.192 109.734H466.027L458.257 154.359L449.227 109.734H436.207L427.072 154.359L419.302 109.734H401.137L417.307 179.769H434.842L442.612 137.454L450.487 179.769H468.022L484.192 109.734ZM477.24 93.7336H479.402L477.636 91.5593C477.554 92.3005 477.421 93.0264 477.24 93.7336ZM498.086 91.3579H499.829V33.4746C499.829 30.1934 500.102 27.8862 500.649 26.5532C501.14 25.3978 501.778 24.5231 502.562 23.9291C502.705 23.8203 502.854 23.7208 503.007 23.6309C503.281 23.4667 503.623 23.3111 504.032 23.164C505.159 22.7597 506.799 22.4197 508.955 22.144V20.2471H485.986V22.144C486.243 22.1395 486.496 22.1395 486.744 22.144C490.21 22.2078 492.709 23.1649 494.24 25.0151C495.437 26.4849 496.035 29.3047 496.035 33.4746V63.3647L461.735 20.2471H437.075V22.144C437.991 22.1736 438.815 22.2511 439.546 22.3765C440.505 22.5411 441.305 22.7883 441.945 23.1182C443.073 23.6992 444.372 24.9126 445.842 26.7583L447.329 28.604V77.6689C447.329 81.3603 446.577 83.9751 445.073 85.5132C443.569 87.0513 440.903 87.8374 437.075 87.8716V89.7686H461.735V87.8716H460.095C457.736 87.8716 455.634 87.1709 453.789 85.7695C451.977 84.3682 451.071 81.668 451.071 77.6689V33.4746L498.086 91.3579ZM436.302 89.7686L431.33 72.9339L431.329 72.9285L415.617 19.7336H395.142L374.457 89.7686H392.832L395.457 79.0586H415.302L417.927 89.7686H436.302ZM405.432 37.3736L398.817 64.2536H411.942L405.432 37.3736ZM515.829 64.4032V91.3579C515.829 92.1652 515.769 92.9584 515.654 93.7336H516.752C516.429 92.4656 516.257 91.1372 516.257 89.7686V65.2263L515.829 64.4032ZM532.257 61.3136V89.7686H549.267V61.3136L570.792 19.7336H552.207L540.762 45.7736L529.212 19.7336H510.627L532.257 61.3136ZM514.49 109.734V124.539H529.505V179.769H546.515V124.539H561.425V109.734H514.49ZM569.122 179.769H586.132V151.209H606.502V179.769H623.512V109.734H606.502V136.299H586.132V109.734H569.122V179.769ZM506.869 109.734H489.859V179.769H506.869V109.734ZM376.191 199.734H355.716L335.031 269.769H353.406L356.031 259.059H375.876L378.501 269.769H396.876L376.191 199.734ZM366.006 217.374L359.391 244.254H372.516L366.006 217.374ZM237.317 247.194C236.058 252.788 234.171 256.951 231.654 259.681C231.652 259.683 231.65 259.686 231.647 259.689C229.197 262.349 225.837 263.679 221.567 263.679C221.462 263.679 221.357 263.678 221.252 263.676C217.411 263.618 214.366 262.499 212.117 260.319C211.929 260.136 211.749 259.949 211.577 259.757C211.557 259.735 211.538 259.714 211.519 259.692C209.746 257.684 208.795 255.128 208.667 252.024C208.657 251.782 208.652 251.537 208.652 251.289C208.652 250.753 208.72 249.93 208.855 248.819C208.858 248.801 208.86 248.781 208.862 248.762C208.92 248.29 208.99 247.767 209.072 247.194L219.572 199.734H211.172L200.777 246.984C200.475 248.314 200.303 249.749 200.262 251.289C200.255 251.531 200.252 251.776 200.252 252.024C200.252 255.287 200.834 258.173 201.998 260.681C202.932 262.693 204.24 264.462 205.922 265.989C206.047 266.1 206.173 266.209 206.301 266.316C210.041 269.458 215.025 271.029 221.252 271.029C221.358 271.029 221.463 271.028 221.567 271.027C228.207 270.966 233.422 268.972 237.212 265.044C237.249 265.005 237.286 264.967 237.323 264.928C237.325 264.926 237.327 264.924 237.329 264.922C239.764 262.359 241.788 258.99 243.402 254.814C244.097 253.019 244.715 251.074 245.257 248.98C245.26 248.971 245.262 248.961 245.264 248.952C245.422 248.343 245.573 247.722 245.717 247.089L256.112 199.734H247.817L237.317 247.194ZM224.644 251.646C224.644 251.646 224.644 251.645 224.644 251.645ZM166.177 65.1986L166.072 65.5136C166.072 66.0036 166.387 66.2486 167.017 66.2486H194.317C195.227 66.2486 195.787 65.9686 195.997 65.4086L193.792 25.7186L166.177 65.1986Z" fill="black"/>
</svg>
