<svg width="608" height="255" viewBox="0 0 608 255" fill="none" xmlns="http://www.w3.org/2000/svg">
<mask id="path-1-outside-1_230_43662" maskUnits="userSpaceOnUse" x="-16.1289" y="-16.3267" width="640" height="288" fill="black">
<rect fill="white" x="-16.1289" y="-16.3267" width="640" height="288"/>
<path d="M129.061 73.6733H112.156V32.0933L97.9811 73.6733H91.3661L77.2961 32.0933V73.6733L60.2861 73.6733V3.63833L82.8611 3.63833L94.7261 38.6033L106.696 3.63833L129.061 3.63833V73.6733ZM192.874 71.7833C193.294 71.9233 193.609 72.1683 193.819 72.5183C194.029 72.7983 194.134 73.0783 194.134 73.3583C194.204 73.6383 194.204 73.8133 194.134 73.8833C193.714 73.8833 193.189 73.8483 192.559 73.7783C191.999 73.7083 191.474 73.6733 190.984 73.6733H177.439L174.814 73.7783C174.184 73.8483 173.379 73.8833 172.399 73.8833L172.294 73.6733C172.294 73.3233 172.469 72.9733 172.819 72.6233C173.169 72.2033 173.729 71.9233 174.499 71.7833C176.459 71.4333 177.859 71.0833 178.699 70.7333C179.609 70.3833 180.239 69.7883 180.589 68.9483C181.009 68.1083 181.149 66.8483 181.009 65.1683L180.379 53.3033C180.239 53.0233 179.994 52.8483 179.644 52.7783C179.364 52.6383 178.909 52.5683 178.279 52.5683C174.709 52.4983 169.984 52.4633 164.104 52.4633L149.929 52.4633C149.369 52.4633 148.914 52.5333 148.564 52.6733C148.214 52.7433 147.864 52.9533 147.514 53.3033L138.589 66.0083C137.679 67.1983 137.224 68.1783 137.224 68.9483C137.224 69.7183 137.679 70.3133 138.589 70.7333C139.569 71.0833 141.074 71.4333 143.104 71.7833C143.804 71.9233 144.329 72.1683 144.679 72.5183C145.029 72.7983 145.239 73.1133 145.309 73.4633C145.379 73.7433 145.379 73.8833 145.309 73.8833C144.259 73.8833 143.419 73.8483 142.789 73.7783L140.059 73.6733H131.134C130.644 73.6733 130.119 73.7083 129.559 73.7783C128.929 73.8483 128.369 73.8833 127.879 73.8833V73.6733C127.879 73.3233 127.984 72.9733 128.194 72.6233C128.334 72.2033 128.649 71.9233 129.139 71.7833C130.749 71.2933 131.939 70.7333 132.709 70.1033C133.409 69.4733 134.494 68.1083 135.964 66.0083L176.389 8.36334C177.159 7.24334 177.614 6.26334 177.754 5.42334L177.649 3.32334C177.579 2.83334 177.474 2.51834 177.334 2.37834C177.264 2.16834 177.089 1.99334 176.809 1.85334C176.389 1.64334 176.179 1.39834 176.179 1.11834C176.179 0.838335 176.284 0.628335 176.494 0.488337C176.704 0.278336 176.879 0.173335 177.019 0.173335L181.429 0.173335C182.829 0.173335 183.739 0.348335 184.159 0.698334C184.579 1.04833 184.824 1.74834 184.894 2.79834L188.464 65.2733C188.534 67.5833 188.849 69.1233 189.409 69.8933C189.969 70.6633 191.124 71.2933 192.874 71.7833ZM178.489 50.1533C179.399 50.1533 179.959 49.8733 180.169 49.3133L177.964 9.62334L150.349 49.1033L150.244 49.4183C150.244 49.9083 150.559 50.1533 151.189 50.1533L178.489 50.1533ZM263.69 73.6733H243.635L229.67 48.0533L225.26 55.4033V73.6733L208.25 73.6733V3.63833L225.26 3.63833V33.2483L242.585 3.63833L262.325 3.63833L240.38 36.3983L263.69 73.6733ZM291.689 8.15088V36.4517H293.073C297.482 36.4517 300.678 35.0674 302.661 32.2988C304.643 29.5303 305.908 25.4458 306.455 20.0454H308.403V56.4468H306.455C306.044 52.4819 305.173 49.2349 303.84 46.7056C302.541 44.1763 301.02 42.4844 299.277 41.6299C297.534 40.7412 295.004 40.2969 291.689 40.2969V59.8818C291.689 63.71 291.843 66.0513 292.15 66.9058C292.492 67.7603 293.107 68.4609 293.996 69.0078C294.885 69.5547 296.32 69.8281 298.303 69.8281H302.456C308.95 69.8281 314.145 68.3242 318.041 65.3164C321.972 62.3086 324.792 57.7285 326.501 51.5762L328.398 51.5762L325.27 73.6733L265.183 73.6733V71.7764H267.49C269.506 71.7764 271.13 71.4175 272.36 70.6997C273.249 70.2212 273.933 69.4009 274.411 68.2388C274.787 67.4185 274.975 65.2651 274.975 61.7788V16.0464C274.975 12.9019 274.89 10.9707 274.719 10.2529C274.377 9.05664 273.745 8.13379 272.822 7.48437C271.523 6.52734 269.746 6.04883 267.49 6.04883H265.183V4.15186L323.373 4.15186V24.7109H321.425C320.434 19.6865 319.033 16.0806 317.221 13.8931C315.444 11.7056 312.914 10.0991 309.633 9.07373C307.719 8.4585 304.13 8.15088 298.867 8.15088H291.689ZM420.475 73.6733L402.1 73.6733L399.475 62.9633H379.63L377.005 73.6733H358.63L379.315 3.63833L399.79 3.63833L420.475 73.6733ZM396.115 48.1583L389.605 21.2783L382.99 48.1583H396.115ZM445.908 4.15186L480.207 47.2695V17.3794C480.207 13.2095 479.609 10.3896 478.413 8.91992C476.772 6.9375 474.02 5.98047 470.158 6.04883V4.15186L493.127 4.15186V6.04883C490.187 6.4248 488.205 6.92041 487.18 7.53564C486.188 8.1167 485.402 9.09082 484.821 10.458C484.274 11.791 484.001 14.0981 484.001 17.3794V75.2627H482.258L435.244 17.3794V61.5737C435.244 65.5728 436.149 68.2729 437.961 69.6743C439.807 71.0757 441.909 71.7764 444.267 71.7764H445.908V73.6733H421.247V71.7764C425.075 71.7422 427.741 70.9561 429.245 69.418C430.749 67.8799 431.501 65.2651 431.501 61.5737V12.5088L430.014 10.6631C428.544 8.81738 427.246 7.604 426.118 7.02295C424.99 6.44189 423.366 6.11719 421.247 6.04883V4.15186L445.908 4.15186ZM533.439 73.6733H516.429V45.2183L494.799 3.63833L513.384 3.63833L524.934 29.6783L536.379 3.63833L554.964 3.63833L533.439 45.2183V73.6733ZM27.5836 164.933C19.3236 164.933 12.7086 161.573 7.73855 154.853C2.83855 148.063 0.388552 139.348 0.388552 128.708C0.388552 118.068 2.83855 109.388 7.73855 102.668C12.7086 95.8783 19.3236 92.4833 27.5836 92.4833C36.4736 92.4833 43.2986 97.0333 48.0586 106.133L41.1286 109.388C37.9786 103.088 33.4636 99.9383 27.5836 99.9383C21.9836 99.9383 17.4686 102.633 14.0386 108.023C10.6786 113.413 8.99855 120.308 8.99855 128.708C8.99855 137.108 10.6786 144.003 14.0386 149.393C17.4686 154.783 21.9836 157.478 27.5836 157.478C33.6736 157.478 38.2236 154.013 41.2336 147.083L48.2686 150.338C43.4386 160.068 36.5436 164.933 27.5836 164.933ZM84.5149 164.933C76.0449 164.933 69.3249 162.623 64.3549 158.003C59.4549 153.383 57.0049 146.978 57.0049 138.788L57.0049 93.6383L74.1199 93.6383L74.1199 138.893C74.1199 142.463 74.9949 145.228 76.7449 147.188C78.5649 149.078 81.1549 150.023 84.5149 150.023C87.8049 150.023 90.3249 149.043 92.0749 147.083C93.8949 145.123 94.8049 142.393 94.8049 138.893L94.8049 93.6383H111.92V138.788C111.92 146.978 109.435 153.383 104.465 158.003C99.5649 162.623 92.9149 164.933 84.5149 164.933ZM143.83 164.933C133.26 164.933 124.825 161.888 118.525 155.798L126.61 142.778C131.23 147.748 136.935 150.233 143.725 150.233C146.175 150.233 148.1 149.673 149.5 148.553C150.97 147.433 151.705 145.998 151.705 144.248C151.705 142.708 150.935 141.378 149.395 140.258C147.855 139.068 145.93 138.123 143.62 137.423C141.31 136.653 138.825 135.673 136.165 134.483C133.505 133.293 131.02 131.963 128.71 130.493C126.4 129.023 124.475 126.888 122.935 124.088C121.395 121.218 120.625 117.858 120.625 114.008C120.625 108.058 122.83 102.983 127.24 98.7833C131.65 94.5833 137.635 92.4833 145.195 92.4833C154.225 92.4833 161.715 95.1433 167.665 100.463L159.79 113.063C155.66 109.213 150.585 107.288 144.565 107.288C142.465 107.288 140.82 107.778 139.63 108.758C138.51 109.738 137.95 111.033 137.95 112.643C137.95 114.043 138.72 115.303 140.26 116.423C141.8 117.543 143.69 118.488 145.93 119.258C148.24 120.028 150.725 121.043 153.385 122.303C156.115 123.563 158.6 124.928 160.84 126.398C163.15 127.868 165.075 130.003 166.615 132.803C168.155 135.603 168.925 138.858 168.925 142.568C168.925 149.358 166.685 154.783 162.205 158.843C157.795 162.903 151.67 164.933 143.83 164.933ZM203.69 163.673H186.68V108.443H171.665V93.6383L218.6 93.6383V108.443L203.69 108.443V163.673ZM271.552 154.748C266.862 161.538 260.387 164.933 252.127 164.933C243.867 164.933 237.392 161.538 232.702 154.748C228.012 147.888 225.667 139.208 225.667 128.708C225.667 118.208 228.012 109.563 232.702 102.773C237.392 95.9133 243.867 92.4833 252.127 92.4833C260.387 92.4833 266.862 95.9133 271.552 102.773C276.312 109.563 278.692 118.208 278.692 128.708C278.692 139.208 276.312 147.888 271.552 154.748ZM239.002 149.393C242.152 154.783 246.527 157.478 252.127 157.478C257.727 157.478 262.102 154.783 265.252 149.393C268.472 143.933 270.082 137.038 270.082 128.708C270.082 120.308 268.507 113.413 265.357 108.023C262.207 102.633 257.797 99.9383 252.127 99.9383C246.527 99.9383 242.152 102.633 239.002 108.023C235.852 113.413 234.277 120.308 234.277 128.708C234.277 137.038 235.852 143.933 239.002 149.393ZM357.928 163.673H341.023V122.093L326.848 163.673H320.233L306.163 122.093V163.673H289.153V93.6383H311.728L323.593 128.603L335.563 93.6383L357.928 93.6383V163.673ZM452.195 163.673L434.66 163.673L426.785 121.358L419.015 163.673H401.48L385.31 93.6383H403.475L411.245 138.263L420.38 93.6383H433.4L442.43 138.263L450.2 93.6383H468.365L452.195 163.673ZM491.041 163.673H474.031V93.6383L491.041 93.6383V163.673ZM530.687 163.673H513.677V108.443H498.662V93.6383H545.597V108.443H530.687V163.673ZM607.684 163.673H590.674V135.113L570.304 135.113V163.673H553.294V93.6383H570.304V120.203L590.674 120.203V93.6383H607.684V163.673ZM167.224 244.853C161.694 251.573 154.274 254.933 144.964 254.933C135.654 254.933 128.234 251.573 122.704 244.853C117.174 238.133 114.409 229.418 114.409 218.708C114.409 207.998 117.174 199.283 122.704 192.563C128.234 185.843 135.654 182.483 144.964 182.483C154.274 182.483 161.694 185.843 167.224 192.563C172.754 199.283 175.519 207.998 175.519 218.708C175.519 229.418 172.754 238.133 167.224 244.853ZM144.964 239.918C149.164 239.918 152.419 237.958 154.729 234.038C157.109 230.048 158.299 224.938 158.299 218.708C158.299 212.408 157.109 207.298 154.729 203.378C152.419 199.458 149.164 197.498 144.964 197.498C140.834 197.498 137.579 199.458 135.199 203.378C132.889 207.298 131.734 212.408 131.734 218.708C131.734 224.938 132.889 230.048 135.199 234.038C137.579 237.958 140.834 239.918 144.964 239.918ZM205.424 254.933C198.984 254.933 193.874 253.253 190.094 249.893C186.314 246.463 184.424 241.808 184.424 235.928C184.424 234.108 184.599 232.428 184.949 230.888L195.344 183.638H203.744L193.244 231.098C192.964 233.058 192.824 234.423 192.824 235.193C192.824 238.973 193.979 241.983 196.289 244.223C198.599 246.463 201.749 247.583 205.739 247.583C210.009 247.583 213.369 246.253 215.819 243.593C218.339 240.863 220.229 236.698 221.489 231.098L231.989 183.638H240.284L229.889 230.993C228.069 238.973 225.234 244.958 221.384 248.948C217.534 252.938 212.214 254.933 205.424 254.933ZM295.025 253.673H276.125L266.885 229.628H260.585V253.673H243.575V183.638H272.135C278.855 183.638 284.245 185.808 288.305 190.148C292.435 194.418 294.5 199.843 294.5 206.423C294.5 211.813 293.38 216.188 291.14 219.548C288.97 222.838 286.31 225.183 283.16 226.583L295.025 253.673ZM269.51 214.823C271.82 214.823 273.675 214.088 275.075 212.618C276.545 211.148 277.28 209.153 277.28 206.633C277.28 204.113 276.545 202.118 275.075 200.648C273.675 199.178 271.82 198.443 269.51 198.443H260.585V214.823H269.51ZM381.048 253.673L362.673 253.673L360.048 242.963H340.203L337.578 253.673H319.203L339.888 183.638H360.363L381.048 253.673ZM356.688 228.158L350.178 201.278L343.563 228.158H356.688ZM402.909 253.673H385.899V183.638H414.039C421.319 183.638 426.919 185.843 430.839 190.253C434.829 194.663 436.824 200.158 436.824 206.738C436.824 213.248 434.829 218.708 430.839 223.118C426.919 227.458 421.319 229.628 414.039 229.628H402.909V253.673ZM411.939 214.823C414.249 214.823 416.104 214.088 417.504 212.618C418.904 211.148 419.604 209.153 419.604 206.633C419.604 204.113 418.904 202.118 417.504 200.648C416.104 199.178 414.249 198.443 411.939 198.443H402.909V214.823H411.939ZM461.254 253.673H444.244V183.638L472.384 183.638C479.664 183.638 485.264 185.843 489.184 190.253C493.174 194.663 495.169 200.158 495.169 206.738C495.169 213.248 493.174 218.708 489.184 223.118C485.264 227.458 479.664 229.628 472.384 229.628H461.254V253.673ZM470.284 214.823C472.594 214.823 474.449 214.088 475.849 212.618C477.249 211.148 477.949 209.153 477.949 206.633C477.949 204.113 477.249 202.118 475.849 200.648C474.449 199.178 472.594 198.443 470.284 198.443H461.254V214.823H470.284Z"/>
</mask>
<path d="M129.061 73.6733H112.156V32.0933L97.9811 73.6733H91.3661L77.2961 32.0933V73.6733L60.2861 73.6733V3.63833L82.8611 3.63833L94.7261 38.6033L106.696 3.63833L129.061 3.63833V73.6733ZM192.874 71.7833C193.294 71.9233 193.609 72.1683 193.819 72.5183C194.029 72.7983 194.134 73.0783 194.134 73.3583C194.204 73.6383 194.204 73.8133 194.134 73.8833C193.714 73.8833 193.189 73.8483 192.559 73.7783C191.999 73.7083 191.474 73.6733 190.984 73.6733H177.439L174.814 73.7783C174.184 73.8483 173.379 73.8833 172.399 73.8833L172.294 73.6733C172.294 73.3233 172.469 72.9733 172.819 72.6233C173.169 72.2033 173.729 71.9233 174.499 71.7833C176.459 71.4333 177.859 71.0833 178.699 70.7333C179.609 70.3833 180.239 69.7883 180.589 68.9483C181.009 68.1083 181.149 66.8483 181.009 65.1683L180.379 53.3033C180.239 53.0233 179.994 52.8483 179.644 52.7783C179.364 52.6383 178.909 52.5683 178.279 52.5683C174.709 52.4983 169.984 52.4633 164.104 52.4633L149.929 52.4633C149.369 52.4633 148.914 52.5333 148.564 52.6733C148.214 52.7433 147.864 52.9533 147.514 53.3033L138.589 66.0083C137.679 67.1983 137.224 68.1783 137.224 68.9483C137.224 69.7183 137.679 70.3133 138.589 70.7333C139.569 71.0833 141.074 71.4333 143.104 71.7833C143.804 71.9233 144.329 72.1683 144.679 72.5183C145.029 72.7983 145.239 73.1133 145.309 73.4633C145.379 73.7433 145.379 73.8833 145.309 73.8833C144.259 73.8833 143.419 73.8483 142.789 73.7783L140.059 73.6733H131.134C130.644 73.6733 130.119 73.7083 129.559 73.7783C128.929 73.8483 128.369 73.8833 127.879 73.8833V73.6733C127.879 73.3233 127.984 72.9733 128.194 72.6233C128.334 72.2033 128.649 71.9233 129.139 71.7833C130.749 71.2933 131.939 70.7333 132.709 70.1033C133.409 69.4733 134.494 68.1083 135.964 66.0083L176.389 8.36334C177.159 7.24334 177.614 6.26334 177.754 5.42334L177.649 3.32334C177.579 2.83334 177.474 2.51834 177.334 2.37834C177.264 2.16834 177.089 1.99334 176.809 1.85334C176.389 1.64334 176.179 1.39834 176.179 1.11834C176.179 0.838335 176.284 0.628335 176.494 0.488337C176.704 0.278336 176.879 0.173335 177.019 0.173335L181.429 0.173335C182.829 0.173335 183.739 0.348335 184.159 0.698334C184.579 1.04833 184.824 1.74834 184.894 2.79834L188.464 65.2733C188.534 67.5833 188.849 69.1233 189.409 69.8933C189.969 70.6633 191.124 71.2933 192.874 71.7833ZM178.489 50.1533C179.399 50.1533 179.959 49.8733 180.169 49.3133L177.964 9.62334L150.349 49.1033L150.244 49.4183C150.244 49.9083 150.559 50.1533 151.189 50.1533L178.489 50.1533ZM263.69 73.6733H243.635L229.67 48.0533L225.26 55.4033V73.6733L208.25 73.6733V3.63833L225.26 3.63833V33.2483L242.585 3.63833L262.325 3.63833L240.38 36.3983L263.69 73.6733ZM291.689 8.15088V36.4517H293.073C297.482 36.4517 300.678 35.0674 302.661 32.2988C304.643 29.5303 305.908 25.4458 306.455 20.0454H308.403V56.4468H306.455C306.044 52.4819 305.173 49.2349 303.84 46.7056C302.541 44.1763 301.02 42.4844 299.277 41.6299C297.534 40.7412 295.004 40.2969 291.689 40.2969V59.8818C291.689 63.71 291.843 66.0513 292.15 66.9058C292.492 67.7603 293.107 68.4609 293.996 69.0078C294.885 69.5547 296.32 69.8281 298.303 69.8281H302.456C308.95 69.8281 314.145 68.3242 318.041 65.3164C321.972 62.3086 324.792 57.7285 326.501 51.5762L328.398 51.5762L325.27 73.6733L265.183 73.6733V71.7764H267.49C269.506 71.7764 271.13 71.4175 272.36 70.6997C273.249 70.2212 273.933 69.4009 274.411 68.2388C274.787 67.4185 274.975 65.2651 274.975 61.7788V16.0464C274.975 12.9019 274.89 10.9707 274.719 10.2529C274.377 9.05664 273.745 8.13379 272.822 7.48437C271.523 6.52734 269.746 6.04883 267.49 6.04883H265.183V4.15186L323.373 4.15186V24.7109H321.425C320.434 19.6865 319.033 16.0806 317.221 13.8931C315.444 11.7056 312.914 10.0991 309.633 9.07373C307.719 8.4585 304.13 8.15088 298.867 8.15088H291.689ZM420.475 73.6733L402.1 73.6733L399.475 62.9633H379.63L377.005 73.6733H358.63L379.315 3.63833L399.79 3.63833L420.475 73.6733ZM396.115 48.1583L389.605 21.2783L382.99 48.1583H396.115ZM445.908 4.15186L480.207 47.2695V17.3794C480.207 13.2095 479.609 10.3896 478.413 8.91992C476.772 6.9375 474.02 5.98047 470.158 6.04883V4.15186L493.127 4.15186V6.04883C490.187 6.4248 488.205 6.92041 487.18 7.53564C486.188 8.1167 485.402 9.09082 484.821 10.458C484.274 11.791 484.001 14.0981 484.001 17.3794V75.2627H482.258L435.244 17.3794V61.5737C435.244 65.5728 436.149 68.2729 437.961 69.6743C439.807 71.0757 441.909 71.7764 444.267 71.7764H445.908V73.6733H421.247V71.7764C425.075 71.7422 427.741 70.9561 429.245 69.418C430.749 67.8799 431.501 65.2651 431.501 61.5737V12.5088L430.014 10.6631C428.544 8.81738 427.246 7.604 426.118 7.02295C424.99 6.44189 423.366 6.11719 421.247 6.04883V4.15186L445.908 4.15186ZM533.439 73.6733H516.429V45.2183L494.799 3.63833L513.384 3.63833L524.934 29.6783L536.379 3.63833L554.964 3.63833L533.439 45.2183V73.6733ZM27.5836 164.933C19.3236 164.933 12.7086 161.573 7.73855 154.853C2.83855 148.063 0.388552 139.348 0.388552 128.708C0.388552 118.068 2.83855 109.388 7.73855 102.668C12.7086 95.8783 19.3236 92.4833 27.5836 92.4833C36.4736 92.4833 43.2986 97.0333 48.0586 106.133L41.1286 109.388C37.9786 103.088 33.4636 99.9383 27.5836 99.9383C21.9836 99.9383 17.4686 102.633 14.0386 108.023C10.6786 113.413 8.99855 120.308 8.99855 128.708C8.99855 137.108 10.6786 144.003 14.0386 149.393C17.4686 154.783 21.9836 157.478 27.5836 157.478C33.6736 157.478 38.2236 154.013 41.2336 147.083L48.2686 150.338C43.4386 160.068 36.5436 164.933 27.5836 164.933ZM84.5149 164.933C76.0449 164.933 69.3249 162.623 64.3549 158.003C59.4549 153.383 57.0049 146.978 57.0049 138.788L57.0049 93.6383L74.1199 93.6383L74.1199 138.893C74.1199 142.463 74.9949 145.228 76.7449 147.188C78.5649 149.078 81.1549 150.023 84.5149 150.023C87.8049 150.023 90.3249 149.043 92.0749 147.083C93.8949 145.123 94.8049 142.393 94.8049 138.893L94.8049 93.6383H111.92V138.788C111.92 146.978 109.435 153.383 104.465 158.003C99.5649 162.623 92.9149 164.933 84.5149 164.933ZM143.83 164.933C133.26 164.933 124.825 161.888 118.525 155.798L126.61 142.778C131.23 147.748 136.935 150.233 143.725 150.233C146.175 150.233 148.1 149.673 149.5 148.553C150.97 147.433 151.705 145.998 151.705 144.248C151.705 142.708 150.935 141.378 149.395 140.258C147.855 139.068 145.93 138.123 143.62 137.423C141.31 136.653 138.825 135.673 136.165 134.483C133.505 133.293 131.02 131.963 128.71 130.493C126.4 129.023 124.475 126.888 122.935 124.088C121.395 121.218 120.625 117.858 120.625 114.008C120.625 108.058 122.83 102.983 127.24 98.7833C131.65 94.5833 137.635 92.4833 145.195 92.4833C154.225 92.4833 161.715 95.1433 167.665 100.463L159.79 113.063C155.66 109.213 150.585 107.288 144.565 107.288C142.465 107.288 140.82 107.778 139.63 108.758C138.51 109.738 137.95 111.033 137.95 112.643C137.95 114.043 138.72 115.303 140.26 116.423C141.8 117.543 143.69 118.488 145.93 119.258C148.24 120.028 150.725 121.043 153.385 122.303C156.115 123.563 158.6 124.928 160.84 126.398C163.15 127.868 165.075 130.003 166.615 132.803C168.155 135.603 168.925 138.858 168.925 142.568C168.925 149.358 166.685 154.783 162.205 158.843C157.795 162.903 151.67 164.933 143.83 164.933ZM203.69 163.673H186.68V108.443H171.665V93.6383L218.6 93.6383V108.443L203.69 108.443V163.673ZM271.552 154.748C266.862 161.538 260.387 164.933 252.127 164.933C243.867 164.933 237.392 161.538 232.702 154.748C228.012 147.888 225.667 139.208 225.667 128.708C225.667 118.208 228.012 109.563 232.702 102.773C237.392 95.9133 243.867 92.4833 252.127 92.4833C260.387 92.4833 266.862 95.9133 271.552 102.773C276.312 109.563 278.692 118.208 278.692 128.708C278.692 139.208 276.312 147.888 271.552 154.748ZM239.002 149.393C242.152 154.783 246.527 157.478 252.127 157.478C257.727 157.478 262.102 154.783 265.252 149.393C268.472 143.933 270.082 137.038 270.082 128.708C270.082 120.308 268.507 113.413 265.357 108.023C262.207 102.633 257.797 99.9383 252.127 99.9383C246.527 99.9383 242.152 102.633 239.002 108.023C235.852 113.413 234.277 120.308 234.277 128.708C234.277 137.038 235.852 143.933 239.002 149.393ZM357.928 163.673H341.023V122.093L326.848 163.673H320.233L306.163 122.093V163.673H289.153V93.6383H311.728L323.593 128.603L335.563 93.6383L357.928 93.6383V163.673ZM452.195 163.673L434.66 163.673L426.785 121.358L419.015 163.673H401.48L385.31 93.6383H403.475L411.245 138.263L420.38 93.6383H433.4L442.43 138.263L450.2 93.6383H468.365L452.195 163.673ZM491.041 163.673H474.031V93.6383L491.041 93.6383V163.673ZM530.687 163.673H513.677V108.443H498.662V93.6383H545.597V108.443H530.687V163.673ZM607.684 163.673H590.674V135.113L570.304 135.113V163.673H553.294V93.6383H570.304V120.203L590.674 120.203V93.6383H607.684V163.673ZM167.224 244.853C161.694 251.573 154.274 254.933 144.964 254.933C135.654 254.933 128.234 251.573 122.704 244.853C117.174 238.133 114.409 229.418 114.409 218.708C114.409 207.998 117.174 199.283 122.704 192.563C128.234 185.843 135.654 182.483 144.964 182.483C154.274 182.483 161.694 185.843 167.224 192.563C172.754 199.283 175.519 207.998 175.519 218.708C175.519 229.418 172.754 238.133 167.224 244.853ZM144.964 239.918C149.164 239.918 152.419 237.958 154.729 234.038C157.109 230.048 158.299 224.938 158.299 218.708C158.299 212.408 157.109 207.298 154.729 203.378C152.419 199.458 149.164 197.498 144.964 197.498C140.834 197.498 137.579 199.458 135.199 203.378C132.889 207.298 131.734 212.408 131.734 218.708C131.734 224.938 132.889 230.048 135.199 234.038C137.579 237.958 140.834 239.918 144.964 239.918ZM205.424 254.933C198.984 254.933 193.874 253.253 190.094 249.893C186.314 246.463 184.424 241.808 184.424 235.928C184.424 234.108 184.599 232.428 184.949 230.888L195.344 183.638H203.744L193.244 231.098C192.964 233.058 192.824 234.423 192.824 235.193C192.824 238.973 193.979 241.983 196.289 244.223C198.599 246.463 201.749 247.583 205.739 247.583C210.009 247.583 213.369 246.253 215.819 243.593C218.339 240.863 220.229 236.698 221.489 231.098L231.989 183.638H240.284L229.889 230.993C228.069 238.973 225.234 244.958 221.384 248.948C217.534 252.938 212.214 254.933 205.424 254.933ZM295.025 253.673H276.125L266.885 229.628H260.585V253.673H243.575V183.638H272.135C278.855 183.638 284.245 185.808 288.305 190.148C292.435 194.418 294.5 199.843 294.5 206.423C294.5 211.813 293.38 216.188 291.14 219.548C288.97 222.838 286.31 225.183 283.16 226.583L295.025 253.673ZM269.51 214.823C271.82 214.823 273.675 214.088 275.075 212.618C276.545 211.148 277.28 209.153 277.28 206.633C277.28 204.113 276.545 202.118 275.075 200.648C273.675 199.178 271.82 198.443 269.51 198.443H260.585V214.823H269.51ZM381.048 253.673L362.673 253.673L360.048 242.963H340.203L337.578 253.673H319.203L339.888 183.638H360.363L381.048 253.673ZM356.688 228.158L350.178 201.278L343.563 228.158H356.688ZM402.909 253.673H385.899V183.638H414.039C421.319 183.638 426.919 185.843 430.839 190.253C434.829 194.663 436.824 200.158 436.824 206.738C436.824 213.248 434.829 218.708 430.839 223.118C426.919 227.458 421.319 229.628 414.039 229.628H402.909V253.673ZM411.939 214.823C414.249 214.823 416.104 214.088 417.504 212.618C418.904 211.148 419.604 209.153 419.604 206.633C419.604 204.113 418.904 202.118 417.504 200.648C416.104 199.178 414.249 198.443 411.939 198.443H402.909V214.823H411.939ZM461.254 253.673H444.244V183.638L472.384 183.638C479.664 183.638 485.264 185.843 489.184 190.253C493.174 194.663 495.169 200.158 495.169 206.738C495.169 213.248 493.174 218.708 489.184 223.118C485.264 227.458 479.664 229.628 472.384 229.628H461.254V253.673ZM470.284 214.823C472.594 214.823 474.449 214.088 475.849 212.618C477.249 211.148 477.949 209.153 477.949 206.633C477.949 204.113 477.249 202.118 475.849 200.648C474.449 199.178 472.594 198.443 470.284 198.443H461.254V214.823H470.284Z" fill="white"/>
<path d="M129.061 73.6733V89.6733C137.898 89.6733 145.061 82.5099 145.061 73.6733L129.061 73.6733ZM112.156 73.6733H96.1561C96.1561 82.5099 103.32 89.6733 112.156 89.6733V73.6733ZM112.156 32.0933L128.156 32.0933C128.156 24.2666 122.494 17.5887 114.773 16.3087C107.051 15.0288 99.5374 19.5225 97.012 26.9306L112.156 32.0933ZM97.9811 73.6733V89.6733C104.828 89.6733 110.916 85.3167 113.125 78.8361L97.9811 73.6733ZM91.3661 73.6733L76.2103 78.8018C78.4092 85.3 84.506 89.6733 91.3661 89.6733V73.6733ZM77.2961 32.0933L92.4519 26.9649C89.9411 19.5446 82.4269 15.0335 74.6974 16.3058C66.9678 17.5781 61.2961 24.2598 61.2961 32.0933H77.2961ZM77.2961 73.6733V89.6733C86.1327 89.6733 93.2961 82.5099 93.2961 73.6733H77.2961ZM60.2861 73.6733H44.2861C44.2861 82.5099 51.4496 89.6733 60.2861 89.6733V73.6733ZM60.2861 3.63833V-12.3617C51.4496 -12.3617 44.2861 -5.19822 44.2861 3.63833L60.2861 3.63833ZM82.8611 3.63833L98.0125 -1.50314C95.8097 -7.99469 89.7163 -12.3617 82.8611 -12.3617V3.63833ZM94.7261 38.6033L79.5747 43.7448C81.775 50.2289 87.8574 54.5941 94.7046 54.6033C101.552 54.6125 107.646 50.2637 109.864 43.7856L94.7261 38.6033ZM106.696 3.63833V-12.3617C99.8568 -12.3617 93.7738 -8.01451 91.5586 -1.54388L106.696 3.63833ZM129.061 3.63833L145.061 3.63833C145.061 -5.19822 137.898 -12.3617 129.061 -12.3617V3.63833ZM129.061 57.6733H112.156V89.6733H129.061V57.6733ZM128.156 73.6733V32.0933L96.1561 32.0933V73.6733H128.156ZM97.012 26.9306L82.837 68.5106L113.125 78.8361L127.3 37.2561L97.012 26.9306ZM97.9811 57.6733H91.3661V89.6733H97.9811V57.6733ZM106.522 68.5449L92.4519 26.9649L62.1403 37.2218L76.2103 78.8018L106.522 68.5449ZM61.2961 32.0933V73.6733L93.2961 73.6733V32.0933L61.2961 32.0933ZM77.2961 57.6733L60.2861 57.6733V89.6733L77.2961 89.6733V57.6733ZM76.2861 73.6733V3.63833L44.2861 3.63833V73.6733L76.2861 73.6733ZM60.2861 19.6383L82.8611 19.6383V-12.3617L60.2861 -12.3617V19.6383ZM67.7097 8.7798L79.5747 43.7448L109.878 33.4619L98.0125 -1.50314L67.7097 8.7798ZM109.864 43.7856L121.834 8.82055L91.5586 -1.54388L79.5886 33.4211L109.864 43.7856ZM106.696 19.6383L129.061 19.6383V-12.3617L106.696 -12.3617V19.6383ZM113.061 3.63833V73.6733L145.061 73.6733V3.63833L113.061 3.63833ZM192.874 71.7833L197.934 56.6044C197.687 56.5222 197.438 56.446 197.188 56.3759L192.874 71.7833ZM193.819 72.5183L180.099 80.7502C180.382 81.2218 180.689 81.6784 181.019 82.1184L193.819 72.5183ZM194.134 73.3583H178.134C178.134 74.6665 178.294 75.9697 178.612 77.2389L194.134 73.3583ZM194.134 73.8833V89.8833C198.378 89.8833 202.447 88.1976 205.448 85.197L194.134 73.8833ZM192.559 73.7783L190.575 89.6548C190.647 89.6638 190.72 89.6724 190.792 89.6805L192.559 73.7783ZM177.439 73.6733V57.6733C177.226 57.6733 177.013 57.6776 176.8 57.6861L177.439 73.6733ZM174.814 73.7783L174.175 57.7911C173.798 57.8062 173.422 57.8346 173.047 57.8762L174.814 73.7783ZM172.399 73.8833L158.088 81.0387C160.798 86.4593 166.339 89.8833 172.399 89.8833V73.8833ZM172.294 73.6733H156.294C156.294 76.1572 156.872 78.607 157.983 80.8287L172.294 73.6733ZM172.819 72.6233L184.133 83.937C184.475 83.5951 184.801 83.2378 185.111 82.8663L172.819 72.6233ZM174.499 71.7833L171.686 56.0325C171.67 56.0354 171.653 56.0384 171.637 56.0414L174.499 71.7833ZM178.699 70.7333L172.955 55.7998C172.818 55.8527 172.681 55.9075 172.545 55.9641L178.699 70.7333ZM180.589 68.9483L166.278 61.7929C166.114 62.1214 165.961 62.4555 165.82 62.7945L180.589 68.9483ZM181.009 65.1683L165.032 66.0167C165.04 66.177 165.051 66.3371 165.064 66.4971L181.009 65.1683ZM180.379 53.3033L196.357 52.455C196.24 50.2605 195.673 48.1135 194.69 46.1479L180.379 53.3033ZM179.644 52.7783L172.489 67.0892C173.761 67.7252 175.112 68.1887 176.506 68.4676L179.644 52.7783ZM178.279 52.5683L177.965 68.5653C178.07 68.5673 178.174 68.5683 178.279 68.5683V52.5683ZM148.564 52.6733L151.702 68.3626C152.66 68.171 153.599 67.8919 154.506 67.529L148.564 52.6733ZM147.514 53.3033L136.2 41.9896C135.547 42.6425 134.952 43.3507 134.422 44.1062L147.514 53.3033ZM138.589 66.0083L151.299 75.7275C151.43 75.5561 151.557 75.3821 151.682 75.2055L138.589 66.0083ZM138.589 70.7333L131.884 85.2607C132.317 85.4605 132.759 85.6408 133.208 85.8012L138.589 70.7333ZM143.104 71.7833L146.242 56.094C146.102 56.0662 145.963 56.0401 145.823 56.016L143.104 71.7833ZM144.679 72.5183L133.365 83.832C133.783 84.2495 134.223 84.6435 134.684 85.0122L144.679 72.5183ZM145.309 73.4633L129.62 76.6012C129.67 76.8501 129.725 77.0977 129.787 77.3439L145.309 73.4633ZM142.789 73.7783L144.556 57.8762C144.173 57.8337 143.789 57.805 143.404 57.7902L142.789 73.7783ZM140.059 73.6733L140.674 57.6852C140.469 57.6773 140.264 57.6733 140.059 57.6733V73.6733ZM129.559 73.7783L131.326 89.6805C131.399 89.6724 131.471 89.6638 131.544 89.6548L129.559 73.7783ZM127.879 73.8833H111.879C111.879 82.7199 119.043 89.8833 127.879 89.8833V73.8833ZM128.194 72.6233L141.914 80.8553C142.515 79.8542 143.004 78.7905 143.373 77.683L128.194 72.6233ZM129.139 71.7833L133.535 87.1677C133.622 87.1426 133.71 87.1167 133.798 87.0901L129.139 71.7833ZM132.709 70.1033L142.841 82.4867C143.035 82.3276 143.226 82.164 143.412 81.996L132.709 70.1033ZM135.964 66.0083L122.864 56.8217L122.856 56.8329L135.964 66.0083ZM176.389 8.36334L189.489 17.5499C189.517 17.5094 189.546 17.4686 189.574 17.4278L176.389 8.36334ZM177.754 5.42334L193.536 8.05372C193.725 6.921 193.791 5.77125 193.734 4.62434L177.754 5.42334ZM177.649 3.32334L193.629 2.52435C193.605 2.03452 193.558 1.54608 193.488 1.06057L177.649 3.32334ZM177.334 2.37834L162.155 7.43789C162.941 9.79442 164.264 11.9357 166.02 13.6921L177.334 2.37834ZM176.809 1.85334L169.654 16.1641L169.654 16.1642L176.809 1.85334ZM176.494 0.488337L185.369 13.8012C186.246 13.2167 187.063 12.5471 187.808 11.802L176.494 0.488337ZM184.159 0.698335L194.402 -11.5932L194.402 -11.5932L184.159 0.698335ZM184.894 2.79834L200.868 1.88554C200.865 1.83502 200.862 1.78451 200.859 1.73402L184.894 2.79834ZM188.464 65.2733L204.457 64.7887C204.452 64.6459 204.446 64.5032 204.438 64.3605L188.464 65.2733ZM189.409 69.8933L202.349 60.4826L189.409 69.8933ZM180.169 49.3133L195.15 54.9313C195.929 52.8551 196.267 50.6398 196.144 48.4258L180.169 49.3133ZM177.964 9.62334L193.939 8.73582C193.561 1.92523 188.907 -3.89661 182.346 -5.76484C175.786 -7.63307 168.763 -5.13683 164.853 0.452621L177.964 9.62334ZM150.349 49.1033L137.238 39.9326C136.354 41.1962 135.658 42.5808 135.17 44.0437L150.349 49.1033ZM150.244 49.4183L135.065 44.3587C134.521 45.9902 134.244 47.6986 134.244 49.4183H150.244ZM187.814 86.9623C184.942 86.0047 182.026 83.9624 180.099 80.7502L207.539 64.2865C205.192 60.3743 201.646 57.8419 197.934 56.6044L187.814 86.9623ZM181.019 82.1184C179.679 80.3317 178.134 77.3264 178.134 73.3583L210.134 73.3583C210.134 68.8303 208.379 65.265 206.619 62.9183L181.019 82.1184ZM178.612 77.2389C178.506 76.8156 178.187 75.489 178.187 73.6996C178.187 72.7688 178.269 71.2351 178.789 69.4157C179.318 67.5636 180.44 64.9495 182.82 62.5697L205.448 85.197C210.09 80.5552 210.187 75.0303 210.187 73.6996C210.187 71.7352 209.832 70.1811 209.656 69.4778L178.612 77.2389ZM194.134 57.8833C194.249 57.8833 194.336 57.8857 194.392 57.8877C194.447 57.8898 194.481 57.8919 194.49 57.8925C194.503 57.8934 194.453 57.8903 194.326 57.8762L190.792 89.6805C191.746 89.7865 192.908 89.8833 194.134 89.8833V57.8833ZM194.544 57.9019C193.422 57.7617 192.228 57.6733 190.984 57.6733V89.6733C190.72 89.6733 190.576 89.655 190.575 89.6548L194.544 57.9019ZM190.984 57.6733H177.439V89.6733H190.984V57.6733ZM176.8 57.6861L174.175 57.7911L175.454 89.7656L178.079 89.6606L176.8 57.6861ZM173.047 57.8762C173.168 57.8627 173.178 57.8663 173.043 57.8722C172.915 57.8778 172.705 57.8833 172.399 57.8833V89.8833C173.688 89.8833 175.139 89.8407 176.581 89.6805L173.047 57.8762ZM186.71 66.728L186.605 66.518L157.983 80.8287L158.088 81.0387L186.71 66.728ZM188.294 73.6733C188.294 79.0635 185.527 82.5431 184.133 83.937L161.505 61.3096C159.411 63.4036 156.294 67.5832 156.294 73.6733H188.294ZM185.111 82.8663C182.208 86.349 178.72 87.2783 177.361 87.5253L171.637 56.0414C168.738 56.5684 164.13 58.0577 160.528 62.3804L185.111 82.8663ZM177.312 87.5342C179.396 87.1619 182.281 86.5741 184.853 85.5026L172.545 55.9641C172.895 55.8183 173.13 55.7435 173.192 55.7242C173.264 55.7015 173.254 55.7072 173.138 55.7361C172.896 55.7968 172.432 55.8994 171.686 56.0325L177.312 87.5342ZM184.443 85.6669C189.11 83.8719 193.197 80.2899 195.358 75.1022L165.82 62.7945C166.464 61.2493 167.47 59.7125 168.868 58.3924C170.247 57.0901 171.707 56.2798 172.955 55.7998L184.443 85.6669ZM194.9 76.1038C197.308 71.2871 197.17 66.4391 196.954 63.8396L165.064 66.4971C165.075 66.6209 165.032 66.2768 165.107 65.6064C165.177 64.9748 165.406 63.5374 166.278 61.7929L194.9 76.1038ZM196.987 64.32L196.357 52.455L164.402 54.1517L165.032 66.0167L196.987 64.32ZM194.69 46.1479C192.013 40.7939 187.204 37.9734 182.782 37.0891L176.506 68.4676C174.868 68.1399 172.82 67.4312 170.79 65.9818C168.704 64.4912 167.117 62.5568 166.068 60.4588L194.69 46.1479ZM186.799 38.4675C183.007 36.5714 179.368 36.5683 178.279 36.5683V68.5683C178.054 68.5683 177.469 68.5593 176.66 68.4348C175.942 68.3244 174.357 68.0232 172.489 67.0892L186.799 38.4675ZM178.593 36.5714C174.873 36.4985 170.031 36.4633 164.104 36.4633V68.4633C169.937 68.4633 174.545 68.4982 177.965 68.5653L178.593 36.5714ZM164.104 36.4633L149.929 36.4633V68.4633H164.104V36.4633ZM149.929 36.4633C148.23 36.4633 145.546 36.648 142.622 37.8177L154.506 67.529C153.336 67.9971 152.322 68.2189 151.601 68.3298C150.873 68.4417 150.296 68.4633 149.929 68.4633V36.4633ZM145.426 36.984C140.994 37.8704 137.949 40.2409 136.2 41.9896L158.828 64.617C157.779 65.6658 155.434 67.6163 151.702 68.3626L145.426 36.984ZM134.422 44.1062L125.497 56.8112L151.682 75.2055L160.607 62.5005L134.422 44.1062ZM125.879 56.2891C124.55 58.0276 121.224 62.6214 121.224 68.9483L153.224 68.9483C153.224 71.6318 152.461 73.5478 152.077 74.3736C151.667 75.2573 151.301 75.7241 151.299 75.7275L125.879 56.2891ZM121.224 68.9483C121.224 77.9369 127.355 83.1702 131.884 85.2607L145.294 56.206C146.436 56.7331 148.479 57.9036 150.275 60.2529C152.245 62.8291 153.224 65.9262 153.224 68.9483L121.224 68.9483ZM133.208 85.8012C135.532 86.6312 138.147 87.1647 140.386 87.5507L145.823 56.016C145.018 55.8773 144.45 55.7609 144.077 55.6742C143.664 55.5782 143.682 55.5624 143.97 55.6655L133.208 85.8012ZM139.966 87.4726C138.873 87.2541 136.034 86.5004 133.365 83.832L155.993 61.2046C152.624 57.8363 148.735 56.5926 146.242 56.094L139.966 87.4726ZM134.684 85.0122C132.867 83.559 130.461 80.8093 129.62 76.6012L160.998 70.3255C160.017 65.4174 157.191 62.0377 154.674 60.0244L134.684 85.0122ZM129.787 77.3439C129.765 77.2582 129.362 75.7743 129.362 73.7783C129.362 72.9961 129.375 70.0275 131.038 66.7017C131.982 64.8123 133.652 62.4341 136.457 60.564C139.362 58.6271 142.518 57.8833 145.309 57.8833V89.8833C148.118 89.8833 151.289 89.1352 154.207 87.1896C157.026 85.3107 158.706 82.9193 159.659 81.0125C161.34 77.6516 161.362 74.6305 161.362 73.7783C161.362 71.6423 160.923 69.9485 160.831 69.5828L129.787 77.3439ZM145.309 57.8833C144.954 57.8833 144.709 57.8773 144.558 57.871C144.395 57.8642 144.41 57.8599 144.556 57.8762L141.022 89.6805C142.494 89.844 143.997 89.8833 145.309 89.8833V57.8833ZM143.404 57.7902L140.674 57.6852L139.444 89.6615L142.174 89.7665L143.404 57.7902ZM140.059 57.6733H131.134V89.6733H140.059V57.6733ZM131.134 57.6733C129.89 57.6733 128.696 57.7617 127.575 57.9019L131.544 89.6548C131.542 89.655 131.398 89.6733 131.134 89.6733V57.6733ZM127.792 57.8762C127.701 57.8864 127.661 57.8887 127.669 57.8883C127.673 57.888 127.693 57.8868 127.727 57.8857C127.76 57.8845 127.812 57.8833 127.879 57.8833V89.8833C129.101 89.8833 130.269 89.7979 131.326 89.6805L127.792 57.8762ZM143.879 73.8833V73.6733L111.879 73.6733V73.8833L143.879 73.8833ZM143.879 73.6733C143.879 76.6755 142.945 79.1374 141.914 80.8553L114.474 64.3914C113.023 66.8093 111.879 69.9712 111.879 73.6733L143.879 73.6733ZM143.373 77.683C142.603 79.9918 141.209 82.24 139.165 84.0569C137.192 85.8111 135.123 86.7139 133.535 87.1677L124.744 56.399C120.064 57.7359 115.098 61.3159 113.015 67.5637L143.373 77.683ZM133.798 87.0901C136.215 86.3545 139.711 85.0477 142.841 82.4867L122.577 57.72C123.474 56.9865 124.189 56.6302 124.426 56.5187C124.69 56.3948 124.741 56.3973 124.48 56.4766L133.798 87.0901ZM143.412 81.996C145.661 79.9721 147.705 77.1359 149.072 75.1837L122.856 56.8329C122.23 57.7279 121.793 58.3105 121.523 58.6512C121.391 58.8173 121.347 58.8636 121.382 58.8243C121.398 58.8069 121.616 58.5616 122.006 58.2106L143.412 81.996ZM149.064 75.1949L189.489 17.5499L163.289 -0.823268L122.864 56.8217L149.064 75.1949ZM189.574 17.4278C190.967 15.4013 192.85 12.1745 193.536 8.05372L161.972 2.79295C162.192 1.47207 162.571 0.534147 162.796 0.0505638C162.916 -0.208057 163.02 -0.396696 163.087 -0.512344C163.155 -0.628876 163.198 -0.692356 163.204 -0.701123L189.574 17.4278ZM193.734 4.62434L193.629 2.52435L161.669 4.12233L161.774 6.22233L193.734 4.62434ZM193.488 1.06057C193.377 0.279091 193.161 -0.946589 192.697 -2.34009C192.324 -3.45813 191.281 -6.30201 188.648 -8.93546L166.02 13.6921C164.678 12.3495 163.841 11.0229 163.345 10.1018C162.837 9.15926 162.526 8.33993 162.339 7.77926C161.979 6.70076 161.852 5.87758 161.81 5.58611L193.488 1.06057ZM192.513 -2.68122C190.628 -8.33685 186.45 -11.2146 183.964 -12.4575L169.654 16.1642C167.728 15.2012 163.9 12.6735 162.155 7.43789L192.513 -2.68122ZM183.965 -12.4575C184.866 -12.0067 186.721 -10.9581 188.485 -8.90053C190.464 -6.59147 192.179 -3.13566 192.179 1.11833L160.179 1.11833C160.179 10.8448 167.713 15.1936 169.654 16.1641L183.965 -12.4575ZM192.179 1.11833C192.179 2.98792 191.821 5.401 190.569 7.90625C189.283 10.4777 187.402 12.4462 185.369 13.8012L167.619 -12.8245C162.414 -9.3543 160.179 -3.82253 160.179 1.11833L192.179 1.11833ZM187.808 11.802C187.367 12.2431 186.431 13.1224 185.015 13.9719C183.685 14.7701 180.883 16.1733 177.019 16.1733V-15.8267C173.015 -15.8267 170.056 -14.3709 168.551 -13.4678C166.96 -12.5132 165.831 -11.4764 165.18 -10.8253L187.808 11.802ZM177.019 16.1733H181.429V-15.8267L177.019 -15.8267V16.1733ZM181.429 16.1733C181.573 16.1733 181.047 16.1911 180.14 16.0167C179.662 15.9248 178.859 15.7385 177.878 15.3511C176.918 14.9725 175.452 14.2698 173.916 12.9899L194.402 -11.5932C191.135 -14.3161 187.675 -15.1206 186.183 -15.4075C184.366 -15.757 182.686 -15.8267 181.429 -15.8267V16.1733ZM173.916 12.9899C171.246 10.7647 170.061 8.21428 169.556 6.77143C169.049 5.323 168.954 4.22807 168.93 3.86266L200.859 1.73402C200.737 -0.0858326 200.201 -6.76047 194.402 -11.5932L173.916 12.9899ZM168.92 3.71113L172.49 66.1861L204.438 64.3605L200.868 1.88554L168.92 3.71113ZM172.471 65.758C172.522 67.4442 172.673 69.3902 173.077 71.3672C173.432 73.1005 174.246 76.2467 176.469 79.3041L202.349 60.4826C203.252 61.7247 203.743 62.8323 203.998 63.5038C204.26 64.1965 204.379 64.7156 204.428 64.9545C204.518 65.3915 204.476 65.4125 204.457 64.7887L172.471 65.758ZM176.469 79.3041C180.358 84.6514 186.055 86.4894 188.56 87.1908L197.188 56.3759C197.07 56.343 197.558 56.4613 198.357 56.897C199.113 57.3094 200.808 58.3641 202.349 60.4826L176.469 79.3041ZM178.489 66.1533C182.007 66.1533 191.438 64.8296 195.15 54.9313L165.188 43.6954C166.572 40.0033 169.29 37.2054 172.436 35.6325C175.153 34.2738 177.504 34.1533 178.489 34.1533V66.1533ZM196.144 48.4258L193.939 8.73582L161.989 10.5109L164.194 50.2009L196.144 48.4258ZM164.853 0.452621L137.238 39.9326L163.46 58.2741L191.075 18.7941L164.853 0.452621ZM135.17 44.0437L135.065 44.3587L165.423 54.478L165.528 54.163L135.17 44.0437ZM134.244 49.4183C134.244 53.3536 135.714 58.7542 140.657 62.5992C144.837 65.8501 149.242 66.1533 151.189 66.1533V34.1533C152.507 34.1533 156.439 34.3341 160.303 37.34C164.932 40.94 166.244 45.9731 166.244 49.4183L134.244 49.4183ZM151.189 66.1533H178.489V34.1533L151.189 34.1533V66.1533ZM263.69 73.6733V89.6733C269.507 89.6733 274.866 86.5161 277.685 81.4279C280.505 76.3396 280.34 70.1221 277.256 65.1899L263.69 73.6733ZM243.635 73.6733L229.586 81.3309C232.39 86.4734 237.778 89.6733 243.635 89.6733V73.6733ZM229.67 48.0533L243.719 40.3957C240.972 35.3573 235.738 32.1754 230.001 32.0568C224.264 31.9381 218.902 34.9008 215.95 39.8214L229.67 48.0533ZM225.26 55.4033L211.54 47.1714C210.048 49.6581 209.26 52.5034 209.26 55.4033H225.26ZM225.26 73.6733V89.6733C234.097 89.6733 241.26 82.5099 241.26 73.6733H225.26ZM208.25 73.6733H192.25C192.25 82.5099 199.413 89.6733 208.25 89.6733V73.6733ZM208.25 3.63833V-12.3617C199.413 -12.3617 192.25 -5.19822 192.25 3.63833L208.25 3.63833ZM225.26 3.63833L241.26 3.63833C241.26 -5.19822 234.097 -12.3617 225.26 -12.3617V3.63833ZM225.26 33.2483H209.26C209.26 40.4728 214.101 46.801 221.074 48.6911C228.047 50.5811 235.421 47.564 239.07 41.3285L225.26 33.2483ZM242.585 3.63833V-12.3617C236.902 -12.3617 231.645 -9.34704 228.775 -4.44186L242.585 3.63833ZM262.325 3.63833L275.618 12.543C278.906 7.63529 279.222 1.31545 276.44 -3.89576C273.659 -9.10697 268.232 -12.3617 262.325 -12.3617V3.63833ZM240.38 36.3983L227.087 27.4937C223.579 32.7301 223.472 39.5379 226.814 44.8818L240.38 36.3983ZM263.69 57.6733H243.635V89.6733H263.69V57.6733ZM257.684 66.0157L243.719 40.3957L215.621 55.7109L229.586 81.3309L257.684 66.0157ZM215.95 39.8214L211.54 47.1714L238.98 63.6353L243.39 56.2853L215.95 39.8214ZM209.26 55.4033V73.6733H241.26V55.4033L209.26 55.4033ZM225.26 57.6733L208.25 57.6733V89.6733L225.26 89.6733V57.6733ZM224.25 73.6733V3.63833L192.25 3.63833V73.6733L224.25 73.6733ZM208.25 19.6383L225.26 19.6383V-12.3617L208.25 -12.3617V19.6383ZM209.26 3.63833V33.2483L241.26 33.2483V3.63833L209.26 3.63833ZM239.07 41.3285L256.395 11.7185L228.775 -4.44186L211.45 25.1681L239.07 41.3285ZM242.585 19.6383L262.325 19.6383V-12.3617L242.585 -12.3617V19.6383ZM249.032 -5.26634L227.087 27.4937L253.673 45.303L275.618 12.543L249.032 -5.26634ZM226.814 44.8818L250.124 82.1568L277.256 65.1899L253.946 27.9149L226.814 44.8818ZM291.689 8.15088V-7.84912C282.852 -7.84912 275.689 -0.685677 275.689 8.15088L291.689 8.15088ZM291.689 36.4517H275.689C275.689 45.2882 282.852 52.4517 291.689 52.4517V36.4517ZM306.455 20.0454V4.04541C298.242 4.04541 291.363 10.2628 290.536 18.4334L306.455 20.0454ZM308.403 20.0454L324.403 20.0454C324.403 11.2089 317.239 4.04541 308.403 4.04541V20.0454ZM308.403 56.4468V72.4468C317.239 72.4468 324.403 65.2833 324.403 56.4468H308.403ZM306.455 56.4468L290.539 58.0932C291.383 66.2488 298.255 72.4468 306.455 72.4468V56.4468ZM303.84 46.7056L289.607 54.0144C289.633 54.0649 289.659 54.1152 289.685 54.1654L303.84 46.7056ZM299.277 41.6299L292.01 55.8844C292.084 55.9224 292.159 55.9598 292.234 55.9966L299.277 41.6299ZM291.689 40.2969V24.2969C282.852 24.2969 275.689 31.4603 275.689 40.2969H291.689ZM292.15 66.9058L277.096 72.3253C277.159 72.5007 277.225 72.6749 277.295 72.848L292.15 66.9058ZM318.041 65.3164L308.318 52.6098C308.3 52.6235 308.282 52.6372 308.265 52.651L318.041 65.3164ZM326.501 51.5762V35.5762C319.314 35.5762 313.008 40.3688 311.085 47.2939L326.501 51.5762ZM328.398 51.5762L344.24 53.8183C344.889 49.2294 343.517 44.5844 340.478 41.0851C337.439 37.5858 333.033 35.5762 328.398 35.5762V51.5762ZM325.27 73.6733V89.6733C333.241 89.6733 339.996 83.8072 341.113 75.9155L325.27 73.6733ZM265.183 73.6733H249.183C249.183 82.5099 256.346 89.6733 265.183 89.6733V73.6733ZM265.183 71.7764V55.7764C256.346 55.7764 249.183 62.9398 249.183 71.7764H265.183ZM272.36 70.6997L264.775 56.6122C264.614 56.6985 264.456 56.7875 264.298 56.8792L272.36 70.6997ZM274.411 68.2388L259.866 61.5723C259.779 61.7621 259.696 61.9537 259.616 62.1468L274.411 68.2388ZM274.719 10.2529L290.284 6.547C290.229 6.31582 290.168 6.08589 290.103 5.85739L274.719 10.2529ZM272.822 7.48437L263.331 20.3653C263.424 20.4343 263.519 20.5023 263.614 20.5693L272.822 7.48437ZM265.183 6.04883L249.183 6.04883C249.183 14.8854 256.346 22.0488 265.183 22.0488V6.04883ZM265.183 4.15186V-11.8481C256.346 -11.8481 249.183 -4.6847 249.183 4.15186L265.183 4.15186ZM323.373 4.15186L339.373 4.15186C339.373 -4.6847 332.21 -11.8481 323.373 -11.8481V4.15186ZM323.373 24.7109V40.7109C332.21 40.7109 339.373 33.5475 339.373 24.7109L323.373 24.7109ZM321.425 24.7109L305.728 27.8077C307.207 35.3058 313.783 40.7109 321.425 40.7109V24.7109ZM317.221 13.8931L304.803 23.9825C304.835 24.0212 304.866 24.0597 304.898 24.0981L317.221 13.8931ZM309.633 9.07373L304.737 24.3062C304.778 24.3194 304.82 24.3325 304.861 24.3454L309.633 9.07373ZM275.689 8.15088V36.4517L307.689 36.4517V8.15088L275.689 8.15088ZM291.689 52.4517H293.073V20.4517H291.689V52.4517ZM293.073 52.4517C300.961 52.4517 309.822 49.7806 315.669 41.6138L289.652 22.9838C290.389 21.9536 291.417 21.1649 292.417 20.7316C293.285 20.3559 293.651 20.4517 293.073 20.4517V52.4517ZM315.669 41.6138C319.97 35.6078 321.696 28.3454 322.373 21.6574L290.536 18.4334C290.343 20.3433 290.059 21.6297 289.812 22.4267C289.563 23.2297 289.426 23.2994 289.652 22.9838L315.669 41.6138ZM306.455 36.0454H308.403V4.04541L306.455 4.04541V36.0454ZM292.403 20.0454V56.4468H324.403V20.0454L292.403 20.0454ZM308.403 40.4468H306.455V72.4468H308.403V40.4468ZM322.37 54.8004C321.826 49.5473 320.576 44.1439 317.994 39.2457L289.685 54.1654C289.77 54.3259 290.263 55.4166 290.539 58.0932L322.37 54.8004ZM318.073 39.3967C315.901 35.1672 312.298 30.1938 306.319 27.2632L292.234 55.9966C290.98 55.3817 290.203 54.6557 289.826 54.2365C289.471 53.8408 289.437 53.6842 289.607 54.0144L318.073 39.3967ZM306.544 27.3754C301.498 24.8029 296 24.2969 291.689 24.2969V56.2969C292.164 56.2969 292.536 56.313 292.815 56.3342C293.096 56.3555 293.253 56.3798 293.304 56.3888C293.357 56.3982 293.264 56.3853 293.057 56.3205C292.849 56.2559 292.482 56.1253 292.01 55.8844L306.544 27.3754ZM275.689 40.2969V59.8818L307.689 59.8818V40.2969L275.689 40.2969ZM275.689 59.8818C275.689 61.9576 275.729 63.8904 275.839 65.5577C275.906 66.5899 276.082 69.5093 277.096 72.3253L307.205 61.4863C307.469 62.2218 307.607 62.7984 307.67 63.0851C307.739 63.3995 307.772 63.6178 307.784 63.6997C307.806 63.8488 307.792 63.7987 307.77 63.4601C307.726 62.7861 307.689 61.6342 307.689 59.8818L275.689 59.8818ZM277.295 72.848C279.08 77.311 282.205 80.5388 285.61 82.6343L302.382 55.3813C304.01 56.3831 305.904 58.2095 307.006 60.9635L277.295 72.848ZM285.61 82.6343C290.417 85.5923 295.6 85.8281 298.303 85.8281V53.8281C297.987 53.8281 298.186 53.8015 298.733 53.9056C299.217 53.9979 300.652 54.3168 302.382 55.3813L285.61 82.6343ZM298.303 85.8281H302.456V53.8281H298.303V85.8281ZM302.456 85.8281C311.358 85.8281 320.342 83.7531 327.818 77.9818L308.265 52.651C307.948 52.8953 306.542 53.8281 302.456 53.8281V85.8281ZM327.765 78.023C335.168 72.3576 339.549 64.3856 341.917 55.8585L311.085 47.2939C310.035 51.0714 308.776 52.2596 308.318 52.6098L327.765 78.023ZM326.501 67.5762H328.398V35.5762L326.501 35.5762V67.5762ZM312.556 49.334L309.428 71.4312L341.113 75.9155L344.24 53.8183L312.556 49.334ZM325.27 57.6733L265.183 57.6733V89.6733L325.27 89.6733V57.6733ZM281.183 73.6733V71.7764L249.183 71.7764V73.6733L281.183 73.6733ZM265.183 87.7764H267.49V55.7764H265.183V87.7764ZM267.49 87.7764C271.224 87.7764 275.934 87.1383 280.422 84.5202L264.298 56.8792C266.326 55.6967 267.789 55.7764 267.49 55.7764V87.7764ZM279.946 84.7872C284.824 82.1605 287.675 78.0496 289.206 74.3308L259.616 62.1468C260.19 60.7521 261.674 58.2819 264.775 56.6122L279.946 84.7872ZM288.956 74.9052C290.416 71.72 290.681 68.458 290.773 67.4001C290.925 65.6688 290.975 63.7427 290.975 61.7788L258.975 61.7788C258.975 62.5121 258.965 63.1187 258.949 63.6106C258.932 64.1099 258.911 64.435 258.895 64.617C258.887 64.704 258.883 64.7301 258.886 64.7048C258.889 64.683 258.904 64.5724 258.938 64.3923C258.971 64.2205 259.037 63.9013 259.157 63.4807C259.218 63.2649 259.301 62.9966 259.411 62.688C259.521 62.3815 259.669 62.0022 259.866 61.5723L288.956 74.9052ZM290.975 61.7788V16.0464L258.975 16.0464V61.7788L290.975 61.7788ZM290.975 16.0464C290.975 14.3643 290.953 12.8326 290.895 11.5324C290.857 10.6694 290.767 8.57768 290.284 6.547L259.154 13.9589C259.033 13.4503 258.973 13.0678 258.948 12.8973C258.92 12.7055 258.908 12.5843 258.905 12.56C258.901 12.5207 258.913 12.6302 258.927 12.9469C258.954 13.5778 258.975 14.584 258.975 16.0464L290.975 16.0464ZM290.103 5.85739C288.866 1.52772 286.255 -2.62702 282.03 -5.60053L263.614 20.5693C262.528 19.8055 261.561 18.8341 260.789 17.7073C260.029 16.5973 259.584 15.5231 259.334 14.6485L290.103 5.85739ZM282.313 -5.39652C277.361 -9.0453 271.836 -9.95117 267.49 -9.95117V22.0488C267.489 22.0488 267.465 22.0488 267.419 22.0462C267.372 22.0436 267.301 22.0383 267.207 22.0271C267.021 22.005 266.729 21.9583 266.355 21.8576C265.59 21.6517 264.492 21.2214 263.331 20.3653L282.313 -5.39652ZM267.49 -9.95117H265.183V22.0488H267.49V-9.95117ZM281.183 6.04883V4.15186L249.183 4.15186V6.04883L281.183 6.04883ZM265.183 20.1519L323.373 20.1519V-11.8481L265.183 -11.8481V20.1519ZM307.373 4.15186V24.7109L339.373 24.7109V4.15186L307.373 4.15186ZM323.373 8.71094H321.425V40.7109H323.373V8.71094ZM337.123 21.6142C335.969 15.7656 333.927 8.98013 329.544 3.68804L304.898 24.0981C304.394 23.4892 304.429 23.292 304.717 24.0339C304.989 24.7338 305.359 25.9403 305.728 27.8077L337.123 21.6142ZM329.639 3.80358C325.48 -1.31555 320.024 -4.4423 314.406 -6.19795L304.861 24.3454C305.354 24.4994 305.493 24.6046 305.413 24.5537C305.372 24.5277 305.285 24.468 305.171 24.3671C305.055 24.2654 304.929 24.1368 304.803 23.9825L329.639 3.80358ZM314.529 -6.15873C309.916 -7.64148 303.945 -7.84912 298.867 -7.84912V24.1509C301.23 24.1509 302.954 24.2215 304.14 24.3231C304.724 24.3732 305.075 24.4224 305.237 24.4496C305.432 24.4822 305.215 24.4597 304.737 24.3062L314.529 -6.15873ZM298.867 -7.84912L291.689 -7.84912V24.1509L298.867 24.1509V-7.84912ZM420.475 73.6733V89.6733C425.52 89.6733 430.27 87.2933 433.291 83.2516C436.311 79.2099 437.249 73.9803 435.819 69.1412L420.475 73.6733ZM402.1 73.6733L386.56 77.4822C388.314 84.6398 394.73 89.6733 402.1 89.6733V73.6733ZM399.475 62.9633L415.015 59.1545C413.26 51.9969 406.844 46.9633 399.475 46.9633V62.9633ZM379.63 62.9633V46.9633C372.26 46.9633 365.844 51.9969 364.09 59.1545L379.63 62.9633ZM377.005 73.6733V89.6733C384.374 89.6733 390.79 84.6398 392.545 77.4822L377.005 73.6733ZM358.63 73.6733L343.285 69.1412C341.856 73.9803 342.793 79.2099 345.813 83.2516C348.834 87.2933 353.584 89.6733 358.63 89.6733V73.6733ZM379.315 3.63833V-12.3617C372.224 -12.3617 365.979 -7.69435 363.97 -0.893762L379.315 3.63833ZM399.79 3.63833L415.134 -0.893761C413.126 -7.69435 406.881 -12.3617 399.79 -12.3617V3.63833ZM396.115 48.1583V64.1583C401.021 64.1583 405.656 61.9073 408.69 58.0513C411.723 54.1953 412.82 49.1606 411.665 44.3922L396.115 48.1583ZM389.605 21.2783L405.155 17.5122C403.419 10.3446 397.009 5.29196 389.634 5.27837C382.259 5.26477 375.831 10.2937 374.068 17.4549L389.605 21.2783ZM382.99 48.1583L367.453 44.3349C366.278 49.1091 367.364 54.1584 370.397 58.0281C373.429 61.8979 378.073 64.1583 382.99 64.1583V48.1583ZM420.475 57.6733L402.1 57.6733V89.6733L420.475 89.6733V57.6733ZM417.64 69.8645L415.015 59.1545L383.935 66.7722L386.56 77.4822L417.64 69.8645ZM399.475 46.9633L379.63 46.9633V78.9633H399.475V46.9633ZM364.09 59.1545L361.465 69.8645L392.545 77.4822L395.17 66.7722L364.09 59.1545ZM377.005 57.6733H358.63V89.6733H377.005V57.6733ZM373.974 78.2054L394.659 8.17043L363.97 -0.893762L343.285 69.1412L373.974 78.2054ZM379.315 19.6383L399.79 19.6383V-12.3617L379.315 -12.3617V19.6383ZM384.445 8.17043L405.13 78.2054L435.819 69.1412L415.134 -0.893761L384.445 8.17043ZM411.665 44.3922L405.155 17.5122L374.054 25.0445L380.564 51.9245L411.665 44.3922ZM374.068 17.4549L367.453 44.3349L398.526 51.9818L405.141 25.1018L374.068 17.4549ZM382.99 64.1583H396.115V32.1583H382.99V64.1583ZM445.908 4.15186L458.429 -5.80873C455.394 -9.62467 450.784 -11.8481 445.908 -11.8481V4.15186ZM480.207 47.2695L467.686 57.2301C471.921 62.5542 479.06 64.6179 485.482 62.3749C491.905 60.1319 496.207 54.0727 496.207 47.2695H480.207ZM478.413 8.91992L490.822 -1.18042C490.794 -1.21411 490.767 -1.24769 490.739 -1.28116L478.413 8.91992ZM470.158 6.04883L454.158 6.04883C454.158 10.3414 455.883 14.4539 458.945 17.4622C462.007 20.4705 466.149 22.1223 470.441 22.0463L470.158 6.04883ZM470.158 4.15186V-11.8481C461.322 -11.8481 454.158 -4.6847 454.158 4.15186L470.158 4.15186ZM493.127 4.15186L509.127 4.15186C509.127 -4.6847 501.963 -11.8481 493.127 -11.8481V4.15186ZM493.127 6.04883L495.157 21.9195C503.144 20.898 509.127 14.1006 509.127 6.04883L493.127 6.04883ZM487.18 7.53564L495.271 21.3388C495.318 21.3113 495.365 21.2835 495.412 21.2555L487.18 7.53564ZM484.821 10.458L470.096 4.19976C470.07 4.26138 470.044 4.32316 470.019 4.38511L484.821 10.458ZM484.001 75.2627V91.2627C492.837 91.2627 500.001 84.0993 500.001 75.2627H484.001ZM482.258 75.2627L469.838 85.3501C472.876 89.0907 477.439 91.2627 482.258 91.2627V75.2627ZM435.244 17.3794L447.663 7.29198C443.393 2.03445 436.275 0.0354071 429.892 2.30106C423.508 4.56672 419.244 10.6061 419.244 17.3794L435.244 17.3794ZM437.961 69.6743L428.171 82.3296C428.209 82.3591 428.247 82.3884 428.286 82.4175L437.961 69.6743ZM445.908 71.7764H461.908C461.908 62.9398 454.744 55.7764 445.908 55.7764V71.7764ZM445.908 73.6733V89.6733C454.744 89.6733 461.908 82.5099 461.908 73.6733H445.908ZM421.247 73.6733L405.247 73.6733C405.247 82.5099 412.41 89.6733 421.247 89.6733V73.6733ZM421.247 71.7764L421.104 55.777C412.324 55.8554 405.247 62.9955 405.247 71.7764L421.247 71.7764ZM431.501 12.5088L447.501 12.5088C447.501 8.8571 446.252 5.31528 443.961 2.47152L431.501 12.5088ZM430.014 10.6631L417.498 20.6299C417.516 20.6534 417.535 20.6769 417.554 20.7004L430.014 10.6631ZM421.247 6.04883L405.247 6.04883C405.247 14.6846 412.1 21.7621 420.731 22.0405L421.247 6.04883ZM421.247 4.15186V-11.8481C412.41 -11.8481 405.247 -4.6847 405.247 4.15186L421.247 4.15186ZM433.386 14.1124L467.686 57.2301L492.728 37.3089L458.429 -5.80873L433.386 14.1124ZM496.207 47.2695V17.3794L464.207 17.3794V47.2695L496.207 47.2695ZM496.207 17.3794C496.207 14.6267 496.018 11.6835 495.41 8.81702C494.834 6.10315 493.643 2.28637 490.822 -1.18042L466.004 19.0203C465.145 17.9651 464.676 17.0208 464.437 16.4501C464.197 15.8766 464.117 15.5075 464.107 15.4572C464.094 15.3963 464.123 15.5176 464.153 15.8693C464.183 16.2143 464.207 16.7102 464.207 17.3794L496.207 17.3794ZM490.739 -1.28116C484.691 -8.58879 476.104 -10.0589 469.875 -9.94867L470.441 22.0463C471.067 22.0353 470.741 22.133 469.862 21.8273C468.85 21.4752 467.366 20.668 466.086 19.121L490.739 -1.28116ZM486.158 6.04883V4.15186L454.158 4.15186V6.04883L486.158 6.04883ZM470.158 20.1519L493.127 20.1519V-11.8481L470.158 -11.8481V20.1519ZM477.127 4.15186V6.04883L509.127 6.04883V4.15186L477.127 4.15186ZM491.097 -9.82187C488.289 -9.46269 483.176 -8.72131 478.948 -6.18424L495.412 21.2555C494.979 21.5154 494.607 21.7023 494.329 21.8307C494.05 21.9602 493.824 22.0493 493.671 22.1058C493.379 22.2137 493.239 22.244 493.316 22.2248C493.382 22.2083 493.565 22.1659 493.892 22.1081C494.214 22.0511 494.631 21.9868 495.157 21.9195L491.097 -9.82187ZM479.088 -6.26752C474.367 -3.49997 471.626 0.599143 470.096 4.19976L499.547 16.7163C499.178 17.5825 498.01 19.7334 495.271 21.3388L479.088 -6.26752ZM470.019 4.38511C468.172 8.88653 468.001 14.0053 468.001 17.3794L500.001 17.3794C500.001 16.7767 500.014 16.2813 500.033 15.883C500.053 15.4811 500.077 15.2174 500.095 15.0712C500.113 14.9169 500.115 14.9616 500.071 15.1578C500.048 15.2617 500.006 15.43 499.939 15.6506C499.873 15.8696 499.772 16.17 499.624 16.5309L470.019 4.38511ZM468.001 17.3794V75.2627L500.001 75.2627V17.3794L468.001 17.3794ZM484.001 59.2627H482.258V91.2627H484.001V59.2627ZM494.677 65.1753L447.663 7.29198L422.824 27.4668L469.838 85.3501L494.677 65.1753ZM419.244 17.3794V61.5737H451.244V17.3794L419.244 17.3794ZM419.244 61.5737C419.244 66.9599 420.295 76.2366 428.171 82.3296L447.751 57.019C449.895 58.6778 450.785 60.5941 451.092 61.5097C451.362 62.3146 451.244 62.4861 451.244 61.5737H419.244ZM428.286 82.4175C432.967 85.9718 438.481 87.7764 444.267 87.7764V55.7764C444.696 55.7764 445.299 55.8444 445.981 56.0719C446.667 56.3005 447.229 56.6218 447.636 56.9312L428.286 82.4175ZM444.267 87.7764H445.908V55.7764H444.267V87.7764ZM429.908 71.7764V73.6733H461.908V71.7764H429.908ZM445.908 57.6733H421.247V89.6733H445.908V57.6733ZM437.247 73.6733V71.7764L405.247 71.7764V73.6733L437.247 73.6733ZM421.39 87.7757C426.426 87.7308 434.597 86.8303 440.685 80.6039L417.805 58.2321C419.444 56.5562 421.049 55.9745 421.592 55.8144C422.105 55.6633 422.05 55.7686 421.104 55.777L421.39 87.7757ZM440.685 80.6039C446.607 74.5474 447.501 66.6612 447.501 61.5737H415.501C415.501 62.4178 415.405 62.4198 415.56 61.8813C415.727 61.3026 416.278 59.7936 417.805 58.2321L440.685 80.6039ZM447.501 61.5737V12.5088L415.501 12.5088V61.5737H447.501ZM443.961 2.47152L442.474 0.625813L417.554 20.7004L419.041 22.5461L443.961 2.47152ZM442.531 0.696258C440.657 -1.6561 437.645 -5.03708 433.445 -7.20064L418.79 21.2465C418.181 20.9329 417.745 20.6361 417.483 20.4422C417.217 20.2456 417.061 20.1037 417.015 20.0605C416.941 19.9915 417.103 20.1349 417.498 20.6299L442.531 0.696258ZM433.445 -7.20064C429.245 -9.36447 424.865 -9.8428 421.763 -9.94285L420.731 22.0405C421.141 22.0537 421.169 22.0835 420.916 22.0329C420.687 21.9872 419.879 21.8075 418.79 21.2465L433.445 -7.20064ZM437.247 6.04883V4.15186L405.247 4.15186V6.04883L437.247 6.04883ZM421.247 20.1519L445.908 20.1519V-11.8481L421.247 -11.8481V20.1519ZM533.439 73.6733V89.6733C542.276 89.6733 549.439 82.5099 549.439 73.6733H533.439ZM516.429 73.6733H500.429C500.429 82.5099 507.593 89.6733 516.429 89.6733V73.6733ZM516.429 45.2183H532.429C532.429 42.6477 531.81 40.1149 530.623 37.8344L516.429 45.2183ZM494.799 3.63833V-12.3617C489.208 -12.3617 484.023 -9.44331 481.122 -4.664C478.221 0.11531 478.025 6.0623 480.605 11.0222L494.799 3.63833ZM513.384 3.63833L528.01 -2.84894C525.445 -8.63287 519.711 -12.3617 513.384 -12.3617V3.63833ZM524.934 29.6783L510.308 36.1656C512.878 41.9585 518.624 45.689 524.961 45.6783C531.298 45.6676 537.032 41.9177 539.582 36.1162L524.934 29.6783ZM536.379 3.63833V-12.3617C530.032 -12.3617 524.285 -8.61004 521.731 -2.79954L536.379 3.63833ZM554.964 3.63833L569.173 10.994C571.741 6.03396 571.536 0.093976 568.633 -4.6776C565.73 -9.44918 560.549 -12.3617 554.964 -12.3617V3.63833ZM533.439 45.2183L519.23 37.8627C518.053 40.136 517.439 42.6585 517.439 45.2183L533.439 45.2183ZM533.439 57.6733H516.429V89.6733H533.439V57.6733ZM532.429 73.6733V45.2183H500.429V73.6733H532.429ZM530.623 37.8344L508.993 -3.74557L480.605 11.0222L502.235 52.6022L530.623 37.8344ZM494.799 19.6383L513.384 19.6383V-12.3617L494.799 -12.3617V19.6383ZM498.758 10.1256L510.308 36.1656L539.56 23.1911L528.01 -2.84894L498.758 10.1256ZM539.582 36.1162L551.027 10.0762L521.731 -2.79954L510.286 23.2405L539.582 36.1162ZM536.379 19.6383L554.964 19.6383V-12.3617L536.379 -12.3617V19.6383ZM540.755 -3.71731L519.23 37.8627L547.648 52.574L569.173 10.994L540.755 -3.71731ZM517.439 45.2183V73.6733H549.439V45.2183L517.439 45.2183ZM7.73855 154.853L-5.23584 164.216C-5.19935 164.267 -5.16256 164.317 -5.12548 164.367L7.73855 154.853ZM7.73855 102.668L-5.17238 93.2181C-5.17812 93.2259 -5.18385 93.2337 -5.18957 93.2416L7.73855 102.668ZM48.0586 106.133L54.8607 120.615C58.8092 118.761 61.8292 115.374 63.2216 111.24C64.614 107.106 64.258 102.583 62.2361 98.7174L48.0586 106.133ZM41.1286 109.388L26.8177 116.544C30.7012 124.311 40.0709 127.562 47.9307 123.87L41.1286 109.388ZM14.0386 108.023L0.539968 99.4333C0.513344 99.4752 0.486914 99.5171 0.46068 99.5592L14.0386 108.023ZM14.0386 149.393L0.460682 157.857C0.486916 157.9 0.513346 157.942 0.539968 157.983L14.0386 149.393ZM41.2336 147.083L47.9522 132.562C44.0416 130.753 39.5665 130.597 35.5397 132.131C31.5128 133.664 28.2747 136.757 26.5581 140.709L41.2336 147.083ZM48.2686 150.338L62.6 157.452C64.5206 153.583 64.7952 149.102 63.3615 145.028C61.9277 140.953 58.9074 137.631 54.9872 135.817L48.2686 150.338ZM27.5836 148.933C24.4684 148.933 22.598 148.037 20.6026 145.339L-5.12548 164.367C2.81912 175.109 14.1787 180.933 27.5836 180.933L27.5836 148.933ZM20.7129 145.49C18.2549 142.084 16.3886 136.901 16.3886 128.708H-15.6114C-15.6114 141.795 -12.5778 154.042 -5.23584 164.216L20.7129 145.49ZM16.3886 128.708C16.3886 120.506 18.2581 115.398 20.6667 112.095L-5.18957 93.2416C-12.581 103.378 -15.6114 115.63 -15.6114 128.708H16.3886ZM20.6495 112.119C22.6729 109.354 24.5373 108.483 27.5836 108.483V76.4833C14.1098 76.4833 2.74417 82.4025 -5.17238 93.2181L20.6495 112.119ZM27.5836 108.483C29.1466 108.483 29.9316 108.833 30.4946 109.209C31.1779 109.664 32.4372 110.789 33.881 113.549L62.2361 98.7174C58.9199 92.3775 54.3867 86.6775 48.245 82.583C41.983 78.4083 34.9105 76.4833 27.5836 76.4833V108.483ZM41.2564 91.6513L34.3264 94.9063L47.9307 123.87L54.8607 120.615L41.2564 91.6513ZM55.4394 102.233C52.9959 97.346 49.5097 92.6497 44.5347 89.1788C39.4053 85.6001 33.5626 83.9383 27.5836 83.9383V115.938C27.6109 115.938 27.4217 115.94 27.0975 115.841C26.7639 115.74 26.4573 115.585 26.2249 115.423C25.7649 115.102 26.1112 115.131 26.8177 116.544L55.4394 102.233ZM27.5836 83.9383C15.6636 83.9383 6.41978 90.1936 0.539968 99.4333L27.5371 116.613C27.8677 116.094 28.1109 115.818 28.2266 115.701C28.3355 115.59 28.3305 115.619 28.1979 115.698C28.0586 115.781 27.8823 115.857 27.7063 115.904C27.5364 115.95 27.4775 115.938 27.5836 115.938V83.9383ZM0.46068 99.5592C-4.91605 108.184 -7.00145 118.258 -7.00145 128.708H24.9986C24.9986 122.358 26.2732 118.642 27.6164 116.487L0.46068 99.5592ZM-7.00145 128.708C-7.00145 139.158 -4.91605 149.232 0.460682 157.857L27.6164 140.929C26.2732 138.774 24.9986 135.058 24.9986 128.708H-7.00145ZM0.539968 157.983C6.41978 167.223 15.6636 173.478 27.5836 173.478L27.5836 141.478C27.4775 141.478 27.5364 141.467 27.7063 141.512C27.8823 141.559 28.0586 141.635 28.1979 141.718C28.3305 141.798 28.3355 141.827 28.2266 141.716C28.1109 141.598 27.8677 141.323 27.5371 140.803L0.539968 157.983ZM27.5836 173.478C33.8884 173.478 40.0093 171.605 45.2573 167.609C50.2975 163.77 53.6526 158.653 55.909 153.458L26.5581 140.709C25.8045 142.444 25.3796 142.524 25.8698 142.15C26.1292 141.953 26.4918 141.751 26.9079 141.615C27.1014 141.552 27.2674 141.516 27.3932 141.497C27.5175 141.478 27.5849 141.478 27.5836 141.478L27.5836 173.478ZM34.5149 161.604L41.5499 164.859L54.9872 135.817L47.9522 132.562L34.5149 161.604ZM33.9372 143.224C32.3731 146.375 30.9921 147.688 30.2505 148.211C29.6732 148.619 28.9764 148.933 27.5836 148.933L27.5836 180.933C35.1507 180.933 42.3814 178.816 48.6991 174.358C54.8525 170.016 59.334 164.032 62.6 157.452L33.9372 143.224ZM64.3549 158.003L53.3787 169.645C53.4061 169.671 53.4337 169.696 53.4613 169.722L64.3549 158.003ZM57.0049 93.6383V77.6383C48.1683 77.6383 41.0049 84.8018 41.0049 93.6383H57.0049ZM74.1199 93.6383H90.1199C90.1199 84.8018 82.9564 77.6383 74.1199 77.6383V93.6383ZM76.7449 147.188L64.8099 157.845C64.9437 157.994 65.0804 158.142 65.2198 158.287L76.7449 147.188ZM92.0749 147.083L80.3502 136.196C80.2793 136.272 80.2092 136.349 80.1399 136.427L92.0749 147.083ZM94.8049 93.6383V77.6383C85.9683 77.6383 78.8049 84.8018 78.8049 93.6383H94.8049ZM111.92 93.6383H127.92C127.92 84.8018 120.756 77.6383 111.92 77.6383V93.6383ZM104.465 158.003L93.5713 146.285C93.5437 146.31 93.5161 146.336 93.4887 146.362L104.465 158.003ZM84.5149 148.933C79.038 148.933 76.5707 147.514 75.2484 146.285L53.4613 169.722C62.0791 177.733 73.0518 180.933 84.5149 180.933V148.933ZM75.3311 146.362C74.3136 145.403 73.0049 143.596 73.0049 138.788H41.0049C41.0049 150.36 44.5962 161.364 53.3787 169.645L75.3311 146.362ZM73.0049 138.788L73.0049 93.6383L41.0049 93.6383L41.0049 138.788H73.0049ZM57.0049 109.638L74.1199 109.638V77.6383L57.0049 77.6383V109.638ZM58.1199 93.6383L58.1199 138.893H90.1199L90.1199 93.6383L58.1199 93.6383ZM58.1199 138.893C58.1199 144.971 59.6281 152.041 64.8099 157.845L88.6799 136.532C89.4606 137.406 89.8572 138.269 90.0305 138.817C90.1859 139.308 90.1199 139.404 90.1199 138.893H58.1199ZM65.2198 158.287C70.8444 164.128 78.0925 166.023 84.5149 166.023V134.023C84.3096 134.023 84.7372 133.992 85.5366 134.284C86.409 134.602 87.4059 135.193 88.27 136.09L65.2198 158.287ZM84.5149 166.023C91.1272 166.023 98.4886 163.923 104.01 157.74L80.1399 136.427C80.9957 135.469 82.0516 134.774 83.0732 134.376C84.0151 134.01 84.5937 134.023 84.5149 134.023V166.023ZM103.8 157.971C109.13 152.23 110.805 145.15 110.805 138.893H78.8049C78.8049 139.283 78.7517 139.081 78.9435 138.506C79.1551 137.871 79.5906 137.014 80.3502 136.196L103.8 157.971ZM110.805 138.893V93.6383H78.8049L78.8049 138.893H110.805ZM94.8049 109.638H111.92V77.6383H94.8049V109.638ZM95.9199 93.6383L95.9199 138.788H127.92V93.6383H95.9199ZM95.9199 138.788C95.9199 143.527 94.6216 145.308 93.5713 146.285L115.358 169.722C124.248 161.458 127.92 150.43 127.92 138.788H95.9199ZM93.4887 146.362C92.2467 147.533 89.8914 148.933 84.5149 148.933V180.933C95.9384 180.933 106.883 177.714 115.441 169.645L93.4887 146.362ZM118.525 155.798L104.932 147.358C100.958 153.759 101.987 162.065 107.405 167.302L118.525 155.798ZM126.61 142.778L138.329 131.885C134.934 128.232 130.03 126.372 125.067 126.853C120.103 127.334 115.648 130.102 113.017 134.338L126.61 142.778ZM149.5 148.553L139.803 135.826C139.703 135.903 139.603 135.981 139.505 136.059L149.5 148.553ZM149.395 140.258L139.612 152.919C139.735 153.014 139.859 153.107 139.984 153.198L149.395 140.258ZM143.62 137.423L138.56 152.602C138.7 152.649 138.839 152.693 138.98 152.736L143.62 137.423ZM136.165 134.483L142.699 119.878H142.699L136.165 134.483ZM128.71 130.493L137.3 116.995V116.995L128.71 130.493ZM122.935 124.088L108.836 131.653C108.863 131.702 108.889 131.751 108.916 131.799L122.935 124.088ZM127.24 98.7833L116.206 87.1971L127.24 98.7833ZM167.665 100.463L181.233 108.943C185.36 102.341 184.134 93.7257 178.33 88.5358L167.665 100.463ZM159.79 113.063L148.88 124.767C152.375 128.025 157.142 129.55 161.879 128.926C166.616 128.303 170.826 125.595 173.358 121.543L159.79 113.063ZM139.63 108.758L129.459 96.4075C129.336 96.5089 129.214 96.6121 129.094 96.7171L139.63 108.758ZM145.93 119.258L140.729 134.389C140.776 134.406 140.823 134.422 140.87 134.437L145.93 119.258ZM153.385 122.303L146.536 136.763C146.584 136.786 146.632 136.808 146.68 136.831L153.385 122.303ZM160.84 126.398L152.062 139.775C152.124 139.816 152.187 139.857 152.25 139.897L160.84 126.398ZM166.615 132.803L180.634 125.093L166.615 132.803ZM162.205 158.843L151.461 146.988C151.43 147.016 151.399 147.044 151.368 147.072L162.205 158.843ZM143.83 148.933C136.5 148.933 132.366 146.924 129.645 144.295L107.405 167.302C117.284 176.852 130.02 180.933 143.83 180.933V148.933ZM132.118 164.239L140.203 151.219L113.017 134.338L104.932 147.358L132.118 164.239ZM114.891 153.672C122.541 161.901 132.492 166.233 143.725 166.233V134.233C141.378 134.233 139.92 133.596 138.329 131.885L114.891 153.672ZM143.725 166.233C148.487 166.233 154.375 165.144 159.495 161.047L139.505 136.059C141.826 134.203 143.863 134.233 143.725 134.233V166.233ZM159.197 161.28C164.38 157.331 167.705 151.309 167.705 144.248H135.705C135.705 142.808 136.027 141.072 136.913 139.343C137.784 137.642 138.915 136.503 139.803 135.826L159.197 161.28ZM167.705 144.248C167.705 136.37 163.39 130.652 158.806 127.319L139.984 153.198C139.368 152.75 138.248 151.784 137.281 150.112C136.252 148.336 135.705 146.287 135.705 144.248H167.705ZM159.178 127.598C155.779 124.971 152 123.244 148.26 122.111L138.98 152.736C139.86 153.002 139.931 153.165 139.612 152.919L159.178 127.598ZM148.68 122.244C146.956 121.67 144.968 120.893 142.699 119.878L129.631 149.088C132.683 150.454 135.664 151.637 138.56 152.602L148.68 122.244ZM142.699 119.878C140.705 118.986 138.912 118.021 137.3 116.995L120.12 143.992C123.128 145.906 126.305 147.6 129.631 149.088L142.699 119.878ZM137.3 116.995C137.423 117.073 137.461 117.124 137.417 117.075C137.366 117.019 137.196 116.816 136.954 116.378L108.916 131.799C111.533 136.558 115.19 140.855 120.12 143.992L137.3 116.995ZM137.034 116.523C136.951 116.369 136.625 115.699 136.625 114.008H104.625C104.625 120.018 105.839 126.068 108.836 131.653L137.034 116.523ZM136.625 114.008C136.625 112.552 136.951 111.63 138.275 110.37L116.206 87.1971C108.709 94.3368 104.625 103.565 104.625 114.008H136.625ZM138.275 110.37C139.032 109.648 140.701 108.483 145.195 108.483V76.4833C134.569 76.4833 124.268 79.5185 116.206 87.1971L138.275 110.37ZM145.195 108.483C150.844 108.483 154.372 110.041 157 112.391L178.33 88.5358C169.058 80.2461 157.606 76.4833 145.195 76.4833V108.483ZM154.097 91.9834L146.222 104.583L173.358 121.543L181.233 108.943L154.097 91.9834ZM170.7 101.36C163.4 94.5546 154.34 91.2883 144.565 91.2883V123.288C146.83 123.288 147.92 123.872 148.88 124.767L170.7 101.36ZM144.565 91.2883C140.094 91.2883 134.401 92.3375 129.459 96.4075L149.801 121.109C147.239 123.219 144.836 123.288 144.565 123.288V91.2883ZM129.094 96.7171C124.193 101.005 121.95 106.846 121.95 112.643L153.95 112.643C153.95 113.716 153.757 115.194 153.056 116.815C152.341 118.468 151.294 119.812 150.166 120.8L129.094 96.7171ZM121.95 112.643C121.95 120.876 126.784 126.406 130.849 129.363L149.671 103.484C150.132 103.819 151.2 104.691 152.18 106.295C153.242 108.034 153.95 110.235 153.95 112.643L121.95 112.643ZM130.849 129.363C133.945 131.614 137.335 133.223 140.729 134.389L151.131 104.127C150.045 103.754 149.655 103.472 149.671 103.484L130.849 129.363ZM140.87 134.437C142.46 134.967 144.342 135.724 146.536 136.763L160.234 107.844C157.108 106.363 154.02 105.09 150.99 104.079L140.87 134.437ZM146.68 136.831C148.777 137.798 150.558 138.788 152.062 139.775L169.619 113.022C166.642 111.068 163.453 109.328 160.09 107.776L146.68 136.831ZM152.25 139.897C152.127 139.819 152.089 139.768 152.133 139.816C152.184 139.873 152.355 140.076 152.596 140.514L180.634 125.093C178.017 120.333 174.36 116.037 169.43 112.9L152.25 139.897ZM152.596 140.514C152.641 140.596 152.925 141.117 152.925 142.568L184.925 142.568C184.925 136.599 183.669 130.61 180.634 125.093L152.596 140.514ZM152.925 142.568C152.925 145.459 152.163 146.351 151.461 146.988L172.949 170.699C181.207 163.215 184.925 153.258 184.925 142.568L152.925 142.568ZM151.368 147.072C150.729 147.66 148.925 148.933 143.83 148.933V180.933C154.415 180.933 164.861 178.147 173.042 170.615L151.368 147.072ZM203.69 163.673V179.673C212.526 179.673 219.69 172.51 219.69 163.673H203.69ZM186.68 163.673L170.68 163.673C170.68 172.51 177.843 179.673 186.68 179.673V163.673ZM186.68 108.443H202.68C202.68 99.6068 195.516 92.4433 186.68 92.4433V108.443ZM171.665 108.443H155.665C155.665 117.28 162.828 124.443 171.665 124.443V108.443ZM171.665 93.6383V77.6383C162.828 77.6383 155.665 84.8018 155.665 93.6383H171.665ZM218.6 93.6383H234.6C234.6 84.8018 227.436 77.6383 218.6 77.6383V93.6383ZM218.6 108.443V124.443C227.436 124.443 234.6 117.28 234.6 108.443H218.6ZM203.69 108.443V92.4433C194.853 92.4433 187.69 99.6068 187.69 108.443H203.69ZM203.69 147.673H186.68V179.673H203.69V147.673ZM202.68 163.673V108.443H170.68V163.673L202.68 163.673ZM186.68 92.4433H171.665V124.443L186.68 124.443V92.4433ZM187.665 108.443V93.6383H155.665V108.443H187.665ZM171.665 109.638L218.6 109.638V77.6383L171.665 77.6383V109.638ZM202.6 93.6383V108.443L234.6 108.443V93.6383L202.6 93.6383ZM218.6 92.4433L203.69 92.4433V124.443H218.6V92.4433ZM187.69 108.443V163.673H219.69V108.443L187.69 108.443ZM271.552 154.748L258.406 145.627C258.4 145.636 258.393 145.646 258.387 145.655L271.552 154.748ZM232.702 154.748L219.494 163.778C219.508 163.8 219.523 163.821 219.537 163.842L232.702 154.748ZM232.702 102.773L245.867 111.867C245.881 111.846 245.896 111.825 245.91 111.803L232.702 102.773ZM271.552 102.773L258.344 111.803C258.379 111.855 258.415 111.907 258.451 111.958L271.552 102.773ZM239.002 149.393L225.143 157.389C225.158 157.415 225.173 157.441 225.188 157.466L239.002 149.393ZM265.252 149.393L251.47 141.266C251.459 141.284 251.449 141.302 251.438 141.32L265.252 149.393ZM265.357 108.023L251.543 116.096L251.543 116.096L265.357 108.023ZM258.387 145.655C256.688 148.115 255.136 148.933 252.127 148.933V180.933C265.637 180.933 277.036 174.961 284.717 163.842L258.387 145.655ZM252.127 148.933C249.117 148.933 247.566 148.115 245.867 145.655L219.537 163.842C227.218 174.961 238.616 180.933 252.127 180.933V148.933ZM245.91 145.718C243.466 142.143 241.667 136.836 241.667 128.708H209.667C209.667 141.581 212.558 153.634 219.494 163.778L245.91 145.718ZM241.667 128.708C241.667 120.572 243.469 115.338 245.867 111.867L219.537 93.6801C212.555 103.789 209.667 115.844 209.667 128.708H241.667ZM245.91 111.803C247.64 109.273 249.189 108.483 252.127 108.483V76.4833C238.545 76.4833 227.144 82.5534 219.494 93.7432L245.91 111.803ZM252.127 108.483C255.065 108.483 256.614 109.273 258.344 111.803L284.76 93.7432C277.11 82.5534 265.709 76.4833 252.127 76.4833V108.483ZM258.451 111.958C260.876 115.418 262.692 120.617 262.692 128.708H294.692C294.692 115.799 291.748 103.709 284.653 93.5889L258.451 111.958ZM262.692 128.708C262.692 136.791 260.879 142.064 258.406 145.627L284.697 163.87C291.745 153.713 294.692 141.626 294.692 128.708H262.692ZM225.188 157.466C230.81 167.086 240.096 173.478 252.127 173.478V141.478C252.019 141.478 252.107 141.467 252.33 141.527C252.561 141.589 252.813 141.696 253.037 141.834C253.255 141.969 253.34 142.066 253.306 142.03C253.264 141.985 253.085 141.78 252.816 141.32L225.188 157.466ZM252.127 173.478C264.158 173.478 273.444 167.086 279.066 157.466L251.438 141.32C251.169 141.78 250.99 141.985 250.948 142.03C250.914 142.066 250.998 141.969 251.216 141.834C251.441 141.696 251.693 141.589 251.924 141.527C252.147 141.467 252.235 141.478 252.127 141.478V173.478ZM279.034 157.521C284.094 148.941 286.082 139.023 286.082 128.708H254.082C254.082 135.054 252.85 138.925 251.47 141.266L279.034 157.521ZM286.082 128.708C286.082 118.417 284.164 108.494 279.171 99.9502L251.543 116.096C252.85 118.332 254.082 122.2 254.082 128.708H286.082ZM279.171 99.9502C273.502 90.251 264.145 83.9383 252.127 83.9383V115.938C252.269 115.938 252.21 115.954 252.01 115.901C251.802 115.845 251.563 115.746 251.344 115.612C251.13 115.481 251.043 115.384 251.071 115.414C251.108 115.453 251.281 115.648 251.543 116.096L279.171 99.9502ZM252.127 83.9383C240.096 83.9383 230.81 90.3303 225.188 99.9502L252.816 116.096C253.085 115.636 253.264 115.432 253.306 115.387C253.34 115.35 253.255 115.448 253.037 115.582C252.813 115.721 252.561 115.827 252.33 115.89C252.107 115.95 252.019 115.938 252.127 115.938V83.9383ZM225.188 99.9502C220.195 108.494 218.277 118.417 218.277 128.708H250.277C250.277 122.2 251.509 118.332 252.816 116.096L225.188 99.9502ZM218.277 128.708C218.277 138.97 220.21 148.838 225.143 157.389L252.861 141.398C251.494 139.029 250.277 135.107 250.277 128.708H218.277ZM357.928 163.673V179.673C366.765 179.673 373.928 172.51 373.928 163.673H357.928ZM341.023 163.673H325.023C325.023 172.51 332.187 179.673 341.023 179.673V163.673ZM341.023 122.093H357.023C357.023 114.267 351.361 107.589 343.64 106.309C335.919 105.029 328.405 109.522 325.879 116.931L341.023 122.093ZM326.848 163.673V179.673C333.695 179.673 339.783 175.317 341.992 168.836L326.848 163.673ZM320.233 163.673L305.078 168.802C307.276 175.3 313.373 179.673 320.233 179.673V163.673ZM306.163 122.093L321.319 116.965C318.808 109.545 311.294 105.033 303.565 106.306C295.835 107.578 290.163 114.26 290.163 122.093H306.163ZM306.163 163.673V179.673C315 179.673 322.163 172.51 322.163 163.673L306.163 163.673ZM289.153 163.673H273.153C273.153 172.51 280.317 179.673 289.153 179.673V163.673ZM289.153 93.6383V77.6383C280.317 77.6383 273.153 84.8018 273.153 93.6383L289.153 93.6383ZM311.728 93.6383L326.88 88.4969C324.677 82.0053 318.583 77.6383 311.728 77.6383V93.6383ZM323.593 128.603L308.442 133.745C310.642 140.229 316.725 144.594 323.572 144.603C330.419 144.613 336.513 140.264 338.731 133.786L323.593 128.603ZM335.563 93.6383V77.6383C328.724 77.6383 322.641 81.9855 320.426 88.4561L335.563 93.6383ZM357.928 93.6383H373.928C373.928 84.8018 366.765 77.6383 357.928 77.6383V93.6383ZM357.928 147.673H341.023V179.673H357.928V147.673ZM357.023 163.673V122.093H325.023V163.673H357.023ZM325.879 116.931L311.704 158.511L341.992 168.836L356.167 127.256L325.879 116.931ZM326.848 147.673H320.233V179.673H326.848V147.673ZM335.389 158.545L321.319 116.965L291.008 127.222L305.078 168.802L335.389 158.545ZM290.163 122.093V163.673L322.163 163.673V122.093L290.163 122.093ZM306.163 147.673H289.153V179.673H306.163V147.673ZM305.153 163.673V93.6383L273.153 93.6383V163.673H305.153ZM289.153 109.638H311.728V77.6383H289.153V109.638ZM296.577 98.7798L308.442 133.745L338.745 123.462L326.88 88.4969L296.577 98.7798ZM338.731 133.786L350.701 98.8205L320.426 88.4561L308.456 123.421L338.731 133.786ZM335.563 109.638L357.928 109.638V77.6383L335.563 77.6383V109.638ZM341.928 93.6383V163.673H373.928V93.6383L341.928 93.6383ZM452.195 163.673V179.673C459.644 179.673 466.108 174.532 467.784 167.273L452.195 163.673ZM434.66 163.673L418.93 166.601C420.34 174.178 426.952 179.673 434.66 179.673V163.673ZM426.785 121.358L442.514 118.431C441.103 110.846 434.48 105.349 426.765 105.358C419.051 105.368 412.441 110.881 411.048 118.469L426.785 121.358ZM419.015 163.673V179.673C426.737 179.673 433.357 174.158 434.751 166.563L419.015 163.673ZM401.48 163.673L385.89 167.273C387.566 174.532 394.03 179.673 401.48 179.673V163.673ZM385.31 93.6383V77.6383C380.433 77.6383 375.823 79.862 372.788 83.6782C369.752 87.4944 368.623 92.4866 369.72 97.2378L385.31 93.6383ZM403.475 93.6383L419.237 90.8937C417.903 83.2314 411.252 77.6383 403.475 77.6383V93.6383ZM411.245 138.263L395.482 141.008C396.801 148.583 403.321 154.148 411.008 154.262C418.696 154.375 425.378 149.004 426.919 141.472L411.245 138.263ZM420.38 93.6383V77.6383C412.78 77.6383 406.229 82.9843 404.705 90.4296L420.38 93.6383ZM433.4 93.6383L449.082 90.465C447.572 83.0029 441.013 77.6383 433.4 77.6383V93.6383ZM442.43 138.263L426.747 141.437C428.274 148.979 434.953 154.367 442.648 154.262C450.342 154.157 456.872 148.589 458.192 141.008L442.43 138.263ZM450.2 93.6383V77.6383C442.422 77.6383 435.771 83.2314 434.437 90.8937L450.2 93.6383ZM468.365 93.6383L483.954 97.2378C485.051 92.4866 483.922 87.4944 480.886 83.6782C477.851 79.862 473.241 77.6383 468.365 77.6383V93.6383ZM452.195 147.673L434.66 147.673V179.673L452.195 179.673V147.673ZM450.389 160.746L442.514 118.431L411.055 124.286L418.93 166.601L450.389 160.746ZM411.048 118.469L403.278 160.784L434.751 166.563L442.521 124.248L411.048 118.469ZM419.015 147.673H401.48V179.673H419.015V147.673ZM417.069 160.074L400.899 90.0389L369.72 97.2378L385.89 167.273L417.069 160.074ZM385.31 109.638H403.475V77.6383H385.31V109.638ZM387.712 96.3829L395.482 141.008L427.007 135.519L419.237 90.8937L387.712 96.3829ZM426.919 141.472L436.054 96.8471L404.705 90.4296L395.57 135.055L426.919 141.472ZM420.38 109.638H433.4V77.6383H420.38V109.638ZM417.717 96.8117L426.747 141.437L458.112 135.09L449.082 90.465L417.717 96.8117ZM458.192 141.008L465.962 96.3829L434.437 90.8937L426.667 135.519L458.192 141.008ZM450.2 109.638H468.365V77.6383H450.2V109.638ZM452.775 90.0389L436.605 160.074L467.784 167.273L483.954 97.2378L452.775 90.0389ZM491.041 163.673V179.673C499.878 179.673 507.041 172.51 507.041 163.673H491.041ZM474.031 163.673H458.031C458.031 172.51 465.195 179.673 474.031 179.673V163.673ZM474.031 93.6383V77.6383C465.195 77.6383 458.031 84.8018 458.031 93.6383H474.031ZM491.041 93.6383H507.041C507.041 84.8018 499.878 77.6383 491.041 77.6383V93.6383ZM491.041 147.673H474.031V179.673H491.041V147.673ZM490.031 163.673V93.6383L458.031 93.6383V163.673H490.031ZM474.031 109.638L491.041 109.638V77.6383L474.031 77.6383V109.638ZM475.041 93.6383V163.673H507.041V93.6383L475.041 93.6383ZM530.687 163.673V179.673C539.523 179.673 546.687 172.51 546.687 163.673H530.687ZM513.677 163.673H497.677C497.677 172.51 504.84 179.673 513.677 179.673V163.673ZM513.677 108.443H529.677C529.677 99.6068 522.513 92.4433 513.677 92.4433V108.443ZM498.662 108.443H482.662C482.662 117.28 489.825 124.443 498.662 124.443V108.443ZM498.662 93.6383V77.6383C489.825 77.6383 482.662 84.8018 482.662 93.6383H498.662ZM545.597 93.6383L561.597 93.6383C561.597 84.8018 554.434 77.6383 545.597 77.6383V93.6383ZM545.597 108.443V124.443C554.434 124.443 561.597 117.28 561.597 108.443L545.597 108.443ZM530.687 108.443V92.4433C521.85 92.4433 514.687 99.6068 514.687 108.443H530.687ZM530.687 147.673H513.677V179.673H530.687V147.673ZM529.677 163.673V108.443H497.677V163.673H529.677ZM513.677 92.4433H498.662V124.443H513.677V92.4433ZM514.662 108.443V93.6383H482.662V108.443H514.662ZM498.662 109.638H545.597V77.6383H498.662V109.638ZM529.597 93.6383V108.443L561.597 108.443V93.6383L529.597 93.6383ZM545.597 92.4433H530.687V124.443H545.597V92.4433ZM514.687 108.443V163.673H546.687V108.443H514.687ZM607.684 163.673V179.673C616.521 179.673 623.684 172.51 623.684 163.673H607.684ZM590.674 163.673L574.674 163.673C574.674 172.51 581.837 179.673 590.674 179.673V163.673ZM590.674 135.113H606.674C606.674 126.277 599.51 119.113 590.674 119.113V135.113ZM570.304 135.113V119.113C561.467 119.113 554.304 126.277 554.304 135.113H570.304ZM570.304 163.673V179.673C579.141 179.673 586.304 172.51 586.304 163.673L570.304 163.673ZM553.294 163.673H537.294C537.294 172.51 544.457 179.673 553.294 179.673V163.673ZM553.294 93.6383V77.6383C544.457 77.6383 537.294 84.8018 537.294 93.6383L553.294 93.6383ZM570.304 93.6383H586.304C586.304 84.8018 579.141 77.6383 570.304 77.6383V93.6383ZM570.304 120.203H554.304C554.304 129.04 561.467 136.203 570.304 136.203V120.203ZM590.674 120.203V136.203C599.51 136.203 606.674 129.04 606.674 120.203H590.674ZM590.674 93.6383V77.6383C581.837 77.6383 574.674 84.8018 574.674 93.6383H590.674ZM607.684 93.6383L623.684 93.6383C623.684 84.8018 616.521 77.6383 607.684 77.6383V93.6383ZM607.684 147.673H590.674V179.673H607.684V147.673ZM606.674 163.673V135.113L574.674 135.113V163.673L606.674 163.673ZM590.674 119.113H570.304V151.113L590.674 151.113V119.113ZM554.304 135.113V163.673L586.304 163.673V135.113L554.304 135.113ZM570.304 147.673H553.294V179.673H570.304V147.673ZM569.294 163.673V93.6383L537.294 93.6383V163.673H569.294ZM553.294 109.638H570.304V77.6383H553.294V109.638ZM554.304 93.6383V120.203L586.304 120.203V93.6383H554.304ZM570.304 136.203L590.674 136.203V104.203H570.304V136.203ZM606.674 120.203V93.6383H574.674V120.203L606.674 120.203ZM590.674 109.638H607.684V77.6383H590.674V109.638ZM591.684 93.6383V163.673H623.684V93.6383L591.684 93.6383ZM167.224 244.853L154.87 234.687V234.687L167.224 244.853ZM122.704 244.853L110.35 255.02L122.704 244.853ZM122.704 192.563L135.059 202.73L122.704 192.563ZM167.224 192.563L154.87 202.73V202.73L167.224 192.563ZM154.729 234.038L140.988 225.842C140.973 225.866 140.959 225.891 140.945 225.915L154.729 234.038ZM154.729 203.378L140.945 211.501C140.98 211.562 141.016 211.622 141.053 211.682L154.729 203.378ZM135.199 203.378L121.523 195.075C121.486 195.135 121.45 195.195 121.415 195.255L135.199 203.378ZM135.199 234.038L121.352 242.055C121.408 242.151 121.465 242.247 121.523 242.342L135.199 234.038ZM154.87 234.687C152.613 237.428 149.873 238.933 144.964 238.933V270.933C158.675 270.933 170.775 265.718 179.579 255.02L154.87 234.687ZM144.964 238.933C140.055 238.933 137.315 237.428 135.059 234.687L110.35 255.02C119.153 265.718 131.253 270.933 144.964 270.933V238.933ZM135.059 234.687C132.391 231.445 130.409 226.592 130.409 218.708H98.4091C98.4091 232.244 101.957 244.821 110.35 255.02L135.059 234.687ZM130.409 218.708C130.409 210.824 132.391 205.971 135.059 202.73L110.35 182.397C101.957 192.595 98.4091 205.172 98.4091 218.708H130.409ZM135.059 202.73C137.315 199.988 140.055 198.483 144.964 198.483V166.483C131.253 166.483 119.153 171.698 110.35 182.397L135.059 202.73ZM144.964 198.483C149.873 198.483 152.613 199.988 154.87 202.73L179.579 182.397C170.775 171.698 158.675 166.483 144.964 166.483V198.483ZM154.87 202.73C157.537 205.971 159.519 210.824 159.519 218.708L191.519 218.708C191.519 205.172 187.971 192.595 179.579 182.397L154.87 202.73ZM159.519 218.708C159.519 226.592 157.537 231.445 154.87 234.687L179.579 255.02C187.971 244.821 191.519 232.244 191.519 218.708L159.519 218.708ZM144.964 255.918C155.38 255.918 163.618 250.469 168.514 242.161L140.945 225.915C140.874 226.034 141.24 225.381 142.302 224.741C143.423 224.066 144.471 223.918 144.964 223.918L144.964 255.918ZM168.47 242.235C172.75 235.06 174.299 226.872 174.299 218.708H142.299C142.299 223.005 141.468 225.037 140.988 225.842L168.47 242.235ZM174.299 218.708C174.299 210.532 172.772 202.266 168.406 195.075L141.053 211.682C141.447 212.331 142.299 214.285 142.299 218.708H174.299ZM168.514 195.255C163.618 186.948 155.38 181.498 144.964 181.498V213.498C144.471 213.498 143.423 213.35 142.302 212.675C141.24 212.036 140.874 211.383 140.945 211.501L168.514 195.255ZM144.964 181.498C134.542 181.498 126.42 187.008 121.523 195.075L148.876 211.682C148.998 211.481 148.684 212.07 147.679 212.675C146.6 213.325 145.546 213.498 144.964 213.498V181.498ZM121.415 195.255C117.2 202.406 115.734 210.602 115.734 218.708H147.734C147.734 214.215 148.578 212.19 148.984 211.501L121.415 195.255ZM115.734 218.708C115.734 226.802 117.221 234.919 121.352 242.055L149.046 226.022C148.557 225.177 147.734 223.075 147.734 218.708H115.734ZM121.523 242.342C126.42 250.409 134.542 255.918 144.964 255.918L144.964 223.918C145.546 223.918 146.6 224.092 147.679 224.741C148.684 225.347 148.998 225.936 148.876 225.735L121.523 242.342ZM190.094 249.893L179.343 261.742C179.383 261.779 179.424 261.816 179.465 261.852L190.094 249.893ZM184.949 230.888L200.552 234.434C200.56 234.398 200.568 234.362 200.576 234.326L184.949 230.888ZM195.344 183.638V167.638C187.833 167.638 181.332 172.864 179.718 180.201L195.344 183.638ZM203.744 183.638L219.367 187.095C220.414 182.359 219.257 177.403 216.22 173.621C213.184 169.839 208.595 167.638 203.744 167.638V183.638ZM193.244 231.098L177.622 227.642C177.535 228.037 177.462 228.435 177.405 228.836L193.244 231.098ZM196.289 244.223L185.151 255.71L196.289 244.223ZM215.819 243.593L204.063 232.741C204.059 232.745 204.055 232.749 204.051 232.754L215.819 243.593ZM221.489 231.098L237.099 234.611C237.103 234.592 237.108 234.573 237.112 234.555L221.489 231.098ZM231.989 183.638V167.638C224.485 167.638 217.988 172.854 216.367 180.182L231.989 183.638ZM240.284 183.638L255.912 187.069C256.951 182.336 255.789 177.387 252.752 173.611C249.715 169.835 245.13 167.638 240.284 167.638V183.638ZM229.889 230.993L245.489 234.551C245.499 234.509 245.508 234.466 245.517 234.424L229.889 230.993ZM221.384 248.948L232.898 260.058L221.384 248.948ZM205.424 238.933C201.798 238.933 200.843 238.041 200.724 237.935L179.465 261.852C186.906 268.466 196.171 270.933 205.424 270.933V238.933ZM200.846 238.044C200.751 237.957 200.718 237.911 200.714 237.904C200.709 237.898 200.693 237.876 200.667 237.811C200.618 237.691 200.424 237.151 200.424 235.928L168.424 235.928C168.424 245.566 171.699 254.807 179.343 261.742L200.846 238.044ZM200.424 235.928C200.424 235.125 200.502 234.65 200.552 234.434L169.347 227.342C168.696 230.206 168.424 233.092 168.424 235.928L200.424 235.928ZM200.576 234.326L210.971 187.076L179.718 180.201L169.323 227.451L200.576 234.326ZM195.344 199.638H203.744V167.638H195.344V199.638ZM188.122 180.182L177.622 227.642L208.867 234.555L219.367 187.095L188.122 180.182ZM177.405 228.836C177.133 230.738 176.824 233.145 176.824 235.193H208.824C208.824 235.455 208.814 235.592 208.816 235.551C208.818 235.525 208.826 235.422 208.846 235.225C208.887 234.822 208.962 234.214 209.084 233.361L177.405 228.836ZM176.824 235.193C176.824 242.483 179.191 249.93 185.151 255.71L207.428 232.737C207.946 233.239 208.375 233.892 208.629 234.554C208.863 235.164 208.824 235.455 208.824 235.193H176.824ZM185.151 255.71C191.125 261.502 198.643 263.583 205.739 263.583L205.739 231.583C205.227 231.583 205.302 231.511 205.745 231.668C206.244 231.846 206.872 232.198 207.428 232.737L185.151 255.71ZM205.739 263.583C213.6 263.583 221.559 260.979 227.588 254.433L204.051 232.754C204.23 232.56 204.465 232.348 204.754 232.15C205.042 231.952 205.325 231.807 205.573 231.709C206.075 231.51 206.217 231.583 205.739 231.583L205.739 263.583ZM227.576 254.446C232.77 248.819 235.53 241.585 237.099 234.611L205.88 227.586C205.432 229.577 204.953 230.937 204.557 231.81C204.161 232.684 203.933 232.881 204.063 232.741L227.576 254.446ZM237.112 234.555L247.612 187.095L216.367 180.182L205.867 227.642L237.112 234.555ZM231.989 199.638H240.284V167.638H231.989V199.638ZM224.657 180.208L214.262 227.563L245.517 234.424L255.912 187.069L224.657 180.208ZM214.29 227.436C212.83 233.839 210.953 236.717 209.871 237.838L232.898 260.058C239.516 253.2 243.309 244.108 245.489 234.551L214.29 227.436ZM209.871 237.838C209.691 238.025 208.915 238.933 205.424 238.933V270.933C215.514 270.933 225.378 267.852 232.898 260.058L209.871 237.838ZM295.025 253.673V269.673C300.425 269.673 305.462 266.949 308.417 262.428C311.372 257.908 311.847 252.201 309.681 247.254L295.025 253.673ZM276.125 253.673L261.189 259.413C263.565 265.594 269.503 269.673 276.125 269.673V253.673ZM266.885 229.628L281.82 223.889C279.445 217.708 273.507 213.628 266.885 213.628V229.628ZM260.585 229.628V213.628C251.748 213.628 244.585 220.792 244.585 229.628H260.585ZM260.585 253.673V269.673C269.421 269.673 276.585 262.51 276.585 253.673H260.585ZM243.575 253.673H227.575C227.575 262.51 234.738 269.673 243.575 269.673V253.673ZM243.575 183.638V167.638C234.738 167.638 227.575 174.802 227.575 183.638H243.575ZM288.305 190.148L276.62 201.079C276.681 201.144 276.742 201.208 276.804 201.272L288.305 190.148ZM291.14 219.548L277.827 210.673C277.812 210.695 277.798 210.717 277.783 210.739L291.14 219.548ZM283.16 226.583L276.661 211.962C268.617 215.538 264.972 224.939 268.504 233.002L283.16 226.583ZM275.075 212.618L263.761 201.305C263.669 201.397 263.578 201.49 263.488 201.584L275.075 212.618ZM275.075 200.648L263.488 211.683C263.578 211.777 263.669 211.87 263.761 211.962L275.075 200.648ZM260.585 198.443V182.443C251.748 182.443 244.585 189.607 244.585 198.443H260.585ZM260.585 214.823H244.585C244.585 223.66 251.748 230.823 260.585 230.823V214.823ZM295.025 237.673H276.125V269.673H295.025V237.673ZM291.06 247.934L281.82 223.889L251.949 235.368L261.189 259.413L291.06 247.934ZM266.885 213.628H260.585V245.628H266.885V213.628ZM244.585 229.628V253.673H276.585V229.628H244.585ZM260.585 237.673H243.575V269.673H260.585V237.673ZM259.575 253.673V183.638H227.575V253.673H259.575ZM243.575 199.638H272.135V167.638H243.575V199.638ZM272.135 199.638C275.064 199.638 275.996 200.411 276.62 201.079L299.989 179.218C292.494 171.206 282.645 167.638 272.135 167.638V199.638ZM276.804 201.272C277.726 202.225 278.5 203.507 278.5 206.423H310.5C310.5 196.18 307.143 186.611 299.805 179.025L276.804 201.272ZM278.5 206.423C278.5 208.029 278.331 209.109 278.16 209.779C277.994 210.424 277.835 210.66 277.827 210.673L304.453 228.424C308.943 221.689 310.5 213.936 310.5 206.423H278.5ZM277.783 210.739C277.393 211.331 277.093 211.634 276.936 211.773C276.791 211.901 276.708 211.942 276.661 211.962L289.658 241.204C295.987 238.392 300.89 233.825 304.496 228.358L277.783 210.739ZM268.504 233.002L280.369 260.092L309.681 247.254L297.816 220.164L268.504 233.002ZM269.51 230.823C275.536 230.823 281.813 228.743 286.661 223.653L263.488 201.584C264.357 200.672 265.476 199.898 266.74 199.397C267.96 198.914 268.961 198.823 269.51 198.823V230.823ZM286.388 223.932C291.476 218.844 293.28 212.436 293.28 206.633H261.28C261.28 206.347 261.321 205.556 261.715 204.488C262.129 203.364 262.821 202.245 263.761 201.305L286.388 223.932ZM293.28 206.633C293.28 200.83 291.476 194.422 286.388 189.335L263.761 211.962C262.821 211.022 262.129 209.903 261.715 208.778C261.321 207.71 261.28 206.919 261.28 206.633H293.28ZM286.661 189.614C281.813 184.523 275.536 182.443 269.51 182.443V214.443C268.961 214.443 267.96 214.353 266.74 213.869C265.476 213.369 264.357 212.595 263.488 211.683L286.661 189.614ZM269.51 182.443H260.585V214.443H269.51V182.443ZM244.585 198.443V214.823H276.585V198.443H244.585ZM260.585 230.823H269.51V198.823H260.585V230.823ZM381.048 253.673V269.673C386.094 269.673 390.844 267.293 393.865 263.252C396.885 259.21 397.822 253.98 396.393 249.141L381.048 253.673ZM362.673 253.673L347.133 257.482C348.888 264.64 355.304 269.673 362.673 269.673V253.673ZM360.048 242.963L375.588 239.155C373.834 231.997 367.418 226.963 360.048 226.963V242.963ZM340.203 242.963V226.963C332.834 226.963 326.418 231.997 324.663 239.155L340.203 242.963ZM337.578 253.673V269.673C344.948 269.673 351.364 264.64 353.118 257.482L337.578 253.673ZM319.203 253.673L303.859 249.141C302.43 253.98 303.367 259.21 306.387 263.252C309.408 267.293 314.158 269.673 319.203 269.673V253.673ZM339.888 183.638V167.638C332.797 167.638 326.552 172.306 324.544 179.106L339.888 183.638ZM360.363 183.638L375.708 179.106C373.7 172.306 367.454 167.638 360.363 167.638V183.638ZM356.688 228.158V244.158C361.595 244.158 366.23 241.907 369.263 238.051C372.297 234.195 373.394 229.161 372.239 224.392L356.688 228.158ZM350.178 201.278L365.729 197.512C363.993 190.345 357.583 185.292 350.208 185.278C342.833 185.265 336.404 190.294 334.642 197.455L350.178 201.278ZM343.563 228.158L328.027 224.335C326.852 229.109 327.937 234.158 330.97 238.028C334.003 241.898 338.647 244.158 343.563 244.158V228.158ZM381.048 237.673H362.673V269.673L381.048 269.673V237.673ZM378.213 249.865L375.588 239.155L344.508 246.772L347.133 257.482L378.213 249.865ZM360.048 226.963H340.203V258.963H360.048V226.963ZM324.663 239.155L322.038 249.865L353.118 257.482L355.743 246.772L324.663 239.155ZM337.578 237.673H319.203V269.673H337.578V237.673ZM334.548 258.205L355.233 188.17L324.544 179.106L303.859 249.141L334.548 258.205ZM339.888 199.638H360.363V167.638H339.888V199.638ZM345.019 188.17L365.704 258.205L396.393 249.141L375.708 179.106L345.019 188.17ZM372.239 224.392L365.729 197.512L334.628 205.044L341.138 231.924L372.239 224.392ZM334.642 197.455L328.027 224.335L359.1 231.982L365.715 205.102L334.642 197.455ZM343.563 244.158H356.688V212.158H343.563V244.158ZM402.909 253.673V269.673C411.745 269.673 418.909 262.51 418.909 253.673H402.909ZM385.899 253.673L369.899 253.673C369.899 262.51 377.062 269.673 385.899 269.673V253.673ZM385.899 183.638V167.638C377.062 167.638 369.899 174.802 369.899 183.638H385.899ZM430.839 190.253L418.88 200.883C418.912 200.918 418.943 200.953 418.974 200.988L430.839 190.253ZM430.839 223.118L418.974 212.384L418.965 212.394L430.839 223.118ZM402.909 229.628V213.628C394.072 213.628 386.909 220.792 386.909 229.628H402.909ZM417.504 212.618L405.918 201.584L405.918 201.584L417.504 212.618ZM417.504 200.648L405.918 211.683L405.918 211.683L417.504 200.648ZM402.909 198.443V182.443C394.072 182.443 386.909 189.607 386.909 198.443H402.909ZM402.909 214.823H386.909C386.909 223.66 394.072 230.823 402.909 230.823V214.823ZM402.909 237.673H385.899V269.673H402.909V237.673ZM401.899 253.673V183.638H369.899V253.673L401.899 253.673ZM385.899 199.638H414.039V167.638H385.899V199.638ZM414.039 199.638C417.904 199.638 418.688 200.667 418.88 200.883L442.797 179.624C435.15 171.02 424.734 167.638 414.039 167.638V199.638ZM418.974 200.988C420.012 202.135 420.824 203.669 420.824 206.738L452.824 206.738C452.824 196.647 449.646 187.192 442.703 179.519L418.974 200.988ZM420.824 206.738C420.824 209.688 420.042 211.204 418.974 212.384L442.703 233.853C449.616 226.213 452.824 216.809 452.824 206.738L420.824 206.738ZM418.965 212.394C418.795 212.582 417.984 213.628 414.039 213.628V245.628C424.653 245.628 435.043 242.334 442.713 233.843L418.965 212.394ZM414.039 213.628H402.909V245.628H414.039V213.628ZM386.909 229.628V253.673H418.909V229.628H386.909ZM411.939 230.823C417.966 230.823 424.242 228.743 429.09 223.653L405.918 201.584C406.786 200.672 407.905 199.898 409.169 199.397C410.389 198.914 411.39 198.823 411.939 198.823V230.823ZM429.09 223.653C433.969 218.53 435.604 212.22 435.604 206.633H403.604C403.604 206.426 403.632 205.718 403.981 204.722C404.35 203.671 404.989 202.559 405.918 201.584L429.09 223.653ZM435.604 206.633C435.604 201.047 433.969 194.736 429.09 189.614L405.918 211.683C404.989 210.708 404.35 209.596 403.981 208.544C403.632 207.548 403.604 206.841 403.604 206.633H435.604ZM429.09 189.614C424.242 184.523 417.966 182.443 411.939 182.443V214.443C411.39 214.443 410.389 214.353 409.169 213.869C407.905 213.369 406.786 212.595 405.918 211.683L429.09 189.614ZM411.939 182.443H402.909V214.443H411.939V182.443ZM386.909 198.443V214.823H418.909V198.443H386.909ZM402.909 230.823H411.939V198.823H402.909V230.823ZM461.254 253.673V269.673C470.09 269.673 477.254 262.51 477.254 253.673H461.254ZM444.244 253.673H428.244C428.244 262.51 435.407 269.673 444.244 269.673V253.673ZM444.244 183.638V167.638C435.407 167.638 428.244 174.802 428.244 183.638H444.244ZM489.184 190.253L477.225 200.883C477.256 200.918 477.288 200.953 477.319 200.988L489.184 190.253ZM489.184 223.118L477.319 212.384L477.31 212.394L489.184 223.118ZM461.254 229.628V213.628C452.417 213.628 445.254 220.792 445.254 229.628L461.254 229.628ZM475.849 212.618L464.262 201.584L464.262 201.584L475.849 212.618ZM475.849 200.648L464.262 211.683L464.262 211.683L475.849 200.648ZM461.254 198.443V182.443C452.417 182.443 445.254 189.607 445.254 198.443L461.254 198.443ZM461.254 214.823L445.254 214.823C445.254 223.66 452.417 230.823 461.254 230.823V214.823ZM461.254 237.673L444.244 237.673V269.673H461.254V237.673ZM460.244 253.673V183.638L428.244 183.638V253.673H460.244ZM444.244 199.638L472.384 199.638V167.638L444.244 167.638V199.638ZM472.384 199.638C476.249 199.638 477.033 200.667 477.225 200.883L501.142 179.624C493.495 171.02 483.078 167.638 472.384 167.638V199.638ZM477.319 200.988C478.357 202.135 479.169 203.669 479.169 206.738H511.169C511.169 196.647 507.991 187.192 501.048 179.519L477.319 200.988ZM479.169 206.738C479.169 209.688 478.387 211.204 477.319 212.384L501.048 233.853C507.961 226.213 511.169 216.809 511.169 206.738H479.169ZM477.31 212.394C477.14 212.582 476.329 213.628 472.384 213.628V245.628C482.998 245.628 493.388 242.334 501.057 233.843L477.31 212.394ZM472.384 213.628H461.254V245.628H472.384V213.628ZM445.254 229.628V253.673H477.254V229.628L445.254 229.628ZM470.284 230.823C476.31 230.823 482.587 228.743 487.435 223.653L464.262 201.584C465.131 200.672 466.25 199.898 467.514 199.397C468.734 198.914 469.735 198.823 470.284 198.823V230.823ZM487.435 223.653C492.314 218.53 493.949 212.22 493.949 206.633H461.949C461.949 206.426 461.977 205.718 462.326 204.722C462.695 203.671 463.334 202.559 464.262 201.584L487.435 223.653ZM493.949 206.633C493.949 201.047 492.314 194.736 487.435 189.614L464.262 211.683C463.334 210.708 462.695 209.596 462.326 208.544C461.977 207.548 461.949 206.841 461.949 206.633H493.949ZM487.435 189.614C482.587 184.523 476.31 182.443 470.284 182.443V214.443C469.735 214.443 468.734 214.353 467.514 213.869C466.25 213.369 465.131 212.595 464.262 211.683L487.435 189.614ZM470.284 182.443H461.254V214.443H470.284V182.443ZM445.254 198.443V214.823L477.254 214.823V198.443L445.254 198.443ZM461.254 230.823H470.284V198.823H461.254V230.823Z" fill="black" mask="url(#path-1-outside-1_230_43662)"/>
</svg>
