<svg width="522" height="569" viewBox="0 0 522 569" fill="none" xmlns="http://www.w3.org/2000/svg">
<path d="M462.376 548.012C462.376 549.669 461.033 551.012 459.376 551.012H443.506C441.849 551.012 440.506 549.669 440.506 548.012V463.967C440.506 462.31 441.849 460.967 443.506 460.967H476.686C486.046 460.967 493.246 463.802 498.286 469.472C503.416 475.142 505.981 482.207 505.981 490.667C505.981 499.037 503.416 506.057 498.286 511.727C493.246 517.307 486.046 520.097 476.686 520.097H465.376C463.719 520.097 462.376 521.44 462.376 523.097V548.012ZM473.986 501.062C476.956 501.062 479.341 500.117 481.141 498.227C482.941 496.337 483.841 493.772 483.841 490.532C483.841 487.292 482.941 484.727 481.141 482.837C479.341 480.947 476.956 480.002 473.986 480.002H465.376C463.719 480.002 462.376 481.345 462.376 483.002V498.062C462.376 499.719 463.719 501.062 465.376 501.062H473.986Z" fill="white"/>
<path d="M387.362 548.012C387.362 549.669 386.018 551.012 384.362 551.012H368.492C366.835 551.012 365.492 549.669 365.492 548.012V463.967C365.492 462.31 366.835 460.967 368.492 460.967H401.672C411.032 460.967 418.232 463.802 423.272 469.472C428.402 475.142 430.967 482.207 430.967 490.667C430.967 499.037 428.402 506.057 423.272 511.727C418.232 517.307 411.032 520.097 401.672 520.097H390.362C388.705 520.097 387.362 521.44 387.362 523.097V548.012ZM398.972 501.062C401.942 501.062 404.327 500.117 406.127 498.227C407.927 496.337 408.827 493.772 408.827 490.532C408.827 487.292 407.927 484.727 406.127 482.837C404.327 480.947 401.942 480.002 398.972 480.002H390.362C388.705 480.002 387.362 481.345 387.362 483.002V498.062C387.362 499.719 388.705 501.062 390.362 501.062H398.972Z" fill="white"/>
<path d="M358.118 547.162C358.686 549.084 357.245 551.012 355.241 551.012H337.984C336.602 551.012 335.399 550.068 335.07 548.726L332.815 539.528C332.486 538.186 331.283 537.242 329.902 537.242H309.094C307.712 537.242 306.509 538.186 306.18 539.528L303.925 548.726C303.596 550.068 302.393 551.012 301.012 551.012H283.754C281.75 551.012 280.309 549.084 280.877 547.162L305.7 463.117C306.077 461.842 307.248 460.967 308.577 460.967H330.418C331.748 460.967 332.919 461.842 333.295 463.117L358.118 547.162ZM324.122 518.207C326.064 518.207 327.495 516.389 327.038 514.501L322.458 495.59C321.718 492.537 317.379 492.529 316.629 495.579L311.975 514.49C311.51 516.381 312.941 518.207 314.888 518.207H324.122Z" fill="white"/>
<path d="M246.812 546.808C247.68 548.79 246.228 551.012 244.064 551.012H226.414C225.173 551.012 224.059 550.247 223.614 549.088L213.213 522.021C212.767 520.862 211.654 520.097 210.412 520.097H207.373C205.716 520.097 204.373 521.44 204.373 523.097V548.012C204.373 549.669 203.03 551.012 201.373 551.012H185.503C183.846 551.012 182.503 549.669 182.503 548.012V463.967C182.503 462.31 183.846 460.967 185.503 460.967H219.223C227.863 460.967 234.793 463.757 240.013 469.337C245.323 474.827 247.978 481.802 247.978 490.262C247.978 497.192 246.538 502.817 243.658 507.137C241.495 510.417 238.953 512.966 236.032 514.785C234.631 515.657 233.933 517.403 234.595 518.915L246.812 546.808ZM215.848 501.062C218.818 501.062 221.203 500.117 223.003 498.227C224.893 496.337 225.838 493.772 225.838 490.532C225.838 487.292 224.893 484.727 223.003 482.837C221.203 480.947 218.818 480.002 215.848 480.002H207.373C205.716 480.002 204.373 481.345 204.373 483.002V498.062C204.373 499.719 205.716 501.062 207.373 501.062H215.848Z" fill="white"/>
<path d="M133.453 552.632C125.173 552.632 118.603 550.472 113.743 546.152C108.883 541.742 106.453 535.757 106.453 528.197C106.453 525.857 106.678 523.697 107.128 521.717L119.975 463.322C120.277 461.947 121.496 460.967 122.905 460.967H127.557C129.475 460.967 130.9 462.742 130.486 464.615L117.793 521.987C117.433 524.507 117.253 526.262 117.253 527.252C117.253 532.112 118.738 535.982 121.708 538.862C124.678 541.742 128.728 543.182 133.858 543.182C139.348 543.182 143.668 541.472 146.818 538.052C150.058 534.542 152.488 529.187 154.108 521.987L167.088 463.319C167.392 461.945 168.61 460.967 170.017 460.967H174.543C176.459 460.967 177.884 462.739 177.473 464.61L164.908 521.852C162.568 532.112 158.923 539.807 153.973 544.937C149.023 550.067 142.183 552.632 133.453 552.632Z" fill="white"/>
<path d="M84.3382 539.672C77.2282 548.312 67.6882 552.632 55.7182 552.632C43.7482 552.632 34.2082 548.312 27.0982 539.672C19.9882 531.032 16.4332 519.827 16.4332 506.057C16.4332 492.287 19.9882 481.082 27.0982 472.442C34.2082 463.802 43.7482 459.482 55.7182 459.482C67.6882 459.482 77.2282 463.802 84.3382 472.442C91.4482 481.082 95.0032 492.287 95.0032 506.057C95.0032 519.827 91.4482 531.032 84.3382 539.672ZM55.7182 533.327C61.1182 533.327 65.3032 530.807 68.2732 525.767C71.3332 520.637 72.8632 514.067 72.8632 506.057C72.8632 497.957 71.3332 491.387 68.2732 486.347C65.3032 481.307 61.1182 478.787 55.7182 478.787C50.4082 478.787 46.2232 481.307 43.1632 486.347C40.1932 491.387 38.7082 497.957 38.7082 506.057C38.7082 514.067 40.1932 520.637 43.1632 525.767C46.2232 530.807 50.4082 533.327 55.7182 533.327Z" fill="white"/>
<path d="M400.089 438.012C400.089 439.669 398.746 441.012 397.089 441.012H381.219C379.563 441.012 378.219 439.669 378.219 438.012V407.292C378.219 405.635 376.876 404.292 375.219 404.292H355.029C353.373 404.292 352.029 405.635 352.029 407.292V438.012C352.029 439.669 350.686 441.012 349.029 441.012H333.159C331.503 441.012 330.159 439.669 330.159 438.012V353.967C330.159 352.31 331.503 350.967 333.159 350.967H349.029C350.686 350.967 352.029 352.31 352.029 353.967V382.122C352.029 383.779 353.373 385.122 355.029 385.122H375.219C376.876 385.122 378.219 383.779 378.219 382.122V353.967C378.219 352.31 379.563 350.967 381.219 350.967H397.089C398.746 350.967 400.089 352.31 400.089 353.967V438.012Z" fill="white"/>
<path d="M301.093 438.012C301.093 439.669 299.75 441.012 298.093 441.012H282.223C280.567 441.012 279.223 439.669 279.223 438.012V373.002C279.223 371.345 277.88 370.002 276.223 370.002H262.918C261.262 370.002 259.918 368.659 259.918 367.002V353.967C259.918 352.31 261.262 350.967 262.918 350.967H317.263C318.92 350.967 320.263 352.31 320.263 353.967V367.002C320.263 368.659 318.92 370.002 317.263 370.002H304.093C302.436 370.002 301.093 371.345 301.093 373.002V438.012Z" fill="white"/>
<path d="M250.12 438.012C250.12 439.669 248.777 441.012 247.12 441.012H231.25C229.593 441.012 228.25 439.669 228.25 438.012V353.967C228.25 352.31 229.593 350.967 231.25 350.967H247.12C248.777 350.967 250.12 352.31 250.12 353.967V438.012Z" fill="white"/>
<path d="M200.711 438.687C200.397 440.048 199.185 441.012 197.788 441.012H180.123C178.678 441.012 177.438 439.981 177.173 438.561L170.474 402.561C169.865 399.289 165.175 399.295 164.574 402.568L157.966 438.554C157.704 439.978 156.463 441.012 155.015 441.012H137.356C135.959 441.012 134.747 440.048 134.433 438.687L115.028 354.642C114.594 352.762 116.022 350.967 117.951 350.967H135.012C136.47 350.967 137.717 352.015 137.967 353.452L144.807 392.735C145.375 395.999 150.037 396.068 150.702 392.822L158.779 353.365C159.064 351.969 160.293 350.967 161.718 350.967H173.556C174.983 350.967 176.213 351.973 176.496 353.372L184.458 392.718C185.116 395.969 189.785 395.906 190.354 392.638L197.177 353.452C197.427 352.015 198.674 350.967 200.132 350.967H217.193C219.122 350.967 220.55 352.762 220.116 354.642L200.711 438.687Z" fill="white"/>
<path d="M490.171 328.012C490.171 329.669 488.828 331.012 487.171 331.012H471.436C469.78 331.012 468.436 329.669 468.436 328.012V295.649C468.436 292.258 463.691 291.471 462.597 294.681L450.904 328.98C450.49 330.195 449.348 331.012 448.065 331.012H443.858C442.572 331.012 441.429 330.192 441.017 328.973L429.458 294.815C428.37 291.599 423.616 292.382 423.616 295.777V328.012C423.616 329.669 422.273 331.012 420.616 331.012H404.746C403.09 331.012 401.746 329.669 401.746 328.012V243.967C401.746 242.31 403.09 240.967 404.746 240.967H428.621C429.907 240.967 431.049 241.786 431.462 243.003L443.198 277.587C444.118 280.298 447.95 280.303 448.877 277.594L460.722 242.995C461.137 241.782 462.278 240.967 463.56 240.967L487.171 240.967C488.828 240.967 490.171 242.31 490.171 243.967V328.012Z" fill="white"/>
<path d="M379.116 319.537C373.086 328.267 364.761 332.632 354.141 332.632C343.521 332.632 335.196 328.267 329.166 319.537C323.136 310.717 320.121 299.557 320.121 286.057C320.121 272.557 323.136 261.442 329.166 252.712C335.196 243.892 343.521 239.482 354.141 239.482C364.761 239.482 373.086 243.892 379.116 252.712C385.236 261.442 388.296 272.557 388.296 286.057C388.296 299.557 385.236 310.717 379.116 319.537ZM337.266 312.652C341.316 319.582 346.941 323.047 354.141 323.047C361.341 323.047 366.966 319.582 371.016 312.652C375.156 305.632 377.226 296.767 377.226 286.057C377.226 275.257 375.201 266.392 371.151 259.462C367.101 252.532 361.431 249.067 354.141 249.067C346.941 249.067 341.316 252.532 337.266 259.462C333.216 266.392 331.191 275.257 331.191 286.057C331.191 296.767 333.216 305.632 337.266 312.652Z" fill="white"/>
<path d="M291.865 328.012C291.865 329.669 290.522 331.012 288.865 331.012H272.995C271.338 331.012 269.995 329.669 269.995 328.012V263.002C269.995 261.345 268.652 260.002 266.995 260.002H253.69C252.033 260.002 250.69 258.659 250.69 257.002V243.967C250.69 242.31 252.033 240.967 253.69 240.967H308.035C309.692 240.967 311.035 242.31 311.035 243.967V257.002C311.035 258.659 309.692 260.002 308.035 260.002H294.865C293.208 260.002 291.865 261.345 291.865 263.002V328.012Z" fill="white"/>
<path d="M214.902 332.632C202.29 332.632 192.042 329.26 184.158 322.517C183.085 321.598 182.899 320.031 183.644 318.831L190.69 307.484C191.734 305.804 194.088 305.583 195.596 306.864C200.987 311.443 207.377 313.732 214.767 313.732C217.917 313.732 220.392 313.012 222.192 311.572C224.082 310.132 225.027 308.287 225.027 306.037C225.027 304.057 224.037 302.347 222.057 300.907C220.077 299.377 217.602 298.162 214.632 297.262C211.662 296.272 208.467 295.012 205.047 293.482C201.627 291.952 198.432 290.242 195.462 288.352C192.492 286.462 190.017 283.717 188.037 280.117C186.057 276.427 185.067 272.107 185.067 267.157C185.067 259.507 187.902 252.982 193.572 247.582C199.242 242.182 206.937 239.482 216.657 239.482C227.309 239.482 236.294 242.361 243.612 248.118C244.759 249.021 244.982 250.647 244.208 251.885L237.35 262.857C236.351 264.457 234.144 264.735 232.612 263.635C227.861 260.223 222.273 258.517 215.847 258.517C213.147 258.517 211.032 259.147 209.502 260.407C208.062 261.667 207.342 263.332 207.342 265.402C207.342 267.202 208.332 268.822 210.312 270.262C212.292 271.702 214.722 272.917 217.602 273.907C220.572 274.897 223.767 276.202 227.187 277.822C230.697 279.442 233.892 281.197 236.772 283.087C239.742 284.977 242.217 287.722 244.197 291.322C246.177 294.922 247.167 299.107 247.167 303.877C247.167 312.607 244.287 319.582 238.527 324.802C232.857 330.022 224.982 332.632 214.902 332.632Z" fill="white"/>
<path d="M138.64 332.632C127.75 332.632 119.11 329.662 112.72 323.722C106.42 317.782 103.27 309.547 103.27 299.017V243.967C103.27 242.31 104.613 240.967 106.27 240.967H122.275C123.932 240.967 125.275 242.31 125.275 243.967V299.152C125.275 303.742 126.4 307.297 128.65 309.817C130.99 312.247 134.32 313.462 138.64 313.462C142.87 313.462 146.11 312.202 148.36 309.682C150.7 307.162 151.87 303.652 151.87 299.152V243.967C151.87 242.31 153.213 240.967 154.87 240.967H170.875C172.532 240.967 173.875 242.31 173.875 243.967V299.017C173.875 309.547 170.68 317.782 164.29 323.722C157.99 329.662 149.44 332.632 138.64 332.632Z" fill="white"/>
<path d="M65.4424 332.632C54.8224 332.632 46.3174 328.312 39.9274 319.672C33.6274 310.942 30.4774 299.737 30.4774 286.057C30.4774 272.377 33.6274 261.217 39.9274 252.577C46.3174 243.847 54.8224 239.482 65.4424 239.482C75.9463 239.482 84.208 244.423 90.2275 254.304C91.1157 255.762 90.4785 257.638 88.9332 258.364L85.507 259.973C84.0333 260.665 82.2913 260.043 81.4362 258.657C77.4901 252.264 72.1589 249.067 65.4424 249.067C58.2424 249.067 52.4374 252.532 48.0274 259.462C43.7074 266.392 41.5474 275.257 41.5474 286.057C41.5474 296.857 43.7074 305.722 48.0274 312.652C52.4374 319.582 58.2424 323.047 65.4424 323.047C72.4157 323.047 77.8186 319.514 81.651 312.447C82.4541 310.966 84.2513 310.265 85.7801 310.972L89.2391 312.573C90.772 313.282 91.4251 315.125 90.587 316.591C84.4751 327.285 76.0936 332.632 65.4424 332.632Z" fill="white"/>
<path d="M359.344 218.012C359.344 219.669 358.001 221.012 356.344 221.012H340.474C338.817 221.012 337.474 219.669 337.474 218.012V185.16C337.474 184.678 337.358 184.204 337.135 183.776L311.945 135.351C310.906 133.354 312.355 130.967 314.606 130.967H331.608C332.794 130.967 333.869 131.666 334.35 132.75L345.654 158.236C346.711 160.618 350.094 160.613 351.143 158.227L362.336 132.76C362.815 131.67 363.892 130.967 365.082 130.967L382.088 130.967C384.336 130.967 385.785 133.349 384.752 135.346L359.68 183.778C359.459 184.204 359.344 184.677 359.344 185.157V218.012Z" fill="white"/>
<path d="M245.356 131.627C246.271 131.627 247.135 132.044 247.704 132.759L285.555 180.341C287.323 182.564 290.902 181.314 290.902 178.474V148.634C290.902 143.272 290.133 139.647 288.595 137.757C286.665 135.424 283.537 134.196 279.214 134.072C278.538 134.053 277.983 133.512 277.983 132.836V132.836C277.983 132.168 278.524 131.627 279.191 131.627L306.217 131.627C306.933 131.627 307.514 132.208 307.514 132.924V132.924C307.514 133.577 307.028 134.126 306.382 134.221C303.221 134.683 301.049 135.268 299.867 135.978C298.593 136.725 297.582 137.977 296.835 139.735C296.132 141.449 295.78 144.415 295.78 148.634V221.537C295.78 222.375 295.101 223.055 294.262 223.055V223.055C293.805 223.055 293.372 222.849 293.083 222.494L238.421 155.194C236.64 153.002 233.092 154.261 233.092 157.086V205.455C233.092 210.597 234.257 214.068 236.586 215.87C238.959 217.672 241.662 218.573 244.694 218.573H245.584C246.257 218.573 246.803 219.119 246.803 219.792V219.792C246.803 220.466 246.257 221.012 245.584 221.012H216.322C215.645 221.012 215.097 220.463 215.097 219.787V219.787C215.097 219.115 215.64 218.571 216.311 218.541C220.587 218.351 223.61 217.351 225.38 215.541C227.314 213.563 228.28 210.201 228.28 205.455V143.43C228.28 142.745 228.046 142.081 227.617 141.548L226.369 139.999C224.479 137.625 222.809 136.065 221.359 135.318C220.129 134.685 218.441 134.288 216.295 134.129C215.628 134.079 215.097 133.535 215.097 132.866V132.866C215.097 132.182 215.652 131.627 216.336 131.627H245.356Z" fill="white"/>
<path d="M212.967 217.162C213.534 219.084 212.094 221.012 210.09 221.012H192.832C191.451 221.012 190.247 220.068 189.919 218.726L187.664 209.528C187.335 208.186 186.132 207.242 184.75 207.242H163.942C162.561 207.242 161.357 208.186 161.029 209.528L158.774 218.726C158.445 220.068 157.242 221.012 155.86 221.012H138.603C136.599 221.012 135.158 219.084 135.726 217.162L160.549 133.117C160.925 131.842 162.096 130.967 163.426 130.967H185.267C186.596 130.967 187.767 131.842 188.144 133.117L212.967 217.162ZM178.97 188.207C180.913 188.207 182.343 186.389 181.886 184.501L177.306 165.59C176.567 162.537 172.228 162.529 171.477 165.579L166.823 184.49C166.358 186.381 167.789 188.207 169.737 188.207H178.97Z" fill="white"/>
<path d="M389.418 26.7686C387.761 26.7686 386.418 28.1117 386.418 29.7686V61.3755C386.418 62.3584 387.214 63.1553 388.197 63.1553V63.1553C393.866 63.1553 397.975 61.3755 400.524 57.8159C402.926 54.4613 404.509 49.604 405.271 43.2441C405.352 42.5736 405.916 42.0615 406.591 42.0615V42.0615C407.318 42.0615 407.907 42.6506 407.907 43.3772V87.5462C407.907 88.2736 407.317 88.8633 406.59 88.8633V88.8633C405.915 88.8633 405.351 88.3522 405.267 87.6825C404.695 83.1173 403.62 79.3361 402.04 76.3389C400.37 73.0869 398.415 70.9116 396.173 69.813C394.491 68.955 392.238 68.4192 389.415 68.2055C387.763 68.0804 386.418 69.4423 386.418 71.0991V93.2798C386.418 98.2017 386.615 101.212 387.011 102.311C387.45 103.409 388.241 104.31 389.384 105.013C390.526 105.716 392.372 106.068 394.921 106.068H400.26C408.61 106.068 415.29 104.134 420.299 100.267C425.152 96.5535 428.688 90.9757 430.907 83.5339C431.071 82.9846 431.573 82.6011 432.146 82.6011V82.6011C432.921 82.6011 433.518 83.2876 433.409 84.0558L429.959 108.432C429.75 109.912 428.483 111.012 426.989 111.012L353.557 111.012C352.884 111.012 352.338 110.466 352.338 109.792V109.792C352.338 109.119 352.884 108.573 353.557 108.573H355.304C357.897 108.573 359.984 108.111 361.566 107.188C362.709 106.573 363.588 105.519 364.203 104.024C364.687 102.97 364.928 100.201 364.928 95.7188V36.9199C364.928 32.877 364.818 30.394 364.599 29.4712C364.159 27.9331 363.346 26.7466 362.16 25.9116C360.49 24.6812 358.205 24.0659 355.304 24.0659H353.557C352.884 24.0659 352.338 23.5199 352.338 22.8464V22.8464C352.338 22.1729 352.884 21.627 353.557 21.627L424.155 21.627C425.812 21.627 427.155 22.9701 427.155 24.627V46.6853C427.155 47.4445 426.539 48.0601 425.78 48.0601V48.0601C425.123 48.0601 424.56 47.5947 424.423 46.9525C423.164 41.0675 421.438 36.8005 419.245 34.1514C416.96 31.3389 413.708 29.2734 409.489 27.9551C407.028 27.1641 402.414 26.7686 395.646 26.7686H389.418Z" fill="white"/>
<path d="M347.548 106.421C348.798 108.419 347.361 111.012 345.005 111.012H326.415C325.317 111.012 324.307 110.412 323.781 109.448L309.188 82.6751C308.078 80.6384 305.175 80.5783 303.982 82.5674L301.436 86.8093C301.157 87.2755 301.009 87.809 301.009 88.3528V108.012C301.009 109.669 299.666 111.012 298.009 111.012H282.139C280.482 111.012 279.139 109.669 279.139 108.012V23.9668C279.139 22.3099 280.482 20.9668 282.139 20.9668L298.009 20.9668C299.666 20.9668 301.009 22.3099 301.009 23.9668V47.9691C301.009 51.0292 305.053 52.1253 306.598 49.4841L322.415 22.4518C322.953 21.532 323.939 20.9668 325.004 20.9668L343.043 20.9668C345.443 20.9668 346.871 23.6432 345.536 25.6364L321.53 61.4732C320.872 62.455 320.852 63.7315 321.479 64.7335L347.548 106.421Z" fill="white"/>
<path d="M259.37 108.582C259.91 108.762 260.315 109.077 260.585 109.527C260.815 109.834 260.947 110.141 260.981 110.447C260.993 110.553 261.021 110.728 261.038 110.833V110.833C261.093 111.172 260.797 111.284 260.453 111.269C260.022 111.25 259.526 111.209 258.965 111.147C258.245 111.057 257.57 111.012 256.94 111.012H239.525L236.15 111.147C235.387 111.231 234.425 111.276 233.263 111.281C233.13 111.282 233.007 111.206 232.947 111.086V111.086C232.923 111.037 232.909 110.983 232.912 110.928C232.939 110.506 233.163 110.084 233.585 109.662C234.035 109.122 234.755 108.762 235.745 108.582C238.265 108.132 240.065 107.682 241.145 107.232C242.315 106.782 243.125 106.017 243.575 104.937C244.115 103.857 244.295 102.237 244.115 100.077L243.338 85.4455C243.316 85.0341 243.241 84.5851 242.897 84.358C242.848 84.3257 242.796 84.2964 242.741 84.2701C242.5 84.1556 242.241 84.0775 241.983 84.011C241.635 83.9215 241.176 83.8767 240.605 83.8767C236.015 83.7867 229.94 83.7417 222.38 83.7417L204.155 83.7417C203.567 83.7417 203.068 83.8018 202.66 83.922C202.484 83.9738 202.307 84.0239 202.135 84.0856C201.836 84.1922 201.538 84.378 201.239 84.6431C201.11 84.758 201 84.893 200.9 85.0346L189.575 101.157C188.405 102.687 187.82 103.947 187.82 104.937C187.82 105.927 188.405 106.692 189.575 107.232C190.835 107.682 192.77 108.132 195.38 108.582C196.28 108.762 196.955 109.077 197.405 109.527C197.855 109.887 198.125 110.292 198.215 110.742C198.305 111.102 198.305 111.282 198.215 111.282C196.865 111.282 195.785 111.237 194.975 111.147L191.465 111.012H179.99C179.36 111.012 178.685 111.057 177.965 111.147C177.268 111.224 176.638 111.268 176.075 111.279C175.926 111.282 175.805 111.161 175.805 111.012V111.012C175.805 110.658 175.888 110.305 176.055 109.952C176.148 109.754 176.235 109.551 176.344 109.361C176.56 108.986 176.92 108.726 177.425 108.582C179.495 107.952 181.025 107.232 182.015 106.422C182.915 105.612 184.31 103.857 186.2 101.157L238.175 27.0417C239.069 25.7406 239.633 24.5865 239.867 23.5793C239.915 23.3695 239.924 23.1533 239.914 22.9382L239.795 20.5617C239.763 20.3412 239.726 20.1482 239.684 19.9828C239.568 19.5318 239.335 19.0707 238.95 18.8083C238.879 18.7602 238.801 18.7147 238.715 18.6717C238.175 18.4017 237.905 18.0867 237.905 17.7267C237.905 17.4819 237.967 17.2786 238.092 17.117C238.213 16.9607 238.376 16.8405 238.531 16.7181C238.705 16.5805 238.856 16.5117 238.985 16.5117H244.655C246.455 16.5117 247.625 16.7367 248.165 17.1867C248.705 17.6367 249.02 18.5367 249.11 19.8867L253.7 100.212C253.79 103.182 254.195 105.162 254.915 106.152C255.635 107.142 257.12 107.952 259.37 108.582ZM240.875 80.7717C241.713 80.7717 242.32 80.587 242.696 80.2176C242.993 79.9264 243.023 79.4774 243 79.0623L240.681 37.3238C240.523 34.479 236.861 33.4359 235.227 35.7707L204.811 79.2564C204.734 79.3661 204.673 79.4862 204.631 79.6131V79.6131C204.584 79.7546 204.552 79.9042 204.579 80.0508C204.669 80.5314 205.067 80.7717 205.775 80.7717L240.875 80.7717Z" fill="white"/>
<path d="M177.325 108.012C177.325 109.669 175.982 111.012 174.325 111.012H158.59C156.933 111.012 155.59 109.669 155.59 108.012V75.6491C155.59 72.2576 150.845 71.471 149.75 74.6811L138.057 108.98C137.643 110.195 136.502 111.012 135.218 111.012H131.012C129.725 111.012 128.582 110.192 128.17 108.973L116.611 74.8154C115.523 71.5991 110.77 72.3816 110.77 75.777V108.012C110.77 109.669 109.427 111.012 107.77 111.012H91.8997C90.2429 111.012 88.8997 109.669 88.8997 108.012V23.9668C88.8997 22.3099 90.2429 20.9668 91.8997 20.9668L115.775 20.9668C117.06 20.9668 118.203 21.7856 118.616 23.0028L130.351 57.5868C131.271 60.2976 135.103 60.3028 136.031 57.5945L147.875 22.9951C148.291 21.7819 149.431 20.9668 150.714 20.9668L174.325 20.9668C175.982 20.9668 177.325 22.3099 177.325 23.9668V108.012Z" fill="white"/>
<path fill-rule="evenodd" clip-rule="evenodd" d="M425.146 509.442C424.741 509.988 424.506 510.644 424.506 511.324V551.012C424.506 559.848 431.67 567.012 440.506 567.012H462.376C471.213 567.012 478.376 559.848 478.376 551.012V538.991C478.376 537.367 479.67 536.046 481.29 535.919C492.254 535.057 502.441 530.997 510.16 522.451C518.206 513.553 521.981 502.593 521.981 490.667C521.981 478.718 518.247 467.711 510.196 458.787C501.432 448.963 489.437 444.967 476.686 444.967H440.506C431.67 444.967 424.506 452.13 424.506 460.967V469.877C424.506 470.556 424.741 471.211 425.145 471.757C429.026 477.005 430.967 483.308 430.967 490.667C430.967 497.946 429.026 504.205 425.146 509.442ZM498.286 469.472C493.246 463.802 486.046 460.967 476.686 460.967H443.506C441.849 460.967 440.506 462.31 440.506 463.967V548.012C440.506 549.669 441.849 551.012 443.506 551.012H459.376C461.033 551.012 462.376 549.669 462.376 548.012V523.097C462.376 521.44 463.719 520.097 465.376 520.097H476.686C486.046 520.097 493.246 517.307 498.286 511.727C503.416 506.057 505.981 499.037 505.981 490.667C505.981 482.207 503.416 475.142 498.286 469.472ZM478.376 500.195C477.092 500.773 475.628 501.062 473.986 501.062H465.376C463.719 501.062 462.376 499.719 462.376 498.062V483.002C462.376 481.345 463.719 480.002 465.376 480.002H473.986C475.628 480.002 477.092 480.291 478.376 480.869C479.415 481.336 480.336 481.992 481.141 482.837C482.941 484.727 483.841 487.292 483.841 490.532C483.841 493.772 482.941 496.337 481.141 498.227C480.336 499.072 479.415 499.728 478.376 500.195Z" fill="black"/>
<path fill-rule="evenodd" clip-rule="evenodd" d="M349.769 553.996C349.462 552.367 350.835 551.012 352.492 551.012H355.241C357.245 551.012 358.686 549.084 358.118 547.162L349.614 518.37C349.533 518.094 349.492 517.808 349.492 517.52V460.967C349.492 452.13 356.655 444.967 365.492 444.967H401.672C414.422 444.967 426.418 448.963 435.181 458.787C437.042 460.849 438.672 463.023 440.079 465.294C440.363 465.753 440.506 466.283 440.506 466.822V514.383C440.506 514.924 440.362 515.455 440.077 515.914C438.661 518.196 437.019 520.38 435.145 522.451C427.426 530.997 417.24 535.057 406.275 535.919C404.656 536.046 403.362 537.367 403.362 538.991V551.012C403.362 559.848 396.198 567.012 387.362 567.012H365.492C357.675 567.012 351.167 561.406 349.769 553.996ZM387.362 523.097C387.362 521.44 388.705 520.097 390.362 520.097H401.672C411.032 520.097 418.232 517.307 423.272 511.727C428.402 506.057 430.967 499.037 430.967 490.667C430.967 482.207 428.402 475.142 423.272 469.472C418.232 463.802 411.032 460.967 401.672 460.967H368.492C366.835 460.967 365.492 462.31 365.492 463.967V548.012C365.492 549.669 366.835 551.012 368.492 551.012H384.362C386.018 551.012 387.362 549.669 387.362 548.012V523.097ZM403.362 500.195C402.077 500.773 400.614 501.062 398.972 501.062H390.362C388.705 501.062 387.362 499.719 387.362 498.062V483.002C387.362 481.345 388.705 480.002 390.362 480.002H398.972C400.614 480.002 402.077 480.291 403.362 480.869C404.4 481.336 405.322 481.992 406.127 482.837C407.927 484.727 408.827 487.292 408.827 490.532C408.827 493.772 407.927 496.337 406.127 498.227C405.322 499.072 404.4 499.728 403.362 500.195Z" fill="black"/>
<path fill-rule="evenodd" clip-rule="evenodd" d="M355.241 551.012C357.245 551.012 358.686 549.084 358.118 547.162L333.295 463.117C332.919 461.842 331.748 460.967 330.418 460.967H308.577C307.248 460.967 306.077 461.842 305.7 463.117L280.877 547.162C280.309 549.084 281.75 551.012 283.754 551.012H301.012C302.393 551.012 303.596 550.068 303.925 548.726L306.18 539.528C306.509 538.186 307.712 537.242 309.094 537.242H329.902C331.283 537.242 332.486 538.186 332.815 539.528L335.07 548.726C335.399 550.068 336.602 551.012 337.984 551.012H355.241ZM322.458 495.59C321.718 492.537 317.379 492.529 316.629 495.579L311.975 514.49C311.51 516.381 312.941 518.207 314.888 518.207H324.122C326.064 518.207 327.495 516.389 327.038 514.501L322.458 495.59ZM319.243 553.441C319.272 553.324 319.377 553.242 319.498 553.242V553.242C319.618 553.242 319.723 553.324 319.752 553.441L320.09 554.821C321.844 561.978 328.261 567.012 335.63 567.012H359.255C364.301 567.012 369.051 564.632 372.071 560.59C373.548 558.614 374.527 556.354 374.975 553.994C375.284 552.367 373.912 551.012 372.255 551.012H368.492C366.835 551.012 365.492 549.669 365.492 548.012V516.075C365.492 515.787 365.45 515.501 365.369 515.225L348.005 456.435C345.996 449.634 339.751 444.967 332.66 444.967H306.335C299.244 444.967 292.999 449.634 290.99 456.435L264.395 546.48C262.966 551.319 263.903 556.548 266.924 560.59C269.944 564.632 274.694 567.012 279.74 567.012H303.365C310.735 567.012 317.151 561.978 318.905 554.821L319.243 553.441Z" fill="black"/>
<path fill-rule="evenodd" clip-rule="evenodd" d="M166.573 514.266C166.527 514.478 166.503 514.693 166.503 514.91V551.012C166.503 559.848 173.667 567.012 182.503 567.012H204.373C207.293 567.012 210.029 566.23 212.386 564.864C213.599 564.161 215.129 564.16 216.343 564.862C218.726 566.241 221.475 567.012 224.353 567.012H248.653C254.054 567.012 259.09 564.287 262.046 559.767C265.001 555.246 265.476 549.54 263.309 544.593L253.807 522.899C253.337 521.824 253.543 520.579 254.284 519.669C255.244 518.492 256.146 517.261 256.991 515.983C262.106 508.294 263.978 499.303 263.978 490.262C263.978 478.181 260.06 467.099 251.605 458.307C242.961 449.124 231.61 444.967 219.223 444.967H182.503C173.667 444.967 166.503 452.13 166.503 460.967V461.259C166.503 461.873 167.386 461.969 167.519 461.37V461.37C167.571 461.134 167.779 460.967 168.02 460.967H174.543C176.459 460.967 177.884 462.739 177.473 464.61L166.573 514.266ZM234.595 518.915C233.933 517.403 234.631 515.657 236.032 514.785C238.953 512.966 241.495 510.417 243.658 507.137C246.538 502.817 247.978 497.192 247.978 490.262C247.978 481.802 245.323 474.827 240.013 469.337C234.793 463.757 227.863 460.967 219.223 460.967H185.503C183.846 460.967 182.503 462.31 182.503 463.967V548.012C182.503 549.669 183.846 551.012 185.503 551.012H201.373C203.03 551.012 204.373 549.669 204.373 548.012V523.097C204.373 521.44 205.716 520.097 207.373 520.097H210.412C211.654 520.097 212.767 520.862 213.213 522.021L223.614 549.088C224.059 550.247 225.173 551.012 226.414 551.012H244.064C246.228 551.012 247.68 548.79 246.812 546.808L234.595 518.915ZM223.003 482.837C222.234 482.029 221.357 481.393 220.373 480.931C219.057 480.311 217.548 480.002 215.848 480.002H207.373C205.716 480.002 204.373 481.345 204.373 483.002V498.062C204.373 499.719 205.716 501.062 207.373 501.062H215.848C217.548 501.062 219.057 500.752 220.373 500.133C221.357 499.67 222.234 499.035 223.003 498.227C224.893 496.337 225.838 493.772 225.838 490.532C225.838 487.292 224.893 484.727 223.003 482.837Z" fill="black"/>
<path fill-rule="evenodd" clip-rule="evenodd" d="M90.7488 529.078C90.5722 529.493 90.4813 529.94 90.5014 530.39C90.9686 540.875 94.8337 550.599 102.991 558.001L103.041 558.046C103.065 558.068 103.089 558.089 103.113 558.11C111.634 565.685 122.359 568.632 133.453 568.632C145.482 568.632 156.867 564.98 165.487 556.047C173.205 548.048 177.808 537.246 180.507 525.41L180.519 525.357C180.525 525.332 180.53 525.307 180.536 525.282L182.433 516.637C182.48 516.426 182.503 516.21 182.503 515.994V463.967C182.503 462.31 183.846 460.967 185.503 460.967H191.273C192.93 460.967 194.301 459.612 193.992 457.984C193.509 455.436 192.407 453.011 190.741 450.939C187.704 447.163 183.119 444.967 178.273 444.967H167.608C160.103 444.967 153.607 450.183 151.986 457.511L138.498 518.475C138.496 518.483 138.494 518.492 138.492 518.501C137.329 523.659 135.97 526.035 135.285 526.93C135.217 527.019 135.119 527.08 135.008 527.099V527.099C134.776 527.139 134.402 527.182 133.858 527.182C133.772 527.182 133.69 527.181 133.613 527.179C133.426 527.175 133.285 527.011 133.304 526.826V526.826C133.355 526.335 133.434 525.678 133.55 524.831L146.915 464.423C147.963 459.687 146.806 454.731 143.769 450.949C140.732 447.167 136.143 444.967 131.293 444.967H120.493C112.981 444.967 106.481 450.193 104.867 457.529L95.0148 502.31C94.9587 502.565 94.9365 502.826 94.9465 503.087C94.9843 504.063 95.0032 505.053 95.0032 506.057C95.0032 510.545 94.6255 514.761 93.8702 518.704C93.8643 518.735 93.8584 518.765 93.8524 518.796C93.2092 522.124 92.2964 525.258 91.114 528.197C90.995 528.493 90.8733 528.786 90.7488 529.078ZM154.123 544.78C158.6 540.069 161.997 533.236 164.316 524.284C164.32 524.272 164.323 524.259 164.326 524.247C164.528 523.465 164.722 522.667 164.908 521.852L177.473 464.61C177.884 462.739 176.459 460.967 174.543 460.967H170.017C168.61 460.967 167.392 461.945 167.088 463.319L154.108 521.987C152.489 529.18 150.063 534.532 146.827 538.042C146.824 538.045 146.821 538.048 146.818 538.052C143.668 541.472 139.348 543.182 133.858 543.182C133.722 543.182 133.587 543.181 133.453 543.179C128.514 543.105 124.599 541.666 121.708 538.862C121.466 538.628 121.235 538.387 121.013 538.14C120.988 538.112 120.963 538.084 120.939 538.056C118.659 535.475 117.437 532.188 117.272 528.197C117.259 527.886 117.253 527.571 117.253 527.252C117.253 526.563 117.34 525.505 117.514 524.077C117.517 524.053 117.52 524.028 117.523 524.004C117.597 523.397 117.687 522.725 117.793 521.987L130.486 464.615C130.9 462.742 129.475 460.967 127.557 460.967H122.905C121.496 460.967 120.277 461.947 119.975 463.322L107.128 521.717C106.739 523.427 106.518 525.272 106.465 527.252C106.457 527.563 106.453 527.878 106.453 528.197C106.453 535.757 108.883 541.742 113.743 546.152C113.903 546.295 114.066 546.435 114.23 546.573C119.039 550.612 125.447 552.632 133.453 552.632C133.588 552.632 133.723 552.631 133.858 552.63C142.395 552.552 149.1 549.987 153.973 544.937C154.021 544.887 154.068 544.838 154.115 544.788C154.118 544.785 154.12 544.783 154.123 544.78Z" fill="black"/>
<path fill-rule="evenodd" clip-rule="evenodd" d="M55.7182 552.632C67.6882 552.632 77.2282 548.312 84.3382 539.672C91.4482 531.032 95.0032 519.827 95.0032 506.057C95.0032 492.287 91.4482 481.082 84.3382 472.442C77.2282 463.802 67.6882 459.482 55.7182 459.482C43.7482 459.482 34.2082 463.802 27.0982 472.442C19.9882 481.082 16.4332 492.287 16.4332 506.057C16.4332 519.827 19.9882 531.032 27.0982 539.672C34.2082 548.312 43.7482 552.632 55.7182 552.632ZM68.2732 525.767C65.3032 530.807 61.1182 533.327 55.7182 533.327C50.4082 533.327 46.2232 530.807 43.1632 525.767C40.1932 520.637 38.7082 514.067 38.7082 506.057C38.7082 497.957 40.1932 491.387 43.1632 486.347C46.2232 481.307 50.4082 478.787 55.7182 478.787C61.1182 478.787 65.3032 481.307 68.2732 486.347C71.3332 491.387 72.8632 497.957 72.8632 506.057C72.8632 514.067 71.3332 520.637 68.2732 525.767ZM56.8632 506.057C56.8632 503.39 54.7082 503.39 54.7082 506.057V506.057V506.057C54.7082 508.693 56.8632 508.693 56.8632 506.057V506.057V506.057ZM110.908 504.535C110.959 504.304 110.982 504.066 110.977 503.83C110.602 488.113 106.217 473.85 96.6928 462.276C86.309 449.657 72.0895 443.482 55.7182 443.482C39.3469 443.482 25.1274 449.657 14.7436 462.276C4.77085 474.394 0.433197 489.461 0.433197 506.057C0.433197 522.653 4.77085 537.72 14.7436 549.839C25.1274 562.458 39.3469 568.632 55.7182 568.632C72.0895 568.632 86.309 562.458 96.6928 549.839C100.928 544.693 104.146 539.015 106.448 532.914C106.618 532.466 106.667 531.982 106.618 531.505C106.508 530.438 106.453 529.336 106.453 528.197C106.453 525.857 106.678 523.697 107.128 521.717L110.908 504.535Z" fill="black"/>
<path fill-rule="evenodd" clip-rule="evenodd" d="M317.159 370.002C315.503 370.002 314.159 371.345 314.159 373.002V441.012C314.159 449.848 321.323 457.012 330.159 457.012H352.029C355.911 457.012 359.469 455.63 362.24 453.331C363.838 452.005 366.411 452.005 368.009 453.331C370.78 455.63 374.338 457.012 378.219 457.012H400.089C408.926 457.012 416.089 449.848 416.089 441.012V350.967C416.089 342.13 408.926 334.967 400.089 334.967H378.219C374.338 334.967 370.78 336.349 368.009 338.647C366.411 339.973 363.838 339.973 362.24 338.647C359.469 336.349 355.911 334.967 352.029 334.967H330.159C322.343 334.967 315.835 340.572 314.437 347.983C314.13 349.611 315.503 350.967 317.159 350.967H317.263C318.92 350.967 320.263 352.31 320.263 353.967V367.002C320.263 368.659 318.92 370.002 317.263 370.002H317.159ZM352.029 353.967C352.029 352.31 350.686 350.967 349.029 350.967H333.159C331.503 350.967 330.159 352.31 330.159 353.967V438.012C330.159 439.669 331.503 441.012 333.159 441.012H349.029C350.686 441.012 352.029 439.669 352.029 438.012V407.292C352.029 405.635 353.373 404.292 355.029 404.292H375.219C376.876 404.292 378.219 405.635 378.219 407.292V438.012C378.219 439.669 379.563 441.012 381.219 441.012H397.089C398.746 441.012 400.089 439.669 400.089 438.012V353.967C400.089 352.31 398.746 350.967 397.089 350.967H381.219C379.563 350.967 378.219 352.31 378.219 353.967V382.122C378.219 383.779 376.876 385.122 375.219 385.122H355.029C353.373 385.122 352.029 383.779 352.029 382.122V353.967Z" fill="black"/>
<path fill-rule="evenodd" clip-rule="evenodd" d="M250.12 381.182C250.12 382.109 250.54 382.999 251.321 383.498C253.804 385.083 256.754 386.002 259.918 386.002H260.223C261.88 386.002 263.223 387.345 263.223 389.002V441.012C263.223 449.848 270.387 457.012 279.223 457.012H301.093C309.93 457.012 317.093 449.848 317.093 441.012V389.002C317.093 387.345 318.436 386.002 320.093 386.002H320.263C323.477 386.002 326.47 385.054 328.977 383.423C329.748 382.922 330.159 382.039 330.159 381.12V353.967C330.159 352.31 331.503 350.967 333.159 350.967H333.263C334.92 350.967 336.293 349.611 335.986 347.983C334.588 340.572 328.08 334.967 320.263 334.967H259.918C252.101 334.967 245.594 340.572 244.196 347.983C243.889 349.611 245.261 350.967 246.918 350.967H247.12C248.777 350.967 250.12 352.31 250.12 353.967V381.182ZM301.093 373.002C301.093 371.345 302.436 370.002 304.093 370.002H317.263C318.92 370.002 320.263 368.659 320.263 367.002V353.967C320.263 352.31 318.92 350.967 317.263 350.967H262.918C261.262 350.967 259.918 352.31 259.918 353.967V367.002C259.918 368.659 261.262 370.002 262.918 370.002H276.223C277.88 370.002 279.223 371.345 279.223 373.002V438.012C279.223 439.669 280.567 441.012 282.223 441.012H298.093C299.75 441.012 301.093 439.669 301.093 438.012V373.002Z" fill="black"/>
<path fill-rule="evenodd" clip-rule="evenodd" d="M212.327 388.377C212.276 388.598 212.25 388.824 212.25 389.051V441.012C212.25 449.848 219.414 457.012 228.25 457.012H250.12C258.957 457.012 266.12 449.848 266.12 441.012V373.002C266.12 371.345 264.777 370.002 263.12 370.002H262.918C261.262 370.002 259.918 368.659 259.918 367.002V353.967C259.918 352.31 261.262 350.967 262.918 350.967H263.12C264.777 350.967 266.15 349.611 265.843 347.983C264.445 340.572 257.937 334.967 250.12 334.967H228.25C220.433 334.967 213.926 340.572 212.528 347.983C212.221 349.611 213.593 350.967 215.25 350.967H217.193C219.122 350.967 220.55 352.762 220.116 354.642L212.327 388.377ZM228.25 438.012C228.25 439.669 229.593 441.012 231.25 441.012H247.12C248.777 441.012 250.12 439.669 250.12 438.012V353.967C250.12 352.31 248.777 350.967 247.12 350.967H231.25C229.593 350.967 228.25 352.31 228.25 353.967V438.012Z" fill="black"/>
<path fill-rule="evenodd" clip-rule="evenodd" d="M177.173 438.561C177.438 439.981 178.678 441.012 180.123 441.012H197.788C199.185 441.012 200.397 440.048 200.711 438.687L220.116 354.642C220.55 352.762 219.122 350.967 217.193 350.967H200.132C198.674 350.967 197.427 352.015 197.177 353.452L190.354 392.638C189.785 395.906 185.116 395.969 184.458 392.718L176.496 353.372C176.213 351.973 174.983 350.967 173.556 350.967H161.718C160.293 350.967 159.064 351.969 158.779 353.365L150.702 392.822C150.037 396.068 145.375 395.999 144.807 392.735L137.967 353.452C137.717 352.015 136.47 350.967 135.012 350.967H117.951C116.022 350.967 114.594 352.762 115.028 354.642L134.433 438.687C134.747 440.048 135.959 441.012 137.356 441.012H155.015C156.463 441.012 157.704 439.978 157.966 438.554L164.574 402.568C165.175 399.295 169.865 399.289 170.474 402.561L177.173 438.561ZM169.566 454.832C168.344 454.119 166.8 454.119 165.578 454.832C163.197 456.223 160.434 457.012 157.515 457.012H134.97C127.52 457.012 121.056 451.87 119.38 444.611L98.5897 354.566C97.4927 349.815 98.6222 344.823 101.658 341.007C104.693 337.19 109.303 334.967 114.18 334.967H137.535C140.71 334.967 143.698 335.899 146.212 337.524C147.528 338.374 149.276 338.374 150.592 337.524C153.109 335.898 156.098 334.967 159.27 334.967H176.01C179.16 334.967 182.13 335.886 184.637 337.492C185.945 338.33 187.674 338.33 188.982 337.492C191.486 335.887 194.455 334.967 197.61 334.967H220.965C225.841 334.967 230.451 337.19 233.486 341.007C235.123 343.065 236.206 345.465 236.684 347.984C236.993 349.612 235.621 350.967 233.965 350.967H231.25C229.593 350.967 228.25 352.31 228.25 353.967V390.191C228.25 390.418 228.225 390.644 228.173 390.866L215.764 444.611C214.088 451.87 207.624 457.012 200.175 457.012H177.63C174.71 457.012 171.948 456.223 169.566 454.832Z" fill="black"/>
<path fill-rule="evenodd" clip-rule="evenodd" d="M385.865 305.038C385.787 305.312 385.746 305.595 385.746 305.88V331.012C385.746 339.848 392.91 347.012 401.746 347.012H423.616C426.238 347.012 428.712 346.381 430.896 345.264C432 344.699 433.326 344.698 434.43 345.262C436.634 346.388 439.116 347.012 441.706 347.012H450.211C452.822 347.012 455.323 346.378 457.54 345.235C458.653 344.661 459.992 344.662 461.104 345.237C463.301 346.371 465.794 347.012 468.436 347.012H490.171C499.008 347.012 506.171 339.848 506.171 331.012V240.967C506.171 232.13 499.008 224.967 490.171 224.967H461.416C454.577 224.967 448.494 229.314 446.279 235.785L446.265 235.826C446.209 235.989 445.978 235.989 445.923 235.825V235.825C443.72 229.334 437.627 224.967 430.771 224.967H401.746C392.91 224.967 385.746 232.13 385.746 240.967V266.269C385.746 266.555 385.788 266.839 385.866 267.114C387.486 272.797 388.296 279.111 388.296 286.057C388.296 293.004 387.486 299.331 385.865 305.038ZM448.877 277.594C447.95 280.303 444.118 280.298 443.198 277.587L431.462 243.003C431.049 241.786 429.907 240.967 428.621 240.967H404.746C403.09 240.967 401.746 242.31 401.746 243.967V328.012C401.746 329.669 403.09 331.012 404.746 331.012H420.616C422.273 331.012 423.616 329.669 423.616 328.012V295.777C423.616 292.382 428.37 291.599 429.458 294.815L441.017 328.973C441.429 330.192 442.572 331.012 443.858 331.012H448.065C449.348 331.012 450.49 330.195 450.904 328.98L462.597 294.681C463.691 291.471 468.436 292.258 468.436 295.649V328.012C468.436 329.669 469.78 331.012 471.436 331.012H487.171C488.828 331.012 490.171 329.669 490.171 328.012V243.967C490.171 242.31 488.828 240.967 487.171 240.967H463.56C462.278 240.967 461.137 241.782 460.722 242.995L448.877 277.594Z" fill="black"/>
<path fill-rule="evenodd" clip-rule="evenodd" d="M309.25 260.002C308.478 260.002 307.791 260.499 307.565 261.238C305.202 268.977 304.121 277.314 304.121 286.057C304.121 301.93 307.682 316.463 315.958 328.568L316.001 328.631C325.022 341.69 338.27 348.632 354.141 348.632C370.006 348.632 383.251 341.695 392.272 328.644C396.631 322.357 399.704 315.412 401.652 307.96C401.715 307.717 401.746 307.467 401.746 307.217V264.93C401.746 264.678 401.715 264.427 401.651 264.184C399.705 256.761 396.634 249.848 392.27 243.603C383.281 230.504 370.051 223.482 354.141 223.482C338.213 223.482 324.971 230.52 315.981 243.648C314.22 246.201 312.672 248.866 311.327 251.631C311.132 252.03 311.035 252.469 311.035 252.913V258.218C311.035 259.203 310.236 260.002 309.25 260.002V260.002ZM380.122 318.023C380.13 318.011 380.137 317.999 380.145 317.987C385.579 309.422 388.296 298.779 388.296 286.057C388.296 273.321 385.573 262.708 380.126 254.217C379.799 253.708 379.462 253.206 379.116 252.712C373.086 243.892 364.761 239.482 354.141 239.482C343.521 239.482 335.196 243.892 329.166 252.712C328.836 253.19 328.515 253.674 328.204 254.166C322.815 262.665 320.121 273.296 320.121 286.057C320.121 298.75 322.786 309.375 328.117 317.931C328.127 317.947 328.138 317.964 328.148 317.981C328.477 318.508 328.817 319.026 329.166 319.537C335.196 328.267 343.521 332.632 354.141 332.632C364.761 332.632 373.086 328.267 379.116 319.537C379.461 319.04 379.797 318.535 380.122 318.023ZM337.819 313.561C337.828 313.575 337.836 313.589 337.845 313.603C341.846 319.899 347.278 323.047 354.141 323.047C361.019 323.047 366.46 319.885 370.463 313.561C370.467 313.555 370.471 313.548 370.475 313.542C370.659 313.252 370.839 312.956 371.016 312.652C375.156 305.632 377.226 296.767 377.226 286.057C377.226 275.257 375.201 266.392 371.151 259.462C370.988 259.184 370.823 258.911 370.655 258.644C370.633 258.61 370.612 258.575 370.59 258.541C366.584 252.225 361.1 249.067 354.141 249.067C347.244 249.067 341.792 252.247 337.786 258.606C337.777 258.62 337.768 258.634 337.759 258.648C337.592 258.914 337.428 259.185 337.266 259.462C333.216 266.392 331.191 275.257 331.191 286.057C331.191 296.767 333.216 305.632 337.266 312.652C337.447 312.962 337.631 313.265 337.819 313.561ZM351.102 304.617C352.073 306.267 352.77 306.737 352.914 306.826L352.922 306.831C352.999 306.88 353.265 307.047 354.141 307.047C355.017 307.047 355.283 306.88 355.359 306.831L355.368 306.826C355.513 306.736 356.22 306.26 357.202 304.579L357.234 304.525C359.534 300.624 361.226 294.783 361.226 286.057C361.226 277.149 359.544 271.311 357.337 267.535C356.371 265.882 355.672 265.413 355.518 265.319C355.435 265.268 355.137 265.067 354.141 265.067C353.265 265.067 352.999 265.235 352.922 265.284L352.914 265.289C352.769 265.378 352.062 265.855 351.08 267.535C348.873 271.311 347.191 277.149 347.191 286.057C347.191 294.806 348.847 300.688 351.102 304.617Z" fill="black"/>
<path fill-rule="evenodd" clip-rule="evenodd" d="M236.454 264.291C235.962 265.078 235.846 266.057 236.246 266.894C238.822 272.281 244.321 276.002 250.69 276.002H250.995C252.652 276.002 253.995 277.345 253.995 279.002V331.012C253.995 339.848 261.158 347.012 269.995 347.012H291.865C300.701 347.012 307.865 339.848 307.865 331.012V279.002C307.865 277.345 309.208 276.002 310.865 276.002H311.035C314.566 276.002 317.829 274.858 320.475 272.921C321.036 272.511 321.387 271.884 321.526 271.204C322.349 267.185 323.532 263.451 325.075 260.002C325.565 258.908 326.091 257.844 326.653 256.807C326.899 256.353 327.035 255.845 327.035 255.328V240.967C327.035 232.13 319.871 224.967 311.035 224.967L250.69 224.967C241.853 224.967 234.69 232.13 234.69 240.967V240.967C234.69 242.115 235.382 243.142 236.418 243.637C238.972 244.861 241.37 246.354 243.612 248.118C244.76 249.021 244.982 250.646 244.208 251.884L236.454 264.291ZM291.865 263.002C291.865 261.345 293.208 260.002 294.865 260.002H308.035C309.692 260.002 311.035 258.659 311.035 257.002V243.967C311.035 242.31 309.692 240.967 308.035 240.967L253.69 240.967C252.033 240.967 250.69 242.31 250.69 243.967V257.002C250.69 258.659 252.033 260.002 253.69 260.002H266.995C268.652 260.002 269.995 261.345 269.995 263.002V328.012C269.995 329.669 271.338 331.012 272.995 331.012H288.865C290.522 331.012 291.865 329.669 291.865 328.012V263.002Z" fill="black"/>
<path fill-rule="evenodd" clip-rule="evenodd" d="M167.15 320.647C166.669 321.247 166.387 321.997 166.477 322.761C166.898 326.327 168.514 329.75 171.247 332.391C182.926 343.681 198.073 348.632 214.902 348.632C227.707 348.632 239.885 345.276 249.32 336.614C258.824 327.975 263.167 316.486 263.167 303.877C263.167 296.848 261.691 289.93 258.217 283.612C256.447 280.395 254.293 277.396 251.708 274.751C250.686 273.705 250.444 272.096 251.219 270.856L255.509 263.992C256.595 262.255 255.346 260.002 253.298 260.002V260.002C251.857 260.002 250.69 258.835 250.69 257.395V243.856C250.69 242.261 251.983 240.967 253.579 240.967H254.755C256.548 240.967 257.548 239.01 256.212 237.815V237.815C245.24 228.005 231.648 223.482 216.657 223.482C203.871 223.482 191.86 227.118 182.538 235.996C179.15 239.223 176.367 242.799 174.228 246.675C173.992 247.103 173.875 247.585 173.875 248.074V287.428C173.875 287.517 173.897 287.604 173.939 287.682V287.682C173.965 287.731 173.991 287.78 174.018 287.828C175.458 290.447 177.153 292.92 179.128 295.177C179.257 295.324 179.273 295.54 179.17 295.707V295.707L173.871 304.239C173.644 304.606 173.499 305.018 173.438 305.445C173.001 308.505 172.237 311.329 171.144 313.918C170.108 316.373 168.776 318.616 167.15 320.647ZM195.515 288.386C198.292 290.15 201.266 291.757 204.437 293.206C204.639 293.299 204.843 293.391 205.047 293.482C208.467 295.012 211.662 296.272 214.632 297.262C217.602 298.162 220.077 299.377 222.057 300.907C224.037 302.347 225.027 304.057 225.027 306.037C225.027 308.287 224.082 310.132 222.192 311.572C220.392 313.012 217.917 313.732 214.767 313.732C214.094 313.732 213.428 313.713 212.771 313.675C212.645 313.668 212.519 313.66 212.394 313.651C212.39 313.651 212.386 313.651 212.382 313.651C210.28 313.504 208.264 313.161 206.334 312.621C202.243 311.477 198.538 309.449 195.219 306.539V306.539C193.92 305.4 191.864 305.594 190.953 307.061L183.644 318.831C182.899 320.031 183.085 321.598 184.158 322.517C192.042 329.26 202.29 332.632 214.902 332.632C224.982 332.632 232.857 330.022 238.527 324.802C244.287 319.582 247.167 312.607 247.167 303.877C247.167 299.107 246.177 294.922 244.197 291.322C242.217 287.722 239.742 284.977 236.772 283.087C236.178 282.698 235.571 282.314 234.951 281.936C232.561 280.479 229.973 279.108 227.187 277.822C226.517 277.505 225.855 277.199 225.202 276.906C222.585 275.731 220.107 274.749 217.767 273.963C217.712 273.944 217.657 273.926 217.602 273.907C216.997 273.699 216.412 273.482 215.847 273.254C213.721 272.397 211.876 271.4 210.312 270.262C208.332 268.822 207.342 267.202 207.342 265.402C207.342 263.332 208.062 261.667 209.502 260.407C211.032 259.147 213.147 258.517 215.847 258.517C216.84 258.517 217.812 258.558 218.765 258.64C219.624 258.713 220.467 258.819 221.294 258.959C221.702 259.028 222.107 259.105 222.508 259.19C222.555 259.201 222.603 259.211 222.651 259.221C223.963 259.507 225.234 259.881 226.461 260.342C228.968 261.283 231.297 262.589 233.447 264.259C233.487 264.29 233.527 264.321 233.568 264.353V264.353C234.564 265.135 236.046 264.945 236.717 263.87L244.208 251.885C244.982 250.647 244.76 249.021 243.612 248.118C240.745 245.863 237.621 244.049 234.242 242.677C233.404 242.337 232.551 242.024 231.682 241.738C227.109 240.234 222.101 239.482 216.657 239.482C206.937 239.482 199.242 242.182 193.572 247.582C187.902 252.982 185.067 259.507 185.067 267.157C185.067 272.107 186.057 276.427 188.037 280.117C190.017 283.717 192.492 286.462 195.462 288.352C195.48 288.364 195.497 288.375 195.515 288.386Z" fill="black"/>
<path fill-rule="evenodd" clip-rule="evenodd" d="M90.7681 316.271C90.3869 316.95 90.2959 317.759 90.5681 318.488C92.9095 324.761 96.5646 330.48 101.744 335.363C101.771 335.389 101.799 335.415 101.826 335.441C111.864 344.772 124.757 348.632 138.64 348.632C152.445 348.632 165.273 344.763 175.225 335.401C178.826 332.046 181.702 328.29 183.919 324.226C184.338 323.456 184.135 322.509 183.482 321.924V321.924C182.821 321.333 182.701 320.349 183.169 319.596L188.504 311.004C188.695 310.697 188.83 310.357 188.896 310.001C189.559 306.449 189.875 302.773 189.875 299.017V283.997C189.875 283.362 189.669 282.746 189.314 282.219C188.868 281.554 188.442 280.853 188.037 280.117C186.057 276.427 185.067 272.107 185.067 267.157C185.067 261.742 186.488 256.89 189.329 252.603C189.675 252.081 189.875 251.473 189.875 250.847V240.967C189.875 232.13 182.711 224.967 173.875 224.967L151.87 224.967C147.935 224.967 144.332 226.387 141.546 228.743C139.916 230.121 137.228 230.121 135.599 228.743C132.813 226.387 129.21 224.967 125.275 224.967H103.27C94.4333 224.967 87.2698 232.13 87.2698 240.967V249.012C87.2698 249.696 87.5068 250.356 87.9196 250.901C88.7308 251.972 89.5078 253.119 90.2506 254.341C91.1255 255.78 90.4958 257.629 88.9713 258.345V258.345C87.9328 258.833 87.2698 259.877 87.2698 261.024V299.017C87.2698 303.189 87.6557 307.263 88.4706 311.183C88.6218 311.911 89.1176 312.516 89.7921 312.828V312.828C91.0221 313.397 91.5455 314.872 90.8875 316.057C90.8478 316.129 90.808 316.2 90.7681 316.271ZM164.29 323.722C170.68 317.782 173.875 309.547 173.875 299.017V243.967C173.875 242.31 172.532 240.967 170.875 240.967L154.87 240.967C153.213 240.967 151.87 242.31 151.87 243.967V299.152C151.87 303.652 150.7 307.162 148.36 309.682C146.11 312.202 142.87 313.462 138.64 313.462C134.32 313.462 130.99 312.247 128.65 309.817C126.4 307.297 125.275 303.742 125.275 299.152V243.967C125.275 242.31 123.932 240.967 122.275 240.967H106.27C104.613 240.967 103.27 242.31 103.27 243.967V299.017C103.27 309.547 106.42 317.782 112.72 323.722C119.11 329.662 127.75 332.632 138.64 332.632C149.44 332.632 157.99 329.662 164.29 323.722Z" fill="black"/>
<path fill-rule="evenodd" clip-rule="evenodd" d="M39.9274 319.672C46.3174 328.312 54.8224 332.632 65.4424 332.632C71.8081 332.632 77.3632 330.722 82.1075 326.903C85.3019 324.331 88.1288 320.893 90.5882 316.589C91.4262 315.123 90.772 313.282 89.2391 312.573L84.6109 310.431C83.7233 310.021 82.6761 310.423 82.2437 311.301V311.301C78.3835 319.132 72.7831 323.047 65.4424 323.047C58.5239 323.047 52.8934 319.848 48.551 313.449C48.5277 313.415 48.5045 313.381 48.4813 313.346C48.3284 313.119 48.1771 312.888 48.0274 312.652C43.7074 305.722 41.5474 296.857 41.5474 286.057C41.5474 275.257 43.7074 266.392 48.0274 259.462C48.1668 259.243 48.3077 259.028 48.4499 258.816C48.4535 258.81 48.457 258.805 48.4606 258.8C52.8152 252.311 58.4758 249.067 65.4424 249.067C72.1589 249.067 77.4901 252.264 81.4362 258.657C82.2913 260.043 84.0333 260.665 85.507 259.973L91.5488 257.135C91.668 257.079 91.7166 256.935 91.655 256.819V256.819C88.7653 251.357 85.29 247.186 81.229 244.305C76.6964 241.09 71.4342 239.482 65.4424 239.482C54.8224 239.482 46.3174 243.847 39.9274 252.577C39.6407 252.971 39.3604 253.369 39.0867 253.773C39.0683 253.8 39.0499 253.827 39.0315 253.855C33.3288 262.308 30.4774 273.042 30.4774 286.057C30.4774 299.029 33.3096 309.775 38.9739 318.296C38.9923 318.324 39.0106 318.351 39.029 318.379C39.321 318.816 39.6205 319.247 39.9274 319.672ZM61.5656 304.124C62.695 305.883 63.5467 306.506 63.8893 306.71C64.15 306.866 64.5348 307.047 65.4424 307.047C65.6612 307.047 65.8045 307.032 65.8839 307.02C65.8991 307.018 65.9123 307.015 65.9238 307.013C65.943 307.01 65.9573 307.007 65.9671 307.004V307.004C65.9709 307.003 65.9744 307.002 65.9775 307C65.9855 306.994 65.9959 306.987 66.0087 306.977C66.1685 306.855 67.1334 306.033 68.3169 303.308C70.0336 299.356 73.2717 296.263 77.2985 294.73C81.3254 293.196 85.8005 293.352 89.7111 295.161L98.7561 299.346C100.16 299.996 101.449 300.839 102.59 301.841C103.128 302.313 103.423 302.993 103.493 303.705C103.959 308.443 105.158 312.647 107.089 316.318C107.44 316.984 107.576 317.754 107.36 318.475C107.102 319.331 106.772 320.17 106.369 320.982C102.413 328.951 97.0939 335.978 89.9555 341.014C82.6528 346.167 74.2896 348.632 65.4424 348.632C49.6776 348.632 36.428 341.848 27.0634 329.186C27.0428 329.159 27.0223 329.131 27.0019 329.103C26.9855 329.08 26.9692 329.058 26.953 329.035C18.2111 316.922 14.4774 302.184 14.4774 286.057C14.4774 269.939 18.2078 255.208 26.9993 243.151L27.0165 243.127C36.353 230.372 49.6087 223.482 65.4424 223.482C74.0394 223.482 82.2343 225.732 89.4714 230.557C94.8641 234.152 99.2486 238.856 102.795 244.248C103.109 244.725 103.27 245.285 103.27 245.856V266.941C103.27 267.719 102.976 268.477 102.394 268.994C101.257 270.004 99.9721 270.856 98.5696 271.514L89.6596 275.699C81.7998 279.391 72.43 276.14 68.5466 268.373C67.39 266.06 66.4963 265.356 66.3113 265.227C66.2212 265.164 66.1809 265.151 66.1432 265.139C66.0962 265.125 65.8897 265.067 65.4424 265.067C64.5348 265.067 64.15 265.249 63.8893 265.405C63.5467 265.609 62.695 266.232 61.5657 267.99C59.282 271.687 57.5474 277.358 57.5474 286.057C57.5474 294.757 59.2819 300.428 61.5656 304.124Z" fill="black"/>
<path fill-rule="evenodd" clip-rule="evenodd" d="M296.835 139.735C296.644 140.202 296.706 140.727 296.939 141.175L321.135 187.689C321.358 188.116 321.474 188.591 321.474 189.073V221.012C321.474 229.848 328.637 237.012 337.474 237.012H359.344C368.18 237.012 375.344 229.848 375.344 221.012V189.053C375.344 188.573 375.459 188.1 375.68 187.674L401.228 138.322C403.795 133.362 403.591 127.422 400.688 122.651C397.785 117.879 392.604 114.967 387.019 114.967H363.124C356.777 114.967 351.03 118.718 348.476 124.529V124.529C348.425 124.646 348.259 124.646 348.207 124.529L348.185 124.48C345.619 118.696 339.886 114.967 333.559 114.967L309.664 114.967C304.073 114.967 298.887 117.885 295.986 122.664C294.838 124.556 294.113 126.631 293.817 128.755C293.595 130.349 294.947 131.627 296.556 131.627H306.217C306.933 131.627 307.514 132.208 307.514 132.924V132.924C307.514 133.577 307.028 134.126 306.382 134.221C304.162 134.545 302.429 134.931 301.185 135.377C300.658 135.567 300.219 135.767 299.867 135.978C299.67 136.093 299.479 136.221 299.294 136.361C298.286 137.125 297.466 138.249 296.835 139.735V139.735ZM351.143 158.227C350.094 160.613 346.711 160.618 345.654 158.236L334.35 132.75C333.869 131.666 332.794 130.967 331.608 130.967H314.606C312.355 130.967 310.906 133.354 311.945 135.351L337.135 183.776C337.358 184.204 337.474 184.678 337.474 185.16V218.012C337.474 219.669 338.817 221.012 340.474 221.012H356.344C358.001 221.012 359.344 219.669 359.344 218.012V185.157C359.344 184.677 359.459 184.204 359.68 183.778L384.752 135.346C385.785 133.349 384.336 130.967 382.088 130.967L365.082 130.967C363.892 130.967 362.815 131.67 362.336 132.76L351.143 158.227Z" fill="black"/>
<path fill-rule="evenodd" clip-rule="evenodd" d="M199.374 223.995C199.067 222.367 200.44 221.012 202.097 221.012H210.09C212.094 221.012 213.534 219.084 212.967 217.162L209.512 205.466C209.228 204.503 209.704 203.471 210.67 203.193V203.193C211.583 202.931 212.28 202.128 212.28 201.177V152.332C212.28 150.878 211.224 149.662 209.849 149.185C203.574 147.009 199.097 141.046 199.097 134.066V131.627C199.097 122.79 206.26 115.627 215.097 115.627L246.803 115.627C251.679 115.627 256.289 117.85 259.325 121.666L259.582 121.99C261.044 123.828 264.081 123.362 265.562 121.54C268.496 117.932 272.97 115.627 277.983 115.627L307.514 115.627C315.059 115.627 321.384 120.849 323.072 127.877C323.47 129.534 322.081 130.967 320.376 130.967H314.606C312.355 130.967 310.906 133.354 311.945 135.351L316.577 144.256C317.23 145.511 316.931 147.08 315.716 147.806C315.144 148.148 314.549 148.455 313.932 148.725C312.695 149.266 311.78 150.423 311.78 151.773V223.055C311.78 231.892 304.617 239.055 295.78 239.055H293.539C288.72 239.055 284.158 236.883 281.12 233.143L253.443 199.067C251.989 197.277 249.092 198.305 249.092 200.612V200.612C249.092 201.83 249.996 202.844 251.168 203.175C257.883 205.075 262.803 211.25 262.803 218.573V221.012C262.803 229.848 255.64 237.012 246.803 237.012H215.097C207.28 237.012 200.772 231.406 199.374 223.995ZM293.083 222.494C293.372 222.849 293.805 223.055 294.262 223.055V223.055C295.101 223.055 295.78 222.375 295.78 221.537V148.634C295.78 148.29 295.783 147.954 295.787 147.627C295.84 143.94 296.189 141.309 296.835 139.735C297.582 137.977 298.593 136.725 299.867 135.978C300.843 135.392 302.492 134.891 304.814 134.474C305.307 134.386 305.83 134.301 306.382 134.221C307.028 134.126 307.514 133.577 307.514 132.924V132.924C307.514 132.208 306.933 131.627 306.217 131.627H279.191C278.524 131.627 277.983 132.168 277.983 132.836V133.092C277.983 133.627 278.422 134.056 278.957 134.066V134.066C279.962 134.084 280.905 134.161 281.783 134.297C284.8 134.762 287.071 135.915 288.595 137.757C290.035 139.526 290.801 142.816 290.893 147.627C290.899 147.955 290.902 148.291 290.902 148.634V178.474C290.902 181.314 287.323 182.564 285.555 180.341L247.704 132.759C247.135 132.044 246.271 131.627 245.356 131.627H216.336C215.652 131.627 215.097 132.182 215.097 132.866V132.866C215.097 133.535 215.628 134.079 216.295 134.129C218.441 134.288 220.129 134.685 221.359 135.318C221.838 135.565 222.341 135.901 222.869 136.325C223.937 137.185 225.104 138.41 226.369 139.999L227.617 141.548C228.046 142.081 228.28 142.745 228.28 143.43V205.455C228.28 210.201 227.314 213.563 225.38 215.541C224.046 216.905 222.001 217.809 219.245 218.253C218.343 218.398 217.365 218.494 216.31 218.541C215.639 218.571 215.097 219.115 215.097 219.787V219.787C215.097 220.463 215.645 221.012 216.322 221.012H245.584C246.257 221.012 246.803 220.466 246.803 219.792V219.792C246.803 219.119 246.257 218.573 245.584 218.573H244.694C243.813 218.573 242.96 218.497 242.135 218.345C240.12 217.973 238.27 217.149 236.586 215.87C234.257 214.068 233.092 210.597 233.092 205.455V157.086C233.092 154.261 236.64 153.002 238.421 155.194L293.083 222.494Z" fill="black"/>
<path fill-rule="evenodd" clip-rule="evenodd" d="M210.09 221.012C212.094 221.012 213.534 219.084 212.967 217.162L188.144 133.117C187.767 131.842 186.596 130.967 185.267 130.967H163.426C162.096 130.967 160.925 131.842 160.549 133.117L135.726 217.162C135.158 219.084 136.599 221.012 138.603 221.012H155.86C157.242 221.012 158.445 220.068 158.774 218.726L161.029 209.528C161.357 208.186 162.561 207.242 163.942 207.242H184.75C186.132 207.242 187.335 208.186 187.664 209.528L189.919 218.726C190.247 220.068 191.451 221.012 192.832 221.012H210.09ZM177.306 165.59C176.567 162.537 172.228 162.529 171.477 165.579L166.823 184.49C166.358 186.381 167.789 188.207 169.737 188.207H178.971C180.913 188.207 182.343 186.389 181.886 184.501L177.306 165.59ZM174.092 223.441C174.121 223.324 174.226 223.242 174.346 223.242V223.242C174.467 223.242 174.572 223.324 174.601 223.441L174.939 224.821C176.693 231.978 183.109 237.012 190.479 237.012H214.104C219.149 237.012 223.9 234.632 226.92 230.59C228.397 228.614 229.376 226.354 229.823 223.994C230.132 222.367 228.761 221.012 227.104 221.012L216.322 221.012C215.645 221.012 215.097 220.463 215.097 219.787V219.787C215.097 219.115 215.64 218.571 216.311 218.541C220.587 218.351 223.61 217.351 225.38 215.541C226.351 214.548 227.078 213.206 227.561 211.516C227.703 211.02 227.68 210.493 227.534 209.998L202.854 126.435C200.845 119.634 194.6 114.967 187.509 114.967H161.184C154.093 114.967 147.848 119.634 145.839 126.435L119.244 216.48C117.815 221.319 118.752 226.548 121.773 230.59C124.793 234.632 129.543 237.012 134.589 237.012H158.214C165.583 237.012 172 231.978 173.754 224.821L174.092 223.441Z" fill="black"/>
<path fill-rule="evenodd" clip-rule="evenodd" d="M353.557 21.627C352.884 21.627 352.338 22.1729 352.338 22.8464V22.8464C352.338 23.5199 352.884 24.0659 353.557 24.0659H355.304C358.205 24.0659 360.49 24.6812 362.16 25.9116C363.346 26.7466 364.159 27.9331 364.599 29.4712C364.818 30.394 364.928 32.877 364.928 36.9199V95.7188C364.928 100.201 364.687 102.97 364.203 104.024C363.588 105.519 362.709 106.573 361.566 107.188C359.984 108.111 357.897 108.573 355.304 108.573H353.557C352.884 108.573 352.338 109.119 352.338 109.792V109.792C352.338 110.466 352.884 111.012 353.557 111.012L426.989 111.012C428.483 111.012 429.75 109.912 429.959 108.432L433.409 84.0558C433.518 83.2876 432.921 82.6011 432.146 82.6011V82.6011C431.573 82.6011 431.071 82.9838 430.908 83.5331C429.563 88.0443 427.734 91.8705 425.421 95.0117C423.918 97.0527 422.211 98.8045 420.299 100.267C418.562 101.608 416.624 102.717 414.484 103.593C410.455 105.243 405.714 106.068 400.26 106.068H394.921C392.372 106.068 390.526 105.716 389.384 105.013C388.241 104.31 387.45 103.409 387.011 102.311C386.664 101.347 386.469 98.9143 386.427 95.0117C386.421 94.4634 386.418 93.8861 386.418 93.2798V69.8794C386.418 68.8962 387.215 68.094 388.197 68.1347V68.1347C389.551 68.1908 390.788 68.3134 391.907 68.5023C393.597 68.7877 395.019 69.2246 396.173 69.813C398.415 70.9116 400.37 73.0869 402.04 76.3389C402.054 76.3655 402.068 76.3922 402.082 76.419C402.197 76.6385 402.308 76.8621 402.418 77.09C403.792 79.9599 404.742 83.4908 405.267 87.6827C405.351 88.3524 405.915 88.8633 406.59 88.8633V88.8633C407.317 88.8633 407.907 88.2736 407.907 87.5462V43.3772C407.907 42.6506 407.318 42.0615 406.591 42.0615V42.0615C405.916 42.0615 405.352 42.573 405.271 43.2435C405.265 43.2983 405.258 43.3529 405.251 43.4075C404.708 47.8388 403.763 51.5347 402.418 54.4951C402.345 54.6541 402.272 54.8109 402.197 54.9656C401.693 56.0129 401.135 56.963 400.524 57.8159C398.569 60.5459 395.697 62.229 391.907 62.8652C390.755 63.0586 389.519 63.1553 388.197 63.1553V63.1553C387.214 63.1553 386.418 62.3584 386.418 61.3755V29.7686C386.418 28.1117 387.761 26.7686 389.418 26.7686H395.646C397.387 26.7686 398.985 26.7947 400.441 26.8471C401.132 26.8719 401.791 26.9026 402.418 26.9393C403.51 27.0031 404.505 27.0848 405.402 27.1845C406.344 27.2891 407.179 27.4135 407.907 27.5576C408.507 27.6767 409.035 27.8091 409.489 27.9551C410.062 28.1342 410.617 28.3271 411.155 28.5338C414.573 29.8485 417.27 31.721 419.245 34.1514C420.032 35.1017 420.758 36.2602 421.425 37.627C422.055 38.9191 422.632 40.3972 423.154 42.0615C423.419 42.9047 423.67 43.7955 423.907 44.7342C424.087 45.4463 424.259 46.186 424.423 46.9531C424.56 47.5952 425.123 48.0601 425.78 48.0601V48.0601C426.539 48.0601 427.155 47.4445 427.155 46.6853V24.627C427.155 22.9701 425.812 21.627 424.155 21.627L353.557 21.627ZM423.907 64.7864C423.907 64.3815 424.245 64.0601 424.65 64.0601V64.0601H427.155C435.991 64.0601 443.155 56.8966 443.155 48.0601V21.627C443.155 12.7904 435.991 5.62695 427.155 5.62695L352.338 5.62695C344.793 5.62695 338.468 10.8494 336.78 17.8766C336.382 19.5341 337.771 20.9667 339.476 20.9667H343.043C345.443 20.9667 346.871 23.6431 345.536 25.6363L341.098 32.2613C340.368 33.3518 340.412 34.8125 341.367 35.7126C342.871 37.1294 344.649 38.2583 346.613 39.0111C347.931 39.5164 348.928 40.7089 348.928 42.1205V90.5181C348.928 91.9298 347.931 93.1223 346.613 93.6275C345.504 94.0524 344.455 94.597 343.481 95.2456C342.278 96.0467 342.077 97.6719 342.843 98.8974L347.548 106.421C348.798 108.419 347.361 111.012 345.005 111.012H339.338C337.681 111.012 336.309 112.367 336.616 113.995C338.013 121.406 344.521 127.012 352.338 127.012L429.594 127.012C437.564 127.012 444.319 121.146 445.436 113.254L449.457 84.8432C450.106 80.2543 448.734 75.6093 445.695 72.11C442.656 68.6107 438.249 66.6011 433.615 66.6011H431.176C429.498 66.6011 427.867 66.8624 426.33 67.3512C425.187 67.7146 423.907 66.924 423.907 65.7244V64.7864ZM355.532 40.0737C355.532 40.074 355.519 40.0733 355.495 40.0705C355.52 40.072 355.532 40.0734 355.532 40.0737Z" fill="black"/>
<path fill-rule="evenodd" clip-rule="evenodd" d="M364.414 118.766C361.595 123.855 356.236 127.012 350.419 127.012H324.634C321.211 127.012 317.948 125.919 315.268 123.984C313.838 122.952 311.804 122.952 310.375 123.985C307.742 125.889 304.507 127.012 301.009 127.012L279.139 127.012C270.302 127.012 263.139 119.848 263.139 111.012V20.9668C263.139 12.1302 270.302 4.9668 279.139 4.9668L301.009 4.9668C304.293 4.9668 307.347 5.95642 309.887 7.65375C311.234 8.5542 313.058 8.55437 314.407 7.65524C316.993 5.93069 320.07 4.9668 323.284 4.9668L348.664 4.9668C354.571 4.9668 359.998 8.22149 362.779 13.4327C363.679 15.1194 364.255 16.9222 364.511 18.7557C364.733 20.3489 363.38 21.627 361.772 21.627L353.557 21.627C352.884 21.627 352.338 22.173 352.338 22.8465V22.8465C352.338 23.52 352.884 24.066 353.557 24.066H355.304C358.205 24.066 360.49 24.6812 362.16 25.9117V25.9117C363.046 26.5356 363.196 27.7508 362.671 28.6997C362.451 29.0981 362.213 29.4891 361.957 29.8715L340.588 61.7721C339.93 62.754 339.91 64.0304 340.537 65.0324L363.985 102.528C364.008 102.566 364.031 102.603 364.055 102.641C364.311 103.059 364.408 103.578 364.203 104.024V104.024C363.588 105.519 362.709 106.573 361.566 107.189C359.984 108.111 357.897 108.573 355.304 108.573H353.557C352.884 108.573 352.338 109.119 352.338 109.792V109.792C352.338 110.466 352.884 111.012 353.557 111.012H363.419C365.076 111.012 366.448 112.366 366.139 113.994C365.826 115.642 365.252 117.254 364.414 118.766ZM321.479 64.7335C320.852 63.7315 320.872 62.455 321.53 61.4732L345.536 25.6364C346.871 23.6432 345.443 20.9668 343.043 20.9668H325.004C323.939 20.9668 322.953 21.532 322.415 22.4518L306.598 49.4841C305.053 52.1253 301.009 51.0292 301.009 47.9691V23.9668C301.009 22.3099 299.666 20.9668 298.009 20.9668L282.139 20.9668C280.482 20.9668 279.139 22.3099 279.139 23.9668V108.012C279.139 109.669 280.482 111.012 282.139 111.012L298.009 111.012C299.666 111.012 301.009 109.669 301.009 108.012V88.3528C301.009 87.809 301.157 87.2755 301.436 86.8093L303.982 82.5674C305.175 80.5783 308.078 80.6384 309.188 82.6751L323.781 109.448C324.307 110.412 325.317 111.012 326.415 111.012H345.005C347.361 111.012 348.798 108.419 347.548 106.421L321.479 64.7335Z" fill="black"/>
<path fill-rule="evenodd" clip-rule="evenodd" d="M270.595 96.8899C269.915 96.3054 269.456 95.4912 269.405 94.596L265.084 18.9739L265.081 18.9193C265.079 18.887 265.077 18.8547 265.074 18.8224C264.933 16.7026 264.327 9.82791 258.408 4.89519C255.08 2.12227 251.526 1.28033 249.904 0.968365C247.957 0.593915 246.111 0.511719 244.655 0.511719L238.985 0.511719C234.961 0.511719 231.979 1.97496 230.449 2.89311C229.437 3.50066 228.605 4.14349 227.957 4.7064C223.743 8.21695 221.905 13.2035 221.905 17.7267C221.905 18.6684 221.975 19.5604 222.103 20.4045C222.232 21.2518 222.078 22.1284 221.586 22.8302L177.868 85.1704C177.515 85.6751 177.325 86.2765 177.325 86.8929V108.508C177.325 108.559 177.375 108.596 177.425 108.582V108.582C177.496 108.56 177.566 108.538 177.636 108.517C177.648 108.513 177.66 108.509 177.671 108.505C178.544 108.231 179.317 107.94 179.99 107.632C180.816 107.254 181.491 106.85 182.015 106.422C182.386 106.088 182.842 105.593 183.382 104.937C183.513 104.776 183.65 104.607 183.792 104.427C184.478 103.561 185.28 102.471 186.2 101.157L238.175 27.0417C238.485 26.5914 238.755 26.1586 238.985 25.7435C239.42 24.9592 239.714 24.2378 239.867 23.5792C239.915 23.3695 239.924 23.1533 239.914 22.9382L239.795 20.5617C239.792 20.5437 239.79 20.5259 239.787 20.5083C239.783 20.4784 239.778 20.4491 239.773 20.4202C239.744 20.2399 239.71 20.0802 239.673 19.9411C239.559 19.5189 239.34 19.0888 238.985 18.833V18.833C238.905 18.7758 238.815 18.722 238.715 18.6717C238.175 18.4017 237.905 18.0867 237.905 17.7267C237.905 17.4819 237.967 17.2786 238.092 17.1171C238.213 16.9607 238.376 16.8405 238.531 16.7181C238.705 16.5805 238.856 16.5117 238.985 16.5117L244.655 16.5117C245.719 16.5117 246.563 16.5904 247.187 16.7477C247.618 16.8565 247.944 17.0028 248.165 17.1867C248.33 17.3245 248.475 17.5045 248.598 17.7267C248.809 18.1074 248.958 18.6119 249.045 19.2403C249.073 19.4429 249.095 19.6584 249.11 19.8867L253.7 100.212C253.754 101.998 253.922 103.426 254.204 104.496C254.391 105.205 254.628 105.757 254.915 106.152C255.333 106.726 256.008 107.24 256.94 107.693C257.193 107.816 257.465 107.934 257.757 108.049C258.21 108.226 258.709 108.393 259.254 108.549C259.256 108.549 259.258 108.55 259.26 108.551C259.269 108.553 259.279 108.556 259.288 108.559C259.315 108.566 259.343 108.574 259.37 108.582C259.91 108.762 260.315 109.077 260.585 109.527C260.815 109.834 260.947 110.141 260.981 110.447C260.993 110.553 261.021 110.728 261.038 110.833V110.833C261.093 111.172 260.797 111.284 260.453 111.269C260.022 111.25 259.526 111.209 258.965 111.147C258.935 111.143 258.904 111.139 258.874 111.136C258.803 111.127 258.732 111.119 258.662 111.111C258.618 111.106 258.575 111.102 258.531 111.097C258.519 111.096 258.507 111.095 258.496 111.094C258.449 111.089 258.403 111.085 258.357 111.08C258.341 111.079 258.325 111.078 258.309 111.076C258.219 111.068 258.129 111.061 258.039 111.054C257.659 111.026 257.292 111.012 256.94 111.012H239.525L236.15 111.147C235.931 111.171 235.695 111.192 235.443 111.21C235.348 111.217 235.251 111.223 235.152 111.229C234.595 111.261 233.966 111.278 233.263 111.281C233.129 111.282 233.007 111.206 232.947 111.086V111.086C232.923 111.037 232.909 110.983 232.912 110.928C232.923 110.755 232.967 110.581 233.045 110.408C233.156 110.159 233.336 109.91 233.585 109.662C234.035 109.122 234.755 108.762 235.745 108.582C235.784 108.575 235.824 108.568 235.863 108.561C235.924 108.55 235.985 108.539 236.045 108.527C237.002 108.353 237.849 108.178 238.589 108.003C238.824 107.947 239.048 107.892 239.261 107.836C239.307 107.824 239.352 107.812 239.396 107.8C239.44 107.789 239.483 107.777 239.525 107.766C240.178 107.588 240.718 107.41 241.145 107.232C241.145 107.232 241.145 107.232 241.145 107.232C241.464 107.109 241.756 106.963 242.021 106.794C242.372 106.57 242.675 106.306 242.932 106.001C243.195 105.689 243.409 105.334 243.575 104.937C244.057 103.973 244.252 102.58 244.161 100.757C244.156 100.673 244.152 100.587 244.146 100.501C244.137 100.362 244.127 100.221 244.115 100.077L243.338 85.4455C243.316 85.0341 243.241 84.5851 242.897 84.358C242.848 84.3257 242.796 84.2964 242.741 84.2701C242.5 84.1556 242.241 84.0775 241.983 84.011C241.692 83.936 241.323 83.8925 240.875 83.8803C240.788 83.8779 240.698 83.8767 240.605 83.8767C239.415 83.8534 238.126 83.8331 236.737 83.8158C232.766 83.7664 227.981 83.7417 222.38 83.7417H204.155C203.567 83.7417 203.068 83.8018 202.66 83.922C202.484 83.9738 202.307 84.0239 202.135 84.0856C201.836 84.1922 201.538 84.378 201.239 84.6431C201.11 84.758 201 84.893 200.9 85.0346L189.575 101.157C189.135 101.732 188.777 102.27 188.503 102.769C188.502 102.77 188.502 102.77 188.502 102.771C188.047 103.598 187.82 104.32 187.82 104.937C187.82 105.927 188.405 106.692 189.575 107.232C190.091 107.416 190.721 107.601 191.465 107.785C191.506 107.795 191.547 107.805 191.588 107.815C192.562 108.053 193.725 108.291 195.076 108.529C195.137 108.54 195.2 108.55 195.262 108.561C195.301 108.568 195.341 108.575 195.38 108.582C196.28 108.762 196.955 109.077 197.405 109.527C197.855 109.887 198.125 110.292 198.215 110.742C198.305 111.102 198.305 111.282 198.215 111.282C197.467 111.282 196.803 111.268 196.221 111.24C196.16 111.237 196.1 111.234 196.041 111.231C195.969 111.227 195.898 111.223 195.829 111.219C195.792 111.217 195.756 111.214 195.72 111.212C195.45 111.194 195.202 111.172 194.975 111.147L191.465 111.012H179.99C179.541 111.012 179.069 111.035 178.574 111.08C178.45 111.092 178.324 111.105 178.197 111.119C178.182 111.121 178.167 111.123 178.151 111.124C178.09 111.131 178.027 111.139 177.965 111.147C177.212 111.23 176.537 111.275 175.94 111.281C175.865 111.282 175.805 111.221 175.805 111.147V111.147C175.805 111.072 175.744 111.012 175.67 111.012H160.075C159.926 111.012 159.805 111.133 159.805 111.282V111.282C159.805 120.118 166.968 127.282 175.805 127.282C177.167 127.282 178.495 127.186 179.732 127.049C179.773 127.044 179.814 127.04 179.855 127.035C179.887 127.031 179.918 127.027 179.949 127.023C179.986 127.019 180.014 127.016 180.034 127.014C180.042 127.013 180.049 127.012 180.054 127.012H191.157L193.89 127.117C195.334 127.245 196.824 127.282 198.215 127.282C201.026 127.282 204.199 126.533 207.12 124.586C209.94 122.706 211.622 120.313 212.576 118.403C214.259 115.038 214.282 112.009 214.282 111.147C214.282 109.267 213.945 107.715 213.791 107.08C213.571 106.126 213.282 105.231 212.941 104.392C212.123 102.384 213.428 99.7417 215.596 99.7417V99.7417C217.759 99.7417 219.055 102.364 218.226 104.363C217.444 106.249 216.91 108.469 216.91 111.012C216.91 113.496 217.488 115.945 218.599 118.167L218.734 118.437C221.444 123.858 226.985 127.282 233.045 127.282C234.401 127.282 235.841 127.242 237.254 127.115L239.845 127.012H256.876C256.896 127.014 256.931 127.017 256.98 127.023C257.053 127.032 257.125 127.041 257.198 127.049C258.332 127.175 259.644 127.282 260.99 127.282C265.233 127.282 269.303 125.596 272.304 122.595C276.955 117.944 277.057 112.401 277.057 111.045C277.057 110.037 276.965 109.131 276.85 108.387C276.443 105.2 275.209 102.57 273.869 100.604C272.921 99.1728 271.812 97.9364 270.595 96.8899ZM263.52 93.1242C263.52 93.1242 263.529 93.127 263.546 93.133C263.528 93.1273 263.52 93.1243 263.52 93.1242ZM202.252 110.92C202.252 110.92 202.258 110.912 202.271 110.894C202.26 110.91 202.253 110.919 202.252 110.92ZM240.875 80.7717C241.713 80.7717 242.32 80.587 242.696 80.2176C242.993 79.9264 243.023 79.4774 243 79.0623L240.681 37.3238C240.523 34.479 236.861 33.4359 235.227 35.7707L204.811 79.2564C204.734 79.3661 204.673 79.4862 204.631 79.6131V79.6131C204.584 79.7546 204.552 79.9042 204.579 80.0508C204.669 80.5314 205.067 80.7717 205.775 80.7717H240.875Z" fill="black"/>
<path fill-rule="evenodd" clip-rule="evenodd" d="M191.465 111.012C192.502 111.052 193.333 111.91 193.21 112.941C192.257 120.868 185.508 127.012 177.325 127.012L155.59 127.012C152.947 127.012 150.454 126.371 148.257 125.236C147.145 124.662 145.806 124.661 144.694 125.235C142.476 126.378 139.976 127.012 137.365 127.012H128.86C126.269 127.012 123.788 126.388 121.584 125.262C120.479 124.698 119.153 124.699 118.049 125.264C115.866 126.381 113.391 127.012 110.77 127.012L88.8997 127.012C80.0632 127.012 72.8997 119.848 72.8997 111.012V20.9668C72.8997 12.1302 80.0632 4.9668 88.8997 4.9668L117.925 4.9668C124.78 4.9668 130.873 9.33378 133.076 15.8253V15.8253C133.132 15.9886 133.362 15.9889 133.418 15.8258L133.432 15.7846C135.647 9.31395 141.73 4.9668 148.57 4.9668L177.325 4.9668C186.161 4.9668 193.325 12.1302 193.325 20.9668V90.0499C193.325 90.6663 193.135 91.2678 192.781 91.7724L186.2 101.157C184.31 103.857 182.915 105.612 182.015 106.422C181.025 107.232 179.495 107.952 177.425 108.582V108.582C177.375 108.596 177.325 108.559 177.325 108.508V23.9668C177.325 22.3099 175.982 20.9668 174.325 20.9668L150.714 20.9668C149.431 20.9668 148.291 21.7819 147.875 22.9951L136.031 57.5945C135.103 60.3028 131.271 60.2976 130.351 57.5868L118.616 23.0028C118.203 21.7856 117.06 20.9668 115.775 20.9668L91.8997 20.9668C90.2429 20.9668 88.8997 22.3099 88.8997 23.9668V108.012C88.8997 109.669 90.2429 111.012 91.8997 111.012L107.77 111.012C109.427 111.012 110.77 109.669 110.77 108.012V75.777C110.77 72.3816 115.523 71.5991 116.611 74.8154L128.17 108.973C128.582 110.192 129.725 111.012 131.012 111.012H135.218C136.502 111.012 137.643 110.195 138.057 108.98L149.75 74.6811C150.845 71.471 155.59 72.2576 155.59 75.6491V108.012C155.59 109.669 156.933 111.012 158.59 111.012L175.67 111.012C175.744 111.012 175.805 111.072 175.805 111.147V111.147C175.805 111.221 175.865 111.282 175.94 111.281C176.363 111.277 176.824 111.253 177.325 111.21C177.531 111.192 177.745 111.171 177.965 111.147C178.685 111.057 179.36 111.012 179.99 111.012H191.465V111.012ZM193.325 104.749C193.325 106.533 191.675 107.915 189.977 107.368C189.836 107.323 189.702 107.277 189.575 107.232C188.405 106.692 187.82 105.927 187.82 104.937C187.82 103.947 188.405 102.687 189.575 101.157V101.157C190.733 99.5083 193.325 100.328 193.325 102.342V104.749Z" fill="black"/>
</svg>
