<svg width="487" height="530" viewBox="0 0 487 530" fill="none" xmlns="http://www.w3.org/2000/svg">
<g clip-path="url(#clip0_450_299223)">
<path d="M359.002 81.6648C367.127 92.4698 362.862 95.7427 358.777 98.8811C362.503 102.333 367.172 106.682 371.931 111.121C376.51 106.055 371.078 105.696 370.629 103.409C371.616 102.692 372.963 101.078 373.816 101.302C376.465 101.93 378.934 103.275 381.537 104.396C390.291 97.7603 399.674 90.6765 413.231 80.4094C406.677 94.1735 402.233 103.634 397.699 113.138C400.931 114.304 403.534 115.201 406.542 116.277C403.265 119.774 400.392 122.867 397.115 126.365C400.033 127.396 402.592 128.292 405.42 129.279C406.093 133.269 406.812 137.394 408.428 146.809C410.358 136.99 411.256 132.462 412.109 127.934C418.304 144.567 408.338 156 399.988 167.971C379.607 174.337 370.09 192.361 356.308 208.456C370.494 207.828 377.901 199.175 385.488 191.419C393.164 188.819 402.278 194.647 408.473 186.443C410.044 187.832 411.66 189.267 412.692 190.209C417.226 187.788 421.581 185.501 425.307 183.528C429.168 184.156 432.894 185.501 436.44 185.187C439.403 184.918 442.186 182.721 448.112 179.986C440.75 194.468 426.968 189.805 419.067 198.413C423.781 199.22 427.776 199.893 431.771 200.565C426.07 207.56 421.132 211.146 418.214 208.591C409.146 200.521 401.155 205.138 392.491 208.725C387.373 210.832 381.897 212.312 376.42 213.209C366.903 214.778 365.242 221.099 365.825 229.08C361.561 231.501 357.296 233.967 352.268 236.836C353.884 238.899 355.006 240.378 357.071 243.068C352.313 244.099 348.048 245.086 343.065 246.162C345.534 248.762 347.42 250.825 349.754 253.29C374.534 244.862 400.347 251.542 426.115 248.493C428.764 244.503 431.816 239.93 434.869 235.312C435.677 235.581 436.485 235.85 437.293 236.119C436.485 239.661 435.677 243.203 434.51 248.269C436.216 251.766 453.409 249.749 468.942 242.351C467.595 240.827 466.248 239.257 464.812 237.643C466.293 236.926 467.775 235.536 468.718 235.805C471.321 236.657 473.701 238.271 476.349 239.616C477.427 238.63 478.998 237.24 480.524 235.805L486.674 241.947C482.903 245.22 479.088 248.493 473.476 253.29H435.183C432.759 256.339 430.021 259.836 426.519 264.275C425.083 260.06 424.185 257.415 422.973 253.873C416.508 255.218 409.954 257.146 403.265 257.864C396.621 258.536 389.708 257.281 383.109 258.222C376.285 259.209 369.641 261.764 365.376 262.975C368.474 266.068 372.784 270.372 378.305 275.842C367.486 281.805 360.483 285.661 352.851 289.875C356.353 299.201 364.703 301.712 371.392 306.06C377.273 309.916 386.476 309.154 389.304 319.197C373.906 315.431 359.63 311.934 344.591 308.302C344.053 311.351 343.29 315.476 342.212 321.349C337.05 319.466 332.246 317.717 324.121 314.758C326.455 321.08 327.757 324.532 329.193 328.388C327.308 329.06 324.704 329.957 321.292 331.168C327.084 340.583 332.785 349.864 338.755 359.503C336.511 360.265 333.907 361.162 329.553 362.641C338.217 384.7 341 407.79 338.172 431.417C331.438 436.214 327.218 429.624 326.186 426.306C323.313 416.891 322.37 406.893 321.023 397.029C319.272 384.252 319.093 371.115 315.905 358.741C312.898 347.039 306.703 336.234 295.12 329.778C289.135 331.003 282.012 337.026 273.752 347.846C271.822 345.559 269.891 343.318 266.839 339.731V311.306C257.8 330.675 254.808 345.545 257.86 355.916C253.91 354.257 250.498 352.868 247.221 351.522C246.054 353.54 244.752 354.751 244.752 355.961C244.886 363.269 243.001 372.012 246.323 377.571C250.408 384.341 247.894 390.439 249.106 396.671C250.453 403.575 248.927 410.121 252.743 417.653C256.873 425.723 254.583 436.842 257.411 446.93C261.586 461.994 260.913 478.359 262.709 494.14C263.157 498.22 265.671 502.031 266.165 506.066C267.243 514.54 270.205 523.597 262.843 529.29C259.476 525.928 256.154 522.565 252.787 519.203C247.804 511.312 247.445 500.507 245.739 490.195C243.899 479.076 240.397 467.957 239.903 456.39C239.454 445.764 237.075 435.228 235.639 424.647C234.112 413.304 232.721 401.961 231.105 390.663C229.578 380.082 227.872 369.546 226.301 359.548C222.396 356.051 218.58 352.643 213.731 348.294H204.978C204.484 352.374 204.08 355.916 203.361 362.103C200.713 359.727 199.186 358.337 196.313 355.782C193.081 357.979 189.624 360.31 186.123 362.731C187.021 379.768 186.168 395.684 164.889 400.706C152.993 402.275 141.455 398.195 129.335 392.949C109.941 384.61 89.695 377.571 68.1918 379.051C65.1392 376.675 62.311 374.433 58.2707 371.294C62.2212 367.125 65.0494 361.61 67.8327 361.61C76.2723 361.7 84.5774 360.131 93.5108 364.211C107.338 370.532 122.376 373.581 135.126 383.176C141.949 388.331 151.825 389.497 161.073 392.77C164.844 388.914 168.884 384.789 172.745 380.889C172.745 379.768 173.059 378.692 172.7 378.289C159.457 364.255 146.124 350.312 132.522 336.01C133.285 329.464 131.804 323.053 124.082 320.945C117.304 319.107 114.7 315.565 114.161 308.661C113.712 302.474 109.627 299.649 102.893 297.99C90.0093 294.852 89.4257 291.489 96.6084 277.456C76.407 261.63 61.8171 240.782 48.7536 220.741C52.9734 211.998 57.1933 203.3 61.862 193.661C57.8218 190.881 54.41 188.639 51.088 186.263C48.17 184.201 45.2969 182.004 41.6607 179.314C45.0276 178.148 47.6313 177.296 50.1901 176.4C51.8063 162.142 64.4209 152.413 65.4085 136.945C76.2723 145.105 86.1935 152.593 98.4041 161.739C99.7059 157.435 100.873 153.669 102.444 148.513C102.893 149.409 101.053 145.688 99.0774 141.653C97.5062 142.908 96.0248 144.164 92.6579 146.899C93.2864 142.55 92.6579 138.739 94.2291 137.214C101.681 130.131 106.081 123.361 95.3963 115.829C99.9753 108.834 103.836 103.006 108.325 96.1911C109.133 99.0156 109.807 101.437 111.243 106.503C115.194 101.482 118.112 97.7154 121.568 93.3665C124.307 94.7115 128.347 96.6843 132.432 98.7018C131.22 99.9123 130.188 100.944 128.706 102.423C129.873 105.068 131.4 107.848 132.297 110.852C133.061 113.452 133.016 116.277 133.465 119.953C137.864 111.3 141.59 103.947 145.945 95.3841C144.957 94.039 143.251 91.8422 141.59 89.6901C145.137 87.8519 148.863 85.9689 153.846 83.4133C156.36 99.0605 153.621 115.111 155.821 135.376C157.976 130.041 158.469 128.292 159.367 126.768C160.445 124.93 161.881 123.271 163.408 121.253C162.285 119.953 160.939 118.384 158.829 115.963C162.6 107.758 165.248 99.5088 176.022 94.577C183.295 91.2593 187.47 81.3061 194.518 72.4289V90.6316C189.624 96.2807 179.165 98.2086 178.132 109.597C181.679 109.821 185.225 110 190.343 110.314V126.947C196.852 125.333 201.88 124.123 208.704 122.419C206.459 127.665 205.112 130.893 203.721 134.166C205.486 135.929 211.098 132.133 220.555 122.778C228.097 123.854 237.03 125.109 248.119 126.723C252.294 122.329 258.174 116.142 264.863 109.103C259.88 106.637 256.873 105.158 252.877 103.14C258.982 100.54 264.28 98.2535 273.258 94.3977C270.25 102.827 268.5 107.624 266.659 112.78C270.026 113.99 272.585 114.887 275.413 115.918C275.997 121.388 276.58 126.947 277.568 136.273C279.767 129.906 280.665 127.306 281.832 123.944C286.86 128.382 292.113 129.951 297.455 123.136C298.263 128.382 298.891 132.507 299.924 139.501C306.523 134.345 311.416 130.534 316.489 126.544C316.489 119.595 319.048 111.211 315.95 106.727C309.89 97.9396 323.672 87.5381 312.718 81.2164C317.791 74.1326 322.729 67.1833 328.565 59.0234C333.189 62.924 336.915 68.618 341.269 69.1112C348.317 69.963 350.203 76.4191 355.455 78.616C360.528 80.7232 365.601 82.8305 359.002 81.5751C339.743 72.1599 336.646 65.9279 328.341 73.2807C331.438 77.002 333.997 80.0956 336.646 83.234C339.159 80.7232 341.224 78.6609 359.002 81.5751V81.6648ZM329.104 189.357C335.927 182.542 339.698 178.821 343.469 175.099C342.93 174.606 342.392 174.113 341.09 172.858C333.683 172.454 330.63 176.938 343.334 177.969C343.514 180.076 343.783 182.856 344.412 189.76C347.016 179.942 359.54 185.411 356.443 174.248C352.313 175.413 348.003 176.669 329.149 189.312L329.104 189.357ZM366.678 125.423C369.102 124.392 372.245 123.092 379.742 119.998H346.881C350.293 123.854 352.537 126.454 352.627 126.544C359.855 129.996 363.67 119.37 366.633 125.423H366.678ZM365.152 168.778C375.522 167.747 379.158 163.891 379.517 154.207C370.943 155.552 366.544 158.556 365.152 168.778ZM113.802 181.376V164.16C105.183 168.06 103.926 173.844 106.709 181.376H113.802Z" fill="#8682EF"/>
<path d="M382.211 52.2988C384.186 56.3788 385.892 59.9655 388.181 64.7179C381.897 68.0805 375.253 71.5776 365.376 76.8232C367.082 70.1429 367.98 66.601 369.147 62.0279C368.833 61.6692 367.486 60.1448 365.017 57.3203C369.237 56.9168 372.694 57.0064 375.836 56.1546C378.171 55.5269 380.146 53.599 382.211 52.2988Z" fill="#8682EF"/>
<path d="M24.0181 86.4174C18.272 95.6532 10.5057 99.9723 0.719238 99.3745C7.63259 91.3491 14.7255 84.5791 17.5088 73.1016C19.7983 77.7643 21.3695 81.0372 24.0181 86.4174Z" fill="#8682EF"/>
<path d="M38.7876 63.731C36.6777 61.4893 35.2411 59.9201 32.4578 56.9611C37.7551 56.6472 41.7505 56.423 48.574 56.0195C45.9254 61.2651 43.7257 64.4035 42.8728 67.8558C42.0647 71.0839 42.6932 74.6706 42.6932 78.347H32.9067C34.9718 73.1911 36.5879 69.2008 38.7876 63.7759V63.731Z" fill="#8682EF"/>
<path d="M227.289 117.801C230.88 110.673 234.202 104.082 238.198 96.0566C240.711 101.84 242.372 106.189 237.3 110.852C234.427 113.497 236.761 122.24 227.289 117.801Z" fill="#8682EF"/>
<path d="M244.303 10.6927C244.976 7.24042 245.47 4.77453 246.368 0.335938C251.216 3.92268 254.673 6.4334 260.374 10.6927H244.303Z" fill="#8682EF"/>
<path d="M13.6481 66.1969C9.96698 67.8558 7.85706 69.425 5.74714 69.4698C4.62484 69.4698 2.20068 65.8831 2.51492 65.4796C3.86168 63.5965 5.79203 61.848 7.90195 61.041C8.66512 60.772 10.5057 63.3275 13.6481 66.2418V66.1969Z" fill="#8682EF"/>
</g>
<defs>
<clipPath id="clip0_450_299223">
<rect width="486" height="529" fill="white" transform="translate(0.719238 0.335938)"/>
</clipPath>
</defs>
</svg>
