<svg width="371" height="371" viewBox="0 0 371 371" fill="none" xmlns="http://www.w3.org/2000/svg">
<circle cx="185.581" cy="185.626" r="184.894" fill="#8682EF"/>
<path d="M221.134 263.559L226.603 274.544C218.095 284.004 209.435 292.853 200.623 301.092C191.81 309.026 183.606 315.435 176.009 320.317C168.716 325.2 162.639 327.641 157.777 327.641C148.661 327.641 141.672 324.894 136.81 319.402C131.948 313.909 130.125 306.433 131.341 296.973L156.41 139.971L154.131 138.14L122.681 136.767L121.313 134.478L123.136 121.204L159.6 115.254C160.816 106.404 161.879 97.8599 162.791 89.6208C164.007 81.0765 164.918 74.0579 165.526 68.5652C166.437 63.0724 166.893 60.326 166.893 60.326L207.915 44.3054L210.65 49.7982C210.65 49.7982 209.739 52.8497 207.915 58.9528C206.092 65.0559 203.661 73.2951 200.623 83.6703C197.888 93.7404 195.153 104.726 192.418 116.627L248.026 116.169L249.849 117.542L246.203 135.852L192.418 135.394L187.404 138.14L159.6 278.664C158.081 289.344 161.576 294.684 170.084 294.684C174.338 294.684 179.808 292.396 186.493 287.818C193.482 282.936 203.054 274.697 215.208 263.101L221.134 263.559Z" fill="black"/>
</svg>
