<svg width="259" height="259" viewBox="0 0 259 259" fill="none" xmlns="http://www.w3.org/2000/svg">
<circle cx="129.496" cy="129.664" r="129" fill="white"/>
<path d="M113.999 63.8718C111.909 70.3532 112.644 76.2887 116.206 81.6782C119.768 87.0678 124.925 92.4419 131.678 97.8005C138.748 102.996 146.139 108.429 153.851 114.097C161.882 119.603 169.04 125.755 175.328 132.554C181.693 139.113 186.192 146.527 188.825 154.798C191.698 163.145 191.392 172.72 187.907 183.522C184.036 195.525 177.701 204.48 168.904 210.389C160.348 216.374 150.649 219.739 139.808 220.482C129.284 221.063 118.981 219.727 108.899 216.475C99.2973 213.377 90.6826 209.273 83.0551 204.162C75.7452 198.889 69.6317 193.604 64.7145 188.307L57.1297 195.799L43.4467 191.385C45.0265 181.558 46.281 171.097 47.2103 160C48.3797 148.981 48.914 138.287 48.8134 127.919L61.8575 128.151C65.0478 144.552 69.4461 158.03 75.0524 168.584C80.9761 178.976 87.2755 186.972 93.9504 192.57C100.865 198.246 107.324 202.052 113.325 203.988C121.487 206.621 129.226 206.865 136.544 204.72C143.939 202.335 148.953 197.062 151.586 188.9C153.832 181.939 153.092 175.604 149.368 169.897C145.883 164.268 140.606 158.855 133.536 153.659C126.784 148.3 119.431 142.748 111.478 137.002C103.526 131.256 96.2468 125.065 89.6416 118.429C83.2764 111.87 78.6574 104.417 75.7846 96.0694C72.9892 87.4818 73.2951 77.9068 76.7023 67.3446C80.4193 55.8221 86.4788 47.3081 94.8806 41.8025C103.522 36.3743 113.345 33.4472 124.349 33.0214C135.353 32.5956 146.496 34.2024 157.778 37.842C166.66 40.7072 174.032 44.1454 179.894 48.1566C185.755 52.1678 190.262 56.2719 193.414 60.469L198.745 55.033L212.428 59.447C210.763 68.716 209.338 78.0625 208.154 87.4865C207.209 96.9879 206.62 106.207 206.388 115.143L193.344 114.91C191.261 97.5414 187.056 83.4635 180.73 72.6767C174.721 61.7272 165.475 54.2391 152.992 50.2123C142.67 46.8825 134.133 46.6463 127.38 49.5037C120.628 52.361 116.168 57.1504 113.999 63.8718Z" fill="black"/>
</svg>
