<svg width="591" height="591" viewBox="0 0 591 591" fill="none" xmlns="http://www.w3.org/2000/svg">
<circle cx="295.513" cy="295.473" r="295.409" fill="#AFFF97"/>
<path fill-rule="evenodd" clip-rule="evenodd" d="M355.067 497.278C370.268 491.232 383.853 481.392 395.821 467.759C404.846 457.478 412.587 445.279 419.044 431.161C425.725 417.24 430.73 401.847 434.058 384.982C438.656 361.713 440.288 338.216 438.956 314.489C437.596 290.344 433.672 268.893 427.184 250.139C426.459 248.711 425.467 248.038 424.207 248.12C423.145 247.978 422.319 248.242 421.73 248.913C420.945 249.807 420.804 250.87 421.305 252.102C424.953 262.822 427.576 275.612 429.175 290.47C430.746 304.908 431.323 320.254 430.905 336.508C430.46 352.342 428.644 368.16 425.457 383.961C422.101 400.406 417.573 415.03 411.874 427.834C406.397 440.834 400.029 451.469 392.77 459.739C379.036 475.383 363.105 483.163 344.977 483.078C327.072 483.189 308.83 474.892 290.253 458.188C303.214 453.341 315.128 446.982 325.996 439.11C337.059 431.015 346.908 422.05 355.54 412.216C367.116 399.03 376.399 384.623 383.391 368.996C390.355 352.949 394.479 336.981 395.764 321.092C397.244 304.98 395.297 289.618 389.921 275.006C389.681 274.318 389.432 273.633 389.176 272.953C390.056 280.268 391.409 288.325 392.474 293.928L388.189 290.2C391.889 308.014 390.722 326.349 384.688 345.204C378.558 364.358 368.43 381.981 354.304 398.072C345.672 407.906 335.712 416.773 324.424 424.672C313.137 432.571 300.705 439.069 287.128 444.167L283.433 445.672L279.067 446.588C274.319 441.629 269.74 436.026 265.33 429.78C260.92 423.534 256.37 416.77 251.682 409.489C240.997 391.007 232.664 371.424 226.682 350.74C237.855 344.324 248.54 336.885 258.737 328.425C268.934 319.964 278.447 310.705 287.276 300.648C307.68 277.405 323.528 252.14 334.818 224.853L343.036 229.692C346.11 231.599 348.974 233.52 351.629 235.455C354.284 237.39 356.84 239.436 359.299 241.594C362.302 244.231 365.084 246.958 367.643 249.775L365.923 245.664L369.686 242.331C367.6 240.151 365.385 238.033 363.043 235.977C361.255 234.407 359.369 232.95 357.384 231.604C355.596 230.034 353.822 228.674 352.061 227.524C349.63 225.786 347.213 224.257 344.809 222.939C342.182 221.424 339.666 220.007 337.262 218.688C341.027 208.539 344.248 198.109 346.923 187.398C352.049 165.78 354.334 145.823 353.776 127.525C352.994 109.032 350.068 93.2063 344.998 80.0492C339.9 66.4724 333.328 56.1524 325.282 49.0894C316.119 41.0454 305.591 37.937 293.698 39.7642C281.778 41.1718 269.735 48.8039 257.571 62.6606C251.097 70.0359 244.647 79.4116 238.222 90.7877C231.77 101.744 225.678 114.995 219.945 130.541C215.592 141.361 211.908 152.769 208.895 164.766C205.659 176.567 202.87 188.76 200.527 201.346C196.358 202.038 192.202 202.941 188.059 204.053C184.113 204.942 180.279 205.929 176.556 207.014C156.684 212.521 139.663 219.74 125.492 228.67C111.322 237.599 99.8223 247.093 90.9935 257.15C80.9875 268.548 74.1702 280.371 70.5414 292.619C67.1089 304.643 66.6986 316.155 69.3107 327.154C71.8954 337.733 77.3225 346.652 85.5918 353.912C93.8611 361.171 104.289 365.972 116.874 368.314L124.551 369.711L124.928 370.635C127.229 383.34 131.741 396.007 138.463 408.635C145.157 420.843 153.757 431.558 164.261 440.78C174.989 450.197 187.79 457.477 202.666 462.621C217.317 467.569 233.541 469.147 251.337 467.358C252.929 469.151 254.632 471.042 256.448 473.031L261.811 477.74C276.786 490.885 292.272 498.939 308.269 501.903C324.463 504.642 340.063 503.101 355.067 497.278ZM335.78 200.767C334.402 205.492 332.827 210.442 331.056 215.614C313.668 207.473 294.989 202.156 275.017 199.661C254.823 196.971 235.212 196.772 216.184 199.063C218.514 176.574 223.039 155.417 229.757 135.592C235.015 119.235 240.548 105.493 246.358 94.3678C252.139 82.8229 258.071 73.5862 264.153 66.6579C273.963 55.4831 283.583 49.4837 293.012 48.6596C302.414 47.4159 311.026 50.2274 318.849 57.0943C329.8 66.7078 337.607 83.0587 342.27 106.147C346.933 129.235 345.938 156.063 339.286 186.63C338.328 191.329 337.159 196.041 335.78 200.767ZM192.966 284.34C192.843 308.371 194.652 331.329 198.394 353.212C176.952 360.508 154.861 362.682 132.121 359.736L130.527 359.523C127.99 336.719 133.196 317.941 146.145 303.19C150.657 298.05 155.461 294.155 160.557 291.505C161.985 290.78 162.882 289.984 163.247 289.118C163.389 288.055 163.124 287.229 162.454 286.64C161.56 285.856 160.609 285.812 159.6 286.51C155.709 288.238 152.264 290.359 149.267 292.872C146.046 295.189 143.062 297.912 140.315 301.041C127.366 315.791 121.642 334.708 123.144 357.791C111.79 354.947 102.872 350.68 96.3911 344.991C85.2163 335.181 80.3966 322.64 81.932 307.367C83.6636 291.871 90.9057 276.859 103.658 262.332C112.095 252.722 122.796 243.912 135.762 235.904C148.924 227.672 164.42 221.291 182.248 216.759L198.411 212.547C194.876 235.957 193.061 259.888 192.966 284.34ZM328.612 221.779C317.883 247.976 303.003 271.914 283.972 293.593C275.34 303.427 266.023 312.462 256.022 320.699C246.021 328.936 235.42 336.053 224.22 342.049C218.631 320.918 215.099 299.021 213.625 276.358C212.347 253.471 212.789 231.104 214.95 209.258C233.924 206.128 253.27 205.501 272.991 207.38C292.684 208.838 311.224 213.638 328.612 221.779ZM229.938 439.669C233.203 444.514 236.455 449.149 239.693 453.575C224.333 453.941 210.279 451.695 197.529 446.834C184.78 441.974 173.712 435.423 164.325 427.183C147.34 412.272 137.017 394.504 133.357 373.88L132.858 371.068C144.523 372.205 155.895 372.098 166.976 370.745C178.253 369.168 189.35 366.445 200.267 362.574C204.707 385.465 211.514 405.885 220.689 423.833C223.786 429.321 226.868 434.6 229.938 439.669Z" fill="black"/>
</svg>
