<svg width="320" height="320" viewBox="0 0 320 320" fill="none" xmlns="http://www.w3.org/2000/svg">
<circle cx="160.26" cy="159.748" r="159.35" fill="white"/>
<path d="M53.2721 211.639C50.8076 209.899 49.2438 207.537 48.5808 204.553C48.0719 201.678 48.7334 198.942 50.5654 196.347C52.1819 194.057 54.4838 192.594 57.4714 191.958L185.349 159.386C192.11 157.981 198.423 155.576 204.29 152.168C210.265 148.608 214.814 144.614 217.94 140.187C223.005 133.011 226.013 125.642 226.966 118.08C228.073 110.627 227.086 103.525 224.004 96.7748C221.184 89.9807 216.462 84.2461 209.839 79.571C203.369 75.0047 196.253 72.4982 188.491 72.0518C180.991 71.5614 173.761 72.9771 166.801 76.2989C159.995 79.7295 154.167 84.88 149.318 91.7504C147.593 94.1932 145.291 95.6563 142.411 96.1398C139.532 96.6233 136.783 95.9409 134.164 94.0926C131.699 92.353 130.136 89.9912 129.473 87.007C128.964 84.1317 129.571 81.4726 131.296 79.0297C138.516 68.8005 147.292 61.2708 157.625 56.4407C167.957 51.6106 178.722 49.6016 189.918 50.4135C201.269 51.3342 211.95 55.328 221.962 62.395C231.974 69.4621 239.215 78.0038 243.684 88.0202C248.306 98.1454 249.918 108.776 248.52 119.912C247.275 131.157 242.935 142.046 235.5 152.581C231.943 157.619 227.702 161.831 222.774 165.215C218.001 168.708 212.719 171.613 206.929 173.931C201.247 176.097 195.495 177.87 189.674 179.251L82.5162 205.518L154.835 256.563C157.3 258.303 158.733 260.687 159.134 263.715C159.689 266.852 159.158 269.565 157.542 271.855C155.71 274.451 153.277 275.936 150.243 276.311C147.363 276.794 144.691 276.166 142.227 274.426L53.2721 211.639Z" fill="black"/>
</svg>
