<svg width="253" height="252" viewBox="0 0 253 252" fill="none" xmlns="http://www.w3.org/2000/svg">
<circle cx="126.412" cy="125.945" r="125.824" fill="white"/>
<path d="M148.296 191.089L145.963 174.403C143.552 181.661 139.663 187.223 134.297 191.089C129.709 194.323 124.498 195.941 118.665 195.941C109.176 195.941 101.477 191.404 95.5661 182.332C90.9774 175.31 88.6831 164.029 88.6831 148.487V81.2707C88.6831 77.2471 87.711 74.3281 85.7666 72.5136C84.2889 71.1724 80.7114 69.989 75.0339 68.9634V60.2064C84.2889 60.1275 93.8551 58.5102 103.732 55.3545V147.659C103.732 170.459 109.371 181.858 120.648 181.858C125.314 181.858 129.825 179.413 134.18 174.521C138.847 169.236 142.386 161.899 144.797 152.511V81.2707C144.797 76.8527 143.824 73.697 141.88 71.8036C140.48 70.3835 137.214 69.4368 132.081 68.9634V60.2064C141.647 60.1275 150.979 58.5102 160.079 55.3545V164.226C160.079 170.853 160.857 175.429 162.412 177.953C163.968 180.478 167.079 181.937 171.745 182.332V191.089H148.296Z" fill="black"/>
</svg>
