<svg width="996" height="587" viewBox="0 0 996 587" fill="none" xmlns="http://www.w3.org/2000/svg">
<g clip-path="url(#clip0_219_32637)">
<path d="M99.6418 0.357422H0V98.2129H99.6418V0.357422Z" fill="#B9B9B9"/>
<path d="M99.6418 98.2129H0V196.068H99.6418V98.2129Z" fill="#E1E1E1"/>
<path d="M99.6418 342.857H0V440.713H99.6418V342.857Z" fill="white"/>
<path d="M99.6418 196.068H0V293.924H99.6418V196.068Z" fill="#B9B9B9"/>
<path d="M99.6418 293.926H0V391.781H99.6418V293.926Z" fill="#E1E1E1"/>
<path d="M99.6418 489.646H0V587.502H99.6418V489.646Z" fill="#E1E1E1"/>
<path d="M99.6418 391.779H0V489.635H99.6418V391.779Z" fill="#B9B9B9"/>
<path d="M199.283 0.357422H99.6416V98.2129H199.283V0.357422Z" fill="#E1E1E1"/>
<path d="M199.284 98.2129H99.6421V196.068H199.284V98.2129Z" fill="#B9B9B9"/>
<path d="M199.284 196.068H99.6421V293.924H199.284V196.068Z" fill="#E1E1E1"/>
<path d="M199.284 293.926H99.6421V391.781H199.284V293.926Z" fill="#B9B9B9"/>
<path d="M199.284 391.779H99.6421V489.635H199.284V391.779Z" fill="#E1E1E1"/>
<path d="M298.913 0.357422H199.271V98.2129H298.913V0.357422Z" fill="#B9B9B9"/>
<path d="M298.913 98.2129H199.271V196.068H298.913V98.2129Z" fill="#E1E1E1"/>
<path d="M298.913 196.068H199.271V293.924H298.913V196.068Z" fill="#B9B9B9"/>
<path d="M298.913 293.926H199.271V391.781H298.913V293.926Z" fill="#E1E1E1"/>
<path d="M298.913 391.779H199.271V489.635H298.913V391.779Z" fill="#B9B9B9"/>
<path d="M398.555 0.357422H298.913V98.2129H398.555V0.357422Z" fill="#E1E1E1"/>
<path d="M398.555 98.2129H298.913V196.068H398.555V98.2129Z" fill="#B9B9B9"/>
<path d="M398.555 196.068H298.913V293.924H398.555V196.068Z" fill="#E1E1E1"/>
<path d="M398.555 293.926H298.913V391.781H398.555V293.926Z" fill="#B9B9B9"/>
<path d="M398.555 391.779H298.914V489.635H398.555V391.779Z" fill="#E1E1E1"/>
<path d="M498.185 0.357422H398.543V98.2129H498.185V0.357422Z" fill="#B9B9B9"/>
<path d="M498.185 98.2129H398.543V196.068H498.185V98.2129Z" fill="#E1E1E1"/>
<path d="M498.185 196.068H398.543V293.924H498.185V196.068Z" fill="#B9B9B9"/>
<path d="M498.185 293.926H398.543V391.781H498.185V293.926Z" fill="#E1E1E1"/>
<path d="M498.185 391.779H398.543V489.635H498.185V391.779Z" fill="#B9B9B9"/>
<path d="M597.827 0.357422H498.185V98.2129H597.827V0.357422Z" fill="#E1E1E1"/>
<path d="M597.827 98.2129H498.185V196.068H597.827V98.2129Z" fill="#B9B9B9"/>
<path d="M597.827 196.068H498.185V293.924H597.827V196.068Z" fill="#E1E1E1"/>
<path d="M597.827 293.926H498.185V391.781H597.827V293.926Z" fill="#B9B9B9"/>
<path d="M597.827 391.779H498.185V489.635H597.827V391.779Z" fill="#E1E1E1"/>
<path d="M697.457 0.357422H597.815V98.2129H697.457V0.357422Z" fill="#B9B9B9"/>
<path d="M697.457 98.2129H597.815V196.068H697.457V98.2129Z" fill="#E1E1E1"/>
<path d="M697.457 196.068H597.815V293.924H697.457V196.068Z" fill="#B9B9B9"/>
<path d="M697.457 293.926H597.815V391.781H697.457V293.926Z" fill="#E1E1E1"/>
<path d="M697.457 391.779H597.815V489.635H697.457V391.779Z" fill="#B9B9B9"/>
<path d="M199.284 489.646H99.6421V587.502H199.284V489.646Z" fill="#B9B9B9"/>
<path d="M298.913 489.646H199.271V587.502H298.913V489.646Z" fill="#E1E1E1"/>
<path d="M398.555 489.646H298.913V587.502H398.555V489.646Z" fill="#B9B9B9"/>
<path d="M498.185 489.646H398.543V587.502H498.185V489.646Z" fill="#E1E1E1"/>
<path d="M597.827 489.646H498.185V587.502H597.827V489.646Z" fill="#B9B9B9"/>
<path d="M697.457 489.646H597.815V587.502H697.457V489.646Z" fill="#E1E1E1"/>
<path d="M797.098 0.357422H697.457V98.2129H797.098V0.357422Z" fill="#E1E1E1"/>
<path d="M797.098 98.2129H697.457V196.068H797.098V98.2129Z" fill="#B9B9B9"/>
<path d="M797.098 196.068H697.457V293.924H797.098V196.068Z" fill="#E1E1E1"/>
<path d="M797.098 293.926H697.457V391.781H797.098V293.926Z" fill="#B9B9B9"/>
<path d="M797.098 391.779H697.457V489.635H797.098V391.779Z" fill="#E1E1E1"/>
<path d="M896.74 0.357422H797.099V98.2129H896.74V0.357422Z" fill="#B9B9B9"/>
<path d="M896.74 98.2129H797.099V196.068H896.74V98.2129Z" fill="#E1E1E1"/>
<path d="M896.74 196.068H797.099V293.924H896.74V196.068Z" fill="#B9B9B9"/>
<path d="M896.74 293.926H797.099V391.781H896.74V293.926Z" fill="#E1E1E1"/>
<path d="M896.74 391.779H797.098V489.635H896.74V391.779Z" fill="#B9B9B9"/>
<path d="M996.37 0.357422H896.729V98.2129H996.37V0.357422Z" fill="#E1E1E1"/>
<path d="M996.37 98.2129H896.729V196.068H996.37V98.2129Z" fill="#B9B9B9"/>
<path d="M996.37 196.068H896.729V293.924H996.37V196.068Z" fill="#E1E1E1"/>
<path d="M996.37 293.926H896.729V391.781H996.37V293.926Z" fill="#B9B9B9"/>
<path d="M996.37 391.779H896.729V489.635H996.37V391.779Z" fill="#E1E1E1"/>
<path d="M797.098 489.646H697.457V587.502H797.098V489.646Z" fill="#B9B9B9"/>
<path d="M896.74 489.646H797.099V587.502H896.74V489.646Z" fill="#E1E1E1"/>
<path d="M996.37 489.646H896.729V587.502H996.37V489.646Z" fill="#B9B9B9"/>
</g>
<defs>
<clipPath id="clip0_219_32637">
<rect width="996" height="587" fill="white"/>
</clipPath>
</defs>
</svg>
