<svg width="430" height="430" viewBox="0 0 430 430" fill="none" xmlns="http://www.w3.org/2000/svg">
<g clip-path="url(#clip0_504_299832)">
<rect width="430" height="430" fill="#504D5C"/>
<path d="M-7.71112 38.1044L192.24 187.737M192.24 187.737L319.361 -6.91797M192.24 187.737L47.9044 267.187L-7.71112 436.682M192.24 187.737L198.82 194.451M55.8495 95.0448L67.7672 -43.9941L261.098 -21.484L338.129 103.836M55.8495 95.0448L338.129 103.836M55.8495 95.0448V267.187M369.891 368.995L453.104 453.898L438.538 106.962L338.129 103.836M369.891 368.995L438.538 267.187L338.129 103.836M369.891 368.995L198.82 194.451M-2.41441 106.962L55.8495 267.187M55.8495 267.187L95.5749 444.628M198.82 194.451L296.85 444.628M-7.71112 240.704L198.82 332.072L338.129 103.836" stroke="black" stroke-width="10"/>
<path d="M368.118 183.91L318.463 90.427V89.7155L257.408 60.4727C253.246 79.2632 235.747 93.363 214.781 93.363C193.815 93.363 176.722 79.5741 172.313 61.1013L111.113 89.9642H110.961L61.0669 183.91L111.113 208.821V369.529H318.463V208.621L368.118 183.903V183.91Z" fill="#D0D8FF" stroke="black" stroke-width="5" stroke-linecap="square" stroke-linejoin="bevel"/>
</g>
<defs>
<clipPath id="clip0_504_299832">
<rect width="430" height="430" fill="white"/>
</clipPath>
</defs>
</svg>
