<svg width="430" height="430" viewBox="0 0 430 430" fill="none" xmlns="http://www.w3.org/2000/svg">
<rect width="430" height="430" fill="#D0D8FF"/>
<mask id="mask0_504_299838" style="mask-type:alpha" maskUnits="userSpaceOnUse" x="59" y="62" width="316" height="303">
<path d="M365 63.1855L371.445 62.9902C372.747 63.6413 373.724 65.2689 374.375 67.873L368.516 79.3965V79.2012L355.82 103.615C336.68 139.032 324.31 162.665 318.711 174.514L312.07 187.209C304.909 201.011 292.734 225.36 275.547 260.256C275.286 264.683 275.156 271.324 275.156 280.178V360.842C274.505 362.925 273.203 363.967 271.25 363.967L159.336 364.748C156.471 361.102 155.039 356.936 155.039 352.248L155.43 327.834V322.17L155.625 316.311L155.82 302.053C155.82 274.839 148.854 245.673 134.922 214.553C131.927 208.042 127.565 198.863 121.836 187.014L92.7344 128.811C91.9531 127.378 89.8698 123.407 86.4844 116.896C83.099 110.386 79.388 103.355 75.3516 95.8027V95.998C64.9349 80.1126 59.7266 69.5658 59.7266 64.3574C59.7266 63.7064 61.8099 63.3809 65.9766 63.3809H116.172C143.906 63.3809 164.805 63.5762 178.867 63.9668C183.034 64.748 193.906 96.0632 211.484 157.912L220.273 188.967C233.555 153.55 247.552 112.014 262.266 64.3574C262.396 63.3158 272.031 62.7949 291.172 62.7949H316.172C322.161 62.7949 327.174 62.9251 331.211 63.1855H365Z" fill="#8682EF"/>
</mask>
<g mask="url(#mask0_504_299838)">
<rect width="467.77" height="475.322" fill="#504D5C"/>
<path d="M-7.71112 38.1044L192.24 187.737M192.24 187.737L319.361 -6.91797M192.24 187.737L47.9044 267.187L-7.71112 436.682M192.24 187.737L198.82 194.451M55.8495 95.0448L67.7672 -43.9941L261.098 -21.484L338.129 103.836M55.8495 95.0448L338.129 103.836M55.8495 95.0448V267.187M369.891 368.995L453.104 453.898L438.538 106.962L338.129 103.836M369.891 368.995L438.538 267.187L338.129 103.836M369.891 368.995L198.82 194.451M-2.41441 106.962L55.8495 267.187M55.8495 267.187L95.5749 444.628M198.82 194.451L296.85 444.628M-7.71112 240.704L198.82 332.072L338.129 103.836" stroke="black" stroke-width="10"/>
<path d="M365 65.1855H365.03L365.061 65.1846L370.874 65.0085C371.281 65.3784 371.79 66.1482 372.242 67.655L366.829 78.3L366.741 78.2785L354.061 102.664C354.058 102.669 354.056 102.674 354.053 102.679C334.941 138.043 322.553 161.706 316.92 173.623L310.298 186.282L310.295 186.288C303.123 200.111 290.94 224.477 273.753 259.372L273.574 259.735L273.55 260.138C273.286 264.626 273.156 271.315 273.156 280.178V360.512C272.931 361.116 272.668 361.443 272.442 361.624C272.204 361.814 271.854 361.967 271.25 361.967L271.236 361.967L160.332 362.741C158.136 359.647 157.042 356.174 157.039 352.263C157.039 352.258 157.039 352.253 157.039 352.248L157.429 327.866L157.43 327.85V327.834V322.203L157.624 316.377L157.625 316.358L157.625 316.338L157.82 302.08L157.82 302.066V302.053C157.82 274.496 150.766 245.049 136.747 213.736L136.743 213.726L136.739 213.717C133.736 207.189 129.367 197.996 123.637 186.143L123.631 186.131L123.625 186.119L94.5232 127.916L94.5073 127.884L94.4902 127.853C93.7207 126.442 91.6484 122.492 88.2588 115.974C84.8694 109.456 81.1549 102.418 77.1154 94.86L77.0137 94.8855C71.8316 86.982 67.9776 80.4552 65.4261 75.2883C63.2736 70.9296 62.1484 67.7307 61.8258 65.5683C62.7203 65.4501 64.0858 65.3809 65.9766 65.3809H116.172C143.622 65.3809 164.356 65.5723 178.385 65.9543C178.549 66.1076 178.789 66.3828 179.101 66.8318C179.738 67.7481 180.517 69.1602 181.438 71.1264C183.274 75.0433 185.546 80.8859 188.257 88.695C193.674 104.297 200.774 127.544 209.561 158.459L218.349 189.511L220.008 195.372L222.146 189.669C235.371 154.404 249.299 113.094 263.93 65.745C264.075 65.715 264.251 65.6825 264.461 65.6487C265.576 65.4704 267.306 65.3119 269.698 65.1826C274.46 64.9252 281.61 64.7949 291.172 64.7949H316.172C322.137 64.7949 327.104 64.9247 331.082 65.1814L331.146 65.1855H331.211H365ZM178.26 65.8509C178.26 65.8507 178.262 65.8522 178.267 65.8557C178.262 65.8527 178.26 65.851 178.26 65.8509ZM263.416 65.8816C263.416 65.8815 263.419 65.88 263.426 65.8774C263.42 65.8804 263.416 65.8817 263.416 65.8816Z" stroke="black" stroke-width="4"/>
</g>
</svg>
